# Exported from Wings 3D 2.1.5
mtllib bolt.mtl
o bolt
#28 vertices, 44 faces
v 0.16579814 -5.8502547e-18 8.28486346
v -0.16579814 -5.8502547e-18 8.28486346
v -3.0926373e-16 0.15876067 8.28486346
v 0.49939200 -5.8502547e-18 -4.37990602
v -0.49939200 -5.8502547e-18 -4.37990602
v -3.8947734e-16 0.43253911 -4.37990602
v -3.8947734e-16 0.44322455 -6.81561512
v 0.83008539 -5.8502547e-18 -6.81561512
v -0.83008539 -5.8502547e-18 -6.81561512
v 0.29131920 -5.3412825e-18 -5.72192852
v -0.29131920 -5.3412825e-18 -5.72192852
v -3.4272957e-16 0.22762394 -5.71973367
v -2.4195425e-16 -5.8502547e-18 -8.69315721
v -2.4984166e-16 -5.8502547e-18 8.48134165
v -3.0926373e-16 -0.15876067 8.28486346
v -3.8947734e-16 -0.43253911 -4.37990602
v -3.8947734e-16 -0.44322455 -6.81561512
v -3.4272957e-16 -0.22762394 -5.71973367
v 2.6761295e-16 1.09124073 6.67043096
v 2.3618885e-16 -2.6253382e-16 7.60874629
v 2.3618885e-16 7.6420044e-16 -0.10273111
v 1.3397450e-16 -1.09124073 6.67043096
v 1.09124073 -2.2223586e-17 6.67043096
v -2.0494717e-17 -5.8502547e-18 7.60874629
v 1.0062395e-15 -5.8502547e-18 -0.10273111
v -1.09124073 -2.2223586e-17 6.67043096
v 0.48668959 -5.5957686e-18 -6.51960603
v -0.48668959 -5.5957686e-18 -6.51960603
vn 0.92679634 0.0000000e+0 0.37556430
vn -0.92679634 -7.9836447e-17 0.37556430
vn -1.2792604e-16 0.96869737 0.24824466
vn -1.6519417e-16 -5.5064725e-17 1.00000000
vn -1.2792604e-16 -0.96869737 0.24824466
vn 0.65135238 0.75202488 -0.10098841
vn 0.99967073 0.0000000e+0 2.5659872e-2
vn 0.65135238 -0.75202488 -0.10098841
vn 0.99967073 0.0000000e+0 2.5659872e-2
vn 0.99967073 0.0000000e+0 2.5659872e-2
vn 0.99967073 0.0000000e+0 2.5659872e-2
vn -0.99967073 0.0000000e+0 2.5659872e-2
vn -0.65135238 0.75202488 -0.10098841
vn -0.65135238 -0.75202488 -0.10098841
vn -0.99967073 0.0000000e+0 2.5659872e-2
vn -0.99967073 0.0000000e+0 2.5659872e-2
vn -0.99967073 0.0000000e+0 2.5659872e-2
vn 0.63126261 0.76767244 -0.11039266
vn -0.63126261 0.76767244 -0.11039266
vn -0.63126261 0.76767244 -0.11039266
vn 0.63126261 0.76767244 -0.11039266
vn -2.2029256e-16 0.99976643 2.1612276e-2
vn -2.2029256e-16 0.99976643 2.1612276e-2
vn 0.55464821 0.78863693 0.26536233
vn -0.55464821 0.78863693 0.26536233
vn 0.55464821 0.78863693 0.26536233
vn -0.55464821 0.78863693 0.26536233
vn 0.46112014 0.86360084 -0.20386712
vn -0.46112014 0.86360084 -0.20386712
vn 0.55464821 0.78863693 0.26536233
vn -0.55464821 0.78863693 0.26536233
vn 0.46112014 0.86360084 -0.20386712
vn 0.46112014 -0.86360084 -0.20386712
vn 0.41333255 0.77410269 0.47950102
vn 0.41333255 -0.77410269 0.47950102
vn -0.41333255 0.77410269 0.47950102
vn -0.46112014 0.86360084 -0.20386712
vn -0.41333255 -0.77410269 0.47950102
vn -0.46112014 -0.86360084 -0.20386712
vn 0.62688837 0.77882917 2.0883006e-2
vn 0.62688837 0.77882917 2.0883006e-2
vn 0.62688837 0.77882917 2.0883006e-2
vn 0.62688837 0.77882917 2.0883006e-2
vn 0.62688837 -0.77882917 2.0883006e-2
vn 0.62688837 -0.77882917 2.0883006e-2
vn 0.62688837 -0.77882917 2.0883006e-2
vn 0.62688837 -0.77882917 2.0883006e-2
vn -0.62688837 0.77882917 2.0883006e-2
vn -0.62688837 0.77882917 2.0883006e-2
vn -0.62688837 0.77882917 2.0883006e-2
vn -0.62688837 -0.77882917 2.0883006e-2
vn -0.62688837 -0.77882917 2.0883006e-2
vn -0.62688837 -0.77882917 2.0883006e-2
vn -0.62688837 0.77882917 2.0883006e-2
vn -0.62688837 -0.77882917 2.0883006e-2
vn 0.61568725 0.78781057 1.6843797e-2
vn -0.61568725 0.78781057 1.6843797e-2
vn 0.61568725 0.78781057 1.6843797e-2
vn -0.61568725 0.78781057 1.6843797e-2
vn 0.46112014 0.86360084 -0.20386712
vn -0.46112014 0.86360084 -0.20386712
vn 0.46112014 -0.86360084 -0.20386712
vn -0.46112014 -0.86360084 -0.20386712
vn 0.63126261 -0.76767244 -0.11039266
vn -0.63126261 -0.76767244 -0.11039266
vn -0.63126261 -0.76767244 -0.11039266
vn 0.63126261 -0.76767244 -0.11039266
vn -2.2029256e-16 -0.99976643 2.1612276e-2
vn -2.2029256e-16 -0.99976643 2.1612276e-2
vn 0.55464821 -0.78863693 0.26536233
vn -0.55464821 -0.78863693 0.26536233
vn 0.55464821 -0.78863693 0.26536233
vn -0.55464821 -0.78863693 0.26536233
vn 0.46112014 -0.86360084 -0.20386712
vn -0.46112014 -0.86360084 -0.20386712
vn 0.55464821 -0.78863693 0.26536233
vn -0.55464821 -0.78863693 0.26536233
vn 0.61568725 -0.78781057 1.6843797e-2
vn -0.61568725 -0.78781057 1.6843797e-2
vn 0.61568725 -0.78781057 1.6843797e-2
vn -0.61568725 -0.78781057 1.6843797e-2
vn 1.00000000 -2.8796671e-17 2.9294919e-33
vn -1.00000000 6.1232340e-17 1.6248101e-17
vn -1.00000000 6.1232340e-17 1.6248101e-17
vn 1.00000000 -6.1232340e-17 1.3684555e-48
vn 1.00000000 -6.1232340e-17 1.3684555e-48
vn -1.00000000 6.1232340e-17 3.7721992e-17
vn 1.00000000 -6.1232340e-17 1.3684555e-48
vn 1.00000000 -6.1232340e-17 1.3684555e-48
vn -1.00000000 6.1232340e-17 -5.2257901e-18
vn 1.00000000 -9.3668009e-17 -2.9294919e-33
vn -1.00000000 6.1232340e-17 1.6248101e-17
vn -1.00000000 6.1232340e-17 1.6248101e-17
vn -1.5004326e-17 -1.00000000 -2.1971189e-33
vn 0.0000000e+0 1.00000000 -7.5161635e-18
vn 0.0000000e+0 1.00000000 -7.5161635e-18
vn 0.0000000e+0 -1.00000000 3.8476254e-34
vn 0.0000000e+0 -1.00000000 3.8476254e-34
vn 0.0000000e+0 1.00000000 -1.7449711e-17
vn 0.0000000e+0 -1.00000000 3.8476254e-34
vn 0.0000000e+0 -1.00000000 3.8476254e-34
vn 0.0000000e+0 1.00000000 2.4173836e-18
vn 1.5004326e-17 -1.00000000 2.9666440e-33
vn 0.0000000e+0 1.00000000 -7.5161635e-18
vn 0.0000000e+0 1.00000000 -7.5161635e-18
vn 0.52353143 0.78923463 0.32097280
vn 0.52353143 -0.78923463 0.32097280
vn 0.52353143 0.78923463 0.32097280
vn 0.52353143 -0.78923463 0.32097280
vn -0.52353143 0.78923463 0.32097280
vn -0.52353143 -0.78923463 0.32097280
vn -0.52353143 0.78923463 0.32097280
vn -0.52353143 -0.78923463 0.32097280
g bolt_default
usemtl default
s 1
f 4//6 10//40 6//18
f 6//21 10//43 12//58
f 7//26 12//56 10//42
f 7//29 13//61 9//37
f 7//30 27//108 8//34
f 8//33 17//74 13//62
f 11//51 16//65 5//14
f 16//66 11//52 18//79
f 17//73 18//81 11//53
f 17//71 28//111 9//38
f 19//84 22//93 20//87
f 21//90 22//92 19//83
f 24//97 25//100 23//94
f 24//98 26//103 25//101
f 27//106 7//24 10//41
f 28//113 17//77 11//55
s 2
f 4//8 16//64 10//44
f 6//19 11//48 5//13
f 8//32 13//60 7//28
f 8//35 27//109 17//76
f 9//36 28//110 7//25
f 10//45 17//70 27//107
f 10//46 18//78 17//72
f 11//54 7//31 28//112
f 11//50 12//59 7//27
f 12//57 11//49 6//20
f 13//63 17//75 9//39
f 18//80 10//47 16//67
f 20//85 21//88 19//82
f 20//86 22//91 21//89
f 23//96 26//105 24//99
f 25//102 26//104 23//95
s 3
f 1//1 4//9 3//3
f 1//1 15//5 4//7
f 2//2 14//4 3//3
f 2//2 15//5 14//4
f 3//3 5//12 2//2
f 3//3 14//4 1//1
f 5//16 3//3 6//22
f 5//15 15//5 2//2
f 6//23 3//3 4//11
f 14//4 15//5 1//1
f 15//5 5//17 16//68
f 16//69 4//10 15//5
