# Exported from Wings 3D 2.1.5
mtllib bow_01.mtl
o bow_01
#69 vertices, 134 faces
v 0.83089579 0.20193065 0.11782091
v 0.86232969 -7.3293979e-4 -9.2693347e-2
v -0.86232978 -7.3293979e-4 -9.2693347e-2
v -0.83089587 0.20193063 0.11782091
v 0.83089579 -0.20193080 0.26460588
v -0.83089587 -0.20193082 0.26460588
v -6.59214276 0.21002236 -1.44584597
v -6.98735521 -7.3293979e-4 -1.47807099
v -6.60957512 -7.3293979e-4 -1.33274370
v -6.59196324 -0.15436476 -1.44699705
v -1.25156054 -0.38509006 0.34639753
v -2.01288035 -7.3293979e-4 1.45859666
v -2.17529390 -0.42931526 0.93671682
v -1.25156054 0.38508989 0.34639753
v -2.17528802 0.42931522 0.78955264
v -3.13488539 -7.3293979e-4 1.57089478
v -3.15753967 0.42410591 1.06976407
v -4.05880802 0.41157819 1.08927558
v -4.96342272 0.37118672 0.49373922
v -5.14543651 -7.3293979e-4 0.63222454
v -4.14674910 -7.3293979e-4 1.37651993
v -4.10429373 -0.39758333 0.99959308
v -5.61658364 -0.30615293 -0.24907160
v -4.96342272 -0.36640160 0.49373922
v -5.61699042 0.33563791 -0.24882417
v -6.13177966 0.28699972 -1.13393126
v -5.98968778 -7.3293979e-4 -1.28192380
v -6.13114898 -0.24153153 -1.13459825
v -3.89088731 -7.3293979e-4 0.69823448
v -4.73927059 7.2286443e-2 0.23201509
v -3.13016877 -7.3293979e-4 0.62341389
v -2.30529904 -7.3293979e-4 0.40706352
v -1.58224410 -7.3293979e-4 -0.10935989
v -6.23114822 -7.3293979e-4 -1.03044379
v -5.38237968 -7.3293979e-4 -0.39032437
v 6.59214074 0.14248977 -1.44584597
v 6.60957512 -7.3293979e-4 -1.33274370
v 6.98735521 -7.3293979e-4 -1.47807099
v 6.59196324 -0.10026498 -1.44699974
v 6.57286879 -7.3293979e-4 -1.57089478
v 1.25156029 -0.38509002 0.34639753
v 2.17528768 -0.42931518 0.93671682
v 2.01288001 -7.3293979e-4 1.45859666
v 2.17528768 0.42931526 0.78955264
v 1.25156029 0.38508993 0.34639753
v 3.13487934 -7.3293979e-4 1.57089209
v 3.15753899 0.42410600 1.06976945
v 4.05880735 0.41157832 1.08927558
v 4.14674776 -7.3293979e-4 1.37651993
v 5.13720039 -7.3293979e-4 0.64296890
v 4.96195596 0.34784498 0.49429056
v 4.10429407 -0.39758320 0.99959308
v 5.61571260 -0.26303354 -0.24748482
v 4.96195596 -0.33881869 0.49429056
v 5.61610795 0.29173374 -0.24720243
v 5.98968711 -7.3293979e-4 -1.28192380
v 6.13178571 0.22845314 -1.13393126
v 6.13114965 -0.19047487 -1.13459825
v 4.75043989 -7.3293979e-4 0.22014922
v 3.89088663 -7.3293979e-4 0.69823448
v 3.13016339 -7.3293979e-4 0.62341389
v 2.30529299 -7.3293979e-4 0.40706352
v 1.58224393 -7.3293979e-4 -0.10935989
v 6.23114688 -7.3293979e-4 -1.03044379
v 5.39230578 -7.3293979e-4 -0.40849969
v -3.13252708 -0.41716346 1.20304126
v 3.13252136 -0.41716338 1.20303992
v -5.74905403 -7.3293979e-4 -0.16253412
v 5.74809720 -7.3293979e-4 -0.16080746
vn -6.3523827e-4 0.73237950 -0.68089636
vn -6.3523827e-4 0.73237950 -0.68089636
vn -6.3523827e-4 0.73237950 -0.68089636
vn -6.3523827e-4 0.73237950 -0.68089636
vn -0.13212060 0.26468537 0.95524123
vn -0.13212060 0.26468537 0.95524123
vn -0.13212060 0.26468537 0.95524123
vn -0.13212060 0.26468537 0.95524123
vn -8.0416892e-3 0.71978874 -0.69414660
vn -5.6881255e-3 -0.87112114 -0.49103524
vn -5.6881255e-3 -0.87112114 -0.49103524
vn -8.0416892e-3 0.71978874 -0.69414660
vn 5.3611027e-3 0.72000184 -0.69395145
vn 5.3611027e-3 0.72000184 -0.69395145
vn 3.7920804e-3 -0.87120032 -0.49091305
vn 3.7920804e-3 -0.87120032 -0.49091305
vn 5.3611027e-3 0.72000184 -0.69395145
vn 3.7920804e-3 -0.87120032 -0.49091305
vn 8.4707383e-4 0.73632176 -0.67663103
vn 8.4707383e-4 0.73632176 -0.67663103
vn 8.4707383e-4 0.73632176 -0.67663103
vn 0.28737305 0.32718274 0.90020452
vn 0.28737305 0.32718274 0.90020452
vn -4.4423184e-2 -0.83447598 -0.54925078
vn -4.4423184e-2 -0.83447598 -0.54925078
vn -4.4423184e-2 -0.83447598 -0.54925078
vn -4.4423184e-2 -0.83447598 -0.54925078
vn -1.6996835e-2 0.34154215 0.93971276
vn -1.6996835e-2 0.34154215 0.93971276
vn 5.9334526e-2 -0.82077034 -0.56816851
vn 5.9334526e-2 -0.82077034 -0.56816851
vn 5.9334526e-2 -0.82077034 -0.56816851
vn 0.19283744 0.25188091 0.94835106
vn 0.19283744 0.25188091 0.94835106
vn 0.19283744 0.25188091 0.94835106
vn 0.19283744 0.25188091 0.94835106
vn 0.25969762 0.20167932 -0.94439536
vn 0.25969762 0.20167932 -0.94439536
vn -0.43988063 0.45263588 0.77564540
vn -0.43988063 0.45263588 0.77564540
vn 0.25969762 0.20167932 -0.94439536
vn -0.31716157 0.46868468 0.82446541
vn 7.9579341e-2 3.1881358e-3 -0.99682344
vn -0.28926447 -0.59237017 0.75194657
vn -0.45878350 -0.55350982 0.69508602
vn -0.45878350 -0.55350982 0.69508602
vn -0.48090110 0.45099693 0.75188822
vn -0.48090110 0.45099693 0.75188822
vn -0.48090110 0.45099693 0.75188822
vn -0.45878350 -0.55350982 0.69508602
vn 0.24658430 -0.22163696 -0.94343693
vn 0.24658430 -0.22163696 -0.94343693
vn -0.41843755 -0.57239570 0.70517599
vn 0.24658430 -0.22163696 -0.94343693
vn -0.41843755 -0.57239570 0.70517599
vn 0.53182899 -0.29630910 0.79332140
vn -0.16453281 -0.79040673 -0.59007301
vn -0.16453281 -0.79040673 -0.59007301
vn -0.16453281 -0.79040673 -0.59007301
vn 0.53182899 -0.29630910 0.79332140
vn 0.53182899 -0.29630910 0.79332140
vn 0.47829166 -0.59109662 0.64949355
vn 0.16137997 0.84753724 0.50560571
vn 0.47829166 -0.59109662 0.64949355
vn 0.16137997 0.84753724 0.50560571
vn 0.47829166 -0.59109662 0.64949355
vn 0.21193067 -0.74371718 0.63401116
vn 0.21193067 -0.74371718 0.63401116
vn -0.21428755 -0.78901450 -0.57579246
vn -0.21428755 -0.78901450 -0.57579246
vn 0.21193067 -0.74371718 0.63401116
vn -0.21428755 -0.78901450 -0.57579246
vn 0.26764064 0.83876586 0.47417331
vn -0.21371720 0.77110514 -0.59976814
vn -0.21371720 0.77110514 -0.59976814
vn -0.21371720 0.77110514 -0.59976814
vn 0.55492232 0.10101696 0.82574621
vn 0.55492232 0.10101696 0.82574621
vn 0.55492232 0.10101696 0.82574621
vn 0.16682053 0.81874376 0.54939018
vn 0.16682053 0.81874376 0.54939018
vn 0.16682053 0.81874376 0.54939018
vn -0.22437768 0.69122082 -0.68692681
vn -0.22437768 0.69122082 -0.68692681
vn -0.22437768 0.69122082 -0.68692681
vn -1.1585003e-2 -0.70270817 0.71138387
vn 3.5515400e-2 0.79272993 0.60853752
vn 3.5515400e-2 0.79272993 0.60853752
vn -1.1585003e-2 -0.70270817 0.71138387
vn 3.5515400e-2 0.79272993 0.60853752
vn -1.1585003e-2 -0.70270817 0.71138387
vn -1.1585003e-2 -0.70270817 0.71138387
vn 2.1061984e-2 0.70369380 0.71019113
vn -0.11208324 0.71634018 -0.68869013
vn 2.1061984e-2 0.70369380 0.71019113
vn 2.1061984e-2 0.70369380 0.71019113
vn -0.11208324 0.71634018 -0.68869013
vn -0.33483285 0.56438327 0.75455847
vn -0.33483285 0.56438327 0.75455847
vn 9.0020076e-2 0.71809603 -0.69009744
vn -0.33483285 0.56438327 0.75455847
vn 9.0020076e-2 0.71809603 -0.69009744
vn 9.0020076e-2 0.71809603 -0.69009744
vn -0.57492792 0.51738211 0.63385617
vn -0.57492792 0.51738211 0.63385617
vn 0.42964193 0.71563537 -0.55070303
vn 0.42964193 0.71563537 -0.55070303
vn 0.42964193 0.71563537 -0.55070303
vn 0.42964193 0.71563537 -0.55070303
vn -0.59440308 0.50890023 0.62266005
vn -0.59440308 0.50890023 0.62266005
vn -0.62982369 -0.50470922 0.59041572
vn -0.59440308 0.50890023 0.62266005
vn -0.59440308 0.50890023 0.62266005
vn -0.62982369 -0.50470922 0.59041572
vn -0.62982369 -0.50470922 0.59041572
vn -0.20853176 0.64954159 0.73117045
vn -0.35578429 -0.62923720 0.69099789
vn -0.35578429 -0.62923720 0.69099789
vn -0.35578429 -0.62923720 0.69099789
vn -0.20853176 0.64954159 0.73117045
vn -0.20853176 0.64954159 0.73117045
vn 0.18458111 -0.68360836 -0.70612281
vn -0.23726512 -0.67067948 0.70277614
vn 0.18458111 -0.68360836 -0.70612281
vn 0.18458111 -0.68360836 -0.70612281
vn -0.23726512 -0.67067948 0.70277614
vn 0.18458111 -0.68360836 -0.70612281
vn -0.23726512 -0.67067948 0.70277614
vn -0.72943645 -0.48748184 0.47987907
vn 0.60154630 -0.65507740 -0.45718230
vn 0.60154630 -0.65507740 -0.45718230
vn -0.72943645 -0.48748184 0.47987907
vn 0.60154630 -0.65507740 -0.45718230
vn -0.72943645 -0.48748184 0.47987907
vn -0.72943645 -0.48748184 0.47987907
vn -0.52887060 -0.57145551 0.62748266
vn 0.50604553 -0.63156590 -0.58740313
vn -0.52887060 -0.57145551 0.62748266
vn -0.52887060 -0.57145551 0.62748266
vn 0.50604553 -0.63156590 -0.58740313
vn 0.50604553 -0.63156590 -0.58740313
vn -0.74194136 0.45202729 0.49517102
vn -0.74194136 0.45202729 0.49517102
vn 0.63847437 0.60933478 -0.47017189
vn 0.63847437 0.60933478 -0.47017189
vn -0.74194136 0.45202729 0.49517102
vn 0.63847437 0.60933478 -0.47017189
vn -0.74194136 0.45202729 0.49517102
vn 0.55822569 0.58054508 -0.59274909
vn -0.64401665 0.44071686 0.62530889
vn -0.64401665 0.44071686 0.62530889
vn 0.55822569 0.58054508 -0.59274909
vn -0.64401665 0.44071686 0.62530889
vn 0.66087257 -2.9980767e-2 -0.74989906
vn 0.66087257 -2.9980767e-2 -0.74989906
vn 0.66087257 -2.9980767e-2 -0.74989906
vn 0.66087257 -2.9980767e-2 -0.74989906
vn 0.66087257 -2.9980767e-2 -0.74989906
vn 0.66087257 -2.9980767e-2 -0.74989906
vn 0.66087257 -2.9980767e-2 -0.74989906
vn 0.50831583 -0.64661000 -0.56877986
vn -0.62201221 -0.52324286 0.58250985
vn -0.62201221 -0.52324286 0.58250985
vn 0.50831583 -0.64661000 -0.56877986
vn -0.62201221 -0.52324286 0.58250985
vn 0.22393649 0.73135792 -0.64418013
vn 0.22393649 0.73135792 -0.64418013
vn 0.11760514 -0.63991010 -0.75939719
vn 0.11760514 -0.63991010 -0.75939719
vn 0.22393649 0.73135792 -0.64418013
vn 0.38763707 0.75446474 -0.52964182
vn 0.43041833 -0.63946666 -0.63704196
vn 0.43041833 -0.63946666 -0.63704196
vn 0.38763707 0.75446474 -0.52964182
vn 0.43041833 -0.63946666 -0.63704196
vn -7.6701146e-2 -0.75422709 -0.65211842
vn -0.12064243 0.69758266 -0.70627462
vn -0.12064243 0.69758266 -0.70627462
vn -7.6701146e-2 -0.75422709 -0.65211842
vn -7.6701146e-2 -0.75422709 -0.65211842
vn -0.12064243 0.69758266 -0.70627462
vn -0.12064243 0.69758266 -0.70627462
vn -7.6701146e-2 -0.75422709 -0.65211842
vn -0.27020368 0.73810159 -0.61822003
vn -0.26748189 -0.79940833 -0.53795888
vn -0.27020368 0.73810159 -0.61822003
vn -0.27020368 0.73810159 -0.61822003
vn -0.26748189 -0.79940833 -0.53795888
vn -0.26748189 -0.79940833 -0.53795888
vn -0.11068621 0.78503695 -0.60947974
vn -5.2151991e-2 -0.82117014 -0.56829549
vn -0.11068621 0.78503695 -0.60947974
vn -5.2151991e-2 -0.82117014 -0.56829549
vn -0.11068621 0.78503695 -0.60947974
vn -5.2151991e-2 -0.82117014 -0.56829549
vn -0.70245916 -0.49571152 0.51070659
vn -0.72374085 0.43881251 0.53258123
vn -0.70245916 -0.49571152 0.51070659
vn -0.72374085 0.43881251 0.53258123
vn -0.70245916 -0.49571152 0.51070659
vn -0.72374085 0.43881251 0.53258123
vn 0.54494548 0.67483108 -0.49763182
vn 0.58068720 -0.64746288 -0.49355262
vn 0.54494548 0.67483108 -0.49763182
vn 0.54494548 0.67483108 -0.49763182
vn 0.58068720 -0.64746288 -0.49355262
vn 0.58068720 -0.64746288 -0.49355262
vn 0.41190800 0.59508871 0.69007335
vn -0.17533519 0.66273926 -0.72803450
vn -0.17533519 0.66273926 -0.72803450
vn -0.17533519 0.66273926 -0.72803450
vn 0.41190800 0.59508871 0.69007335
vn 0.45236450 0.57413712 0.68244629
vn 0.41343916 -0.68922089 0.59501481
vn 0.41343916 -0.68922089 0.59501481
vn 0.41343916 -0.68922089 0.59501481
vn 0.45236450 0.57413712 0.68244629
vn 0.45236450 0.57413712 0.68244629
vn 0.28299968 0.61539729 0.73566117
vn 0.23735997 -0.75029749 0.61702019
vn 0.16877158 0.63527829 -0.75361638
vn 0.14179360 -0.76092950 -0.63315154
vn 0.36866361 -0.72830971 0.57762627
vn -0.14814397 -0.76384392 -0.62816863
vn -0.14814397 -0.76384392 -0.62816863
vn -0.14814397 -0.76384392 -0.62816863
vn 0.36866361 -0.72830971 0.57762627
vn -8.8380504e-2 0.66184476 -0.74441279
vn -7.2889787e-2 -0.78297140 -0.61777251
vn -8.8380504e-2 0.66184476 -0.74441279
vn -7.2889787e-2 -0.78297140 -0.61777251
vn -0.50255022 -0.12673449 0.85520854
vn -0.50255022 -0.12673449 0.85520854
vn 0.16453399 -0.79040690 -0.59007245
vn 0.16453399 -0.79040690 -0.59007245
vn 0.16453399 -0.79040690 -0.59007245
vn -0.50255022 -0.12673449 0.85520854
vn -0.50255022 -0.12673449 0.85520854
vn -0.21193109 -0.74371608 0.63401231
vn 0.21428782 -0.78901440 -0.57579251
vn -0.21193109 -0.74371608 0.63401231
vn 0.21428782 -0.78901440 -0.57579251
vn 0.21428782 -0.78901440 -0.57579251
vn -0.21193109 -0.74371608 0.63401231
vn -0.47829231 -0.59109549 0.64949410
vn -0.47829231 -0.59109549 0.64949410
vn -0.16137951 0.84753723 0.50560587
vn -0.47829231 -0.59109549 0.64949410
vn -0.16137951 0.84753723 0.50560587
vn -0.16682186 0.81874237 0.54939184
vn -0.16682186 0.81874237 0.54939184
vn -0.16682186 0.81874237 0.54939184
vn 0.22437899 0.69122053 -0.68692667
vn 0.22437899 0.69122053 -0.68692667
vn 0.22437899 0.69122053 -0.68692667
vn -0.66994749 0.0000000e+0 0.74240849
vn -0.26764068 0.83876583 0.47417333
vn 0.21371818 0.77110462 -0.59976846
vn 0.21371818 0.77110462 -0.59976846
vn 0.21371818 0.77110462 -0.59976846
vn -0.66994749 0.0000000e+0 0.74240849
vn 1.1584426e-2 -0.70270736 0.71138468
vn -3.5517021e-2 0.79272672 0.60854161
vn -3.5517021e-2 0.79272672 0.60854161
vn 1.1584426e-2 -0.70270736 0.71138468
vn -3.5517021e-2 0.79272672 0.60854161
vn 1.1584426e-2 -0.70270736 0.71138468
vn 1.1584426e-2 -0.70270736 0.71138468
vn -2.1062268e-2 0.70369029 0.71019459
vn 0.11208259 0.71634376 -0.68868651
vn -2.1062268e-2 0.70369029 0.71019459
vn -2.1062268e-2 0.70369029 0.71019459
vn 0.11208259 0.71634376 -0.68868651
vn 0.33376520 0.57606212 0.74615898
vn 0.33376520 0.57606212 0.74615898
vn -8.5215110e-2 0.71738274 -0.69144804
vn 0.33376520 0.57606212 0.74615898
vn -8.5215110e-2 0.71738274 -0.69144804
vn -8.5215110e-2 0.71738274 -0.69144804
vn 0.20774146 0.64951693 0.73141728
vn 0.35563660 -0.63917311 0.68189468
vn 0.35563660 -0.63917311 0.68189468
vn 0.35563660 -0.63917311 0.68189468
vn 0.20774146 0.64951693 0.73141728
vn 0.20774146 0.64951693 0.73141728
vn 0.58641687 0.53633789 0.60700652
vn 0.58641687 0.53633789 0.60700652
vn 0.61262835 -0.54651620 0.57096984
vn 0.58641687 0.53633789 0.60700652
vn 0.61262835 -0.54651620 0.57096984
vn 0.61262835 -0.54651620 0.57096984
vn 0.58641687 0.53633789 0.60700652
vn 0.57154398 0.54788937 0.61086391
vn 0.57154398 0.54788937 0.61086391
vn -0.43086682 0.70358348 -0.56508767
vn -0.43086682 0.70358348 -0.56508767
vn -0.43086682 0.70358348 -0.56508767
vn -0.43086682 0.70358348 -0.56508767
vn 0.24329533 -0.66997572 0.70138428
vn -0.17989119 -0.70933031 -0.68153479
vn -0.17989119 -0.70933031 -0.68153479
vn 0.24329533 -0.66997572 0.70138428
vn -0.17989119 -0.70933031 -0.68153479
vn 0.24329533 -0.66997572 0.70138428
vn -0.17989119 -0.70933031 -0.68153479
vn 0.70248532 -0.54607074 0.45642209
vn -0.54140310 -0.72425337 -0.42701259
vn -0.54140310 -0.72425337 -0.42701259
vn 0.70248532 -0.54607074 0.45642209
vn -0.54140310 -0.72425337 -0.42701259
vn 0.70248532 -0.54607074 0.45642209
vn 0.70248532 -0.54607074 0.45642209
vn 0.52519911 -0.59205538 0.61125799
vn -0.43384879 -0.71723909 -0.54529195
vn 0.52519911 -0.59205538 0.61125799
vn 0.52519911 -0.59205538 0.61125799
vn -0.43384879 -0.71723909 -0.54529195
vn -0.43384879 -0.71723909 -0.54529195
vn 0.72133670 0.50404089 0.47499069
vn 0.72133670 0.50404089 0.47499069
vn -0.58550826 0.67668635 -0.44640303
vn -0.58550826 0.67668635 -0.44640303
vn 0.72133670 0.50404089 0.47499069
vn -0.58550826 0.67668635 -0.44640303
vn 0.72133670 0.50404089 0.47499069
vn -0.48667771 0.67213426 -0.55801464
vn -0.48667771 0.67213426 -0.55801464
vn -0.43551744 -0.74479397 -0.50557541
vn -0.43551744 -0.74479397 -0.50557541
vn -0.48667771 0.67213426 -0.55801464
vn -0.48667771 0.67213426 -0.55801464
vn -0.43551744 -0.74479397 -0.50557541
vn -0.43551744 -0.74479397 -0.50557541
vn -0.49447511 0.66669542 -0.55768412
vn 0.61473122 0.54145148 0.57352927
vn 0.61473122 0.54145148 0.57352927
vn -0.49447511 0.66669542 -0.55768412
vn 0.61473122 0.54145148 0.57352927
vn -0.43768655 -0.73186469 -0.52230696
vn 0.57770081 -0.63458977 0.51337861
vn 0.57770081 -0.63458977 0.51337861
vn -0.43768655 -0.73186469 -0.52230696
vn 0.57770081 -0.63458977 0.51337861
vn -0.42437304 0.70469346 -0.56860765
vn -0.39133618 -0.70391223 -0.59275928
vn -0.39133618 -0.70391223 -0.59275928
vn -0.42437304 0.70469346 -0.56860765
vn -0.39133618 -0.70391223 -0.59275928
vn -0.21207214 0.71120150 -0.67023715
vn -0.21207214 0.71120150 -0.67023715
vn -0.14256191 -0.64607517 -0.74984197
vn -0.14256191 -0.64607517 -0.74984197
vn -0.21207214 0.71120150 -0.67023715
vn 7.6701125e-2 -0.75422682 -0.65211873
vn 0.12064204 0.69758416 -0.70627320
vn 0.12064204 0.69758416 -0.70627320
vn 7.6701125e-2 -0.75422682 -0.65211873
vn 7.6701125e-2 -0.75422682 -0.65211873
vn 0.12064204 0.69758416 -0.70627320
vn 0.12064204 0.69758416 -0.70627320
vn 7.6701125e-2 -0.75422682 -0.65211873
vn 0.27020472 0.73810061 -0.61822075
vn 0.26748298 -0.79940841 -0.53795822
vn 0.27020472 0.73810061 -0.61822075
vn 0.27020472 0.73810061 -0.61822075
vn 0.26748298 -0.79940841 -0.53795822
vn 0.26748298 -0.79940841 -0.53795822
vn 0.11068683 0.78503708 -0.60947946
vn 5.2152580e-2 -0.82117035 -0.56829514
vn 0.11068683 0.78503708 -0.60947946
vn 5.2152580e-2 -0.82117035 -0.56829514
vn 5.2152580e-2 -0.82117035 -0.56829514
vn 0.11068683 0.78503708 -0.60947946
vn 0.69515755 0.51150904 0.50508859
vn 0.66476915 -0.57547633 0.47634964
vn 0.69515755 0.51150904 0.50508859
vn 0.66476915 -0.57547633 0.47634964
vn 0.69515755 0.51150904 0.50508859
vn 0.66476915 -0.57547633 0.47634964
vn -0.54138339 0.69155401 -0.47818101
vn -0.51562304 -0.72010115 -0.46431370
vn -0.54138339 0.69155401 -0.47818101
vn -0.54138339 0.69155401 -0.47818101
vn -0.51562304 -0.72010115 -0.46431370
vn -0.51562304 -0.72010115 -0.46431370
vn -3.2866317e-2 -0.81163054 -0.58324581
vn 1.4559685e-2 -0.66192481 0.74942883
vn 1.4559685e-2 -0.66192481 0.74942883
vn -3.2866317e-2 -0.81163054 -0.58324581
vn 3.2866619e-2 -0.81162995 -0.58324661
vn -1.4560171e-2 -0.66192352 0.74942995
vn -1.4560171e-2 -0.66192352 0.74942995
vn 3.2866619e-2 -0.81162995 -0.58324661
vn -0.75815904 0.42461384 0.49487166
vn -0.74353796 -0.46000863 0.48532810
vn -0.74353796 -0.46000863 0.48532810
vn -0.75815904 0.42461384 0.49487166
vn 0.73694187 0.47472597 0.48119844
vn 0.71695105 -0.51654791 0.46814469
vn 0.71695105 -0.51654791 0.46814469
vn 0.73694187 0.47472597 0.48119844
g bow_01_default
usemtl default
s 1
f 8//42 9//49 7//40
f 9//47 26//151 7//39
f 9//48 34//198 26//152
f 14//73 15//80 12//63
f 15//81 16//87 12//65
f 15//82 17//93 16//88
f 17//95 21//121 16//90
f 18//101 21//122 17//96
f 19//104 20//110 18//98
f 19//105 25//144 20//114
f 20//111 21//117 18//99
f 25//143 68//395 20//113
f 26//154 34//200 25//147
f 34//202 68//398 25//149
f 36//213 57//337 37//219
f 37//214 38//220 36//209
f 43//250 46//265 44//253
f 44//251 45//258 43//248
f 46//264 47//270 44//252
f 46//267 49//286 47//273
f 47//272 49//285 48//278
f 49//281 50//287 48//275
f 50//288 51//294 48//276
f 50//290 55//321 51//295
f 50//293 69//402 55//326
f 55//324 64//379 57//339
f 55//320 69//399 64//375
f 57//336 64//377 37//218
s 2
f 1//4 63//374 2//12
f 2//9 3//13 1//1
f 2//10 5//24 3//15
f 2//11 63//373 5//27
f 3//14 4//19 1//2
f 3//17 33//195 4//21
f 4//20 33//193 14//76
f 5//25 6//30 3//16
f 5//26 63//372 41//237
f 6//32 33//196 3//18
f 7//41 10//54 8//43
f 11//59 33//194 6//31
f 13//70 32//189 11//57
f 13//72 66//390 31//184
f 14//74 32//187 15//85
f 14//75 33//191 32//188
f 15//83 31//178 17//94
f 15//84 32//185 31//179
f 17//97 31//182 18//102
f 18//100 29//167 19//106
f 18//103 31//183 29//171
f 19//108 35//205 25//148
f 22//125 30//173 29//169
f 23//132 28//165 27//161
f 23//134 35//207 24//141
f 24//138 30//174 22//126
f 24//142 35//208 30//176
f 25//145 27//158 26//153
f 25//146 35//203 27//159
f 26//150 27//156 7//38
f 27//155 10//51 7//37
f 27//157 28//162 10//52
f 27//160 35//204 23//131
f 29//168 30//172 19//107
f 29//170 31//181 22//128
f 30//175 35//206 19//109
f 31//180 32//186 13//69
f 31//177 66//387 22//123
f 32//190 33//192 11//58
f 38//222 40//229 36//210
f 39//225 40//230 38//223
f 39//226 56//329 40//232
f 39//227 58//340 56//330
f 40//231 56//327 36//211
f 41//236 62//368 42//244
f 41//235 63//370 62//367
f 42//243 62//364 61//358
f 44//256 62//366 45//260
f 45//261 63//371 1//3
f 47//271 61//357 44//255
f 48//280 61//361 47//274
f 51//297 60//351 48//277
f 51//298 65//383 59//348
f 52//301 59//346 54//315
f 52//302 60//352 59//347
f 52//304 61//359 60//353
f 52//306 67//394 61//362
f 53//309 65//382 56//334
f 54//319 65//386 53//311
f 55//323 57//338 56//332
f 55//325 65//384 51//299
f 56//328 57//335 36//212
f 56//333 58//343 53//308
f 56//331 65//381 55//322
f 59//345 60//350 51//296
f 59//349 65//385 54//318
f 60//354 61//360 48//279
f 61//356 62//363 44//254
f 61//355 67//391 42//241
f 62//365 63//369 45//259
s 3
f 1//8 41//239 45//262
f 4//22 6//35 1//7
f 5//28 1//5 6//33
f 6//34 14//78 11//61
f 10//55 9//50 8//44
f 10//53 28//163 9//45
f 11//60 14//77 12//66
f 12//62 13//67 11//56
f 12//64 16//86 13//68
f 14//79 6//36 4//23
f 16//91 66//388 13//71
f 20//115 24//139 21//119
f 20//116 68//397 23//136
f 21//118 22//124 16//89
f 21//120 24//140 22//127
f 22//129 66//389 16//92
f 23//130 24//137 20//112
f 23//133 34//199 28//166
f 23//135 68//396 34//201
f 28//164 34//197 9//46
f 37//215 39//224 38//221
f 37//217 58//342 39//228
f 37//216 64//376 58//341
f 41//238 1//6 5//29
f 42//240 43//246 41//233
f 42//242 46//263 43//249
f 42//245 67//393 46//269
f 43//247 45//257 41//234
f 46//266 52//300 49//282
f 46//268 67//392 52//305
f 49//284 54//317 50//291
f 50//289 54//314 53//307
f 52//303 54//316 49//283
f 53//312 69//400 50//292
f 58//344 64//378 53//310
f 64//380 69//401 53//313
