# Exported from Wings 3D 2.1.5
mtllib dagger_08.mtl
o dagger_08
#43 vertices, 82 faces
v -1.60151130 0.0000000e+0 8.22397181
v 1.60151130 0.0000000e+0 8.22397181
v -3.22306711 0.0000000e+0 6.39869763
v 3.22306711 0.0000000e+0 6.39869763
v 1.00883163 0.59800000 6.86916551
v -1.00883163 0.59800000 6.86916551
v -1.00883163 -0.59800000 6.86916551
v 1.00883163 -0.59800000 6.86916551
v 1.2023715e-16 0.52932422 4.52492491
v -1.2023715e-16 -0.52932422 4.52492491
v -0.83329492 0.29302000 5.64429359
v -0.83329492 -0.29302000 5.64429359
v 0.83329492 -0.29302000 5.64429359
v 0.83329492 0.29302000 5.64429359
v -1.80842839 3.3739678e-16 3.75927722
v 1.80842839 -3.3739678e-16 3.75927722
v 0.0000000e+0 0.0000000e+0 -15.35687318
v 0.66201928 -1.3877788e-16 -12.37401949
v -0.66201928 1.3877788e-16 -12.37401949
v -0.36715442 0.58773578 8.55992233
v 0.36715442 0.58773578 8.55992233
v -0.36715442 -0.58773578 8.55992233
v 0.36715442 -0.58773578 8.55992233
v -0.73430885 -4.1555868e-17 8.55992233
v 0.73430885 -4.1555868e-17 8.55992233
v -0.31354988 0.50192636 13.91200663
v -0.62709976 -3.5488711e-17 13.91200663
v -0.31354988 -0.50192636 13.91200663
v 0.31354988 -0.50192636 13.91200663
v 0.62709976 -3.5488711e-17 13.91200663
v 0.31354988 0.50192636 13.91200663
v 1.3877788e-16 0.39351026 15.03430086
v -1.15010095 -3.5488711e-17 14.65544087
v 5.5511151e-17 -0.39351026 15.03430086
v 1.15010095 -3.5488711e-17 14.65544087
v -0.46004038 -3.5488711e-17 15.35687318
v 0.46004038 -3.5488711e-17 15.35687318
v -1.23522384 2.3808733e-16 0.35262361
v 1.23522384 -2.3808733e-16 0.35262361
v 1.12382755 -5.8574070e-17 4.63497848
v -1.12382755 5.8574070e-17 4.63497848
v -2.68274229 0.0000000e+0 7.48852942
v 2.68274229 0.0000000e+0 7.48852942
vn 4.0525058e-17 0.92620592 0.37701803
vn 6.0787588e-17 -0.92620592 0.37701803
vn -0.36123653 -2.8453504e-17 0.93247422
vn -0.36123653 -2.8453504e-17 0.93247422
vn -0.34179901 -0.90582753 0.25029965
vn -0.34179901 0.90582753 0.25029965
vn -0.34179901 -0.90582753 0.25029965
vn -0.34179901 0.90582753 0.25029965
vn 0.34179901 0.90582753 0.25029965
vn 0.34179901 -0.90582753 0.25029965
vn 0.36123653 -2.8453504e-17 0.93247422
vn 0.36123653 -2.8453504e-17 0.93247422
vn 0.34179901 0.90582753 0.25029965
vn 0.34179901 -0.90582753 0.25029965
vn 0.20783460 0.0000000e+0 -0.97816398
vn -0.28606873 0.94765455 0.14182926
vn -0.28606873 -0.94765455 0.14182926
vn -0.20783460 0.0000000e+0 -0.97816398
vn 0.28606873 0.94765455 0.14182926
vn 0.28606873 -0.94765455 0.14182926
vn 0.19722173 0.97128843 0.13305026
vn -0.20783460 0.0000000e+0 -0.97816398
vn 0.98988660 -3.0620180e-16 -0.14186090
vn 0.31055826 0.93680476 -0.16109131
vn 0.31055826 0.93680476 -0.16109131
vn 0.19722173 0.97128843 0.13305026
vn 0.19722173 0.97128843 0.13305026
vn 0.19722173 0.97128843 0.13305026
vn 0.98988660 -3.0620180e-16 -0.14186090
vn 0.19722173 0.97128843 0.13305026
vn 0.20783460 0.0000000e+0 -0.97816398
vn -0.31055826 0.93680476 -0.16109131
vn -0.31055826 0.93680476 -0.16109131
vn -0.24583043 0.95528813 0.16429237
vn -0.24583043 0.95528813 0.16429237
vn -0.98988660 0.0000000e+0 -0.14186090
vn -0.24583043 0.95528813 0.16429237
vn -0.24583043 0.95528813 0.16429237
vn 0.20783460 0.0000000e+0 -0.97816398
vn -0.31055826 -0.93680476 -0.16109131
vn -0.98988660 3.0620180e-16 -0.14186090
vn -0.31055826 -0.93680476 -0.16109131
vn -0.24583043 -0.95528813 0.16429237
vn -0.24583043 -0.95528813 0.16429237
vn -0.98988660 3.0620180e-16 -0.14186090
vn -0.24583043 -0.95528813 0.16429237
vn -0.24583043 -0.95528813 0.16429237
vn -0.20783460 0.0000000e+0 -0.97816398
vn 0.31055826 -0.93680476 -0.16109131
vn 0.31055826 -0.93680476 -0.16109131
vn 0.19722173 -0.97128843 0.13305026
vn 0.19722173 -0.97128843 0.13305026
vn 0.19722173 -0.97128843 0.13305026
vn 0.98988660 0.0000000e+0 -0.14186090
vn 0.19722173 -0.97128843 0.13305026
vn 0.19722173 -0.97128843 0.13305026
vn 8.5662669e-17 0.97489710 -0.22265591
vn 8.5662669e-17 0.97489710 -0.22265591
vn 8.5662669e-17 0.97489710 -0.22265591
vn -0.31497772 0.94896457 1.5977309e-2
vn 0.31497772 0.94896457 1.5977309e-2
vn -0.31497772 0.94896457 1.5977309e-2
vn 0.31497772 0.94896457 1.5977309e-2
vn -0.31497772 0.94896457 1.5977309e-2
vn 0.31497772 0.94896457 1.5977309e-2
vn -0.31497772 0.94896457 1.5977309e-2
vn 0.31497772 0.94896457 1.5977309e-2
vn -0.31497772 0.94896457 1.5977309e-2
vn 0.31497772 0.94896457 1.5977309e-2
vn -8.5662669e-17 -0.97489710 -0.22265591
vn -8.5662669e-17 -0.97489710 -0.22265591
vn -8.5662669e-17 -0.97489710 -0.22265591
vn 0.31497772 -0.94896457 1.5977309e-2
vn -0.31497772 -0.94896457 1.5977309e-2
vn -0.31497772 -0.94896457 1.5977309e-2
vn 0.31497772 -0.94896457 1.5977309e-2
vn -0.31497772 -0.94896457 1.5977309e-2
vn 0.31497772 -0.94896457 1.5977309e-2
vn 0.31497772 -0.94896457 1.5977309e-2
vn -0.31497772 -0.94896457 1.5977309e-2
vn 0.31497772 -0.94896457 1.5977309e-2
vn -0.31497772 -0.94896457 1.5977309e-2
vn -0.98988660 3.0620180e-16 -0.14186090
vn -0.58454534 0.76372070 -0.27392962
vn -0.96097962 7.2149007e-16 0.27661919
vn -0.43297274 0.89136932 -0.13414674
vn -0.98988660 3.0620180e-16 -0.14186090
vn -0.58454534 -0.76372070 -0.27392962
vn -0.98988660 6.1240359e-16 -0.14186090
vn -0.96097962 7.2149007e-16 0.27661919
vn -0.43297274 -0.89136932 -0.13414674
vn 0.98988660 -3.0620180e-16 -0.14186090
vn 0.58454534 -0.76372070 -0.27392962
vn 0.43297274 -0.89136932 -0.13414674
vn 0.96097962 -7.2149007e-16 0.27661919
vn 0.98988660 -3.0620180e-16 -0.14186090
vn 0.98988660 -6.1240359e-16 -0.14186090
vn 0.58454534 0.76372070 -0.27392962
vn 0.96097962 -7.2149007e-16 0.27661919
vn 0.43297274 0.89136932 -0.13414674
vn -0.32870622 0.93549134 0.12964635
vn -0.32870622 -0.93549134 0.12964635
vn -0.32870622 0.93549134 0.12964635
vn -0.32870622 -0.93549134 0.12964635
vn 0.32870622 -0.93549134 0.12964635
vn 0.32870622 0.93549134 0.12964635
vn 0.32870622 0.93549134 0.12964635
vn 0.32870622 -0.93549134 0.12964635
vn -0.11906204 -0.99253512 -2.6424817e-2
vn 0.11906204 0.99253512 -2.6424817e-2
vn -0.11906204 0.99253512 -2.6424817e-2
vn 0.11906204 -0.99253512 -2.6424817e-2
vn 0.23546322 0.97165178 -2.1210652e-2
vn 0.23546322 0.97165178 -2.1210652e-2
vn 0.23546322 -0.97165178 -2.1210652e-2
vn 0.23546322 -0.97165178 -2.1210652e-2
vn -0.23546322 -0.97165178 -2.1210652e-2
vn -0.23546322 0.97165178 -2.1210652e-2
vn -0.23546322 -0.97165178 -2.1210652e-2
vn -0.23546322 0.97165178 -2.1210652e-2
vn -0.15885735 0.98507495 6.6269828e-2
vn -0.48477489 0.87443527 1.8875062e-2
vn -0.48477489 0.87443527 1.8875062e-2
vn -0.35237586 0.22012673 0.90960182
vn -0.15885735 0.98507495 6.6269828e-2
vn -0.48477489 0.87443527 1.8875062e-2
vn -0.48477489 0.87443527 1.8875062e-2
vn -0.15885735 0.98507495 6.6269828e-2
vn 0.23921155 0.96614513 9.6650992e-2
vn 0.23921155 0.96614513 9.6650992e-2
vn 0.35237586 0.22012673 0.90960182
vn 0.48477489 0.87443527 1.8875062e-2
vn 0.48477489 0.87443527 1.8875062e-2
vn -0.35237586 -0.22012673 0.90960182
vn -0.15885735 -0.98507495 6.6269828e-2
vn -0.48477489 -0.87443527 1.8875062e-2
vn -0.48477489 -0.87443527 1.8875062e-2
vn -0.48477489 -0.87443527 1.8875062e-2
vn -0.48477489 -0.87443527 1.8875062e-2
vn -0.15885735 -0.98507495 6.6269828e-2
vn -0.15885735 -0.98507495 6.6269828e-2
vn 0.23921155 -0.96614513 9.6650992e-2
vn 0.23921155 -0.96614513 9.6650992e-2
vn 0.35237586 -0.22012673 0.90960182
vn 0.48477489 -0.87443527 1.8875062e-2
vn 0.48477489 -0.87443527 1.8875062e-2
vn -0.36123653 -2.8453504e-17 0.93247422
vn -0.36123653 -2.8453504e-17 0.93247422
vn -0.99979943 0.0000000e+0 2.0027261e-2
vn -0.99979943 0.0000000e+0 2.0027261e-2
vn 0.36123653 -2.8453504e-17 0.93247422
vn 0.99979943 -6.5448679e-17 2.0027261e-2
vn 0.99979943 -9.8173018e-17 2.0027261e-2
vn 0.36123653 -2.8453504e-17 0.93247422
vn 0.99979943 -9.8173018e-17 2.0027261e-2
vn 0.99979943 -9.8173018e-17 2.0027261e-2
vn -0.48477489 0.87443527 1.8875062e-2
vn -0.48477489 0.87443527 1.8875062e-2
vn -0.42188743 0.90257893 -8.5803701e-2
vn -0.42188743 0.90257893 -8.5803701e-2
vn -0.42188743 0.90257893 -8.5803701e-2
vn -0.99979943 3.2724339e-17 2.0027261e-2
vn -0.99979943 -3.2724339e-17 2.0027261e-2
vn -0.72832912 0.45498210 -0.51237484
vn -0.72832912 -0.45498210 -0.51237484
vn -0.99979943 0.0000000e+0 2.0027261e-2
vn -0.99979943 0.0000000e+0 2.0027261e-2
vn -0.48477489 -0.87443527 1.8875062e-2
vn -0.48477489 -0.87443527 1.8875062e-2
vn -0.42188743 -0.90257893 -8.5803701e-2
vn -0.42188743 -0.90257893 -8.5803701e-2
vn -0.42188743 -0.90257893 -8.5803701e-2
vn 0.48477489 -0.87443527 1.8875062e-2
vn 0.48477489 -0.87443527 1.8875062e-2
vn 0.42188743 -0.90257893 -8.5803701e-2
vn 0.42188743 -0.90257893 -8.5803701e-2
vn 0.42188743 -0.90257893 -8.5803701e-2
vn 0.48477489 -0.87443527 1.8875062e-2
vn 0.48477489 -0.87443527 1.8875062e-2
vn 0.99979943 -1.3089736e-16 2.0027261e-2
vn 0.99979943 -1.3089736e-16 2.0027261e-2
vn 0.72832912 -0.45498210 -0.51237484
vn 0.72832912 0.45498210 -0.51237484
vn 0.48477489 0.87443527 1.8875062e-2
vn 0.48477489 0.87443527 1.8875062e-2
vn 0.42188743 0.90257893 -8.5803701e-2
vn 0.42188743 0.90257893 -8.5803701e-2
vn 0.42188743 0.90257893 -8.5803701e-2
vn 0.48477489 0.87443527 1.8875062e-2
vn 0.48477489 0.87443527 1.8875062e-2
vn -0.57072825 0.82050333 3.2303962e-2
vn -0.57072825 -0.82050333 3.2303962e-2
vn -0.57072825 0.82050333 3.2303962e-2
vn -0.57072825 -0.82050333 3.2303962e-2
vn -0.57072825 -0.82050333 3.2303962e-2
vn -0.57072825 0.82050333 3.2303962e-2
vn 0.57072825 -0.82050333 3.2303962e-2
vn 0.57072825 0.82050333 3.2303962e-2
vn 0.57072825 -0.82050333 3.2303962e-2
vn 0.57072825 0.82050333 3.2303962e-2
vn 0.57072825 -0.82050333 3.2303962e-2
vn 0.57072825 0.82050333 3.2303962e-2
vn -0.21568253 0.75737401 0.61633242
vn -0.21568253 -0.75737401 0.61633242
vn -0.21568253 0.75737401 0.61633242
vn -0.21568253 -0.75737401 0.61633242
vn 0.21568253 -0.75737401 0.61633242
vn 0.21568253 0.75737401 0.61633242
vn 0.21568253 0.75737401 0.61633242
vn 0.21568253 -0.75737401 0.61633242
vn -0.30627594 0.95146883 -3.0035259e-2
vn -0.30627594 -0.95146883 -3.0035259e-2
vn -0.30627594 0.95146883 -3.0035259e-2
vn -0.30627594 -0.95146883 -3.0035259e-2
vn 0.30627594 -0.95146883 -3.0035259e-2
vn 0.30627594 0.95146883 -3.0035259e-2
vn 0.30627594 -0.95146883 -3.0035259e-2
vn 0.30627594 0.95146883 -3.0035259e-2
vn 0.41779791 -0.90460464 8.4471060e-2
vn 0.96097962 -7.2149007e-16 0.27661919
vn 0.41779791 0.90460464 8.4471060e-2
vn 0.41779791 0.90460464 8.4471060e-2
vn 0.41779791 -0.90460464 8.4471060e-2
vn -0.96097962 7.2149007e-16 0.27661919
vn -0.41779791 0.90460464 8.4471060e-2
vn -0.41779791 -0.90460464 8.4471060e-2
vn -0.41779791 0.90460464 8.4471060e-2
vn -0.41779791 -0.90460464 8.4471060e-2
vn -0.25114325 -0.94041513 0.22923015
vn -0.25114325 0.94041513 0.22923015
vn -0.25114325 -0.94041513 0.22923015
vn -0.25114325 0.94041513 0.22923015
vn 0.25114325 0.94041513 0.22923015
vn 0.25114325 -0.94041513 0.22923015
vn 0.25114325 0.94041513 0.22923015
vn 0.25114325 -0.94041513 0.22923015
g dagger_08_default
usemtl default
s 1
f 1//4 24//148 20//124
f 2//12 25//154 23//144
f 3//15 6//31 7//39
f 4//18 8//48 5//22
f 7//42 10//72 8//50
f 8//49 10//71 13//93
f 9//65 39//216 18//114
f 9//69 40//222 16//107
f 11//85 41//224 12//90
f 12//88 10//70 7//40
f 14//100 40//221 9//61
f 17//110 9//63 18//113
f 21//131 25//151 2//11
f 22//134 24//147 1//3
f 26//160 32//1 31//187
f 27//164 33//191 26//159
f 31//188 35//202 30//183
f 32//1 26//161 33//196
f 32//1 37//208 35//200
f 33//193 36//203 32//1
f 35//198 31//186 32//1
f 37//209 32//1 36//205
f 39//218 9//67 16//106
s 2
f 1//7 7//46 22//141
f 2//14 8//55 43//234
f 4//20 43//236 8//56
f 5//23 13//92 14//97
f 6//36 11//87 7//45
f 7//41 11//83 12//89
f 7//47 42//231 3//17
f 8//54 13//96 5//29
f 8//53 22//140 7//43
f 9//60 41//225 11//86
f 10//73 40//219 13//94
f 15//101 9//62 38//211
f 15//103 41//227 9//68
f 16//105 10//76 39//215
f 16//108 40//223 10//81
f 18//115 10//78 17//112
f 18//116 39//217 10//79
f 19//118 9//64 17//111
f 19//120 38//213 9//66
f 22//135 8//51 23//142
f 23//143 8//52 2//10
f 28//172 33//195 27//165
f 29//175 34//2 28//171
f 30//182 35//197 29//176
f 33//192 28//170 34//2
f 34//2 29//177 35//201
f 34//2 36//204 33//194
f 35//199 37//207 34//2
f 36//206 34//2 37//210
f 42//229 7//44 1//5
s 3
f 1//8 6//38 42//232
f 2//9 5//21 21//129
f 3//16 42//230 6//37
f 5//30 43//235 4//19
f 6//34 20//125 5//28
f 10//77 38//212 19//119
f 10//82 41//228 15//104
f 12//91 41//226 10//74
f 13//95 40//220 14//99
f 17//109 10//75 19//117
f 20//128 6//35 1//6
f 21//130 5//26 20//121
f 38//214 10//80 15//102
f 43//233 5//27 2//13
s 4
f 5//25 9//59 6//33
f 6//32 9//58 11//84
f 14//98 9//57 5//24
f 20//126 31//189 21//132
f 21//133 31//190 25//155
f 22//139 27//166 24//149
f 23//146 29//179 22//138
f 24//150 27//167 20//127
f 25//156 29//178 23//145
f 26//157 20//122 27//162
f 26//158 31//185 20//123
f 27//163 22//136 28//168
f 28//169 22//137 29//173
f 29//174 25//152 30//180
f 30//181 25//153 31//184
