# Exported from Wings 3D 2.1.5
mtllib dagger_01.mtl
o dagger_01
#50 vertices, 96 faces
v 1.38938859 1.1401952e-16 -7.32072878
v 1.69247349 1.0462795e-16 3.79853106
v -1.39146429 -1.5156148e-16 -7.32072878
v -1.0378503e-3 0.38590880 -7.32072878
v -1.0378503e-3 0.32781923 4.97628832
v -1.69438135 -1.2097602e-16 3.79853106
v -1.0378503e-3 -1.9063899e-17 -12.28501053
v 1.0936082e-3 0.77592319 5.17694068
v -3.2694889e-3 0.66321201 6.49204716
v 1.65791946 0.40349910 3.99470066
v 2.41699064 0.42922782 4.84804164
v -2.41720760 0.40542189 4.84847970
v -1.66224911 0.42730503 3.99426260
v 0.87754491 5.2888025e-17 -10.15573551
v -0.87962061 -8.9666627e-17 -10.15573551
v -1.05530377 -9.4177482e-17 -3.26922091
v -1.14807917 -9.1071788e-17 -0.47155196
v 1.14600347 6.8512338e-17 -0.47155196
v 1.05322807 6.5406644e-17 -3.26922091
v 0.80417514 4.7035138e-17 6.03312942
v -0.80599240 -6.4423358e-17 6.03312942
v 0.57998650 0.41182381 6.21289306
v -0.58416462 0.41182381 6.21289306
v 0.89381380 5.0417295e-17 11.10351327
v 0.63088444 0.41308464 11.28611905
v -5.3167510e-3 0.66075123 11.63011188
v -0.63333318 0.41302376 11.28289517
v -0.89738560 -6.2163391e-17 11.10673715
v 1.53646949 9.0798934e-17 11.58083957
v 0.64455056 0.74131344 12.00663535
v -0.64650558 0.74126454 12.00363468
v -1.54020794 -1.0257710e-16 11.58587280
v 2.5403460e-3 -4.3059007e-18 13.11828557
v -1.0378503e-3 -0.38590880 -7.32072878
v -1.0378503e-3 -0.32781923 4.97628832
v 1.0936082e-3 -0.77592319 5.17694068
v -3.2694889e-3 -0.66321201 6.49204716
v 1.65791946 -0.40349910 3.99470066
v 2.41699064 -0.42922782 4.84804164
v -2.41720760 -0.40542189 4.84847970
v -1.66224911 -0.42730503 3.99426260
v 0.57998650 -0.41182381 6.21289306
v -0.58416462 -0.41182381 6.21289306
v 0.63088444 -0.41308464 11.28611905
v -5.3167510e-3 -0.66075123 11.63011188
v -0.63333318 -0.41302376 11.28289517
v 0.64455056 -0.74131344 12.00663535
v -0.64650558 -0.74126454 12.00363468
v -2.17100683 -1.6281624e-16 4.24211870
v 2.16949210 1.6350051e-16 4.24145098
vn 1.3500287e-3 0.0000000e+0 0.99999909
vn -0.77307647 -1.2127499e-17 -0.63431284
vn 0.76669648 0.0000000e+0 -0.64200974
vn 0.26741478 0.96349341 -1.3029972e-2
vn 0.26741478 -0.96349341 -1.3029972e-2
vn 0.26741478 -0.96349341 -1.3029972e-2
vn 0.26741478 0.96349341 -1.3029972e-2
vn -0.48854718 0.35276342 -0.79804738
vn 0.17496615 0.98431980 -2.2391544e-2
vn -0.48854718 -0.35276342 -0.79804738
vn 0.17496615 -0.98431980 -2.2391544e-2
vn 0.68042971 0.0000000e+0 -0.73281336
vn 0.68042971 0.0000000e+0 -0.73281336
vn -0.48854718 0.35276342 -0.79804738
vn -0.48854718 -0.35276342 -0.79804738
vn -0.26741478 0.96349341 -1.3029972e-2
vn -0.26741478 0.96349341 -1.3029972e-2
vn -0.26741478 -0.96349341 -1.3029972e-2
vn -0.26741478 -0.96349341 -1.3029972e-2
vn 0.28091586 0.95947629 -2.2170512e-2
vn -0.28091586 0.95947629 -2.2170512e-2
vn 0.28091586 0.95947629 -2.2170512e-2
vn -0.28091586 0.95947629 -2.2170512e-2
vn -0.28091586 0.95947629 -2.2170512e-2
vn 0.28091586 0.95947629 -2.2170512e-2
vn 0.28091586 0.95947629 -2.2170512e-2
vn -0.28091586 0.95947629 -2.2170512e-2
vn -0.28091586 0.95947629 -2.2170512e-2
vn 0.28091586 0.95947629 -2.2170512e-2
vn 0.23522625 0.97189938 -8.9564081e-3
vn -0.23523597 0.97189704 -8.9542203e-3
vn -0.48493985 0.35933015 -0.79731749
vn 0.48646180 0.35513568 -0.79826910
vn -0.23523597 0.97189704 -8.9542203e-3
vn 0.23522625 0.97189938 -8.9564081e-3
vn 0.49347734 0.34219519 -0.79961401
vn -0.17498586 0.98431639 -2.2387189e-2
vn 0.49347734 -0.34219519 -0.79961401
vn -0.17498586 -0.98431639 -2.2387189e-2
vn -0.68128103 0.0000000e+0 -0.73202196
vn -0.68128103 0.0000000e+0 -0.73202196
vn 0.49347734 -0.34219519 -0.79961401
vn 0.49347734 0.34219519 -0.79961401
vn 0.18460352 0.97985687 -7.6171218e-2
vn -0.18460352 -0.97985687 -7.6171218e-2
vn -0.18460352 0.97985687 -7.6171218e-2
vn 0.18460352 -0.97985687 -7.6171218e-2
vn -6.3114003e-3 0.99983811 -1.6849790e-2
vn -6.3114003e-3 0.99983811 -1.6849790e-2
vn -0.48854718 0.35276342 -0.79804738
vn 0.49347734 0.34219519 -0.79961401
vn -6.3114003e-3 0.99983811 -1.6849790e-2
vn -6.3114003e-3 0.99983811 -1.6849790e-2
vn -0.48854718 0.35276342 -0.79804738
vn 0.49347734 0.34219519 -0.79961401
vn 0.53435295 0.43497287 0.72475205
vn -1.4710577e-3 0.99999695 -1.9855318e-3
vn -1.4710577e-3 0.99999695 -1.9855318e-3
vn -0.53666010 0.44177117 0.71891179
vn -4.6368564e-3 0.99633804 8.5375750e-2
vn -4.6368564e-3 0.99633804 8.5375750e-2
vn -1.4710577e-3 0.99999695 -1.9855318e-3
vn -1.4710577e-3 0.99999695 -1.9855318e-3
vn 0.12220654 0.98281635 -0.13833869
vn -0.49212683 0.34617669 -0.79873205
vn 0.64261055 0.42478072 -0.63766215
vn 0.64261055 0.42478072 -0.63766215
vn 0.13841076 0.99000967 -2.6894630e-2
vn 0.82578632 0.24305531 -0.50892147
vn 0.58822464 0.13977949 0.79652587
vn 0.82578632 0.24305531 -0.50892147
vn 0.58822464 0.13977949 0.79652587
vn 0.58822464 0.13977949 0.79652587
vn 0.13841076 0.99000967 -2.6894630e-2
vn -0.15057807 0.98857693 -6.4722902e-3
vn -0.58981440 0.14121401 0.79509595
vn -0.58981440 0.14121401 0.79509595
vn -0.58981440 0.14121401 0.79509595
vn -0.83259154 0.24057905 -0.49891187
vn -0.83259154 0.24057905 -0.49891187
vn -0.15057807 0.98857693 -6.4722902e-3
vn -0.13789647 0.98572254 -9.6621125e-2
vn 0.50038505 0.32917994 -0.80078422
vn -0.65480378 0.41214109 -0.63353905
vn -0.65480378 0.41214109 -0.63353905
vn 0.22608810 0.97211508 -6.2261107e-2
vn 0.22608810 -0.97211508 -6.2261107e-2
vn 0.22608810 0.97211508 -6.2261107e-2
vn 0.22608810 -0.97211508 -6.2261107e-2
vn -0.22608810 0.97211508 -6.2261107e-2
vn -0.22608810 -0.97211508 -6.2261107e-2
vn -0.22608810 0.97211508 -6.2261107e-2
vn -0.22608810 -0.97211508 -6.2261107e-2
vn -0.32779811 0.94473616 4.6885314e-3
vn -0.32779811 0.94473616 4.6885314e-3
vn -0.32779811 -0.94473616 4.6885314e-3
vn -0.32779811 -0.94473616 4.6885314e-3
vn -0.28664180 0.95798271 -1.0276134e-2
vn -0.28664180 0.95798271 -1.0276134e-2
vn -0.28664180 -0.95798271 -1.0276134e-2
vn -0.28664180 -0.95798271 -1.0276134e-2
vn -0.28664180 0.95798271 -1.0276134e-2
vn -0.28664180 -0.95798271 -1.0276134e-2
vn 0.28663543 0.95798460 -1.0277600e-2
vn 0.28663543 0.95798460 -1.0277600e-2
vn 0.28663543 -0.95798460 -1.0277600e-2
vn 0.28663543 -0.95798460 -1.0277600e-2
vn 0.28663543 0.95798460 -1.0277600e-2
vn 0.28663543 -0.95798460 -1.0277600e-2
vn 0.32779811 0.94473616 4.6885314e-3
vn 0.32779811 0.94473616 4.6885314e-3
vn 0.32779811 -0.94473616 4.6885314e-3
vn 0.32779811 -0.94473616 4.6885314e-3
vn 0.99990417 6.4648982e-17 -1.3843715e-2
vn 0.99990417 6.4648982e-17 -1.3843715e-2
vn 0.59507272 2.3134770e-18 0.80367186
vn 0.59507272 2.3134770e-18 0.80367186
vn 0.59507272 2.3134770e-18 0.80367186
vn 0.99990417 6.4648982e-17 -1.3843715e-2
vn 0.99990417 6.4648982e-17 -1.3843715e-2
vn -0.99990443 -3.2302980e-17 -1.3825013e-2
vn -0.99990443 -6.4605959e-17 -1.3825013e-2
vn -0.59547648 -2.3136031e-18 0.80337274
vn -0.59547648 -2.3136031e-18 0.80337274
vn -0.59547648 -2.3136031e-18 0.80337274
vn -0.99990443 -4.8454469e-17 -1.3825013e-2
vn -0.99990443 -6.4605959e-17 -1.3825013e-2
vn 0.58172062 0.21062481 0.78564516
vn 0.58172062 0.21062481 0.78564516
vn 0.67203861 0.74048372 -6.9263630e-3
vn 0.67203861 0.74048372 -6.9263630e-3
vn -0.58388709 0.21285549 0.78343373
vn -0.58388709 0.21285549 0.78343373
vn -0.67427999 0.73844527 -6.7138961e-3
vn -0.67427999 0.73844527 -6.7138961e-3
vn 0.99984377 0.0000000e+0 -1.7676110e-2
vn 0.59626357 -3.4436408e-16 -0.80278873
vn 0.59626357 -3.4436408e-16 -0.80278873
vn 0.99984377 0.0000000e+0 -1.7676110e-2
vn 0.65249315 0.75776026 -7.2164722e-3
vn 0.65249315 0.75776026 -7.2164722e-3
vn 0.37484251 0.78595209 -0.49170358
vn 0.37484251 0.78595209 -0.49170358
vn 0.65249315 0.75776026 -7.2164722e-3
vn 0.65249315 0.75776026 -7.2164722e-3
vn 0.37484251 0.78595209 -0.49170358
vn -2.1691746e-3 0.99999753 4.7806578e-4
vn -2.1691746e-3 0.99999753 4.7806578e-4
vn 2.3354469e-4 0.93707709 -0.34912242
vn 2.3354469e-4 0.93707709 -0.34912242
vn 2.3354469e-4 0.93707709 -0.34912242
vn -0.65408508 0.75638621 -7.2533749e-3
vn -0.65408508 0.75638621 -7.2533749e-3
vn -0.37692160 0.78441157 -0.49257344
vn -0.37692160 0.78441157 -0.49257344
vn -0.65408508 0.75638621 -7.2533749e-3
vn -0.65408508 0.75638621 -7.2533749e-3
vn -0.37692160 0.78441157 -0.49257344
vn -0.99983780 -6.6113547e-17 -1.8010534e-2
vn -0.99983780 -6.6113547e-17 -1.8010534e-2
vn -0.59761764 3.4266874e-16 -0.80178124
vn -0.59761764 3.4266874e-16 -0.80178124
vn 0.68739052 -4.3577741e-16 -0.72628801
vn 0.70791598 2.1274106e-16 0.70629665
vn 0.68739052 -4.3577741e-16 -0.72628801
vn 0.70791598 2.1274106e-16 0.70629665
vn 0.68739052 -4.3577741e-16 -0.72628801
vn 0.68739052 -4.3577741e-16 -0.72628801
vn 0.20939390 0.91653239 -0.34076764
vn 0.20939390 0.91653239 -0.34076764
vn 0.35034549 0.67316172 0.65123831
vn 0.35034549 0.67316172 0.65123831
vn 0.20939390 0.91653239 -0.34076764
vn -0.20974243 0.91653659 -0.34054192
vn -0.20974243 0.91653659 -0.34054192
vn -0.34917550 0.67368019 0.65133054
vn -0.34917550 0.67368019 0.65133054
vn -0.20974243 0.91653659 -0.34054192
vn -0.68886899 3.9477447e-17 -0.72488587
vn -0.70472624 -1.5217054e-16 0.70947934
vn -0.68886899 7.8954894e-17 -0.72488587
vn -0.70472624 -1.5217054e-16 0.70947934
vn -0.68886899 7.8954894e-17 -0.72488587
vn -0.68886899 3.9477447e-17 -0.72488587
vn 0.28091586 -0.95947629 -2.2170512e-2
vn -0.28091586 -0.95947629 -2.2170512e-2
vn 0.28091586 -0.95947629 -2.2170512e-2
vn -0.28091586 -0.95947629 -2.2170512e-2
vn -0.28091586 -0.95947629 -2.2170512e-2
vn 0.28091586 -0.95947629 -2.2170512e-2
vn 0.28091586 -0.95947629 -2.2170512e-2
vn -0.28091586 -0.95947629 -2.2170512e-2
vn 0.28091586 -0.95947629 -2.2170512e-2
vn -0.28091586 -0.95947629 -2.2170512e-2
vn 0.23522625 -0.97189938 -8.9564081e-3
vn -0.23523597 -0.97189704 -8.9542203e-3
vn 0.23522625 -0.97189938 -8.9564081e-3
vn -0.23523597 -0.97189704 -8.9542203e-3
vn -0.48493985 -0.35933015 -0.79731749
vn 0.48646180 -0.35513568 -0.79826910
vn -6.3114003e-3 -0.99983811 -1.6849790e-2
vn -6.3114003e-3 -0.99983811 -1.6849790e-2
vn -0.48854718 -0.35276342 -0.79804738
vn 0.49347734 -0.34219519 -0.79961401
vn -0.48854718 -0.35276342 -0.79804738
vn -6.3114003e-3 -0.99983811 -1.6849790e-2
vn -6.3114003e-3 -0.99983811 -1.6849790e-2
vn 0.49347734 -0.34219519 -0.79961401
vn -0.53666010 -0.44177117 0.71891179
vn -1.4710577e-3 -0.99999695 -1.9855318e-3
vn -1.4710577e-3 -0.99999695 -1.9855318e-3
vn 0.53435295 -0.43497287 0.72475205
vn -4.6368564e-3 -0.99633804 8.5375750e-2
vn -4.6368564e-3 -0.99633804 8.5375750e-2
vn -1.4710577e-3 -0.99999695 -1.9855318e-3
vn -1.4710577e-3 -0.99999695 -1.9855318e-3
vn 0.12220654 -0.98281635 -0.13833869
vn -0.49212683 -0.34617669 -0.79873205
vn 0.64261055 -0.42478072 -0.63766215
vn 0.64261055 -0.42478072 -0.63766215
vn 0.13841076 -0.99000967 -2.6894630e-2
vn 0.82578632 -0.24305531 -0.50892147
vn 0.82578632 -0.24305531 -0.50892147
vn 0.58822464 -0.13977949 0.79652587
vn 0.58822464 -0.13977949 0.79652587
vn 0.58822464 -0.13977949 0.79652587
vn 0.13841076 -0.99000967 -2.6894630e-2
vn -0.15057807 -0.98857693 -6.4722902e-3
vn -0.58981440 -0.14121401 0.79509595
vn -0.83259154 -0.24057905 -0.49891187
vn -0.58981440 -0.14121401 0.79509595
vn -0.58981440 -0.14121401 0.79509595
vn -0.83259154 -0.24057905 -0.49891187
vn -0.15057807 -0.98857693 -6.4722902e-3
vn -0.13789647 -0.98572254 -9.6621125e-2
vn -0.65480378 -0.41214109 -0.63353905
vn 0.50038505 -0.32917994 -0.80078422
vn -0.65480378 -0.41214109 -0.63353905
vn 0.67203861 -0.74048372 -6.9263630e-3
vn 0.58172062 -0.21062481 0.78564516
vn 0.58172062 -0.21062481 0.78564516
vn 0.67203861 -0.74048372 -6.9263630e-3
vn -0.58388709 -0.21285549 0.78343373
vn -0.67427999 -0.73844527 -6.7138961e-3
vn -0.58388709 -0.21285549 0.78343373
vn -0.67427999 -0.73844527 -6.7138961e-3
vn 0.65249315 -0.75776026 -7.2164722e-3
vn 0.65249315 -0.75776026 -7.2164722e-3
vn 0.37484251 -0.78595209 -0.49170358
vn 0.37484251 -0.78595209 -0.49170358
vn 0.65249315 -0.75776026 -7.2164722e-3
vn 0.37484251 -0.78595209 -0.49170358
vn 0.65249315 -0.75776026 -7.2164722e-3
vn -2.1691746e-3 -0.99999753 4.7806578e-4
vn -2.1691746e-3 -0.99999753 4.7806578e-4
vn 2.3354469e-4 -0.93707709 -0.34912242
vn 2.3354469e-4 -0.93707709 -0.34912242
vn 2.3354469e-4 -0.93707709 -0.34912242
vn -0.65408508 -0.75638621 -7.2533749e-3
vn -0.65408508 -0.75638621 -7.2533749e-3
vn -0.37692160 -0.78441157 -0.49257344
vn -0.37692160 -0.78441157 -0.49257344
vn -0.65408508 -0.75638621 -7.2533749e-3
vn -0.37692160 -0.78441157 -0.49257344
vn -0.65408508 -0.75638621 -7.2533749e-3
vn 0.20939390 -0.91653239 -0.34076764
vn 0.20939390 -0.91653239 -0.34076764
vn 0.35034549 -0.67316172 0.65123831
vn 0.35034549 -0.67316172 0.65123831
vn 0.20939390 -0.91653239 -0.34076764
vn -0.20974243 -0.91653659 -0.34054192
vn -0.20974243 -0.91653659 -0.34054192
vn -0.34917550 -0.67368019 0.65133054
vn -0.34917550 -0.67368019 0.65133054
vn -0.20974243 -0.91653659 -0.34054192
g dagger_01_default
usemtl default
s 1
f 2//15 36//205 35//199
f 3//17 16//94 4//23
f 4//21 15//90 3//16
f 4//28 17//102 5//34
f 5//31 17//99 6//37
f 7//46 15//92 4//27
f 8//48 11//68 10//64
f 8//53 12//81 9//61
f 9//60 11//74 8//52
f 9//62 25//145 22//131
f 12//75 8//49 13//82
f 17//98 4//24 16//95
f 20//115 44//247 42//239
f 21//126 27//157 23//135
f 21//127 46//263 28//160
f 22//130 25//144 20//119
f 23//134 27//156 9//63
f 24//136 20//114 25//140
f 24//139 44//253 20//120
f 25//141 9//57 26//147
f 26//148 9//58 27//152
f 27//153 21//121 28//159
f 30//171 33//1 29//164
f 32//180 33//1 31//176
f 32//182 48//273 33//1
f 33//1 30//172 31//177
f 33//1 47//268 29//166
f 37//215 46//265 43//246
f 38//218 36//203 2//10
f 42//242 44//251 37//216
f 43//244 46//260 21//122
f 45//254 37//210 44//248
f 46//259 37//211 45//255
f 48//274 47//269 33//1
s 2
f 1//7 14//88 4//26
f 2//9 18//104 5//30
f 2//13 50//3 38//220
f 4//22 19//110 1//4
f 5//35 18//108 4//29
f 6//43 8//55 5//33
f 6//38 36//204 41//237
f 7//44 4//20 14//86
f 10//67 50//3 2//12
f 11//69 50//3 10//66
f 12//76 23//132 9//59
f 13//83 8//51 6//36
f 19//111 4//25 18//105
f 21//124 40//232 43//245
f 23//133 12//78 21//125
f 25//146 29//168 24//138
f 26//149 30//170 25//143
f 27//154 31//174 26//150
f 27//155 32//179 31//175
f 28//162 32//184 27//158
f 28//161 46//264 32//183
f 29//167 44//252 24//137
f 30//169 29//163 25//142
f 31//178 30//173 26//151
f 35//200 36//208 6//42
f 37//209 43//243 40//229
f 38//219 50//3 39//222
f 39//223 50//3 11//71
f 40//231 21//123 12//77
f 44//249 29//165 47//266
f 44//250 47//267 45//256
f 45//258 47//270 48//275
f 45//257 48//271 46//261
f 48//272 32//181 46//262
s 3
f 1//5 34//185 14//87
f 2//8 8//50 10//65
f 2//11 35//195 18//106
f 5//32 8//54 2//14
f 6//41 49//2 13//85
f 9//56 22//128 11//70
f 11//72 20//116 39//225
f 12//80 49//2 40//233
f 13//84 49//2 12//79
f 14//89 34//191 7//47
f 18//109 34//193 19//113
f 19//112 34//187 1//6
f 20//117 11//73 22//129
f 34//190 18//107 35//197
f 39//224 42//240 37//212
f 40//230 49//2 41//236
f 41//238 49//2 6//40
f 42//241 39//226 20//118
s 4
f 3//18 34//188 16//96
f 7//45 34//186 15//91
f 15//93 34//192 3//19
f 16//97 34//194 17//103
f 17//101 35//198 6//39
f 35//196 17//100 34//189
f 36//207 39//227 37//214
f 37//213 40//234 36//206
f 38//217 39//221 36//201
f 41//235 36//202 40//228
