# Exported from Wings 3D 2.1.5
mtllib dagger_02.mtl
o dagger_02
#54 vertices, 104 faces
v -1.4432899e-16 -0.24354455 1.56943683
v -1.41421356 2.9630330e-17 0.90150150
v 1.41421356 -9.0826427e-18 0.90150150
v 8.9743963e-16 2.7574055e-17 -7.11747302
v 0.91923882 -0.12177227 1.30801400
v -0.91923882 -0.12177227 1.30801400
v -1.3485638e-16 -0.35107672 1.83468441
v 1.64644478 -1.2871261e-17 1.18426916
v -1.64644478 3.2198856e-17 1.18426916
v 1.00592041 -0.29313759 1.47357137
v -1.00592041 -0.29313759 1.47357137
v 1.53032917 -0.19813184 1.04288533
v -1.53032917 -0.19813184 1.04288533
v 1.09260201 -6.2720765e-18 1.63912875
v -1.09260201 2.3637035e-17 1.63912875
v -1.75917280 3.4803766e-17 0.69201681
v 1.75917280 -1.3352191e-17 0.69201681
v -0.93762359 3.1757300e-17 -3.10798576
v 0.93762359 6.0905990e-18 -3.10798576
v -0.33633786 1.2621950e-17 1.96551069
v 0.33633786 3.4149679e-18 1.96551069
v 0.33633786 -2.0835132e-18 5.52648401
v -6.5205714e-16 -0.31401010 5.52648401
v -0.33633786 7.1234685e-18 5.52648401
v -0.69368070 1.4763697e-17 3.74599735
v -5.0986016e-16 -0.48273820 3.74599735
v 0.69368070 -4.2252607e-18 3.74599735
v 0.50854285 -4.9570081e-18 5.86098910
v -3.1803837e-16 -0.42119222 5.86098910
v -0.50854285 8.9639482e-18 5.86098910
v 6.6613381e-16 6.3339494e-20 7.11747302
v 0.42259911 -4.7507526e-18 6.48923106
v -0.42259911 6.8175621e-18 6.48923106
v 1.1287508e-16 -0.28257111 6.48923106
v -1.3766215e-16 0.24354455 1.56943683
v 0.91923882 0.12177227 1.30801400
v -0.91923882 0.12177227 1.30801400
v -1.2524968e-16 0.35107672 1.83468441
v 1.00592041 0.29313759 1.47357137
v -1.00592041 0.29313759 1.47357137
v 1.53032917 0.19813184 1.04288533
v -1.53032917 0.19813184 1.04288533
v -6.4346136e-16 0.31401010 5.52648401
v -4.9664559e-16 0.48273820 3.74599735
v -3.0650857e-16 0.42119222 5.86098910
v 1.2061024e-16 0.28257111 6.48923106
v 0.42102148 -0.33426248 3.74711478
v -0.42102148 -0.33426248 3.74711478
v 0.42102148 0.33426248 3.74711478
v -0.42102148 0.33426248 3.74711478
v 0.57989493 -9.9214716e-18 2.83033188
v -0.57989493 2.3209148e-17 2.83033188
v -0.57989493 2.5209114e-17 4.66166282
v 0.57989493 -1.7419919e-17 4.66166282
vn 0.81156995 0.0000000e+0 0.58425527
vn -0.81156995 1.4510998e-16 0.58425527
vn 0.15246990 -0.98550575 7.4373008e-2
vn -0.15246990 -0.98550575 7.4373008e-2
vn 0.20130327 -0.95701346 -0.20881147
vn -0.20130327 -0.95701346 -0.20881147
vn 0.52087136 -3.3127835e-17 0.85363519
vn -0.52087136 0.0000000e+0 0.85363519
vn -0.66752637 -1.8344756e-16 -0.74458616
vn 0.66752637 -1.8344756e-16 -0.74458616
vn 0.98396282 8.7993594e-17 -0.17837366
vn -2.3734138e-16 -0.99597040 -8.9682552e-2
vn -0.98396282 -4.3996797e-17 -0.17837366
vn -3.9626153e-16 2.3775692e-16 1.00000000
vn 0.94008426 -6.1293049e-17 0.34094220
vn -0.94008426 9.1939574e-17 0.34094220
vn -1.9799793e-16 -0.94894427 0.31544377
vn 0.15246990 0.98550575 7.4373008e-2
vn -0.15246990 0.98550575 7.4373008e-2
vn 0.20130327 0.95701346 -0.20881147
vn -0.20130327 0.95701346 -0.20881147
vn -2.7385544e-16 0.99597040 -8.9682552e-2
vn -3.2999655e-17 0.94894427 0.31544377
vn 0.98167147 -1.5714589e-16 -0.19058101
vn -0.98167147 7.8572943e-17 -0.19058101
vn -0.98166799 1.9630991e-16 0.19059895
vn 0.98166799 -1.9630991e-16 0.19059895
vn 0.12349610 -0.99195529 -2.7810269e-2
vn 6.7414798e-17 -0.83906334 -0.54403374
vn 6.7414798e-17 -0.83906334 -0.54403374
vn -0.12349610 -0.99195529 -2.7810269e-2
vn 6.7414798e-17 -0.83906334 -0.54403374
vn 6.7414798e-17 -0.83906334 -0.54403374
vn -0.21863628 -0.97546029 -2.5988325e-2
vn 0.50488847 2.5817463e-17 -0.86318459
vn 0.50488847 2.5817463e-17 -0.86318459
vn -0.21863628 0.97546029 -2.5988325e-2
vn 0.50488847 5.1634926e-17 -0.86318459
vn 0.50488847 -5.1634926e-17 -0.86318459
vn 0.50488847 -5.1634926e-17 -0.86318459
vn 0.50488847 5.1634926e-17 -0.86318459
vn -0.50488847 -1.0326985e-16 -0.86318459
vn -0.50488847 -1.0326985e-16 -0.86318459
vn 0.21863628 -0.97546029 -2.5988325e-2
vn -0.50488847 -7.7452388e-17 -0.86318459
vn -0.50488847 -1.8072224e-16 -0.86318459
vn 0.21863628 0.97546029 -2.5988325e-2
vn -0.50488847 -1.8072224e-16 -0.86318459
vn -0.50488847 -1.5490478e-16 -0.86318459
vn 0.11927109 -0.99248476 -2.7356963e-2
vn -0.11927109 -0.99248476 -2.7356963e-2
vn -0.11927109 -0.99248476 -2.7356963e-2
vn 0.11927109 -0.99248476 -2.7356963e-2
vn 0.11927109 0.99248476 -2.7356963e-2
vn -0.11927109 0.99248476 -2.7356963e-2
vn -0.11927109 0.99248476 -2.7356963e-2
vn 0.11927109 0.99248476 -2.7356963e-2
vn 0.15256544 -0.98792636 -2.6931183e-2
vn 0.15256544 -0.98792636 -2.6931183e-2
vn 0.15256544 -0.98792636 -2.6931183e-2
vn -0.20757563 -0.73196074 -0.64895750
vn -0.20757563 -0.73196074 -0.64895750
vn -0.15256544 -0.98792636 -2.6931183e-2
vn -0.15256544 -0.98792636 -2.6931183e-2
vn -0.15256544 -0.98792636 -2.6931183e-2
vn 0.20757563 -0.73196074 -0.64895750
vn 0.20757563 -0.73196074 -0.64895750
vn -1.7935477e-17 -0.96868832 0.24827995
vn -1.7935477e-17 -0.96868832 0.24827995
vn -1.7935477e-17 -0.96868832 0.24827995
vn -1.7935477e-17 -0.96868832 0.24827995
vn -1.3805437e-16 -0.99039474 -0.13826880
vn -1.2079757e-16 -0.99039474 -0.13826880
vn -1.3805437e-16 -0.99039474 -0.13826880
vn -1.3805437e-16 -0.99039474 -0.13826880
vn -0.16707079 -0.98558918 -2.6482310e-2
vn -0.16707079 -0.98558918 -2.6482310e-2
vn -0.16707079 0.98558918 -2.6482310e-2
vn -0.16707079 0.98558918 -2.6482310e-2
vn 0.16707079 -0.98558918 -2.6482310e-2
vn 0.16707079 -0.98558918 -2.6482310e-2
vn 0.16707079 0.98558918 -2.6482310e-2
vn 0.16707079 0.98558918 -2.6482310e-2
vn -0.38509225 1.3362807e-16 0.92287809
vn -0.38509225 1.0022105e-16 0.92287809
vn -0.97153928 1.5889395e-16 -0.23687849
vn -0.97153928 1.1917046e-16 -0.23687849
vn -0.97153928 1.9861744e-16 -0.23687849
vn -0.97153928 1.5889395e-16 -0.23687849
vn -0.38509225 1.0022105e-16 0.92287809
vn -0.38509225 1.0022105e-16 0.92287809
vn 0.38509225 3.3407017e-17 0.92287809
vn 0.38509225 6.6814034e-17 0.92287809
vn 0.97153928 -3.9723488e-17 -0.23687849
vn 0.97153928 -7.9446976e-17 -0.23687849
vn 0.97153928 -3.9723488e-17 -0.23687849
vn 0.97153928 -3.9723488e-17 -0.23687849
vn 0.38509225 3.3407017e-17 0.92287809
vn 0.38509225 6.6814034e-17 0.92287809
vn 0.92031140 4.0211430e-17 -0.39118657
vn 0.92031140 0.0000000e+0 -0.39118657
vn 0.96675485 -1.2487551e-16 0.25570502
vn 0.96675485 -1.2487551e-16 0.25570502
vn 0.96675485 -8.3250341e-17 0.25570502
vn 0.96675485 -8.3250341e-17 0.25570502
vn 0.92031140 4.0211430e-17 -0.39118657
vn 0.92031140 0.0000000e+0 -0.39118657
vn -1.3219064e-16 -0.98827967 0.15265418
vn -1.4871447e-16 -0.98827967 0.15265418
vn -1.3219064e-16 -0.98827967 0.15265418
vn -1.3219064e-16 -0.98827967 0.15265418
vn -2.2283641e-16 -0.95230798 -0.30513851
vn -2.2283641e-16 -0.95230798 -0.30513851
vn -0.96675485 2.0812585e-16 0.25570502
vn -0.92031140 -4.0211430e-17 -0.39118657
vn -0.92031140 -4.0211430e-17 -0.39118657
vn -0.96675485 1.6650068e-16 0.25570502
vn -0.96675485 2.0812585e-16 0.25570502
vn -0.96675485 2.0812585e-16 0.25570502
vn -0.92031140 -4.0211430e-17 -0.39118657
vn -0.92031140 0.0000000e+0 -0.39118657
vn -0.99236731 0.0000000e+0 0.12331717
vn -0.99236731 7.1433213e-17 -0.12331717
vn -0.99236731 0.0000000e+0 0.12331717
vn -0.99236731 7.1433213e-17 -0.12331717
vn -2.9424932e-17 -0.99763581 -6.8722497e-2
vn -2.9414148e-17 -0.99553980 9.4342483e-2
vn -2.9424932e-17 -0.99763581 -6.8722497e-2
vn -2.9414148e-17 -0.99553980 9.4342483e-2
vn 0.99236731 -7.1433213e-17 -0.12331717
vn 0.99236731 -2.1421325e-16 0.12331717
vn 0.99236731 -2.1421325e-16 0.12331717
vn 0.99236731 -7.1433213e-17 -0.12331717
vn 0.12349610 0.99195529 -2.7810269e-2
vn 2.1288884e-17 0.83906334 -0.54403374
vn 2.1288884e-17 0.83906334 -0.54403374
vn -0.12349610 0.99195529 -2.7810269e-2
vn 2.1288884e-17 0.83906334 -0.54403374
vn 2.1288884e-17 0.83906334 -0.54403374
vn 0.15256544 0.98792636 -2.6931183e-2
vn 0.15256544 0.98792636 -2.6931183e-2
vn 0.15256544 0.98792636 -2.6931183e-2
vn -0.20757563 0.73196074 -0.64895750
vn -0.20757563 0.73196074 -0.64895750
vn -0.15256544 0.98792636 -2.6931183e-2
vn -0.15256544 0.98792636 -2.6931183e-2
vn -0.15256544 0.98792636 -2.6931183e-2
vn 0.20757563 0.73196074 -0.64895750
vn 0.20757563 0.73196074 -0.64895750
vn -3.5870955e-17 0.96868832 0.24827995
vn -3.1387085e-17 0.96868832 0.24827995
vn -3.5870955e-17 0.96868832 0.24827995
vn -3.5870955e-17 0.96868832 0.24827995
vn -1.8982476e-16 0.99039474 -0.13826880
vn -2.4159514e-16 0.99039474 -0.13826880
vn -2.0708155e-16 0.99039474 -0.13826880
vn -2.4159514e-16 0.99039474 -0.13826880
vn -2.2283641e-16 0.95230798 -0.30513851
vn -2.2283641e-16 0.95230798 -0.30513851
vn -1.6523830e-16 0.98827967 0.15265418
vn -1.6523830e-16 0.98827967 0.15265418
vn -1.6523830e-16 0.98827967 0.15265418
vn -1.6523830e-16 0.98827967 0.15265418
vn -1.4712466e-16 0.99763581 -6.8722497e-2
vn -1.4712466e-16 0.99763581 -6.8722497e-2
vn -1.1765659e-16 0.99553980 9.4342483e-2
vn -1.1765659e-16 0.99553980 9.4342483e-2
vn 0.63032121 -0.76605163 -0.12593676
vn 0.61062287 -0.78045728 0.13426146
vn 0.63032121 -0.76605163 -0.12593676
vn 0.61062287 -0.78045728 0.13426146
vn 0.63032121 -0.76605163 -0.12593676
vn 0.61062287 -0.78045728 0.13426146
vn 0.63032121 -0.76605163 -0.12593676
vn 0.61062287 -0.78045728 0.13426146
vn -0.63032121 -0.76605163 -0.12593676
vn -0.61062287 -0.78045728 0.13426146
vn -0.63032121 -0.76605163 -0.12593676
vn -0.61062287 -0.78045728 0.13426146
vn -0.63032121 -0.76605163 -0.12593676
vn -0.61062287 -0.78045728 0.13426146
vn -0.61062287 -0.78045728 0.13426146
vn -0.63032121 -0.76605163 -0.12593676
vn 0.63032121 0.76605163 -0.12593676
vn 0.61062287 0.78045728 0.13426146
vn 0.63032121 0.76605163 -0.12593676
vn 0.61062287 0.78045728 0.13426146
vn 0.63032121 0.76605163 -0.12593676
vn 0.61062287 0.78045728 0.13426146
vn 0.61062287 0.78045728 0.13426146
vn 0.63032121 0.76605163 -0.12593676
vn -0.63032121 0.76605163 -0.12593676
vn -0.61062287 0.78045728 0.13426146
vn -0.63032121 0.76605163 -0.12593676
vn -0.61062287 0.78045728 0.13426146
vn -0.63032121 0.76605163 -0.12593676
vn -0.61062287 0.78045728 0.13426146
vn -0.63032121 0.76605163 -0.12593676
vn -0.61062287 0.78045728 0.13426146
g dagger_02_default
usemtl default
s 1
f 1//31 6//64 4//51
f 2//34 18//76 6//63
f 4//52 6//65 18//77
f 4//57 36//142 19//83
f 19//82 36//141 3//47
f 22//105 47//175 54//27
f 22//103 49//189 43//162
f 23//110 47//173 22//102
f 23//109 48//179 26//129
f 24//117 48//181 23//111
f 24//114 50//193 53//26
f 25//124 53//26 50//199
f 26//127 47//169 23//108
f 27//132 54//27 47//171
f 35//134 36//140 4//54
f 43//160 49//187 44//166
f 43//163 50//197 24//118
f 44//167 50//195 43//161
f 48//177 53//26 25//122
f 49//185 54//27 27//131
f 53//26 48//182 24//119
f 54//27 49//190 22//104
s 2
f 2//37 37//145 18//78
f 4//50 5//58 1//28
f 4//55 37//146 35//137
f 5//59 19//80 3//44
f 7//73 47//170 26//128
f 7//74 48//180 20//87
f 18//79 37//147 4//56
f 19//81 5//60 4//53
f 20//88 50//196 38//157
f 20//89 52//25 50//198
f 21//96 47//172 7//75
f 21//97 51//24 47//174
f 22//107 29//12 23//113
f 22//106 45//22 28//11
f 23//112 29//12 24//121
f 24//116 29//12 30//13
f 24//115 45//22 43//158
f 25//123 50//192 52//25
f 26//126 48//176 7//72
f 27//130 47//168 51//24
f 28//11 29//12 22//101
f 28//11 45//22 32//15
f 29//12 32//15 34//17
f 30//13 29//12 33//16
f 30//13 45//22 24//120
f 31//14 34//17 32//15
f 31//14 46//23 33//16
f 32//15 29//12 28//11
f 32//15 46//23 31//14
f 33//16 34//17 31//14
f 33//16 45//22 30//13
f 34//17 33//16 29//12
f 38//156 49//188 21//95
f 38//155 50//194 44//165
f 43//159 45//22 22//100
f 44//164 49//184 38//154
f 45//22 33//16 46//23
f 46//23 32//15 45//22
f 48//178 52//25 20//86
f 49//186 51//24 21//94
f 51//24 49//191 27//133
f 52//25 48//183 25//125
s 3
f 1//29 10//3 7//68
f 1//32 11//4 6//67
f 2//35 11//4 13//6
f 2//40 40//19 37//149
f 3//49 10//3 5//62
f 3//43 17//10 12//5
f 3//45 39//18 41//20
f 3//46 41//20 17//10
f 5//61 10//3 1//33
f 6//66 11//4 2//41
f 7//69 11//4 1//30
f 7//70 20//84 11//4
f 8//1 10//3 12//5
f 8//1 39//18 14//7
f 9//2 16//9 13//6
f 9//2 40//19 42//21
f 9//2 42//21 16//9
f 10//3 21//92 7//71
f 11//4 20//90 15//8
f 12//5 10//3 3//42
f 12//5 17//10 8//1
f 13//6 11//4 9//2
f 13//6 16//9 2//36
f 14//7 10//3 8//1
f 14//7 21//98 10//3
f 14//7 39//18 21//99
f 15//8 9//2 11//4
f 15//8 40//19 9//2
f 16//9 42//21 2//39
f 17//10 41//20 8//1
f 20//91 40//19 15//8
f 35//138 39//18 36//143
f 35//136 40//19 38//151
f 36//144 39//18 3//48
f 37//148 40//19 35//139
f 38//153 21//93 39//18
f 38//150 39//18 35//135
f 38//152 40//19 20//85
f 41//20 39//18 8//1
f 42//21 40//19 2//38
