# Exported from Wings 3D 2.1.5
mtllib dagger_12.mtl
o dagger_12
#62 vertices, 120 faces
v -0.28425084 -7.6272232e-2 1.72949507
v -0.28425084 7.6218927e-2 1.72949507
v 0.28430159 7.6218927e-2 1.72949507
v 0.28430159 -7.6272232e-2 1.72949507
v -0.30458592 -7.6272232e-2 4.23786557
v -0.30458592 7.6218927e-2 4.23786557
v 0.30463667 7.6218927e-2 4.23786557
v 0.30463667 -7.6272232e-2 4.23786557
v -0.22265106 -9.1521348e-2 2.18504658
v -0.34636740 -0.10487957 2.69715214
v -0.22265106 9.1468043e-2 2.18504658
v -0.34636740 0.10482627 2.69715214
v 0.22270181 9.1468043e-2 2.18504658
v 0.34641815 0.10482627 2.69715214
v 0.22270181 -9.1521348e-2 2.18504658
v 0.34641815 -0.10487957 2.69715214
v 0.36136366 -0.10487957 3.35453221
v 0.26119898 -9.1521348e-2 3.87736957
v 0.36136366 0.10482627 3.35453221
v 0.26119898 9.1468043e-2 3.87736957
v -0.36131291 0.10482627 3.35453221
v -0.26114823 9.1468043e-2 3.87736957
v -0.36131291 -0.10487957 3.35453221
v -0.26114823 -9.1521348e-2 3.87736957
v 2.5375337e-5 -0.19156165 2.18504658
v 2.5375337e-5 0.19150834 2.18504658
v 2.5375337e-5 -0.19156165 3.87736957
v 2.5375337e-5 0.19150834 3.87736957
v 2.5375337e-5 -0.23373127 4.32415360
v 2.5375337e-5 0.23367796 4.32415360
v 2.5375337e-5 -0.15963915 1.72949507
v 2.5375337e-5 0.15958584 1.72949507
v -0.50617936 -2.6652791e-5 4.40074875
v 0.50623011 -2.6652791e-5 4.40074875
v 2.5375337e-5 -2.6652791e-5 4.84354923
v -0.32044956 -2.6652791e-5 4.70224706
v 0.32050031 -2.6652791e-5 4.70224706
v -0.10748433 -0.21870756 2.65126702
v 0.10753508 -0.21870756 2.65126702
v -0.10748433 0.21865425 2.65126702
v 0.10753508 0.21865425 2.65126702
v -0.10791686 -0.22025827 3.40041734
v 0.10796761 -0.22025827 3.40041734
v -0.10791686 0.22020496 3.40041734
v 0.10796761 0.22020496 3.40041734
v -8.5471357e-4 -0.14901719 1.65946441
v -5.8702010e-4 0.15010808 1.65946441
v -0.64932205 5.4736235e-4 1.57656695
v 0.64853518 5.4543634e-4 1.57656695
v -8.6215471e-4 -7.7231134e-2 -2.77048577
v -6.8061632e-4 7.8321832e-2 -2.77048577
v -5.9318309e-4 5.4592106e-4 -3.61469981
v -0.34901011 5.4521534e-4 -0.43795658
v 0.34822324 5.4748297e-4 -0.43795658
v -0.41120491 5.4119852e-4 0.71383768
v 0.41041804 5.5124175e-4 0.71383768
v -0.43776781 5.4804060e-4 -1.58952672
v 0.43693925 5.4480536e-4 -1.58952672
v -0.29129411 5.5361534e-4 -2.76150630
v 0.29034419 5.3939330e-4 -2.76151737
v -9.3532542e-4 -0.10116343 -0.59659489
v -6.5053766e-4 0.10225432 -0.59659489
vn -0.67151370 -0.71286931 0.20220460
vn -0.55065654 0.80891898 0.20597928
vn 0.67120933 0.71230467 0.20518307
vn 0.55137021 -0.81017158 0.19902987
vn -0.83549763 -0.54626652 -5.9469222e-2
vn -0.83712668 -0.53387022 -0.11917012
vn -0.88445288 0.46017016 -7.7372720e-2
vn -0.84138422 0.52748589 -0.11760627
vn 0.83549763 0.54626652 -5.9469222e-2
vn 0.83712668 0.53387022 -0.11917012
vn 0.88445288 -0.46017016 -7.7372720e-2
vn 0.84138422 -0.52748589 -0.11760627
vn 0.83599640 -0.54227340 8.3961763e-2
vn 0.82093249 -0.56901177 4.7910781e-2
vn 0.83946212 0.53784876 7.7601922e-2
vn 0.83497302 0.54875464 4.1090223e-2
vn -0.84254804 0.53659628 4.6660789e-2
vn -0.83497302 0.54875464 4.1090223e-2
vn -0.89807746 -0.42687269 0.10600274
vn -0.74681855 -0.66097672 7.3292771e-2
vn -6.0375465e-2 -0.99529543 -7.5774671e-2
vn 6.0375465e-2 0.99529543 -7.5774671e-2
vn 5.8514432e-2 -0.99765596 3.5477304e-2
vn -1.1781800e-17 0.99945036 3.3150774e-2
vn -7.3156919e-5 -0.99392782 -0.11003404
vn -4.5702349e-5 0.99477723 -0.10206993
vn -0.22622485 -0.97247323 -5.5840327e-2
vn 0.24890611 -0.96715789 -5.1491473e-2
vn -0.24890611 0.96715789 -5.1491473e-2
vn 0.22622485 0.97247323 -5.5840327e-2
vn -0.23778032 -0.97042291 4.1712109e-2
vn 0.21720723 -0.97467622 5.3172163e-2
vn -0.24466505 0.96770780 6.0668152e-2
vn 0.23778032 0.97042291 4.1712109e-2
vn -0.83163519 -0.54663434 -9.7845800e-2
vn -0.83163519 -0.54663434 -9.7845800e-2
vn -0.62847185 0.0000000e+0 -0.77783233
vn -0.43058373 -0.89534716 -0.11380299
vn -0.83163519 -0.54663434 -9.7845800e-2
vn -0.83163519 -0.54663434 -9.7845800e-2
vn -0.62847185 0.0000000e+0 -0.77783233
vn -0.43058373 0.89534716 -0.11380299
vn -0.84916184 0.52200192 -8.0238217e-2
vn -0.84916184 0.52200192 -8.0238217e-2
vn 0.62847185 0.0000000e+0 -0.77783233
vn 0.43058373 0.89534716 -0.11380299
vn 0.84916184 0.52200192 -8.0238217e-2
vn 0.84916184 0.52200192 -8.0238217e-2
vn 0.83163519 -0.54663434 -9.7845800e-2
vn 0.62847185 0.0000000e+0 -0.77783233
vn 0.43058373 -0.89534716 -0.11380299
vn 0.83163519 -0.54663434 -9.7845800e-2
vn 0.83163519 -0.54663434 -9.7845800e-2
vn 0.83163519 -0.54663434 -9.7845800e-2
vn 0.0000000e+0 -0.99557530 -9.3967176e-2
vn 0.0000000e+0 -0.98159785 0.19095983
vn -1.0133584e-17 -0.98159785 0.19095983
vn 0.0000000e+0 -0.99557530 -9.3967176e-2
vn 1.0133584e-17 -0.98159785 0.19095983
vn 1.0133584e-17 -0.98159785 0.19095983
vn 1.0133584e-17 -0.98159785 0.19095983
vn 1.0133584e-17 -0.98159785 0.19095983
vn -1.5221549e-17 0.99834060 -5.7585117e-2
vn 0.0000000e+0 0.98159785 0.19095983
vn -1.0133584e-17 0.98159785 0.19095983
vn -1.5221549e-17 0.99834060 -5.7585117e-2
vn 1.0133584e-17 0.98159785 0.19095983
vn 1.0133584e-17 0.98159785 0.19095983
vn 1.0133584e-17 0.98159785 0.19095983
vn 1.0133584e-17 0.98159785 0.19095983
vn -3.0443098e-17 0.99834060 -5.7585117e-2
vn -1.5221549e-17 0.99834060 -5.7585117e-2
vn -0.62847185 0.0000000e+0 -0.77783233
vn -0.41082562 -0.90969988 6.0567677e-2
vn -0.41082562 0.90969988 6.0567677e-2
vn -0.41082562 0.90969988 6.0567677e-2
vn -0.41082562 -0.90969988 6.0567677e-2
vn 0.62847185 0.0000000e+0 -0.77783233
vn 0.41082562 0.90969988 6.0567677e-2
vn 0.41082562 -0.90969988 6.0567677e-2
vn 0.41082562 0.90969988 6.0567677e-2
vn 0.41082562 -0.90969988 6.0567677e-2
vn -2.8206171e-17 -0.91193689 0.41033049
vn -2.8206171e-17 -0.91193689 0.41033049
vn -2.8206171e-17 0.91193689 0.41033049
vn -2.8206171e-17 0.91193689 0.41033049
vn -0.28062125 -0.90447498 0.32121133
vn -0.28062125 0.90447498 0.32121133
vn -0.28062125 0.90447498 0.32121133
vn -0.28062125 -0.90447498 0.32121133
vn 0.28062125 -0.90447498 0.32121133
vn 0.28062125 0.90447498 0.32121133
vn 0.28062125 0.90447498 0.32121133
vn 0.28062125 -0.90447498 0.32121133
vn -0.25928194 -0.96496870 -4.0103318e-2
vn 0.25881652 -0.96509449 -4.0082928e-2
vn -0.25928194 -0.96496870 -4.0103318e-2
vn 0.25881652 -0.96509449 -4.0082928e-2
vn -2.3605609e-4 -0.99917399 -4.0635944e-2
vn -2.3605609e-4 -0.99917399 -4.0635944e-2
vn -2.3605609e-4 -0.99917399 -4.0635944e-2
vn -2.3605609e-4 -0.99917399 -4.0635944e-2
vn 0.25893809 0.96506173 -4.0086338e-2
vn -0.25915404 0.96500322 -4.0099579e-2
vn 0.25893809 0.96506173 -4.0086338e-2
vn -0.25915404 0.96500322 -4.0099579e-2
vn -1.4137084e-4 0.99962706 -2.7307782e-2
vn -1.4137084e-4 0.99962706 -2.7307782e-2
vn -1.4137084e-4 0.99962706 -2.7307782e-2
vn -1.4137084e-4 0.99962706 -2.7307782e-2
vn -0.21706202 -0.97431807 -5.9903127e-2
vn -0.21697279 0.97433860 -5.9892421e-2
vn -0.62396826 -7.1808361e-4 0.78144936
vn -0.62396826 -7.1808361e-4 0.78144936
vn -0.62396826 -7.1808361e-4 0.78144936
vn 0.21685852 0.97436681 -5.9847364e-2
vn 0.21677481 -0.97438605 -5.9837374e-2
vn 0.62584553 -7.7865356e-4 0.77994664
vn 0.62584553 -7.7865356e-4 0.77994664
vn 0.62584553 -7.7865356e-4 0.77994664
vn -0.24128621 -0.96945592 -4.4002088e-2
vn 0.24067602 -0.96961105 -4.3925579e-2
vn -0.24128621 -0.96945592 -4.4002088e-2
vn 0.24067602 -0.96961105 -4.3925579e-2
vn -0.24128621 -0.96945592 -4.4002088e-2
vn 0.24067602 -0.96961105 -4.3925579e-2
vn 0.24083802 0.96956944 -4.3956121e-2
vn -0.24111116 0.96950092 -4.3970092e-2
vn 0.24083802 0.96956944 -4.3956121e-2
vn -0.24111116 0.96950092 -4.3970092e-2
vn 0.24083802 0.96956944 -4.3956121e-2
vn -0.24111116 0.96950092 -4.3970092e-2
vn -0.26024452 -0.96146337 -8.8662098e-2
vn 0.25955128 -0.96166430 -8.8515000e-2
vn 0.25973928 0.96160899 -8.8564395e-2
vn -0.26004163 0.96152304 -8.8610309e-2
vn -0.27933233 -0.96019064 2.7178050e-3
vn -0.27912131 0.96025199 2.7218222e-3
vn -0.27933233 -0.96019064 2.7178050e-3
vn -0.27912131 0.96025199 2.7218222e-3
vn 0.27854103 -0.96042050 2.7121969e-3
vn 0.27874191 0.96036223 2.7084170e-3
vn 0.27854103 -0.96042050 2.7121969e-3
vn 0.27874191 0.96036223 2.7084170e-3
vn -0.26855144 -0.96273698 -3.1900298e-2
vn -0.26839186 0.96278177 -3.1891565e-2
vn -0.26855144 -0.96273698 -3.1900298e-2
vn -0.26839186 0.96278177 -3.1891565e-2
vn -0.26855144 -0.96273698 -3.1900298e-2
vn -0.26839186 0.96278177 -3.1891565e-2
vn 0.26796201 -0.96290223 -3.1869485e-2
vn 0.26811387 0.96285968 -3.1877667e-2
vn 0.26796201 -0.96290223 -3.1869485e-2
vn 0.26811387 0.96285968 -3.1877667e-2
vn 0.26796201 -0.96290223 -3.1869485e-2
vn 0.26811387 0.96285968 -3.1877667e-2
vn -0.24502657 -0.96948785 -7.4353619e-3
vn -0.24485272 0.96953186 -7.4242651e-3
vn -0.24502657 -0.96948785 -7.4353619e-3
vn -0.24485272 0.96953186 -7.4242651e-3
vn -0.24502657 -0.96948785 -7.4353619e-3
vn -0.24485272 0.96953186 -7.4242651e-3
vn 0.24439864 -0.96964639 -7.4290622e-3
vn 0.24456115 0.96960533 -7.4396816e-3
vn 0.24439864 -0.96964639 -7.4290622e-3
vn 0.24456115 0.96960533 -7.4396816e-3
vn 0.24439864 -0.96964639 -7.4290622e-3
vn 0.24456115 0.96960533 -7.4396816e-3
vn -0.25997850 -0.96371260 -6.0573893e-2
vn -0.25977533 0.96377011 -6.0530680e-2
vn -0.25997850 -0.96371260 -6.0573893e-2
vn -0.25977533 0.96377011 -6.0530680e-2
vn 0.25928609 -0.96390591 -6.0465810e-2
vn 0.25947431 0.96385269 -6.0506765e-2
vn 0.25928609 -0.96390591 -6.0465810e-2
vn 0.25947431 0.96385269 -6.0506765e-2
vn 0.26529391 -0.96414633 -6.4024526e-3
vn -0.26596108 -0.96396255 -6.3964128e-3
vn 0.26529391 -0.96414633 -6.4024526e-3
vn -0.26596108 -0.96396255 -6.3964128e-3
vn 0.26529391 -0.96414633 -6.4024526e-3
vn -0.26596108 -0.96396255 -6.3964128e-3
vn 0.26529391 -0.96414633 -6.4024526e-3
vn -0.26596108 -0.96396255 -6.3964128e-3
vn -0.26578447 0.96401128 -6.3929131e-3
vn 0.26546139 0.96410021 -6.4058925e-3
vn -0.26578447 0.96401128 -6.3929131e-3
vn 0.26546139 0.96410021 -6.4058925e-3
vn -0.26578447 0.96401128 -6.3929131e-3
vn 0.26546139 0.96410021 -6.4058925e-3
vn -0.26578447 0.96401128 -6.3929131e-3
vn 0.26546139 0.96410021 -6.4058925e-3
g dagger_12_default
usemtl default
s 1
f 5//37 33//73 6//41
f 7//45 34//78 8//50
f 46//98 56//155 49//117
f 47//106 55//150 48//112
f 50//122 60//173 58//163
f 51//128 59//170 57//158
f 52//136 59//172 51//130
f 52//134 60//175 50//124
f 53//138 62//189 57//162
f 54//141 61//181 58//167
f 55//148 62//191 53//140
f 56//153 61//183 54//143
f 57//160 62//187 51//132
f 58//165 61//179 50//126
f 61//177 56//151 46//96
f 62//185 55//146 47//104
s 2
f 5//38 29//57 33//74
f 29//59 37//91 35//83
f 33//77 29//62 36//90
f 34//80 29//56 8//51
f 35//84 36//87 29//60
f 37//94 29//61 34//82
f 46//97 55//149 61//184
f 47//105 56//156 62//192
f 48//111 55//145 46//95
f 49//116 56//152 47//103
f 50//123 59//171 52//133
f 50//125 61//178 57//159
f 51//129 60//176 52//135
f 51//131 62//186 58//166
f 53//139 61//182 55//147
f 54//144 62//190 56//154
f 57//157 59//169 50//121
f 57//161 61//180 53//137
f 58//164 60//174 51//127
f 58//168 62//188 54//142
s 3
f 7//46 30//64 34//79
f 30//67 36//88 35//85
f 33//75 30//65 6//42
f 34//81 30//70 37//93
f 35//86 37//92 30//68
f 36//89 30//69 33//76
s 4
f 1//1 11//7 2//2
f 1//1 25//21 9//5
f 1//1 46//99 31//25
f 2//2 26//22 32//26
f 2//2 48//113 1//1
f 3//3 15//11 4//4
f 3//3 26//22 13//9
f 3//3 47//107 32//26
f 4//4 25//21 31//25
f 4//4 49//119 3//3
f 5//35 22//18 24//20
f 6//43 22//18 5//39
f 6//44 30//71 22//18
f 8//53 20//16 7//48
f 8//54 27//23 18//14
f 9//5 11//7 1//1
f 9//5 25//21 10//6
f 10//6 11//7 9//5
f 10//6 25//21 38//27
f 10//6 42//31 23//19
f 11//7 10//6 12//8
f 11//7 26//22 2//2
f 11//7 40//29 26//22
f 12//8 10//6 21//17
f 12//8 40//29 11//7
f 13//9 15//11 3//3
f 13//9 26//22 14//10
f 14//10 15//11 13//9
f 14//10 26//22 41//30
f 14//10 45//34 19//15
f 15//11 14//10 16//12
f 15//11 25//21 4//4
f 15//11 39//28 25//21
f 16//12 14//10 17//13
f 16//12 39//28 15//11
f 17//13 20//16 18//14
f 17//13 27//23 43//32
f 17//13 39//28 16//12
f 18//14 20//16 8//49
f 18//14 27//23 17//13
f 19//15 17//13 14//10
f 19//15 45//34 20//16
f 20//16 17//13 19//15
f 20//16 30//72 7//47
f 20//16 45//34 28//24
f 21//17 23//19 22//18
f 21//17 40//29 12//8
f 22//18 30//66 28//24
f 22//18 44//33 21//17
f 23//19 21//17 10//6
f 23//19 42//31 24//20
f 24//20 22//18 23//19
f 24//20 27//23 5//40
f 24//20 42//31 27//23
f 27//23 8//52 29//58
f 28//24 30//63 20//16
f 28//24 44//33 22//18
f 29//55 5//36 27//23
f 31//25 25//21 1//1
f 31//25 46//101 4//4
f 32//26 26//22 3//3
f 32//26 47//110 2//2
f 38//27 25//21 39//28
f 38//27 39//28 42//31
f 38//27 42//31 10//6
f 41//30 26//22 40//29
f 41//30 40//29 45//34
f 41//30 45//34 14//10
f 43//32 27//23 42//31
f 43//32 39//28 17//13
f 43//32 42//31 39//28
f 44//33 28//24 45//34
f 44//33 40//29 21//17
f 44//33 45//34 40//29
f 46//100 1//1 48//115
f 47//109 3//3 49//118
f 48//114 2//2 47//108
f 49//120 4//4 46//102
