# Exported from Wings 3D 2.1.5
mtllib sword_23.mtl
o sword_23
#65 vertices, 126 faces
v -0.25444722 -7.8731756e-2 1.95039196
v -0.25444722 7.8731756e-2 1.95039196
v 0.25349807 7.8731756e-2 1.95163310
v 0.25349807 -7.8731756e-2 1.95163310
v -0.28050910 -7.8731756e-2 2.01444610
v -0.28050910 7.8731756e-2 2.01444610
v 0.27924662 7.8731756e-2 2.01581384
v 0.27924662 -7.8731756e-2 2.01581384
v 0.23631367 2.8347548e-17 1.91650135
v -4.4924241e-4 7.8731756e-2 1.94064516
v -4.4924241e-4 -7.8731756e-2 1.94064516
v -0.23709134 2.8347548e-17 1.91534460
v -0.15778451 2.8347548e-17 -3.51691823
v 1.3243604e-2 -4.7564058e-2 -3.66321724
v 0.18355473 2.8347548e-17 -3.51608418
v 1.3243604e-2 4.7564058e-2 -3.66321724
v -0.12276295 2.8347548e-17 -3.74040853
v 0.14962576 2.8347548e-17 -3.73974296
v 1.3871208e-2 2.8347548e-17 -3.92006741
v -0.54621443 2.8347548e-17 1.71267013
v -0.61220307 2.8347548e-17 1.75529467
v 0.54642352 2.8347548e-17 1.71533996
v 0.61220307 2.8347548e-17 1.75828647
v 0.48311741 4.2862829e-2 1.91776531
v 0.48311741 -3.6068384e-2 1.91776531
v 0.43349822 -3.6068384e-2 1.86419227
v 0.43349822 4.2862829e-2 1.86419227
v -0.48389831 -3.6068384e-2 1.91540244
v -0.48389831 4.2862829e-2 1.91540244
v -0.43401790 4.2862829e-2 1.86207252
v -0.43401790 -6.3246165e-2 1.86207252
v -7.9870872e-4 0.10329606 2.08366591
v -7.9870872e-4 -0.10329606 2.08366591
v 0.13865283 2.8347548e-17 2.08400666
v -0.14025025 2.8347548e-17 2.08332517
v 0.11197073 -6.1874342e-2 2.08394146
v 0.11197073 6.1874342e-2 2.08394146
v -0.11356815 -6.1874342e-2 2.08339036
v -0.11356815 6.1874342e-2 2.08339036
v 0.24025083 7.1050609e-2 3.67572768
v 0.16893329 7.1050609e-2 3.50235491
v -4.0264242e-3 9.3218399e-2 3.40462381
v -0.17746167 7.1050609e-2 3.50150851
v -0.24962562 7.1050609e-2 3.67453069
v -0.17830807 7.1050609e-2 3.84790346
v -5.2858930e-3 7.1050609e-2 3.92006741
v 0.16808688 7.1050609e-2 3.84874987
v 0.24025083 -7.1050609e-2 3.67572768
v 0.16893329 -7.1050609e-2 3.50235491
v -4.0264242e-3 -9.3218399e-2 3.40462381
v -0.17746167 -7.1050609e-2 3.50150851
v -0.24962562 -7.1050609e-2 3.67453069
v -0.17830807 -7.1050609e-2 3.84790346
v -5.2858930e-3 -7.1050609e-2 3.92006741
v 0.16808688 -7.1050609e-2 3.84874987
v 0.12236067 2.8347548e-17 3.46560584
v -0.13071002 2.8347548e-17 3.46498747
v -9.4554432e-2 -6.4320696e-2 3.42700907
v -9.4554432e-2 6.4320696e-2 3.42700907
v 8.6391108e-2 6.4320696e-2 3.42745121
v 8.6391108e-2 -6.4320696e-2 3.42745121
v -4.6825532e-3 0.14462042 3.67314774
v -4.6825532e-3 -0.14462042 3.67314774
v 0.15098774 2.8347548e-17 2.77485629
v -0.15596113 2.8347548e-17 2.77410627
vn -0.28122872 -0.63853681 -0.71636663
vn -6.3893963e-5 0.99965806 2.6148908e-2
vn -6.3893963e-5 -0.99965806 2.6148908e-2
vn 0.99991696 0.0000000e+0 1.2887004e-2
vn -0.99996800 0.0000000e+0 8.0003539e-3
vn 0.16814323 -0.43158505 -0.88626305
vn 0.16814323 -0.43158505 -0.88626305
vn -5.2685001e-2 -0.99562779 -7.7133564e-2
vn -5.2685001e-2 -0.99562779 -7.7133564e-2
vn -5.2685001e-2 -0.99562779 -7.7133564e-2
vn 0.14630093 0.42903875 -0.89135952
vn -9.1731696e-2 0.99105516 -9.6927585e-2
vn -9.1731696e-2 0.99105516 -9.6927585e-2
vn 0.14630093 0.42903875 -0.89135952
vn -9.1731696e-2 0.99105516 -9.6927585e-2
vn -9.1731696e-2 0.99105516 -9.6927585e-2
vn -0.14194320 0.42903875 -0.89206383
vn -0.14194320 0.42903875 -0.89206383
vn 8.4022280e-2 0.99244925 -8.9357401e-2
vn 8.4022280e-2 0.99244925 -8.9357401e-2
vn 8.4022280e-2 0.99244925 -8.9357401e-2
vn 2.9256885e-2 -0.90977033 -0.41407968
vn 2.9256885e-2 -0.90977033 -0.41407968
vn 2.9256885e-2 -0.90977033 -0.41407968
vn 2.9256885e-2 -0.90977033 -0.41407968
vn 2.9256885e-2 -0.90977033 -0.41407968
vn 2.9256885e-2 -0.90977033 -0.41407968
vn -0.39812572 -0.16536428 0.90230293
vn -0.39812572 -0.16536428 0.90230293
vn -0.15014214 -0.98754049 4.7128823e-2
vn -0.39812572 -0.16536428 0.90230293
vn -0.39812572 -0.16536428 0.90230293
vn -0.15014214 -0.98754049 4.7128823e-2
vn -0.39812572 -0.16536428 0.90230293
vn -0.15014214 -0.98754049 4.7128823e-2
vn -0.38588052 0.20771702 0.89886031
vn -0.38588052 0.20771702 0.89886031
vn -0.38588052 0.20771702 0.89886031
vn -0.11250267 0.99259653 -4.5774263e-2
vn -0.38588052 0.20771702 0.89886031
vn -0.11250267 0.99259653 -4.5774263e-2
vn 0.39371150 0.16536428 0.90423775
vn 0.12142790 0.99014631 -6.9753513e-2
vn 0.39371150 0.16536428 0.90423775
vn 0.39371150 0.16536428 0.90423775
vn 0.39371150 0.16536428 0.90423775
vn 0.12142790 0.99014631 -6.9753513e-2
vn 0.39371150 0.16536428 0.90423775
vn 0.12142790 0.99014631 -6.9753513e-2
vn 0.38148327 -0.20771702 0.90073534
vn 0.38148327 -0.20771702 0.90073534
vn 0.38148327 -0.20771702 0.90073534
vn 0.12616943 -0.99071647 -5.0617661e-2
vn 0.38148327 -0.20771702 0.90073534
vn 0.12616943 -0.99071647 -5.0617661e-2
vn -0.17593445 1.3091884e-4 -0.98440188
vn -0.17593445 1.3091884e-4 -0.98440188
vn -0.17593445 1.3091884e-4 -0.98440188
vn -0.17593445 1.3091884e-4 -0.98440188
vn -0.17593445 1.3091884e-4 -0.98440188
vn 0.31526255 0.94899955 -3.0616950e-3
vn 0.31526255 -0.94899955 -3.0616950e-3
vn -3.5144905e-2 0.39994824 -0.91586366
vn 3.9620222e-2 0.39994824 -0.91568097
vn 0.29407101 0.95577572 -3.8740546e-3
vn -0.29404857 0.95577572 -5.3111047e-3
vn 4.1361491e-4 0.98556897 -0.16927387
vn 4.1361491e-4 0.98556897 -0.16927387
vn -0.29404857 0.95577572 -5.3111047e-3
vn 0.29407101 0.95577572 -3.8740546e-3
vn 3.9620222e-2 -0.39994824 -0.91568097
vn -3.5144905e-2 -0.39994824 -0.91586366
vn -0.29404857 -0.95577572 -5.3111047e-3
vn 0.29407101 -0.95577572 -3.8740546e-3
vn 4.1361491e-4 -0.98556897 -0.16927387
vn 4.1361491e-4 -0.98556897 -0.16927387
vn -0.29404857 -0.95577572 -5.3111047e-3
vn 0.29407101 -0.95577572 -3.8740546e-3
vn 0.19344576 -2.6282644e-4 -0.98111094
vn 0.19344576 -2.6282644e-4 -0.98111094
vn 0.19344576 -2.6282644e-4 -0.98111094
vn 0.19344576 -2.6282644e-4 -0.98111094
vn 0.19344576 -2.6282644e-4 -0.98111094
vn -0.31524382 -0.94899955 -4.6023157e-3
vn -0.31524382 0.94899955 -4.6023157e-3
vn -0.29790583 -0.95439605 -1.9500911e-2
vn -0.29790583 0.95439605 -1.9500911e-2
vn -0.29790583 -0.95439605 -1.9500911e-2
vn -0.29790583 0.95439605 -1.9500911e-2
vn -0.29790583 -0.95439605 -1.9500911e-2
vn -0.29790583 0.95439605 -1.9500911e-2
vn -0.27139874 -0.95934964 -7.7401546e-2
vn 0.27177375 -0.95934964 -7.6074322e-2
vn -0.27139874 -0.95934964 -7.7401546e-2
vn 0.27177375 -0.95934964 -7.6074322e-2
vn -0.27139874 -0.95934964 -7.7401546e-2
vn 0.27177375 -0.95934964 -7.6074322e-2
vn 0.29799758 -0.95439605 -1.8044841e-2
vn 0.29799758 0.95439605 -1.8044841e-2
vn 0.29799758 -0.95439605 -1.8044841e-2
vn 0.29799758 0.95439605 -1.8044841e-2
vn 0.29799758 0.95439605 -1.8044841e-2
vn 0.29799758 -0.95439605 -1.8044841e-2
vn 0.27177375 0.95934964 -7.6074322e-2
vn -0.27139874 0.95934964 -7.7401546e-2
vn 0.27177375 0.95934964 -7.6074322e-2
vn -0.27139874 0.95934964 -7.7401546e-2
vn 0.27177375 0.95934964 -7.6074322e-2
vn -0.27139874 0.95934964 -7.7401546e-2
vn -0.27022122 -0.95613891 -0.11304370
vn -0.27022122 0.95613891 -0.11304370
vn -0.27022122 -0.95613891 -0.11304370
vn -0.27022122 0.95613891 -0.11304370
vn 0.27077042 -0.95613891 -0.11172180
vn 0.27077042 0.95613891 -0.11172180
vn 0.27077042 -0.95613891 -0.11172180
vn 0.27077042 0.95613891 -0.11172180
vn -0.23352879 -0.95599235 -0.17760331
vn 0.23439393 -0.95599235 -0.17645995
vn 0.23439393 0.95599235 -0.17645995
vn -0.23352879 0.95599235 -0.17760331
vn 0.79962801 0.0000000e+0 -0.60049566
vn -0.13866151 0.97668726 -0.16387487
vn -0.13866151 0.97668726 -0.16387487
vn -0.17436100 -0.94696012 -0.26993475
vn -0.78034896 0.0000000e+0 0.62534430
vn -0.28775681 -0.95393833 -8.4839179e-2
vn -0.11151194 0.97865314 -0.17263578
vn -0.28775681 -0.95393833 -8.4839179e-2
vn -0.25175417 -0.88320512 -0.39568743
vn -0.25175417 -0.88320512 -0.39568743
vn -0.25175417 -0.88320512 -0.39568743
vn 0.12252947 0.97455892 -0.18767377
vn 0.77728365 0.0000000e+0 0.62915032
vn 0.13707582 0.97687878 -0.16406725
vn 9.5132596e-2 -0.98474265 -0.14571100
vn 0.13707582 0.97687878 -0.16406725
vn 0.62044345 0.0000000e+0 0.78425119
vn 0.13582979 0.98271223 -0.12580514
vn 0.62044345 0.0000000e+0 0.78425119
vn 0.13582979 0.98271223 -0.12580514
vn 0.14218166 -0.98211142 -0.12345659
vn 0.56013411 0.0000000e+0 0.82840195
vn 0.14218166 -0.98211142 -0.12345659
vn 0.56013411 0.0000000e+0 0.82840195
vn 0.14218166 -0.98211142 -0.12345659
vn 0.56013411 0.0000000e+0 0.82840195
vn 0.14218166 -0.98211142 -0.12345659
vn -0.48864694 0.15794588 -0.85806601
vn 0.13972979 0.98208675 -0.12641676
vn -0.48864694 0.15794588 -0.85806601
vn 0.13972979 0.98208675 -0.12641676
vn -0.48864694 0.15794588 -0.85806601
vn 0.13972979 0.98208675 -0.12641676
vn 0.13972979 0.98208675 -0.12641676
vn -0.62426860 0.0000000e+0 0.78120977
vn -0.34157263 -0.92730343 0.15308980
vn -0.62426860 0.0000000e+0 0.78120977
vn -0.34157263 -0.92730343 0.15308980
vn -0.13942130 0.98188895 -0.12828015
vn -0.56417574 0.0000000e+0 0.82565473
vn -0.13942130 0.98188895 -0.12828015
vn -0.56417574 0.0000000e+0 0.82565473
vn -0.13942130 0.98188895 -0.12828015
vn -0.56417574 0.0000000e+0 0.82565473
vn -0.13942130 0.98188895 -0.12828015
vn 0.49283439 0.15794588 -0.85566779
vn -0.15012096 0.97864627 -0.14041076
vn -0.15012096 0.97864627 -0.14041076
vn 0.49283439 0.15794588 -0.85566779
vn 0.49283439 0.15794588 -0.85566779
vn 0.50657062 -0.15804967 -0.84758865
vn -0.23747122 -0.97139320 1.6351276e-3
vn 0.50657062 -0.15804967 -0.84758865
vn -0.23747122 -0.97139320 1.6351276e-3
vn 0.50657062 -0.15804967 -0.84758865
vn -0.23747122 -0.97139320 1.6351276e-3
vn -0.23747122 -0.97139320 1.6351276e-3
vn -0.23702526 0.64043481 0.73052193
vn 0.23345244 0.64043481 0.73167152
vn -1.4574256e-5 0.99998221 5.9645835e-3
vn -1.4574256e-5 0.99998221 5.9645835e-3
vn 2.4706009e-4 0.99487517 -0.10111052
vn 2.4706009e-4 0.99487517 -0.10111052
vn 2.4706009e-4 0.99487517 -0.10111052
vn 2.4706009e-4 0.99487517 -0.10111052
vn -1.4574256e-5 0.99998221 5.9645835e-3
vn -1.4574256e-5 0.99998221 5.9645835e-3
vn 0.23345244 -0.64043481 0.73167152
vn -0.23702526 -0.64043481 0.73052193
vn -1.4574256e-5 -0.99998221 5.9645835e-3
vn -1.4574256e-5 -0.99998221 5.9645835e-3
vn 2.4706009e-4 -0.99487517 -0.10111052
vn 2.4706009e-4 -0.99487517 -0.10111052
vn 2.4706009e-4 -0.99487517 -0.10111052
vn 2.4706009e-4 -0.99487517 -0.10111052
vn -1.4574256e-5 -0.99998221 5.9645835e-3
vn -1.4574256e-5 -0.99998221 5.9645835e-3
vn 0.38828828 -4.6672005e-17 0.92153796
vn 0.38828828 -4.6672005e-17 0.92153796
vn 0.38828828 -4.6672005e-17 0.92153796
vn 0.99984064 0.0000000e+0 -1.7851844e-2
vn 0.99984064 0.0000000e+0 -1.7851844e-2
vn -0.39278711 -4.6672005e-17 0.91962943
vn -0.39278711 -4.6672005e-17 0.91962943
vn -0.39278711 -4.6672005e-17 0.91962943
vn -0.99974146 0.0000000e+0 -2.2737755e-2
vn -0.99974146 0.0000000e+0 -2.2737755e-2
vn 0.30746822 -0.41317981 0.85717311
vn 0.30746822 -0.41317981 0.85717311
vn 0.71799249 -0.69605049 6.9809481e-4
vn 0.71799249 -0.69605049 6.9809481e-4
vn 0.71799249 -0.69605049 6.9809481e-4
vn 0.30746822 0.41317981 0.85717311
vn 0.30746822 0.41317981 0.85717311
vn 0.71799249 0.69605049 6.9809481e-4
vn 0.71799249 0.69605049 6.9809481e-4
vn 0.71799249 0.69605049 6.9809481e-4
vn -0.31165347 -0.41317981 0.85566030
vn -0.31165347 -0.41317981 0.85566030
vn -0.71798733 -0.69605049 -2.8106728e-3
vn -0.71798733 -0.69605049 -2.8106728e-3
vn -0.71798733 -0.69605049 -2.8106728e-3
vn -0.31165347 0.41317981 0.85566030
vn -0.31165347 0.41317981 0.85566030
vn -0.71798733 0.69605049 -2.8106728e-3
vn -0.71798733 0.69605049 -2.8106728e-3
vn -0.71798733 0.69605049 -2.8106728e-3
vn 0.99026517 0.0000000e+0 0.13919373
vn 0.99026517 0.0000000e+0 0.13919373
vn 0.28766668 0.95773053 3.4180191e-4
vn 0.28766668 0.95773053 3.4180191e-4
vn 0.99026517 0.0000000e+0 0.13919373
vn 0.77572706 0.16103112 -0.61017744
vn 0.77572706 0.16103112 -0.61017744
vn 0.25657150 0.95474416 -0.15044819
vn 0.25657150 0.95474416 -0.15044819
vn 0.77572706 0.16103112 -0.61017744
vn 0.77572706 0.16103112 -0.61017744
vn 0.77572706 0.16103112 -0.61017744
vn -1.8640689e-5 0.99997090 7.6287907e-3
vn -1.8640689e-5 0.99997090 7.6287907e-3
vn 4.5939500e-4 0.98216709 -0.18800959
vn 4.5939500e-4 0.98216709 -0.18800959
vn -0.37253906 0.79058118 -0.48600005
vn 0.37490965 0.79058118 -0.48417368
vn -0.77273592 0.16103112 -0.61396105
vn -0.77273592 0.16103112 -0.61396105
vn -0.25583321 0.95474416 -0.15170024
vn -0.25583321 0.95474416 -0.15170024
vn -0.77273592 0.16103112 -0.61396105
vn -0.77273592 0.16103112 -0.61396105
vn -0.77273592 0.16103112 -0.61396105
vn -0.99093357 0.0000000e+0 0.13435274
vn -0.28766492 0.95773053 -1.0640012e-3
vn -0.28766492 0.95773053 -1.0640012e-3
vn -0.99093357 0.0000000e+0 0.13435274
vn -0.99093357 0.0000000e+0 0.13435274
vn -0.20302032 0.95818077 0.20167391
vn -0.20302032 0.95818077 0.20167391
vn -0.70883246 0.0000000e+0 0.70537688
vn -0.70883246 0.0000000e+0 0.70537688
vn -2.4434585e-3 0.0000000e+0 0.99999701
vn -2.4434585e-3 0.0000000e+0 0.99999701
vn -6.9771617e-4 0.95836545 0.28554366
vn -6.9771617e-4 0.95836545 0.28554366
vn -2.4434585e-3 0.0000000e+0 0.99999701
vn -2.4434585e-3 0.0000000e+0 0.99999701
vn 0.20203234 0.95818077 0.20266364
vn 0.20203234 0.95818077 0.20266364
vn 0.70537688 0.0000000e+0 0.70883246
vn 0.70537688 0.0000000e+0 0.70883246
vn 0.99093357 0.0000000e+0 -0.13435274
vn 0.99093357 0.0000000e+0 -0.13435274
vn 0.28766668 -0.95773053 3.4180191e-4
vn 0.28766668 -0.95773053 3.4180191e-4
vn 0.99093357 0.0000000e+0 -0.13435274
vn 0.72046558 -0.20290818 -0.66314223
vn 0.25657150 -0.95474416 -0.15044819
vn 0.25657150 -0.95474416 -0.15044819
vn 0.72046558 -0.20290818 -0.66314223
vn 0.72046558 -0.20290818 -0.66314223
vn 0.72046558 -0.20290818 -0.66314223
vn -1.8640689e-5 -0.99997090 7.6287907e-3
vn -1.8640689e-5 -0.99997090 7.6287907e-3
vn 4.5939500e-4 -0.98216709 -0.18800959
vn 4.5939500e-4 -0.98216709 -0.18800959
vn -0.37253906 -0.79058118 -0.48600005
vn 0.37490965 -0.79058118 -0.48417368
vn -0.71721627 -0.20290818 -0.66665515
vn -0.71721627 -0.20290818 -0.66665515
vn -0.25583321 -0.95474416 -0.15170024
vn -0.25583321 -0.95474416 -0.15170024
vn -0.71721627 -0.20290818 -0.66665515
vn -0.71721627 -0.20290818 -0.66665515
vn -0.99026517 0.0000000e+0 -0.13919373
vn -0.28766492 -0.95773053 -1.0640012e-3
vn -0.28766492 -0.95773053 -1.0640012e-3
vn -0.99026517 0.0000000e+0 -0.13919373
vn -0.99026517 0.0000000e+0 -0.13919373
vn -0.70883246 0.0000000e+0 0.70537688
vn -0.70883246 0.0000000e+0 0.70537688
vn -0.20302032 -0.95818077 0.20167391
vn -0.20302032 -0.95818077 0.20167391
vn -0.70883246 0.0000000e+0 0.70537688
vn -0.70883246 0.0000000e+0 0.70537688
vn -2.4434585e-3 0.0000000e+0 0.99999701
vn -2.4434585e-3 0.0000000e+0 0.99999701
vn -6.9771617e-4 -0.95836545 0.28554366
vn -6.9771617e-4 -0.95836545 0.28554366
vn 0.70537688 0.0000000e+0 0.70883246
vn 0.70537688 0.0000000e+0 0.70883246
vn 0.20203234 -0.95818077 0.20266364
vn 0.20203234 -0.95818077 0.20266364
vn 0.70537688 0.0000000e+0 0.70883246
vn 0.70537688 0.0000000e+0 0.70883246
vn 0.65665284 0.0000000e+0 -0.75419298
vn 0.65665284 0.0000000e+0 -0.75419298
vn 0.99914232 0.0000000e+0 4.1407948e-2
vn 0.99914232 0.0000000e+0 4.1407948e-2
vn 0.65665284 0.0000000e+0 -0.75419298
vn -0.65295933 2.3171385e-18 -0.75739297
vn -0.65295933 2.3171385e-18 -0.75739297
vn -0.65295933 2.3171385e-18 -0.75739297
vn -0.99933275 0.0000000e+0 3.6524743e-2
vn -0.99933275 0.0000000e+0 3.6524743e-2
vn -0.58987504 -0.41319151 -0.69377245
vn -0.60113172 -0.79903697 1.3437737e-2
vn -0.60113172 -0.79903697 1.3437737e-2
vn -0.60113172 -0.79903697 1.3437737e-2
vn -0.58987504 -0.41319151 -0.69377245
vn -0.60113172 -0.79903697 1.3437737e-2
vn -0.58987504 0.41319151 -0.69377245
vn -0.60113172 0.79903697 1.3437737e-2
vn -0.60113172 0.79903697 1.3437737e-2
vn -0.60113172 0.79903697 1.3437737e-2
vn -0.58987504 0.41319151 -0.69377245
vn -0.60113172 0.79903697 1.3437737e-2
vn 0.59325840 0.41319151 -0.69088150
vn 0.60105888 0.79903697 1.6375249e-2
vn 0.60105888 0.79903697 1.6375249e-2
vn 0.60105888 0.79903697 1.6375249e-2
vn 0.60105888 0.79903697 1.6375249e-2
vn 0.59325840 0.41319151 -0.69088150
vn 0.59325840 -0.41319151 -0.69088150
vn 0.60105888 -0.79903697 1.6375249e-2
vn 0.60105888 -0.79903697 1.6375249e-2
vn 0.60105888 -0.79903697 1.6375249e-2
vn 0.60105888 -0.79903697 1.6375249e-2
vn 0.59325840 -0.41319151 -0.69088150
g sword_23_default
usemtl default
s 1
f 5//29 29//163 28//158
f 5//31 35//205 6//36
f 5//28 38//219 35//204
f 6//40 29//165 5//34
f 6//37 39//224 32//179
f 7//42 25//145 24//140
f 7//45 34//200 8//51
f 8//54 25//147 7//48
f 8//50 36//209 33//189
f 10//69 13//91 12//85
f 11//78 15//103 9//62
f 13//87 10//66 16//105
f 14//95 18//114 15//100
f 14//97 19//119 18//116
f 15//98 11//74 14//93
f 16//107 17//111 13//89
f 16//109 19//121 17//113
f 24//138 25//143 23//134
f 28//156 29//161 21//126
f 32//180 37//215 7//46
f 33//190 38//220 5//32
f 34//199 7//44 37//214
f 34//201 36//210 8//52
f 39//225 6//38 35//206
f 40//232 62//2 47//269
f 41//236 62//2 40//231
f 42//244 62//2 41//237
f 43//250 62//2 42//243
f 44//256 62//2 43//249
f 45//260 62//2 44//255
f 46//266 62//2 45//259
f 47//270 62//2 46//265
f 48//275 63//3 49//279
f 49//280 63//3 50//286
f 50//287 63//3 51//292
f 51//293 63//3 52//297
f 52//298 63//3 53//303
f 53//304 63//3 54//309
f 54//310 63//3 55//313
f 55//314 63//3 48//276
s 2
f 2//16 29//166 6//41
f 2//13 32//183 10//67
f 3//19 32//184 7//47
f 6//39 32//185 2//15
f 7//49 27//154 3//21
f 9//61 15//102 10//70
f 10//68 32//186 3//20
f 12//84 13//90 11//77
f 13//88 17//110 14//94
f 14//92 11//73 13//86
f 15//101 18//115 16//106
f 16//104 10//65 15//99
f 17//112 19//118 14//96
f 18//117 19//120 16//108
f 20//123 29//160 30//168
f 21//128 29//164 20//124
f 22//133 27//155 23//137
f 23//135 27//150 24//139
f 24//141 27//152 7//43
f 30//169 29//162 2//12
f 32//188 60//343 37//218
f 33//197 58//332 38//223
f 34//202 64//4 36//211
f 35//207 65//5 39//226
f 36//213 61//349 33//198
f 36//212 64//4 61//348
f 37//216 64//4 34//203
f 38//221 65//5 35//208
f 39//228 59//338 32//187
f 39//227 65//5 59//336
f 42//242 32//182 59//334
f 50//285 33//192 61//346
f 56//320 64//4 60//341
f 57//326 65//5 58//329
f 58//328 33//191 50//284
f 58//330 65//5 38//222
f 59//335 65//5 57//325
f 60//340 32//181 42//241
f 60//342 64//4 37//217
f 61//347 64//4 56//319
s 3
f 1//8 33//194 5//33
f 3//18 27//151 9//58
f 4//22 11//71 9//57
f 4//27 25//148 8//55
f 4//24 33//193 11//75
f 5//35 31//177 1//10
f 8//53 33//195 4//26
f 9//56 10//64 3//17
f 9//59 26//1 4//25
f 11//76 33//196 1//9
f 20//125 31//178 21//129
f 21//127 31//173 28//157
f 22//131 25//142 26//1
f 23//136 25//146 22//132
f 26//1 9//60 27//153
f 26//1 25//144 4//23
f 26//1 27//149 22//130
f 28//159 31//175 5//30
f 40//230 48//274 41//234
f 40//229 55//311 48//273
f 41//239 49//282 56//321
f 41//240 60//344 42//246
f 42//245 59//337 43//253
f 43//252 52//300 44//258
f 43//248 59//333 57//324
f 44//257 53//306 45//262
f 45//261 53//305 46//268
f 46//264 53//301 54//308
f 46//267 55//316 47//272
f 47//271 55//315 40//233
f 49//281 41//238 48//277
f 49//278 61//345 56//318
f 50//289 61//350 49//283
f 51//295 58//331 50//288
f 52//299 43//251 51//294
f 52//296 53//302 44//254
f 54//307 55//312 46//263
f 56//317 60//339 41//235
f 57//322 51//290 43//247
f 57//323 58//327 51//291
s 4
f 1//7 31//174 12//81
f 10//63 12//79 2//11
f 12//80 11//72 1//6
f 12//82 30//170 2//14
f 30//171 12//83 31//176
f 30//167 31//172 20//122
