# Exported from Wings 3D 2.1.5
mtllib sword_32.mtl
o sword_32
#80 vertices, 156 faces
v -0.40400817 -3.7430562e-19 -0.11112843
v -0.27844243 -3.7430562e-19 -0.77675659
v -0.13466939 -3.7430562e-19 0.27952402
v -0.21557876 -3.7430562e-19 2.1366892e-2
v -0.19761505 -3.7430562e-19 -7.03502233
v -1.6179579e-17 -3.7430562e-19 -8.23909876
v -0.13299493 -3.7430562e-19 -7.63706054
v -0.17266705 -3.7430562e-19 0.61050543
v -0.91349126 -3.7430562e-19 2.0549123e-2
v -0.84116423 -3.7430562e-19 -3.6796756e-2
v -0.25037945 -3.7430562e-19 0.34126481
v -0.55569219 -3.7430562e-19 0.21083760
v -0.60233240 -3.7430562e-19 0.32379825
v -1.03038900 -3.7430562e-19 -0.18485308
v -0.83989085 -3.7430562e-19 -0.16297888
v -1.03964853 -3.7430562e-19 -3.3334403e-3
v 0.40400817 -3.7430562e-19 -0.11112843
v 0.27844243 -3.7430562e-19 -0.77675659
v 0.13466939 -3.7430562e-19 0.27952402
v 0.21557876 -3.7430562e-19 2.1366892e-2
v 0.19761505 -3.7430562e-19 -7.03502233
v 0.13299493 -3.7430562e-19 -7.63706054
v 0.17266705 -3.7430562e-19 0.61050543
v 0.91349126 -3.7430562e-19 2.0549123e-2
v 0.84116423 -3.7430562e-19 -3.6796756e-2
v 0.25037945 -3.7430562e-19 0.34126481
v 0.55569219 -3.7430562e-19 0.21083760
v 0.60233240 -3.7430562e-19 0.32379825
v 1.03038900 -3.7430562e-19 -0.18485308
v 0.83989085 -3.7430562e-19 -0.16297888
v 1.03964853 -3.7430562e-19 -3.3334403e-3
v 1.7234317e-17 0.15604219 0.20256243
v 1.7234317e-17 0.15102184 0.48592085
v -0.93976969 8.7045241e-2 -8.3156160e-2
v 0.93976969 8.7045241e-2 -8.3156160e-2
v -0.58800909 4.9518534e-2 0.26052019
v 0.58800909 4.9518534e-2 0.26052019
v -0.32308192 7.2133215e-2 0.39576095
v 0.32308192 7.2133215e-2 0.39576095
v -0.86941757 2.1582750e-2 -1.4420890e-2
v 0.86941757 2.1582750e-2 -1.4420890e-2
v -1.2466924e-17 9.1200496e-2 -7.30113640
v 1.3934180e-17 0.12571076 -0.34090124
v -0.13017949 0.11534673 0.52548570
v 0.13017949 0.11534673 0.52548570
v 1.7234317e-17 -0.15604219 0.20256243
v 1.7234317e-17 -0.15102184 0.48592085
v -0.93976969 -8.7045241e-2 -8.3156160e-2
v 0.93976969 -8.7045241e-2 -8.3156160e-2
v -0.58800909 -4.9518534e-2 0.26052019
v 0.58800909 -4.9518534e-2 0.26052019
v -0.32308192 -7.2133215e-2 0.39576095
v 0.32308192 -7.2133215e-2 0.39576095
v -0.86941757 -2.1582750e-2 -1.4420890e-2
v 0.86941757 -2.1582750e-2 -1.4420890e-2
v -1.2466924e-17 -9.1200496e-2 -7.30113640
v 1.3934180e-17 -0.12571076 -0.34090124
v -0.13017949 -0.11534673 0.52548570
v 0.13017949 -0.11534673 0.52548570
v -0.13017949 0.11534673 1.56987325
v -0.21583382 6.8872287e-18 1.56987325
v -0.13017949 -0.11534673 1.56987325
v 1.7234317e-17 -0.15102184 1.56987325
v 0.13017949 -0.11534673 1.56987325
v 0.21583382 6.8872287e-18 1.56987325
v 0.13017949 0.11534673 1.56987325
v 1.7234317e-17 0.15102184 1.56987325
v -9.5830215e-2 2.8498156e-18 1.90385024
v 1.6073185e-17 -6.7053698e-2 1.90385024
v 9.5830215e-2 2.8498156e-18 1.90385024
v 1.6073185e-17 6.7053698e-2 1.90385024
v 9.5830215e-2 2.8498156e-18 2.31194326
v 1.6073185e-17 6.7053698e-2 2.31194326
v -9.5830215e-2 2.8498156e-18 2.31194326
v 1.6073185e-17 -6.7053698e-2 2.31194326
v 1.6944034e-17 -3.7430562e-19 2.76807268
v 0.25349488 1.2377550e-18 2.52559787
v -0.25349488 1.2377550e-18 2.52559787
v 1.6508609e-17 0.17751173 2.54000797
v 1.6508609e-17 -0.17751173 2.54000797
vn 0.53023873 0.0000000e+0 -0.84784839
vn -0.63104688 0.0000000e+0 0.77574470
vn -0.53023873 0.0000000e+0 -0.84784839
vn 0.63104688 4.2887495e-17 0.77574470
vn -2.7725178e-2 0.99746390 -6.5552078e-2
vn 2.7725178e-2 0.99746390 -6.5552078e-2
vn -2.7725178e-2 -0.99746390 -6.5552078e-2
vn 2.7725178e-2 -0.99746390 -6.5552078e-2
vn -0.97146485 0.0000000e+0 0.23718356
vn 4.2817638e-17 -0.97646742 0.21566499
vn 0.97146485 2.1917405e-17 0.23718356
vn 6.4226457e-17 0.97646742 0.21566499
vn -0.25027524 0.96421509 8.7473236e-2
vn -0.25027524 0.96421509 8.7473236e-2
vn -0.25027524 -0.96421509 8.7473236e-2
vn -0.25027524 -0.96421509 8.7473236e-2
vn -0.38692346 0.92179868 -2.4029913e-2
vn -0.38692346 0.92179868 -2.4029913e-2
vn -0.38692346 -0.92179868 -2.4029913e-2
vn -0.38692346 -0.92179868 -2.4029913e-2
vn -0.38692346 0.92179868 -2.4029913e-2
vn -0.38692346 -0.92179868 -2.4029913e-2
vn -0.47075892 0.0000000e+0 -0.88226189
vn -0.68458541 0.69664064 0.21455683
vn -0.47075892 0.0000000e+0 -0.88226189
vn -0.68458541 -0.69664064 0.21455683
vn -0.48894469 0.86105042 0.13973283
vn -0.48894469 0.86105042 0.13973283
vn -0.48894469 -0.86105042 0.13973283
vn -0.48894469 -0.86105042 0.13973283
vn -0.48894469 0.86105042 0.13973283
vn -0.48894469 -0.86105042 0.13973283
vn -0.44993740 0.89261438 -2.8211688e-2
vn -0.44993740 -0.89261438 -2.8211688e-2
vn -0.44993740 0.89261438 -2.8211688e-2
vn -0.44993740 -0.89261438 -2.8211688e-2
vn 0.40126782 0.91166141 -8.8643187e-2
vn -0.40126782 0.91166141 -8.8643187e-2
vn 0.40126782 -0.91166141 -8.8643187e-2
vn -0.40126782 -0.91166141 -8.8643187e-2
vn -0.43815266 0.89618351 -6.9838087e-2
vn -0.43815266 0.89618351 -6.9838087e-2
vn -0.43815266 -0.89618351 -6.9838087e-2
vn -0.43815266 -0.89618351 -6.9838087e-2
vn -0.60020815 -5.5444569e-17 0.79984385
vn -0.60020815 -5.5444569e-17 0.79984385
vn -0.60020815 5.5444569e-17 0.79984385
vn -0.60020815 5.5444569e-17 0.79984385
vn -0.99978501 0.0000000e+0 -2.0734812e-2
vn -0.99978501 0.0000000e+0 -2.0734812e-2
vn -0.60020815 0.0000000e+0 0.79984385
vn -0.99978501 0.0000000e+0 -2.0734812e-2
vn -0.99978501 0.0000000e+0 -2.0734812e-2
vn -0.60020815 0.0000000e+0 0.79984385
vn -5.2776520e-3 0.76527963 0.64367635
vn -0.74322607 0.0000000e+0 0.66904036
vn -5.2776520e-3 -0.76527963 0.64367635
vn -0.74322607 0.0000000e+0 0.66904036
vn -5.2776520e-3 0.76527963 0.64367635
vn -5.2776520e-3 -0.76527963 0.64367635
vn -0.74322607 0.0000000e+0 0.66904036
vn -0.74322607 0.0000000e+0 0.66904036
vn 0.63603697 0.0000000e+0 -0.77165859
vn 0.65082245 0.75820991 3.9342893e-2
vn 0.63603697 0.0000000e+0 -0.77165859
vn 0.65082245 -0.75820991 3.9342893e-2
vn 0.65082245 -0.75820991 3.9342893e-2
vn 0.63603697 0.0000000e+0 -0.77165859
vn 0.63603697 0.0000000e+0 -0.77165859
vn 0.65082245 0.75820991 3.9342893e-2
vn 0.38621512 4.1875645e-17 -0.92240874
vn -0.50197463 0.0000000e+0 -0.86488234
vn 0.38621512 -4.1875645e-17 -0.92240874
vn -0.50197463 0.0000000e+0 -0.86488234
vn -0.50197463 8.7036680e-19 -0.86488234
vn 0.38621512 -4.1875645e-17 -0.92240874
vn -0.50197463 -8.7036680e-19 -0.86488234
vn 0.38621512 4.1875645e-17 -0.92240874
vn 7.8991176e-2 0.72147643 -0.68791871
vn -0.67205745 0.73970501 -3.4282420e-2
vn 7.8991176e-2 -0.72147643 -0.68791871
vn -0.67205745 -0.73970501 -3.4282420e-2
vn 7.8991176e-2 0.72147643 -0.68791871
vn 7.8991176e-2 -0.72147643 -0.68791871
vn 0.66001791 -0.75122034 6.6605914e-3
vn 0.66001791 0.75122034 6.6605914e-3
vn -0.67205745 0.73970501 -3.4282420e-2
vn -0.67205745 -0.73970501 -3.4282420e-2
vn -0.12422387 0.74429139 0.65620024
vn -0.12422387 -0.74429139 0.65620024
vn 0.25027524 0.96421509 8.7473236e-2
vn 0.25027524 0.96421509 8.7473236e-2
vn 0.25027524 -0.96421509 8.7473236e-2
vn 0.25027524 -0.96421509 8.7473236e-2
vn 0.38692346 0.92179868 -2.4029913e-2
vn 0.38692346 0.92179868 -2.4029913e-2
vn 0.38692346 -0.92179868 -2.4029913e-2
vn 0.38692346 -0.92179868 -2.4029913e-2
vn 0.38692346 0.92179868 -2.4029913e-2
vn 0.38692346 -0.92179868 -2.4029913e-2
vn 0.47075892 0.0000000e+0 -0.88226189
vn 0.68458541 -0.69664064 0.21455683
vn 0.68458541 0.69664064 0.21455683
vn 0.47075892 0.0000000e+0 -0.88226189
vn 0.48894469 0.86105042 0.13973283
vn 0.48894469 0.86105042 0.13973283
vn 0.48894469 -0.86105042 0.13973283
vn 0.48894469 -0.86105042 0.13973283
vn 0.48894469 -0.86105042 0.13973283
vn 0.48894469 0.86105042 0.13973283
vn 0.44993740 0.89261438 -2.8211688e-2
vn 0.44993740 -0.89261438 -2.8211688e-2
vn 0.44993740 0.89261438 -2.8211688e-2
vn 0.44993740 -0.89261438 -2.8211688e-2
vn 0.43815266 0.89618351 -6.9838087e-2
vn 0.43815266 0.89618351 -6.9838087e-2
vn 0.43815266 -0.89618351 -6.9838087e-2
vn 0.43815266 -0.89618351 -6.9838087e-2
vn 0.60020815 2.7722285e-17 0.79984385
vn 0.60020815 2.7722285e-17 0.79984385
vn 0.60020815 -2.7722285e-17 0.79984385
vn 0.60020815 -2.7722285e-17 0.79984385
vn 0.99978501 0.0000000e+0 -2.0734812e-2
vn 0.99978501 0.0000000e+0 -2.0734812e-2
vn 0.99978501 0.0000000e+0 -2.0734812e-2
vn 0.99978501 0.0000000e+0 -2.0734812e-2
vn 0.60020815 -5.5444569e-17 0.79984385
vn 0.60020815 5.5444569e-17 0.79984385
vn 0.74322607 0.0000000e+0 0.66904036
vn 5.2776520e-3 0.76527963 0.64367635
vn 0.74322607 0.0000000e+0 0.66904036
vn 5.2776520e-3 -0.76527963 0.64367635
vn 0.74322607 0.0000000e+0 0.66904036
vn 5.2776520e-3 0.76527963 0.64367635
vn 5.2776520e-3 -0.76527963 0.64367635
vn 0.74322607 0.0000000e+0 0.66904036
vn -0.65082245 0.75820991 3.9342893e-2
vn -0.63603697 0.0000000e+0 -0.77165859
vn -0.65082245 -0.75820991 3.9342893e-2
vn -0.63603697 0.0000000e+0 -0.77165859
vn -0.65082245 0.75820991 3.9342893e-2
vn -0.63603697 0.0000000e+0 -0.77165859
vn -0.65082245 -0.75820991 3.9342893e-2
vn -0.63603697 0.0000000e+0 -0.77165859
vn -0.38621512 4.1875645e-17 -0.92240874
vn 0.50197463 0.0000000e+0 -0.86488234
vn -0.38621512 -4.1875645e-17 -0.92240874
vn 0.50197463 0.0000000e+0 -0.86488234
vn -0.38621512 4.1875645e-17 -0.92240874
vn 0.50197463 0.0000000e+0 -0.86488234
vn 0.50197463 0.0000000e+0 -0.86488234
vn -0.38621512 -4.1875645e-17 -0.92240874
vn 0.67205745 0.73970501 -3.4282420e-2
vn -7.8991176e-2 0.72147643 -0.68791871
vn 0.67205745 -0.73970501 -3.4282420e-2
vn -7.8991176e-2 -0.72147643 -0.68791871
vn -7.8991176e-2 0.72147643 -0.68791871
vn -7.8991176e-2 -0.72147643 -0.68791871
vn -0.66001791 0.75122034 6.6605914e-3
vn -0.66001791 -0.75122034 6.6605914e-3
vn 0.67205745 0.73970501 -3.4282420e-2
vn 0.67205745 -0.73970501 -3.4282420e-2
vn 0.12422387 0.74429139 0.65620024
vn 0.12422387 -0.74429139 0.65620024
vn -0.63024868 0.77169629 8.5272777e-2
vn -0.50163738 3.6650667e-2 -0.86430126
vn 0.50163738 3.6650667e-2 -0.86430126
vn 0.63024868 0.77169629 8.5272777e-2
vn 4.2905420e-17 0.99984309 1.7714540e-2
vn 4.2905420e-17 0.99984309 1.7714540e-2
vn 0.63024868 0.77169629 8.5272777e-2
vn -0.50163738 3.6650667e-2 -0.86430126
vn -0.63024868 0.77169629 8.5272777e-2
vn 0.50163738 3.6650667e-2 -0.86430126
vn 1.4319240e-17 0.99940716 3.4428743e-2
vn 2.1478860e-17 0.99940716 3.4428743e-2
vn -2.8778945e-17 1.00000000 0.0000000e+0
vn -2.8778945e-17 1.00000000 0.0000000e+0
vn 2.1478860e-17 0.99940716 3.4428743e-2
vn 1.4319240e-17 0.99940716 3.4428743e-2
vn -2.8778945e-17 1.00000000 0.0000000e+0
vn -2.8778945e-17 1.00000000 0.0000000e+0
vn -5.2776520e-3 0.76527963 0.64367635
vn 7.8991176e-2 0.72147643 -0.68791871
vn -0.67205745 0.73970501 -3.4282420e-2
vn 0.65082245 0.75820991 3.9342893e-2
vn -5.2776520e-3 0.76527963 0.64367635
vn 0.65082245 0.75820991 3.9342893e-2
vn -0.65082245 0.75820991 3.9342893e-2
vn 0.67205745 0.73970501 -3.4282420e-2
vn -7.8991176e-2 0.72147643 -0.68791871
vn 5.2776520e-3 0.76527963 0.64367635
vn 5.2776520e-3 0.76527963 0.64367635
vn -0.65082245 0.75820991 3.9342893e-2
vn -0.25390283 0.95971276 0.12035271
vn -0.25390283 0.95971276 0.12035271
vn -0.52992001 0.10194589 -0.84189775
vn -0.25390283 0.95971276 0.12035271
vn -0.25390283 0.95971276 0.12035271
vn -0.25390283 0.95971276 0.12035271
vn 0.25390283 0.95971276 0.12035271
vn 0.25390283 0.95971276 0.12035271
vn 0.25390283 0.95971276 0.12035271
vn 0.52992001 0.10194589 -0.84189775
vn 0.25390283 0.95971276 0.12035271
vn 0.25390283 0.95971276 0.12035271
vn 0.11374639 0.77498339 0.62166109
vn 1.5287232e-2 0.99306730 -0.11654886
vn 1.5287232e-2 0.99306730 -0.11654886
vn 0.64084500 0.76428847 7.1977922e-2
vn -0.64084500 0.76428847 7.1977922e-2
vn -1.5287232e-2 0.99306730 -0.11654886
vn -1.5287232e-2 0.99306730 -0.11654886
vn -0.11374639 0.77498339 0.62166109
vn 0.42701798 0.90346800 -3.7432859e-2
vn 0.42701798 0.90346800 -3.7432859e-2
vn -0.42701798 0.90346800 -3.7432859e-2
vn 0.42701798 0.90346800 -3.7432859e-2
vn -0.42701798 0.90346800 -3.7432859e-2
vn -0.42701798 0.90346800 -3.7432859e-2
vn 0.42701798 0.90346800 -3.7432859e-2
vn -0.42701798 0.90346800 -3.7432859e-2
vn 0.37167990 0.92784289 3.1010049e-2
vn -0.37167990 0.92784289 3.1010049e-2
vn 0.37167990 0.92784289 3.1010049e-2
vn -0.37167990 0.92784289 3.1010049e-2
vn 0.37167990 0.92784289 3.1010049e-2
vn -0.37167990 0.92784289 3.1010049e-2
vn 0.37167990 0.92784289 3.1010049e-2
vn -0.37167990 0.92784289 3.1010049e-2
vn -0.41466768 0.84616615 0.33474402
vn -0.41466768 0.84616615 0.33474402
vn -0.67626100 0.73666211 0.0000000e+0
vn -0.67626100 0.73666211 0.0000000e+0
vn 0.41466768 0.84616615 0.33474402
vn 0.41466768 0.84616615 0.33474402
vn 0.67626100 0.73666211 0.0000000e+0
vn 0.67626100 0.73666211 0.0000000e+0
vn -0.63024868 -0.77169629 8.5272777e-2
vn -0.50163738 -3.6650667e-2 -0.86430126
vn 0.50163738 -3.6650667e-2 -0.86430126
vn 0.63024868 -0.77169629 8.5272777e-2
vn 4.2905420e-17 -0.99984309 1.7714540e-2
vn 4.2905420e-17 -0.99984309 1.7714540e-2
vn 0.50163738 -3.6650667e-2 -0.86430126
vn 0.63024868 -0.77169629 8.5272777e-2
vn -0.50163738 -3.6650667e-2 -0.86430126
vn -0.63024868 -0.77169629 8.5272777e-2
vn 1.4319240e-17 -0.99940716 3.4428743e-2
vn 2.1478860e-17 -0.99940716 3.4428743e-2
vn -2.8778945e-17 -1.00000000 0.0000000e+0
vn -2.8778945e-17 -1.00000000 0.0000000e+0
vn 2.1478860e-17 -0.99940716 3.4428743e-2
vn 1.4319240e-17 -0.99940716 3.4428743e-2
vn -2.8778945e-17 -1.00000000 0.0000000e+0
vn -2.8778945e-17 -1.00000000 0.0000000e+0
vn -5.2776520e-3 -0.76527963 0.64367635
vn 7.8991176e-2 -0.72147643 -0.68791871
vn -0.67205745 -0.73970501 -3.4282420e-2
vn 0.65082245 -0.75820991 3.9342893e-2
vn -5.2776520e-3 -0.76527963 0.64367635
vn 0.65082245 -0.75820991 3.9342893e-2
vn -0.65082245 -0.75820991 3.9342893e-2
vn 0.67205745 -0.73970501 -3.4282420e-2
vn -7.8991176e-2 -0.72147643 -0.68791871
vn 5.2776520e-3 -0.76527963 0.64367635
vn -0.65082245 -0.75820991 3.9342893e-2
vn 5.2776520e-3 -0.76527963 0.64367635
vn -0.25390283 -0.95971276 0.12035271
vn -0.25390283 -0.95971276 0.12035271
vn -0.52992001 -0.10194589 -0.84189775
vn -0.25390283 -0.95971276 0.12035271
vn -0.25390283 -0.95971276 0.12035271
vn -0.25390283 -0.95971276 0.12035271
vn 0.25390283 -0.95971276 0.12035271
vn 0.25390283 -0.95971276 0.12035271
vn 0.25390283 -0.95971276 0.12035271
vn 0.52992001 -0.10194589 -0.84189775
vn 0.25390283 -0.95971276 0.12035271
vn 0.25390283 -0.95971276 0.12035271
vn 0.11374639 -0.77498339 0.62166109
vn 1.5287232e-2 -0.99306730 -0.11654886
vn 1.5287232e-2 -0.99306730 -0.11654886
vn 0.64084500 -0.76428847 7.1977922e-2
vn -0.64084500 -0.76428847 7.1977922e-2
vn -1.5287232e-2 -0.99306730 -0.11654886
vn -1.5287232e-2 -0.99306730 -0.11654886
vn -0.11374639 -0.77498339 0.62166109
vn 0.42701798 -0.90346800 -3.7432859e-2
vn 0.42701798 -0.90346800 -3.7432859e-2
vn -0.42701798 -0.90346800 -3.7432859e-2
vn 0.42701798 -0.90346800 -3.7432859e-2
vn -0.42701798 -0.90346800 -3.7432859e-2
vn -0.42701798 -0.90346800 -3.7432859e-2
vn -0.42701798 -0.90346800 -3.7432859e-2
vn 0.42701798 -0.90346800 -3.7432859e-2
vn 0.37167990 -0.92784289 3.1010049e-2
vn -0.37167990 -0.92784289 3.1010049e-2
vn 0.37167990 -0.92784289 3.1010049e-2
vn -0.37167990 -0.92784289 3.1010049e-2
vn 0.37167990 -0.92784289 3.1010049e-2
vn -0.37167990 -0.92784289 3.1010049e-2
vn 0.37167990 -0.92784289 3.1010049e-2
vn -0.37167990 -0.92784289 3.1010049e-2
vn -0.41466768 -0.84616615 0.33474402
vn -0.41466768 -0.84616615 0.33474402
vn -0.67626100 -0.73666211 0.0000000e+0
vn -0.67626100 -0.73666211 0.0000000e+0
vn 0.41466768 -0.84616615 0.33474402
vn 0.41466768 -0.84616615 0.33474402
vn 0.67626100 -0.73666211 0.0000000e+0
vn 0.67626100 -0.73666211 0.0000000e+0
vn -0.62016175 0.78441192 -9.8657430e-3
vn -0.62016175 0.78441192 -9.8657430e-3
vn -0.54228487 0.78901675 0.28875540
vn -0.54228487 0.78901675 0.28875540
vn -0.54228487 0.78901675 0.28875540
vn -0.62016175 0.78441192 -9.8657430e-3
vn -0.62016175 0.78441192 -9.8657430e-3
vn -0.99898926 0.0000000e+0 -4.4949531e-2
vn -0.99898926 0.0000000e+0 -4.4949531e-2
vn -0.94109210 0.0000000e+0 0.33815036
vn -0.94109210 0.0000000e+0 0.33815036
vn -0.62016175 -0.78441192 -9.8657430e-3
vn -0.62016175 -0.78441192 -9.8657430e-3
vn -0.54228487 -0.78901675 0.28875540
vn -0.54228487 -0.78901675 0.28875540
vn -0.54228487 -0.78901675 0.28875540
vn -0.62016175 -0.78441192 -9.8657430e-3
vn -0.62016175 -0.78441192 -9.8657430e-3
vn -8.6336834e-17 -1.00000000 0.0000000e+0
vn -8.6336834e-17 -1.00000000 0.0000000e+0
vn -5.7438243e-17 -0.96981784 0.24383058
vn -5.7438243e-17 -0.96981784 0.24383058
vn 0.62016175 -0.78441192 -9.8657430e-3
vn 0.62016175 -0.78441192 -9.8657430e-3
vn 0.54228487 -0.78901675 0.28875540
vn 0.54228487 -0.78901675 0.28875540
vn 0.54228487 -0.78901675 0.28875540
vn 0.62016175 -0.78441192 -9.8657430e-3
vn 0.62016175 -0.78441192 -9.8657430e-3
vn 0.99898926 0.0000000e+0 -4.4949531e-2
vn 0.99898926 0.0000000e+0 -4.4949531e-2
vn 0.94109210 0.0000000e+0 0.33815036
vn 0.94109210 0.0000000e+0 0.33815036
vn 0.62016175 0.78441192 -9.8657430e-3
vn 0.62016175 0.78441192 -9.8657430e-3
vn 0.54228487 0.78901675 0.28875540
vn 0.54228487 0.78901675 0.28875540
vn 0.54228487 0.78901675 0.28875540
vn 0.62016175 0.78441192 -9.8657430e-3
vn 0.62016175 0.78441192 -9.8657430e-3
vn -8.6336834e-17 1.00000000 0.0000000e+0
vn -8.6336834e-17 1.00000000 0.0000000e+0
vn -5.7438243e-17 0.96981784 0.24383058
vn -5.7438243e-17 0.96981784 0.24383058
vn 1.00000000 0.0000000e+0 0.0000000e+0
vn 1.00000000 0.0000000e+0 0.0000000e+0
vn 0.52437570 0.76457908 -0.37476520
vn 0.52437570 -0.76457908 -0.37476520
vn 0.52437570 0.76457908 -0.37476520
vn 0.52437570 -0.76457908 -0.37476520
vn 3.3875439e-17 1.00000000 0.0000000e+0
vn 0.0000000e+0 1.00000000 0.0000000e+0
vn -0.53288065 0.76156974 -0.36884923
vn 0.53288065 0.76156974 -0.36884923
vn 3.3875439e-17 1.00000000 0.0000000e+0
vn 3.3875439e-17 1.00000000 0.0000000e+0
vn -1.00000000 0.0000000e+0 0.0000000e+0
vn -1.00000000 0.0000000e+0 0.0000000e+0
vn -0.52437570 0.76457908 -0.37476520
vn -0.52437570 -0.76457908 -0.37476520
vn -0.52437570 0.76457908 -0.37476520
vn -0.52437570 -0.76457908 -0.37476520
vn 0.0000000e+0 -1.00000000 0.0000000e+0
vn 3.3875439e-17 -1.00000000 0.0000000e+0
vn 0.53288065 -0.76156974 -0.36884923
vn -0.53288065 -0.76156974 -0.36884923
vn 3.3875439e-17 -1.00000000 0.0000000e+0
vn 3.3875439e-17 -1.00000000 0.0000000e+0
vn 0.50655875 0.68039859 0.52958096
vn -0.50655875 0.68039859 0.52958096
vn -0.50655875 -0.68039859 0.52958096
vn 0.50655875 -0.68039859 0.52958096
vn 0.51580973 0.76749943 -0.38063755
vn 0.50655875 0.68039859 0.52958096
vn 0.50655875 -0.68039859 0.52958096
vn 0.51580973 -0.76749943 -0.38063755
vn -0.51580973 -0.76749943 -0.38063755
vn -0.50655875 0.68039859 0.52958096
vn -0.50655875 -0.68039859 0.52958096
vn -0.51580973 0.76749943 -0.38063755
vn 0.52437570 0.76457908 -0.37476520
vn -0.52437570 0.76457908 -0.37476520
vn 0.50655875 0.68039859 0.52958096
vn -0.50655875 0.68039859 0.52958096
vn 0.52437570 0.76457908 -0.37476520
vn -0.52437570 0.76457908 -0.37476520
vn -0.52437570 -0.76457908 -0.37476520
vn 0.52437570 -0.76457908 -0.37476520
vn -0.50655875 -0.68039859 0.52958096
vn 0.50655875 -0.68039859 0.52958096
vn -0.52437570 -0.76457908 -0.37476520
vn 0.52437570 -0.76457908 -0.37476520
g sword_32_default
usemtl default
s 1
f 1//14 43//230 2//18
f 2//21 42//222 5//35
f 3//24 32//173 4//31
f 4//28 43//228 1//13
f 5//33 42//219 7//42
f 7//41 42//217 6//38
f 8//52 60//318 44//233
f 15//86 34//188 10//70
f 15//84 48//258 14//81
f 16//87 34//185 14//80
f 16//90 48//261 9//60
f 19//104 32//174 26//151
f 23//126 64//340 59//311
f 26//146 32//167 39//204
f 26//150 46//245 19//101
f 30//157 35//191 29//154
f 30//160 49//267 25//143
f 31//163 35//193 24//134
f 31//162 49//264 29//155
f 33//182 66//351 45//237
f 40//210 10//64 34//186
f 41//214 24//130 35//192
f 42//220 2//17 43//226
f 43//224 4//27 32//165
f 44//234 60//319 33//181
f 45//238 66//352 23//125
f 47//256 62//329 58//307
f 53//278 46//241 26//148
f 54//281 9//57 48//257
f 55//285 25//139 49//263
f 58//308 62//330 8//53
f 59//312 64//341 47//255
f 60//313 8//49 61//320
f 61//321 8//50 62//324
f 62//325 47//251 63//331
f 63//332 47//252 64//335
f 64//336 23//123 65//342
f 65//343 23//124 66//346
f 66//347 33//177 67//353
f 67//354 33//178 60//314
f 72//359 79//393 77//385
f 73//366 79//397 72//361
f 74//372 80//399 78//389
f 75//378 80//403 74//374
f 76//382 79//396 78//390
f 76//384 80//402 77//387
s 2
f 1//15 57//302 4//30
f 2//20 57//304 1//16
f 4//32 46//248 3//26
f 5//36 56//295 2//22
f 6//37 42//216 22//115
f 6//40 56//291 7//43
f 7//44 56//293 5//34
f 9//59 34//187 16//89
f 10//67 48//262 15//85
f 14//79 34//184 15//83
f 14//82 48//259 16//88
f 17//92 43//229 20//106
f 18//96 43//227 17//91
f 20//110 32//171 19//103
f 21//113 42//221 18//99
f 22//116 42//218 21//111
f 24//135 49//268 31//164
f 25//141 35//194 30//159
f 29//153 35//190 31//161
f 29//156 49//265 30//158
f 32//168 20//105 43//225
f 34//183 9//55 40//207
f 35//189 25//137 41//211
f 43//223 18//95 42//215
f 46//239 4//29 57//298
f 48//260 10//66 54//284
f 49//266 24//132 55//288
f 57//300 2//19 56//294
f 60//316 71//12 67//356
f 61//322 68//9 60//315
f 62//326 68//9 61//323
f 62//328 69//10 68//9
f 63//333 69//10 62//327
f 64//337 69//10 63//334
f 64//339 70//11 69//10
f 65//344 70//11 64//338
f 66//348 70//11 65//345
f 66//350 71//12 70//11
f 67//355 71//12 66//349
f 68//9 71//12 60//317
f 68//9 73//368 71//12
f 69//10 75//379 68//9
f 70//11 75//380 69//10
f 71//12 73//367 70//11
f 72//357 70//11 73//363
f 72//358 75//376 70//11
f 73//364 68//9 74//369
f 74//370 68//9 75//375
f 77//386 79//395 76//381
f 78//391 80//401 76//383
s 3
f 3//25 46//247 11//77
f 11//75 32//172 3//23
f 11//74 46//240 52//271
f 17//93 57//301 18//98
f 18//100 56//296 21//114
f 19//102 46//246 20//109
f 20//108 57//303 17//94
f 21//112 56//292 22//118
f 22//117 56//290 6//39
f 38//197 32//166 11//72
f 56//289 18//97 57//297
f 57//299 20//107 46//242
f 72//360 80//400 75//377
f 74//371 79//394 73//365
f 77//388 80//404 72//362
f 78//392 79//398 74//373
s 4
f 8//51 36//5 13//2
f 8//46 44//231 38//198
f 9//61 50//7 13//2
f 10//68 36//5 12//1
f 11//76 50//7 12//1
f 12//1 36//5 11//78
f 12//1 50//7 10//69
f 13//2 36//5 9//62
f 13//2 50//7 8//54
f 23//127 51//8 28//4
f 23//122 59//310 53//279
f 24//136 37//6 28//4
f 25//144 51//8 27//3
f 26//149 37//6 27//3
f 27//3 37//6 25//142
f 27//3 51//8 26//152
f 28//4 37//6 23//128
f 28//4 51//8 24//133
f 32//169 38//200 33//179
f 33//180 39//206 32//170
f 33//175 45//235 39//203
f 36//5 8//45 38//196
f 36//5 10//63 40//208
f 37//6 24//129 41//212
f 37//6 26//145 39//202
f 38//195 11//71 36//5
f 38//199 44//232 33//176
f 39//201 23//119 37//6
f 39//205 45//236 23//120
f 40//209 9//56 36//5
f 41//213 25//138 37//6
f 46//244 53//280 47//254
f 47//253 52//274 46//243
f 47//250 58//306 52//273
f 50//7 9//58 54//283
f 50//7 11//73 52//269
f 51//8 23//121 53//275
f 51//8 25//140 55//287
f 52//270 8//47 50//7
f 52//272 58//305 8//48
f 53//276 26//147 51//8
f 53//277 59//309 47//249
f 54//282 10//65 50//7
f 55//286 24//131 51//8
