# Exported from Wings 3D 2.1.5
mtllib sword_16.mtl
o sword_16
#74 vertices, 144 faces
v -0.45800000 -0.11541600 0.95933333
v -0.45800000 0.11541600 0.95933333
v 0.45800000 0.11541600 0.95933333
v 0.45800000 -0.11541600 0.95933333
v -0.45800000 -0.11541600 0.64422222
v -0.45800000 0.11541600 0.64422222
v 0.45800000 0.11541600 0.64422222
v 0.45800000 -0.11541600 0.64422222
v -1.12835315 -0.11652215 0.78333690
v -1.12835315 0.11652215 0.78333690
v -1.12835315 0.0000000e+0 0.46520576
v 1.12835315 0.11652215 0.78333690
v 1.12835315 -0.11652215 0.78333690
v 1.12835315 0.0000000e+0 0.46520576
v 1.20555456 0.0000000e+0 0.57513069
v -1.20555456 0.0000000e+0 0.57513069
v -0.45800000 -7.4174016e-2 0.56622627
v -0.45800000 7.4174016e-2 0.56622627
v 0.45800000 7.4174016e-2 0.56622627
v 0.45800000 -7.4174016e-2 0.56622627
v 0.0000000e+0 -0.21881027 0.69920298
v 0.0000000e+0 0.21881027 0.69920298
v 0.0000000e+0 -0.20688087 1.07422850
v 0.0000000e+0 0.20688087 1.07422850
v -0.45800000 -7.4174016e-2 -0.61455419
v -0.45800000 7.4174016e-2 -0.61455419
v -8.9732911e-17 0.21881027 -0.50108942
v 0.45800000 7.4174016e-2 -0.61455419
v 0.45800000 -7.4174016e-2 -0.61455419
v -8.9732911e-17 -0.21881027 -0.50108942
v -0.75911701 -7.5766060e-18 -1.02224054
v 0.75911701 7.5766060e-18 -1.02224054
v -0.63502576 -6.9388939e-18 -1.35901289
v 0.63502576 6.9388939e-18 -1.35901289
v -0.45826507 -8.0444952e-2 -0.95970850
v 0.45826507 -8.0444952e-2 -0.95970850
v 0.45826507 8.0444952e-2 -0.95970850
v -0.45826507 8.0444952e-2 -0.95970850
v -9.1935075e-17 -8.9973710e-2 -1.96492989
v -0.34278227 0.0000000e+0 -1.32631593
v -9.1935075e-17 8.9973710e-2 -1.96492989
v 0.34278227 0.0000000e+0 -1.32631593
v -0.34278227 0.0000000e+0 -1.89249504
v 0.34278227 0.0000000e+0 -1.89249504
v -0.48743639 0.0000000e+0 -2.27075087
v 0.48743639 0.0000000e+0 -2.27075087
v -9.1190125e-17 -8.9973710e-2 -9.73491468
v -0.48743639 0.0000000e+0 -9.26190589
v -9.1190125e-17 8.9973710e-2 -9.73491468
v 0.48743639 0.0000000e+0 -9.26190589
v -0.32170802 0.0000000e+0 -9.86260906
v 0.32170802 0.0000000e+0 -9.86260906
v -1.1102230e-16 0.0000000e+0 -10.38417769
v -0.27501005 -0.10531395 1.07422850
v -0.27501005 0.10531395 1.07422850
v 0.27501005 -0.10531395 1.07422850
v 0.27501005 0.10531395 1.07422850
v 0.27501005 0.10531395 2.71755362
v -1.5399153e-16 0.20688087 2.71755362
v -0.27501005 0.10531395 2.71755362
v -0.27501005 -0.10531395 2.71755362
v -1.5399153e-16 -0.20688087 2.71755362
v 0.27501005 -0.10531395 2.71755362
v 0.46465698 0.0000000e+0 2.80141280
v -0.46465698 0.0000000e+0 2.80141280
v 0.29833208 0.0000000e+0 3.01441737
v -0.29833208 0.0000000e+0 3.01441737
v 0.40871495 0.0000000e+0 3.05857078
v -0.40871495 0.0000000e+0 3.05857078
v -1.8524801e-16 0.28877884 3.00894072
v -1.8524801e-16 -0.28877884 3.00894072
v -2.2256274e-16 4.6259293e-18 3.34257591
v -0.75562538 -7.8674010e-18 -1.19062671
v 0.75562538 7.8674010e-18 -1.19062671
vn -0.31369450 -0.79829080 0.51412796
vn -0.35918663 0.79380514 0.49077322
vn 0.31369450 0.79829080 0.51412796
vn 0.35918663 -0.79380514 0.49077322
vn -0.19500746 -0.98080176 0.0000000e+0
vn -8.4822694e-2 -0.88083614 -0.46576045
vn -8.4822694e-2 -0.88083614 -0.46576045
vn -0.19500746 -0.98080176 0.0000000e+0
vn -8.4822694e-2 0.88083614 -0.46576045
vn -0.19500746 0.98080176 0.0000000e+0
vn -8.4822694e-2 0.88083614 -0.46576045
vn -0.19500746 0.98080176 0.0000000e+0
vn 8.4822694e-2 0.88083614 -0.46576045
vn 8.4822694e-2 0.88083614 -0.46576045
vn 0.19500746 0.98080176 0.0000000e+0
vn 0.19500746 0.98080176 0.0000000e+0
vn 8.4822694e-2 -0.88083614 -0.46576045
vn 8.4822694e-2 -0.88083614 -0.46576045
vn 0.19500746 -0.98080176 0.0000000e+0
vn 0.19500746 -0.98080176 0.0000000e+0
vn -0.63002067 -0.72758507 0.27146624
vn -0.63002067 -0.72758507 0.27146624
vn -0.63002067 -0.72758507 0.27146624
vn -0.63002067 -0.72758507 0.27146624
vn -0.59662938 0.59148426 0.54238340
vn -0.59662938 0.59148426 0.54238340
vn -0.59662938 0.59148426 0.54238340
vn -0.59662938 0.59148426 0.54238340
vn -0.59662938 0.59148426 0.54238340
vn -0.17946594 0.95753238 -0.22566286
vn 4.8963547e-2 -1.1530683e-16 -0.99880057
vn -0.17946594 -0.95753238 -0.22566286
vn -0.17946594 0.95753238 -0.22566286
vn -0.17946594 -0.95753238 -0.22566286
vn 4.8963547e-2 -1.1530683e-16 -0.99880057
vn 4.8963547e-2 -1.1530683e-16 -0.99880057
vn -0.17946594 -0.95753238 -0.22566286
vn -0.17946594 0.95753238 -0.22566286
vn 0.63002067 0.72758507 0.27146624
vn 0.63002067 0.72758507 0.27146624
vn 0.63002067 0.72758507 0.27146624
vn 0.63002067 0.72758507 0.27146624
vn 0.59662938 -0.59148426 0.54238340
vn 0.59662938 -0.59148426 0.54238340
vn 0.59662938 -0.59148426 0.54238340
vn 0.59662938 -0.59148426 0.54238340
vn 0.59662938 -0.59148426 0.54238340
vn 0.17946594 -0.95753238 -0.22566286
vn -4.8963547e-2 1.1530683e-16 -0.99880057
vn 0.17946594 0.95753238 -0.22566286
vn 0.17946594 -0.95753238 -0.22566286
vn 0.17946594 0.95753238 -0.22566286
vn -4.8963547e-2 1.1530683e-16 -0.99880057
vn -4.8963547e-2 1.1530683e-16 -0.99880057
vn 0.17946594 0.95753238 -0.22566286
vn 0.17946594 -0.95753238 -0.22566286
vn 0.93761963 0.0000000e+0 0.34766281
vn 0.43980377 -0.84330693 -0.30887871
vn 0.43980377 0.84330693 -0.30887871
vn -0.93761963 0.0000000e+0 0.34766281
vn -0.43980377 0.84330693 -0.30887871
vn -0.43980377 -0.84330693 -0.30887871
vn -7.8178052e-3 -0.67567116 -0.73716169
vn -7.8178052e-3 -0.67567116 -0.73716169
vn -0.80657926 -0.59112595 6.4453927e-17
vn -0.80657926 -0.59112595 6.4453927e-17
vn -7.8178052e-3 -0.67567116 -0.73716169
vn -0.80657926 -0.59112595 6.4453927e-17
vn -0.80657926 -0.59112595 6.4453927e-17
vn -7.8178052e-3 0.67567116 -0.73716169
vn -7.8178052e-3 0.67567116 -0.73716169
vn -7.8178052e-3 0.67567116 -0.73716169
vn -0.80657926 0.59112595 5.8285969e-17
vn -0.80657926 0.59112595 5.8285969e-17
vn 7.8178052e-3 0.67567116 -0.73716169
vn 7.8178052e-3 0.67567116 -0.73716169
vn 7.8178052e-3 0.67567116 -0.73716169
vn 0.80657926 0.59112595 -5.8285969e-17
vn 0.80657926 0.59112595 -5.8285969e-17
vn 7.8178052e-3 -0.67567116 -0.73716169
vn 7.8178052e-3 -0.67567116 -0.73716169
vn 0.80657926 -0.59112595 -5.8285969e-17
vn 0.80657926 -0.59112595 -5.8285969e-17
vn 7.8178052e-3 -0.67567116 -0.73716169
vn 0.80657926 -0.59112595 -5.8285969e-17
vn 0.80657926 -0.59112595 -5.8285969e-17
vn 0.0000000e+0 -0.99987313 1.5928643e-2
vn -0.14200118 -0.87506386 -0.46270824
vn 0.14200118 -0.87506386 -0.46270824
vn 0.0000000e+0 -0.99987313 1.5928643e-2
vn 0.0000000e+0 -0.99987313 1.5928643e-2
vn 0.0000000e+0 -0.99987313 1.5928643e-2
vn 2.9106713e-17 -1.00000000 0.0000000e+0
vn 2.9106713e-17 -1.00000000 0.0000000e+0
vn 0.0000000e+0 0.99987313 1.5928643e-2
vn -0.14200118 0.87506386 -0.46270824
vn 0.14200118 0.87506386 -0.46270824
vn 0.0000000e+0 0.99987313 1.5928643e-2
vn -2.9106713e-17 1.00000000 0.0000000e+0
vn -2.9106713e-17 1.00000000 0.0000000e+0
vn 0.0000000e+0 0.99987313 1.5928643e-2
vn -2.9106713e-17 1.00000000 0.0000000e+0
vn -2.9106713e-17 1.00000000 0.0000000e+0
vn 0.0000000e+0 0.99987313 1.5928643e-2
vn 0.0000000e+0 -0.95241134 0.30481575
vn 0.0000000e+0 -0.95241134 0.30481575
vn 0.0000000e+0 -0.95241134 0.30481575
vn -2.9587988e-17 -1.00000000 -3.2849266e-33
vn -4.4381982e-17 -1.00000000 -3.2849266e-33
vn 0.0000000e+0 -0.95241134 0.30481575
vn -4.4381982e-17 -1.00000000 -3.2849266e-33
vn -4.4381982e-17 -1.00000000 -3.2849266e-33
vn 0.0000000e+0 0.95241134 0.30481575
vn 0.0000000e+0 0.95241134 0.30481575
vn 0.0000000e+0 0.95241134 0.30481575
vn 0.0000000e+0 0.95241134 0.30481575
vn 0.0000000e+0 1.00000000 -1.5353882e-17
vn 0.0000000e+0 1.00000000 -1.5353882e-17
vn -0.76914104 -0.60435812 0.20778193
vn -0.76914104 -0.60435812 0.20778193
vn -0.76914104 -0.60435812 0.20778193
vn -0.76914104 -0.60435812 0.20778193
vn -0.78578133 0.60290304 0.13804212
vn -0.78578133 0.60290304 0.13804212
vn -0.78578133 0.60290304 0.13804212
vn -0.78578133 0.60290304 0.13804212
vn -0.78578133 0.60290304 0.13804212
vn -0.78578133 0.60290304 0.13804212
vn -8.7082446e-17 0.99998167 6.0545341e-3
vn -5.8054964e-17 0.99998167 6.0545341e-3
vn -7.7406619e-17 0.99998167 6.0545341e-3
vn -6.7730792e-17 0.99998167 6.0545341e-3
vn -7.7406619e-17 0.99998167 6.0545341e-3
vn -0.22978842 0.96014251 -0.15913406
vn -0.22978842 0.96014251 -0.15913406
vn -7.2568705e-17 0.99998167 6.0545341e-3
vn 0.22978842 0.96014251 -0.15913406
vn 0.22978842 0.96014251 -0.15913406
vn 0.78578133 0.60290304 0.13804212
vn 0.78578133 0.60290304 0.13804212
vn 0.78578133 0.60290304 0.13804212
vn 0.78578133 0.60290304 0.13804212
vn 0.78578133 0.60290304 0.13804212
vn 0.78578133 0.60290304 0.13804212
vn 0.76914104 -0.60435812 0.20778193
vn 0.76914104 -0.60435812 0.20778193
vn 0.76914104 -0.60435812 0.20778193
vn 0.76914104 -0.60435812 0.20778193
vn 5.0832861e-17 -0.99998968 4.5440084e-3
vn 3.6309186e-17 -0.99998968 4.5440084e-3
vn 4.3571024e-17 -0.99998968 4.5440084e-3
vn 3.6309186e-17 -0.99998968 4.5440084e-3
vn 3.9940105e-17 -0.99998968 4.5440084e-3
vn 0.22978842 -0.96014251 -0.15913406
vn 0.22978842 -0.96014251 -0.15913406
vn 3.9940105e-17 -0.99998968 4.5440084e-3
vn -0.22978842 -0.96014251 -0.15913406
vn -0.22978842 -0.96014251 -0.15913406
vn 4.3571024e-17 -0.99998968 4.5440084e-3
vn 4.3571024e-17 -0.99998968 4.5440084e-3
vn -0.80438016 0.0000000e+0 0.59411493
vn -0.26866437 0.96294077 -2.3760037e-2
vn -0.26866437 -0.96294077 -2.3760037e-2
vn -0.26866437 0.96294077 -2.3760037e-2
vn 1.0411774e-17 -1.00000000 1.9428496e-18
vn -0.26866437 -0.96294077 -2.3760037e-2
vn -1.0411774e-17 1.00000000 -1.9428496e-18
vn -0.26866437 -0.96294077 -2.3760037e-2
vn -0.26866437 0.96294077 -2.3760037e-2
vn 0.26866437 0.96294077 -2.3760037e-2
vn 0.80438016 0.0000000e+0 0.59411493
vn 0.26866437 -0.96294077 -2.3760037e-2
vn 0.26866437 -0.96294077 -2.3760037e-2
vn 0.26866437 0.96294077 -2.3760037e-2
vn -1.0411774e-17 1.00000000 1.9428496e-18
vn 1.0411774e-17 -1.00000000 -1.9428496e-18
vn 0.26866437 0.96294077 -2.3760037e-2
vn 0.26866437 -0.96294077 -2.3760037e-2
vn 1.0411774e-17 -1.00000000 1.9428496e-18
vn 0.91441221 0.0000000e+0 -0.40478427
vn -1.0411774e-17 1.00000000 -1.9428496e-18
vn -0.24010010 -0.96670831 -8.8470215e-2
vn -0.24010010 0.96670831 -8.8470215e-2
vn -0.91441221 0.0000000e+0 -0.40478427
vn -1.0411774e-17 1.00000000 1.9428496e-18
vn 1.0411774e-17 -1.00000000 -1.9428496e-18
vn 0.24010010 0.96670831 -8.8470215e-2
vn 0.24010010 -0.96670831 -8.8470215e-2
vn -5.5760293e-2 0.0000000e+0 -0.99844418
vn -0.24506983 -0.96730220 -6.5324048e-2
vn -6.0769303e-2 -0.97077720 -0.23216096
vn -5.5760293e-2 0.0000000e+0 -0.99844418
vn -0.24506983 -0.96730220 -6.5324048e-2
vn 0.24506983 -0.96730220 -6.5324048e-2
vn -0.91441221 0.0000000e+0 -0.40478427
vn 6.0769303e-2 -0.97077720 -0.23216096
vn 0.95379756 0.0000000e+0 -0.30045002
vn 0.24506983 -0.96730220 -6.5324048e-2
vn -0.91441221 0.0000000e+0 -0.40478427
vn 0.24506983 0.96730220 -6.5324048e-2
vn 6.0769303e-2 0.97077720 -0.23216096
vn 0.95379756 0.0000000e+0 -0.30045002
vn 0.24506983 0.96730220 -6.5324048e-2
vn -0.24506983 0.96730220 -6.5324048e-2
vn -5.5760293e-2 0.0000000e+0 -0.99844418
vn -6.0769303e-2 0.97077720 -0.23216096
vn -5.5760293e-2 0.0000000e+0 -0.99844418
vn -0.24506983 0.96730220 -6.5324048e-2
vn 0.24976832 -0.96830386 1.8468243e-3
vn -0.24976832 -0.96830386 1.8468243e-3
vn 0.24976832 -0.96830386 1.8468243e-3
vn -0.24976832 -0.96830386 1.8468243e-3
vn 0.24976832 -0.96830386 1.8468243e-3
vn -0.24976832 -0.96830386 1.8468243e-3
vn 0.24976832 -0.96830386 1.8468243e-3
vn -0.24976832 -0.96830386 1.8468243e-3
vn -0.24976832 -0.96830386 1.8468243e-3
vn 0.24976832 -0.96830386 1.8468243e-3
vn -0.23860424 0.96533769 -0.10578831
vn -0.23860424 0.96533769 -0.10578831
vn -0.23860424 -0.96533769 -0.10578831
vn -0.23860424 0.96533769 -0.10578831
vn -0.23860424 -0.96533769 -0.10578831
vn -0.23860424 -0.96533769 -0.10578831
vn -0.95379756 0.0000000e+0 -0.30045002
vn -0.24976832 0.96830386 1.8468243e-3
vn -0.24976832 0.96830386 1.8468243e-3
vn 0.24976832 0.96830386 1.8468243e-3
vn -0.24976832 0.96830386 1.8468243e-3
vn 0.24976832 0.96830386 1.8468243e-3
vn -0.24976832 0.96830386 1.8468243e-3
vn 0.24976832 0.96830386 1.8468243e-3
vn 0.24976832 0.96830386 1.8468243e-3
vn -0.24976832 0.96830386 1.8468243e-3
vn 0.24976832 0.96830386 1.8468243e-3
vn 0.23860424 -0.96533769 -0.10578831
vn 0.23860424 -0.96533769 -0.10578831
vn 0.23860424 0.96533769 -0.10578831
vn 0.23860424 -0.96533769 -0.10578831
vn 0.23860424 0.96533769 -0.10578831
vn 0.23860424 0.96533769 -0.10578831
vn 0.95379756 0.0000000e+0 -0.30045002
vn -0.24471855 -0.96854981 4.4989965e-2
vn -0.24471855 0.96854981 4.4989965e-2
vn -0.24471855 -0.96854981 4.4989965e-2
vn -0.24471855 0.96854981 4.4989965e-2
vn 0.24471855 0.96854981 4.4989965e-2
vn 0.24471855 -0.96854981 4.4989965e-2
vn 0.24471855 0.96854981 4.4989965e-2
vn 0.24471855 -0.96854981 4.4989965e-2
vn -0.20857148 -0.97697106 4.5005480e-2
vn -0.20857148 0.97697106 4.5005480e-2
vn -0.20857148 -0.97697106 4.5005480e-2
vn -0.20857148 0.97697106 4.5005480e-2
vn 0.20857148 0.97697106 4.5005480e-2
vn 0.20857148 -0.97697106 4.5005480e-2
vn 0.20857148 0.97697106 4.5005480e-2
vn 0.20857148 -0.97697106 4.5005480e-2
vn -0.21460422 -0.97438555 -6.7214735e-2
vn 0.21460422 -0.97438555 -6.7214735e-2
vn -0.21460422 -0.97438555 -6.7214735e-2
vn 0.21460422 -0.97438555 -6.7214735e-2
vn -0.21460422 -0.97438555 -6.7214735e-2
vn 0.21460422 -0.97438555 -6.7214735e-2
vn -0.20249836 -0.97902526 -2.2448920e-2
vn -0.20249836 0.97902526 -2.2448920e-2
vn -0.20249836 -0.97902526 -2.2448920e-2
vn -0.20249836 0.97902526 -2.2448920e-2
vn -0.20249836 -0.97902526 -2.2448920e-2
vn -0.20249836 0.97902526 -2.2448920e-2
vn -0.21460422 0.97438555 -6.7214735e-2
vn 0.21460422 0.97438555 -6.7214735e-2
vn -0.21460422 0.97438555 -6.7214735e-2
vn 0.21460422 0.97438555 -6.7214735e-2
vn -0.21460422 0.97438555 -6.7214735e-2
vn 0.21460422 0.97438555 -6.7214735e-2
vn 0.20249836 0.97902526 -2.2448920e-2
vn 0.20249836 -0.97902526 -2.2448920e-2
vn 0.20249836 0.97902526 -2.2448920e-2
vn 0.20249836 -0.97902526 -2.2448920e-2
vn 0.20249836 0.97902526 -2.2448920e-2
vn 0.20249836 -0.97902526 -2.2448920e-2
vn -0.23069904 -0.96780030 -0.10070022
vn -0.23069904 0.96780030 -0.10070022
vn -0.23069904 -0.96780030 -0.10070022
vn -0.23069904 0.96780030 -0.10070022
vn 0.23069904 0.96780030 -0.10070022
vn 0.23069904 -0.96780030 -0.10070022
vn 0.23069904 0.96780030 -0.10070022
vn 0.23069904 -0.96780030 -0.10070022
vn -0.21722886 -0.96688090 -0.13398863
vn -0.21722886 0.96688090 -0.13398863
vn 0.21722886 0.96688090 -0.13398863
vn 0.21722886 -0.96688090 -0.13398863
vn -0.49726697 -0.29048702 0.81752239
vn -0.49726697 -0.29048702 0.81752239
vn -0.82050240 -0.57164308 -7.9308314e-17
vn -0.82050240 -0.57164308 -7.9308314e-17
vn -0.49726697 -0.29048702 0.81752239
vn -0.45948947 0.44157062 0.77063923
vn -0.45948947 0.44157062 0.77063923
vn -0.82050240 0.57164308 -7.9308314e-17
vn -0.82050240 0.57164308 -7.9308314e-17
vn -0.82050240 0.57164308 -7.9308314e-17
vn -0.82050240 0.57164308 -7.9308314e-17
vn 0.45948947 -0.44157062 0.77063923
vn 0.45948947 -0.44157062 0.77063923
vn 0.82050240 -0.57164308 6.1754434e-17
vn 0.82050240 -0.57164308 6.1754434e-17
vn 0.49726697 0.29048702 0.81752239
vn 0.49726697 0.29048702 0.81752239
vn 0.82050240 0.57164308 7.9308314e-17
vn 0.82050240 0.57164308 7.9308314e-17
vn 0.49726697 0.29048702 0.81752239
vn 0.82050240 0.57164308 7.9308314e-17
vn 0.82050240 0.57164308 7.9308314e-17
vn 0.82050240 0.57164308 7.9308314e-17
vn 0.82050240 0.57164308 7.9308314e-17
vn 0.40441279 0.0000000e+0 -0.91457657
vn 0.32226839 0.87259751 0.36703769
vn -4.4381982e-17 1.00000000 -1.6424633e-33
vn -4.4381982e-17 1.00000000 0.0000000e+0
vn 0.39613350 0.91591595 6.4623764e-2
vn -0.39613350 0.91591595 6.4623764e-2
vn -4.4381982e-17 1.00000000 0.0000000e+0
vn -0.39613350 0.91591595 6.4623764e-2
vn 0.39613350 0.91591595 6.4623764e-2
vn -4.4381982e-17 1.00000000 -1.6424633e-33
vn -0.82050240 0.57164308 -6.1754434e-17
vn -0.82050240 0.57164308 -6.1754434e-17
vn -0.40441279 0.0000000e+0 -0.91457657
vn -0.32226839 0.87259751 0.36703769
vn -0.82050240 -0.57164308 -7.9308314e-17
vn -0.82050240 -0.57164308 -7.9308314e-17
vn -0.40441279 0.0000000e+0 -0.91457657
vn -0.42410418 -0.89121207 -0.16086235
vn -0.42410418 -0.89121207 -0.16086235
vn -0.82050240 -0.57164308 -7.9308314e-17
vn -0.82050240 -0.57164308 -7.9308314e-17
vn 0.0000000e+0 -1.00000000 1.5353882e-17
vn 0.0000000e+0 -1.00000000 1.5353882e-17
vn 0.33500030 -0.90707139 -0.25494370
vn -0.33500030 -0.90707139 -0.25494370
vn 0.82050240 -0.57164308 7.9308314e-17
vn 0.82050240 -0.57164308 7.9308314e-17
vn 0.42410418 -0.89121207 -0.16086235
vn 0.40441279 0.0000000e+0 -0.91457657
vn 0.82050240 -0.57164308 7.9308314e-17
vn 0.42410418 -0.89121207 -0.16086235
vn 0.82050240 -0.57164308 7.9308314e-17
vn 0.39613350 0.91591595 6.4623764e-2
vn 0.50598033 -0.86016443 -6.4039543e-2
vn 0.40441279 0.0000000e+0 -0.91457657
vn 0.60770315 0.63680622 0.47452579
vn 0.60770315 -0.63680622 0.47452579
vn 0.39613350 0.91591595 6.4623764e-2
vn -0.39613350 0.91591595 6.4623764e-2
vn -0.40441279 0.0000000e+0 -0.91457657
vn -0.50598033 -0.86016443 -6.4039543e-2
vn -0.60770315 0.63680622 0.47452579
vn -0.60770315 -0.63680622 0.47452579
vn -0.39613350 0.91591595 6.4623764e-2
vn 0.60770315 0.63680622 0.47452579
vn 0.60770315 -0.63680622 0.47452579
vn 0.34875882 0.34376096 -0.87189202
vn 0.34875882 -0.34376096 -0.87189202
vn -0.60770315 0.63680622 0.47452579
vn -0.60770315 -0.63680622 0.47452579
vn -0.34875882 0.34376096 -0.87189202
vn -0.34875882 -0.34376096 -0.87189202
vn 0.41396439 -0.68827788 0.59574076
vn 0.34875882 0.34376096 -0.87189202
vn 0.34875882 -0.34376096 -0.87189202
vn 0.41396439 0.68827788 0.59574076
vn -0.41396439 -0.68827788 0.59574076
vn -0.34875882 0.34376096 -0.87189202
vn -0.34875882 -0.34376096 -0.87189202
vn -0.41396439 0.68827788 0.59574076
vn 0.43086588 0.86875404 -0.24417413
vn -0.43086588 0.86875404 -0.24417413
vn 0.60770315 0.63680622 0.47452579
vn -0.60770315 0.63680622 0.47452579
vn 0.34875882 0.34376096 -0.87189202
vn -0.34875882 0.34376096 -0.87189202
vn 0.41396439 0.68827788 0.59574076
vn -0.41396439 0.68827788 0.59574076
vn -0.42410418 -0.89121207 -0.16086235
vn 0.42410418 -0.89121207 -0.16086235
vn -0.60770315 -0.63680622 0.47452579
vn 0.60770315 -0.63680622 0.47452579
vn -0.41396439 -0.68827788 0.59574076
vn 0.41396439 -0.68827788 0.59574076
vn -0.34875882 -0.34376096 -0.87189202
vn 0.34875882 -0.34376096 -0.87189202
vn 0.42410418 -0.89121207 -0.16086235
vn -0.42410418 -0.89121207 -0.16086235
vn -0.41396439 -0.68827788 0.59574076
vn 0.41396439 -0.68827788 0.59574076
vn 0.41396439 0.68827788 0.59574076
vn -0.41396439 0.68827788 0.59574076
vn 1.0411774e-17 -1.00000000 1.9428496e-18
vn -1.0411774e-17 1.00000000 -1.9428496e-18
vn -1.0411774e-17 1.00000000 1.9428496e-18
vn 1.0411774e-17 -1.00000000 -1.9428496e-18
g sword_16_default
usemtl default
s 1
f 5//6 11//31 17//63
f 6//11 18//72 11//36
f 7//14 14//54 19//77
f 8//18 20//84 14//53
f 8//17 21//89 20//81
f 17//67 11//35 18//71
f 17//64 21//88 5//7
f 19//75 14//49 20//80
f 19//76 22//97 7//13
f 22//96 18//70 6//9
f 33//180 38//205 35//189
f 36//197 42//242 37//202
f 38//207 40//225 35//192
f 59//327 64//356 58//320
f 61//335 65//358 60//331
f 64//351 59//323 70//379
f 64//355 66//364 71//390
f 65//360 67//367 70//382
f 72//399 68//374 70//385
f 72//397 69//375 71//391
s 2
f 1//1 11//37 5//8
f 1//1 21//91 23//110
f 1//1 54//299 2//2
f 2//2 10//29 1//1
f 2//2 22//98 6//10
f 2//2 55//301 24//115
f 3//3 14//55 7//16
f 3//3 22//95 24//113
f 3//3 57//314 4//4
f 4//4 13//47 3//3
f 4//4 21//92 8//20
f 4//4 56//307 23//107
f 5//5 21//87 1//1
f 6//12 11//38 2//2
f 7//15 22//104 3//3
f 8//19 14//56 4//4
f 9//21 1//1 10//25
f 9//22 11//32 1//1
f 9//24 16//62 11//34
f 10//26 2//2 11//30
f 10//27 16//60 9//23
f 11//33 16//61 10//28
f 12//39 3//3 13//43
f 12//40 14//50 3//3
f 12//42 15//59 14//52
f 13//44 4//4 14//48
f 13//45 15//57 12//41
f 14//51 15//58 13//46
f 23//105 21//90 4//4
f 23//106 54//295 1//1
f 24//116 22//101 2//2
f 24//114 57//311 3//3
f 34//184 36//195 37//199
f 35//191 40//224 30//158
f 37//201 42//241 27//138
f 39//216 30//157 40//223
f 40//221 43//243 39//210
f 41//233 27//137 42//240
f 42//238 44//247 41//228
f 43//245 45//251 39//212
f 44//249 46//255 41//230
f 45//253 48//269 39//217
f 46//257 50//281 41//235
f 47//259 39//214 48//265
f 48//267 51//283 47//261
f 49//272 41//232 50//277
f 50//279 52//287 49//274
f 51//285 53//291 47//263
f 52//289 53//293 49//276
f 55//300 2//2 54//296
f 56//306 4//4 57//310
f 58//319 64//353 63//347
f 60//332 65//362 59//326
f 68//373 71//394 66//366
f 69//376 70//384 67//369
f 70//380 59//324 65//357
f 70//381 66//363 64//354
f 71//389 67//368 65//361
s 3
f 27//134 40//219 38//206
f 30//154 42//236 36//196
f 39//209 42//237 30//155
f 39//211 44//248 42//239
f 39//213 46//256 44//250
f 39//218 50//282 46//258
f 40//220 27//135 41//226
f 41//227 43//244 40//222
f 41//229 45//252 43//246
f 41//234 48//270 45//254
f 47//260 50//278 39//215
f 47//262 52//288 50//280
f 47//264 53//294 52//290
f 48//266 41//231 49//271
f 49//273 51//284 48//268
f 49//275 53//292 51//286
f 62//343 71//396 61//337
f 65//359 61//336 71//387
f 66//365 70//383 68//372
f 67//370 71//393 69//377
f 70//386 69//378 72//400
f 71//392 68//371 72//398
s 4
f 17//69 30//160 21//94
f 18//74 26//128 17//68
f 19//78 28//143 22//103
f 20//85 28//144 19//79
f 21//93 30//159 20//86
f 22//102 26//127 18//73
f 25//119 17//65 26//123
f 25//120 30//150 17//66
f 25//122 31//163 30//152
f 26//124 22//99 27//129
f 26//125 31//161 25//121
f 27//130 22//100 28//139
f 27//131 31//162 26//126
f 27//133 38//204 31//164
f 28//140 20//82 29//145
f 28//141 32//170 27//132
f 29//146 20//83 30//149
f 29//147 32//171 28//142
f 30//151 32//172 29//148
f 30//153 36//194 32//173
f 31//167 33//181 73//402
f 31//166 35//190 30//156
f 32//176 34//186 74//404
f 32//174 37//200 27//136
f 33//183 31//169 38//208
f 34//188 32//178 36//198
f 35//193 31//168 33//182
f 37//203 32//177 34//187
f 63//349 71//395 62//342
f 71//388 63//346 64//352
f 73//401 33//179 31//165
f 74//403 34//185 32//175
s 5
f 23//111 61//338 54//297
f 24//118 59//328 57//316
f 54//298 61//339 55//304
f 55//305 59//325 24//117
f 56//309 63//350 23//112
f 57//315 63//348 56//308
f 58//317 57//312 59//321
f 58//318 63//345 57//313
f 59//322 55//302 60//329
f 60//330 55//303 61//333
f 61//334 23//108 62//340
f 62//341 23//109 63//344
