# Exported from Wings 3D 2.1.5
mtllib sword_03.mtl
o sword_03
#82 vertices, 160 faces
v 0.10384000 1.1305795e-15 2.35744072
v 7.2281550e-2 1.1416316e-15 3.42179162
v -2.2204460e-16 5.3381474e-2 3.42115453
v 2.1100122e-2 1.5506769e-2 -3.33403597
v 9.6368734e-2 1.4046743e-15 -3.49333892
v 2.2204460e-16 1.5134979e-15 -3.73191152
v 0.12985922 1.3681990e-15 -3.24995885
v 0.18279076 3.6384573e-2 2.24349084
v 0.16097692 3.1443067e-2 0.76947777
v 3.6523193e-2 4.4334724e-2 0.76262423
v 0.0000000e+0 5.1500523e-3 0.71526399
v 0.72718075 5.4243114e-16 2.28671134
v 0.69941506 2.2320579e-2 2.28229302
v 0.69941506 2.2320579e-2 2.23093745
v -2.2204460e-16 4.8699826e-2 2.10019198
v 0.18477475 3.6384573e-2 2.31984351
v 0.17846665 1.1341194e-15 0.75326374
v 0.72718075 5.4505263e-16 2.23094133
v -2.2204460e-16 8.5736439e-2 2.37959028
v 0.17990891 6.1244421e-2 2.34610280
v 0.16859218 6.1244421e-2 2.19441920
v -2.2204460e-16 8.5736439e-2 2.13971136
v 0.16357028 3.8437115e-2 2.15650281
v -0.10384000 1.1379061e-15 2.35744072
v -7.2281550e-2 1.1482616e-15 3.42179162
v -2.1100122e-2 1.5506769e-2 -3.33403597
v -9.6368734e-2 1.4114738e-15 -3.49333892
v -0.12985922 1.3773614e-15 -3.24995885
v -0.18279076 3.6384573e-2 2.24349084
v -0.16097692 3.1443067e-2 0.76947777
v -3.6523193e-2 4.4334724e-2 0.76262423
v -0.72718075 5.9373849e-16 2.28671134
v -0.69941506 2.2320579e-2 2.28229302
v -0.69941506 2.2320579e-2 2.23093745
v -0.18477475 3.6384573e-2 2.31984351
v -0.17846665 1.1467114e-15 0.75326374
v -0.72718075 5.9635997e-16 2.23094133
v -0.17990891 6.1244421e-2 2.34610280
v -0.16859218 6.1244421e-2 2.19441920
v -0.16357028 3.8437115e-2 2.15650281
v -2.2204460e-16 -5.3381474e-2 3.42115453
v 2.1100122e-2 -1.5506769e-2 -3.33403597
v 0.18279076 -3.6384573e-2 2.24349084
v 0.16097692 -3.1443067e-2 0.76947777
v 3.6523193e-2 -4.4334724e-2 0.76262423
v 0.0000000e+0 -5.1500523e-3 0.71526399
v 0.69941506 -2.2320579e-2 2.28229302
v 0.69941506 -2.2320579e-2 2.23093745
v -2.2204460e-16 -4.8699826e-2 2.10019198
v 0.18477475 -3.6384573e-2 2.31984351
v 0.17990891 -6.1244421e-2 2.34610280
v 0.16859218 -6.1244421e-2 2.19441920
v 0.16357028 -3.8437115e-2 2.15650281
v -2.1100122e-2 -1.5506769e-2 -3.33403597
v -0.18279076 -3.6384573e-2 2.24349084
v -0.16097692 -3.1443067e-2 0.76947777
v -3.6523193e-2 -4.4334724e-2 0.76262423
v -0.69941506 -2.2320579e-2 2.28229302
v -0.69941506 -2.2320579e-2 2.23093745
v -0.18477475 -3.6384573e-2 2.31984351
v -2.2204460e-16 -8.5736439e-2 2.37959028
v -0.17990891 -6.1244421e-2 2.34610280
v -0.16859218 -6.1244421e-2 2.19441920
v -2.2204460e-16 -8.5736439e-2 2.13971136
v -0.16357028 -3.8437115e-2 2.15650281
v -4.7055289e-2 -3.4751340e-2 3.42147308
v -6.7599841e-2 -5.5814422e-2 2.36851550
v 4.7055289e-2 -3.4751340e-2 3.42147308
v 6.7599841e-2 -5.5814422e-2 2.36851550
v -4.7055289e-2 3.4751340e-2 3.42147308
v -6.7599841e-2 5.5814422e-2 2.36851550
v 4.7055289e-2 3.4751340e-2 3.42147308
v 6.7599841e-2 5.5814422e-2 2.36851550
v -0.11102446 8.0973511e-16 3.51136769
v 0.11102446 7.9779999e-16 3.51136769
v -2.2204460e-16 -8.9191333e-2 3.57809807
v 0.19898870 9.1752552e-16 3.58143298
v -2.2204460e-16 8.9191333e-2 3.57809807
v -0.19898870 9.3362647e-16 3.58143298
v 0.12138311 7.4100386e-16 3.66982265
v -0.12138311 7.5082545e-16 3.66982265
v -2.2204460e-16 4.5586783e-16 3.73191152
vn 2.3252130e-16 0.98570876 -0.16845843
vn 0.0000000e+0 -0.95801056 -0.28673292
vn -0.88613835 5.0964565e-15 -0.46342078
vn 0.88613835 1.4029571e-15 -0.46342078
vn 5.0970744e-16 -0.99994250 1.0723196e-2
vn 0.98555155 5.8375769e-15 -0.16937572
vn -3.5515099e-16 0.99994250 1.0723196e-2
vn -0.98555155 5.8375769e-15 -0.16937572
vn 0.60873409 3.8122163e-15 0.79337431
vn -0.60873409 5.5303983e-15 0.79337431
vn 0.0000000e+0 5.3124362e-15 1.00000000
vn 0.18166679 -7.4142657e-17 0.98336015
vn 0.18166679 -7.4142657e-17 0.98336015
vn 0.99956072 6.6000357e-16 2.9637395e-2
vn 0.18166679 -7.4142657e-17 0.98336015
vn 0.99956072 6.6000357e-16 2.9637395e-2
vn 0.99949470 1.7154120e-15 3.1785944e-2
vn 0.99949470 1.7826830e-15 3.1785944e-2
vn 0.91782973 -8.6569314e-16 -0.39697430
vn 0.91782973 -8.6569314e-16 -0.39697430
vn 0.99949470 1.7154120e-15 3.1785944e-2
vn 0.99949470 1.7826830e-15 3.1785944e-2
vn -6.7782664e-16 0.99956872 2.9366141e-2
vn -6.7782664e-16 0.99956872 2.9366141e-2
vn -8.0369866e-16 0.97494338 -0.22245315
vn -8.0369866e-16 0.97494338 -0.22245315
vn -6.7782664e-16 0.99956872 2.9366141e-2
vn -6.7782664e-16 0.99956872 2.9366141e-2
vn -0.65869465 0.75240885 -1.5079280e-3
vn 0.13825725 0.99009113 -2.4586200e-2
vn -0.65869465 0.75240885 -1.5079280e-3
vn 0.13825725 0.99009113 -2.4586200e-2
vn 0.13825725 0.99009113 -2.4586200e-2
vn 0.13394655 0.99043487 -3.3122261e-2
vn 0.13394655 0.99043487 -3.3122261e-2
vn 0.13394655 -0.99043487 -3.3122261e-2
vn 0.13394655 -0.99043487 -3.3122261e-2
vn -0.11027793 0.99290205 -4.4545537e-2
vn 2.9188422e-16 -0.99999534 -3.0543860e-3
vn 2.5539870e-16 -0.99999534 -3.0543860e-3
vn -0.11027793 -0.99290205 -4.4545537e-2
vn 5.4543085e-16 0.99999933 -1.1580494e-3
vn 5.4543085e-16 0.99999933 -1.1580494e-3
vn 0.11027793 0.99290205 -4.4545537e-2
vn 3.2836975e-16 -0.99999534 -3.0543860e-3
vn 0.11027793 -0.99290205 -4.4545537e-2
vn 2.5539870e-16 -0.99999534 -3.0543860e-3
vn 0.20126784 0.97947489 -1.0963227e-2
vn 0.20126784 -0.97947489 -1.0963227e-2
vn 0.20126784 0.97947489 -1.0963227e-2
vn 0.20126784 0.97947489 -1.0963227e-2
vn 0.20126784 -0.97947489 -1.0963227e-2
vn 0.20126784 -0.97947489 -1.0963227e-2
vn 0.80320389 0.59563461 -9.1059492e-3
vn 0.94497021 0.30472883 -0.11904472
vn 0.80320389 0.59563461 -9.1059492e-3
vn 0.94497021 0.30472883 -0.11904472
vn 0.80320389 0.59563461 -9.1059492e-3
vn 2.7195619e-2 0.99962988 -7.0666817e-4
vn -2.4291698e-2 0.0000000e+0 -0.99970491
vn 9.9102936e-2 0.49905205 -0.86088655
vn 0.31843658 0.94791894 -6.9157773e-3
vn 0.31843658 0.94791894 -6.9157773e-3
vn 0.31843658 0.94791894 -6.9157773e-3
vn 0.31843658 0.94791894 -6.9157773e-3
vn -0.41778610 0.83161968 -0.36587360
vn 0.22304855 0.97479136 -5.5821000e-3
vn 9.9102936e-2 0.49905205 -0.86088655
vn 5.1597869e-2 0.99866623 -1.8501947e-3
vn -0.41778610 0.83161968 -0.36587360
vn 5.1597869e-2 0.99866623 -1.8501947e-3
vn 0.22304855 0.97479136 -5.5821000e-3
vn 1.00000000 -1.0366107e-14 -9.4583909e-17
vn 1.00000000 -1.0366107e-14 -9.4583909e-17
vn -0.15715141 0.0000000e+0 0.98757452
vn 1.00000000 -1.0366107e-14 -9.4583909e-17
vn 1.00000000 -1.0366107e-14 -9.4583909e-17
vn 0.34497760 0.93861092 0.0000000e+0
vn -3.8927261e-3 0.0000000e+0 0.99999242
vn -3.8927261e-3 0.0000000e+0 0.99999242
vn -3.8927261e-3 0.0000000e+0 0.99999242
vn 0.34497760 0.93861092 0.0000000e+0
vn 0.34494897 0.93862142 -1.8642159e-4
vn -1.6148943e-2 0.0000000e+0 -0.99986960
vn 0.34494897 0.93862142 -1.8642159e-4
vn 0.34494897 0.93862142 -1.8642159e-4
vn 0.34494897 0.93862142 -1.8642159e-4
vn -1.6148943e-2 0.0000000e+0 -0.99986960
vn -1.6148943e-2 0.0000000e+0 -0.99986960
vn 5.8459870e-17 0.99999581 -2.8950024e-3
vn -4.2035649e-16 0.79018080 -0.61287380
vn -4.1310897e-16 0.79018080 -0.61287380
vn 5.8459870e-17 0.99999581 -2.8950024e-3
vn 6.1243673e-17 0.99999581 -2.8950024e-3
vn -4.3485155e-16 0.79018080 -0.61287380
vn -4.2035649e-16 0.79018080 -0.61287380
vn 6.1243673e-17 0.99999581 -2.8950024e-3
vn 5.8459870e-17 0.99999581 -2.8950024e-3
vn 2.7256618e-2 0.99962841 -3.5333411e-4
vn 0.98005367 0.18627786 6.9248561e-2
vn 0.98005367 0.18627786 6.9248561e-2
vn 7.2771077e-2 0.0000000e+0 0.99734867
vn 0.98005367 0.18627786 6.9248561e-2
vn 0.98005367 0.18627786 6.9248561e-2
vn 2.7256618e-2 0.99962841 -3.5333411e-4
vn 9.9102936e-2 0.49905205 -0.86088655
vn 0.94085112 -0.16531013 -0.29575621
vn 0.29791720 -0.95458486 -3.6173326e-3
vn 0.94085112 -0.16531013 -0.29575621
vn 0.94085112 -0.16531013 -0.29575621
vn 0.94085112 -0.16531013 -0.29575621
vn 0.29791720 0.95458486 -3.6173326e-3
vn 1.3978048e-4 0.0000000e+0 -0.99999999
vn 1.00000000 -8.9485200e-15 -5.4100685e-31
vn 1.00000000 -8.9485200e-15 -5.4100685e-31
vn -9.1084878e-17 0.99998744 -5.0124012e-3
vn -8.4078349e-17 0.99998744 -5.0124012e-3
vn -0.19189299 7.1240065e-2 0.97882682
vn -6.0816087e-16 0.99951787 3.1048844e-2
vn -6.0816087e-16 0.99951787 3.1048844e-2
vn -8.4078349e-17 0.99998744 -5.0124012e-3
vn -9.1084878e-17 0.99998744 -5.0124012e-3
vn 0.19189299 7.1240065e-2 0.97882682
vn 0.98934588 0.13431057 5.6173025e-2
vn 0.17953870 1.9905659e-3 0.98374890
vn 0.17953870 1.9905659e-3 0.98374890
vn 0.98934588 0.13431057 5.6173025e-2
vn 0.13307022 0.99105689 -9.9280314e-3
vn 0.17953870 1.9905659e-3 0.98374890
vn 0.13842115 0.99036102 -4.9641491e-3
vn 0.95110534 0.29113906 -0.10313427
vn 0.27296762 0.76017228 -0.58959883
vn 0.95110534 0.29113906 -0.10313427
vn 0.95110534 0.29113906 -0.10313427
vn 0.27296762 0.76017228 -0.58959883
vn 0.13842115 0.99036102 -4.9641491e-3
vn -9.8164254e-17 1.00000000 0.0000000e+0
vn -9.8164254e-17 1.00000000 0.0000000e+0
vn -2.0446704e-16 0.72965518 -0.68381527
vn -2.0446704e-16 0.72965518 -0.68381527
vn 0.23174607 0.81972855 -0.52377367
vn 0.96791161 0.13704530 -0.21063169
vn 9.7050573e-2 0.99526587 -5.2000679e-3
vn 9.7050573e-2 0.99526587 -5.2000679e-3
vn -0.18166679 -1.0658007e-16 0.98336015
vn -0.18166679 -1.0658007e-16 0.98336015
vn -0.99956072 2.6400143e-16 2.9637395e-2
vn -0.99956072 2.6400143e-16 2.9637395e-2
vn -0.18166679 -1.0658007e-16 0.98336015
vn -0.99949470 1.3117856e-15 3.1785944e-2
vn -0.99949470 1.3790567e-15 3.1785944e-2
vn -0.91782973 9.5226245e-15 -0.39697430
vn -0.91782973 9.5226245e-15 -0.39697430
vn -0.99949470 1.3790567e-15 3.1785944e-2
vn -0.99949470 1.3117856e-15 3.1785944e-2
vn 0.65869465 0.75240885 -1.5079280e-3
vn -0.13825725 0.99009113 -2.4586200e-2
vn 0.65869465 0.75240885 -1.5079280e-3
vn -0.13825725 0.99009113 -2.4586200e-2
vn -0.13825725 0.99009113 -2.4586200e-2
vn -0.13394655 0.99043487 -3.3122261e-2
vn -0.13394655 -0.99043487 -3.3122261e-2
vn -0.13394655 0.99043487 -3.3122261e-2
vn -0.13394655 -0.99043487 -3.3122261e-2
vn -0.20126784 0.97947489 -1.0963227e-2
vn -0.20126784 0.97947489 -1.0963227e-2
vn -0.20126784 0.97947489 -1.0963227e-2
vn -0.20126784 -0.97947489 -1.0963227e-2
vn -0.20126784 -0.97947489 -1.0963227e-2
vn -0.20126784 -0.97947489 -1.0963227e-2
vn -2.7239369e-2 0.99962888 -3.5424788e-4
vn 2.4291698e-2 0.0000000e+0 -0.99970491
vn -0.80320389 0.59563461 -9.1059492e-3
vn -0.94497021 0.30472883 -0.11904472
vn -0.80320389 0.59563461 -9.1059492e-3
vn -0.94497021 0.30472883 -0.11904472
vn -2.7239369e-2 0.99962888 -3.5424788e-4
vn -0.80320389 0.59563461 -9.1059492e-3
vn -9.9102936e-2 0.49905205 -0.86088655
vn -0.31843658 0.94791894 -6.9157773e-3
vn -0.31843658 0.94791894 -6.9157773e-3
vn -0.31843658 0.94791894 -6.9157773e-3
vn -0.31843658 0.94791894 -6.9157773e-3
vn 0.41778610 0.83161968 -0.36587360
vn -9.9102936e-2 0.49905205 -0.86088655
vn 0.41778610 0.83161968 -0.36587360
vn -5.1597869e-2 0.99866623 -1.8501947e-3
vn -5.1597869e-2 0.99866623 -1.8501947e-3
vn -0.22304855 0.97479136 -5.5821000e-3
vn -0.22304855 0.97479136 -5.5821000e-3
vn 0.15715141 0.0000000e+0 0.98757452
vn -1.00000000 -1.0366107e-14 0.0000000e+0
vn -1.00000000 -1.0366107e-14 0.0000000e+0
vn -0.34494088 0.93862440 -1.8690424e-4
vn -0.34494088 0.93862440 -1.8690424e-4
vn 3.8927261e-3 0.0000000e+0 0.99999242
vn -0.34494088 0.93862440 -1.8690424e-4
vn 3.8927261e-3 0.0000000e+0 0.99999242
vn 3.8927261e-3 0.0000000e+0 0.99999242
vn -0.34494088 0.93862440 -1.8690424e-4
vn 1.6148943e-2 0.0000000e+0 -0.99986960
vn -0.34492838 0.93862901 0.0000000e+0
vn 1.6148943e-2 0.0000000e+0 -0.99986960
vn 1.6148943e-2 0.0000000e+0 -0.99986960
vn -0.34492838 0.93862901 0.0000000e+0
vn -2.7265951e-2 0.99962796 -7.0849572e-4
vn -0.98005367 0.18627786 6.9248561e-2
vn -0.98005367 0.18627786 6.9248561e-2
vn -0.98005367 0.18627786 6.9248561e-2
vn -0.98005367 0.18627786 6.9248561e-2
vn -7.2771077e-2 0.0000000e+0 0.99734867
vn -9.9102936e-2 0.49905205 -0.86088655
vn -0.99993201 -5.2647849e-16 -1.1660825e-2
vn -9.9102936e-2 -0.49905205 -0.86088655
vn -0.99993201 -5.2647849e-16 -1.1660825e-2
vn -0.99993201 -5.2647849e-16 -1.1660825e-2
vn -0.29791720 0.95458486 -3.6173326e-3
vn -0.29791720 -0.95458486 -3.6173326e-3
vn -1.00000000 -1.0321808e-14 -9.4583909e-17
vn -1.00000000 -1.0366107e-14 -9.4583909e-17
vn -1.3978048e-4 0.0000000e+0 -0.99999999
vn -1.00000000 -1.0366107e-14 -9.4583909e-17
vn -1.00000000 -1.0321808e-14 -9.4583909e-17
vn -0.98934588 0.13431057 5.6173025e-2
vn -0.17953870 1.9905659e-3 0.98374890
vn -0.17953870 1.9905659e-3 0.98374890
vn -0.13307022 0.99105689 -9.9280314e-3
vn -0.98934588 0.13431057 5.6173025e-2
vn -0.17953870 1.9905659e-3 0.98374890
vn -0.13842115 0.99036102 -4.9641491e-3
vn -0.95110534 0.29113906 -0.10313427
vn -0.27296762 0.76017228 -0.58959883
vn -0.95110534 0.29113906 -0.10313427
vn -0.27296762 0.76017228 -0.58959883
vn -0.13842115 0.99036102 -4.9641491e-3
vn -0.95110534 0.29113906 -0.10313427
vn -0.23174607 0.81972855 -0.52377367
vn -0.96791161 0.13704530 -0.21063169
vn -9.7050573e-2 0.99526587 -5.2000679e-3
vn -9.7050573e-2 0.99526587 -5.2000679e-3
vn -6.4770101e-16 -0.99956872 2.9366141e-2
vn -6.6276383e-16 -0.99956872 2.9366141e-2
vn 2.3813294e-15 -0.97494338 -0.22245315
vn 2.3813294e-15 -0.97494338 -0.22245315
vn -6.6276383e-16 -0.99956872 2.9366141e-2
vn -6.4770101e-16 -0.99956872 2.9366141e-2
vn -0.54394596 -0.83911139 -3.8569343e-3
vn 0.13825725 -0.99009113 -2.4586200e-2
vn 0.13825725 -0.99009113 -2.4586200e-2
vn 0.13825725 -0.99009113 -2.4586200e-2
vn 0.80320389 -0.59563461 -9.1059492e-3
vn 0.96273302 -0.25030653 -0.10242939
vn 0.96273302 -0.25030653 -0.10242939
vn 0.80320389 -0.59563461 -9.1059492e-3
vn 0.80320389 -0.59563461 -9.1059492e-3
vn 2.7195619e-2 -0.99962988 -7.0666817e-4
vn -2.4291698e-2 0.0000000e+0 -0.99970491
vn -2.4291698e-2 0.0000000e+0 -0.99970491
vn 0.96273302 -0.25030653 -0.10242939
vn 0.29701393 -0.93198940 -0.20779434
vn 0.29701393 -0.93198940 -0.20779434
vn 0.29701393 -0.93198940 -0.20779434
vn 0.29701393 -0.93198940 -0.20779434
vn 0.29701393 -0.93198940 -0.20779434
vn -0.47218937 -0.84881353 -0.23780833
vn 0.22304855 -0.97479136 -5.5821000e-3
vn 9.9102936e-2 -0.49905205 -0.86088655
vn -0.47218937 -0.84881353 -0.23780833
vn 5.1597869e-2 -0.99866623 -1.8501947e-3
vn 5.1597869e-2 -0.99866623 -1.8501947e-3
vn -0.47218937 -0.84881353 -0.23780833
vn 0.22304855 -0.97479136 -5.5821000e-3
vn 0.34497760 -0.93861092 -2.6353038e-16
vn 0.34497760 -0.93861092 -2.6353038e-16
vn -4.2472269e-2 0.0000000e+0 0.99909765
vn -4.2472269e-2 0.0000000e+0 0.99909765
vn -1.2076860e-2 0.0000000e+0 -0.99992707
vn 0.34494897 -0.93862142 -1.8642159e-4
vn 0.34494897 -0.93862142 -1.8642159e-4
vn 0.34494897 -0.93862142 -1.8642159e-4
vn 0.34494897 -0.93862142 -1.8642159e-4
vn -1.2076860e-2 0.0000000e+0 -0.99992707
vn 1.2974398e-15 -0.72965518 -0.68381527
vn -2.7838033e-17 -0.99999581 -2.8950024e-3
vn -2.7838033e-17 -0.99999581 -2.8950024e-3
vn -2.7838033e-17 -0.99999581 -2.8950024e-3
vn 1.2974398e-15 -0.72965518 -0.68381527
vn -2.7838033e-17 -0.99999581 -2.8950024e-3
vn -2.7838033e-17 -0.99999581 -2.8950024e-3
vn 0.99074674 -0.11012852 7.9325928e-2
vn 7.2771077e-2 0.0000000e+0 0.99734867
vn 2.7256618e-2 -0.99962841 -3.5333411e-4
vn 7.2771077e-2 0.0000000e+0 0.99734867
vn 2.7256618e-2 -0.99962841 -3.5333411e-4
vn 0.99074674 -0.11012852 7.9325928e-2
vn 0.98550313 -0.15496892 6.9052288e-2
vn 0.14107370 -0.98998386 -5.4930229e-3
vn 0.98550313 -0.15496892 6.9052288e-2
vn 0.17953870 -1.9905659e-3 0.98374890
vn 0.17953870 -1.9905659e-3 0.98374890
vn 0.17953870 -1.9905659e-3 0.98374890
vn 0.98550313 -0.15496892 6.9052288e-2
vn 0.98550313 -0.15496892 6.9052288e-2
vn 0.14107370 -0.98998386 -5.4930229e-3
vn 0.14724621 -0.98903886 -1.0985666e-2
vn 0.95356624 -0.26608098 -0.14111106
vn 0.95356624 -0.26608098 -0.14111106
vn 0.28599910 -0.80392305 -0.52145205
vn 9.7050573e-2 -0.99526587 -5.2000679e-3
vn 0.27936964 -0.75593866 -0.59203830
vn 0.96791161 -0.13704530 -0.21063169
vn 0.27936964 -0.75593866 -0.59203830
vn 9.7050573e-2 -0.99526587 -5.2000679e-3
vn 0.54394596 -0.83911139 -3.8569343e-3
vn -0.13825725 -0.99009113 -2.4586200e-2
vn -0.13825725 -0.99009113 -2.4586200e-2
vn -0.13825725 -0.99009113 -2.4586200e-2
vn 2.4291698e-2 0.0000000e+0 -0.99970491
vn -2.7239369e-2 -0.99962888 -3.5424788e-4
vn -0.96273302 -0.25030653 -0.10242939
vn -0.96273302 -0.25030653 -0.10242939
vn -0.80320389 -0.59563461 -9.1059492e-3
vn -0.80320389 -0.59563461 -9.1059492e-3
vn -0.96273302 -0.25030653 -0.10242939
vn -0.80320389 -0.59563461 -9.1059492e-3
vn 2.4291698e-2 0.0000000e+0 -0.99970491
vn -2.7239369e-2 -0.99962888 -3.5424788e-4
vn -9.9102936e-2 -0.49905205 -0.86088655
vn -0.31843658 -0.94791894 -6.9157773e-3
vn -0.31843658 -0.94791894 -6.9157773e-3
vn -0.31843658 -0.94791894 -6.9157773e-3
vn -0.31843658 -0.94791894 -6.9157773e-3
vn 0.47218937 -0.84881353 -0.23780833
vn -9.9102936e-2 -0.49905205 -0.86088655
vn 0.47218937 -0.84881353 -0.23780833
vn -5.1597869e-2 -0.99866623 -1.8501947e-3
vn -5.1597869e-2 -0.99866623 -1.8501947e-3
vn -0.22304855 -0.97479136 -5.5821000e-3
vn -0.22304855 -0.97479136 -5.5821000e-3
vn 0.47218937 -0.84881353 -0.23780833
vn 4.2472269e-2 0.0000000e+0 0.99909765
vn -0.34494088 -0.93862440 -1.8690424e-4
vn -0.34494088 -0.93862440 -1.8690424e-4
vn -0.34494088 -0.93862440 -1.8690424e-4
vn -0.34494088 -0.93862440 -1.8690424e-4
vn 4.2472269e-2 0.0000000e+0 0.99909765
vn -0.34492838 -0.93862901 -2.6300367e-16
vn 1.2076860e-2 0.0000000e+0 -0.99992707
vn 1.2076860e-2 0.0000000e+0 -0.99992707
vn -0.34492838 -0.93862901 -2.6300367e-16
vn -0.99074674 -0.11012852 7.9325928e-2
vn -2.7265951e-2 -0.99962796 -7.0849572e-4
vn -0.99074674 -0.11012852 7.9325928e-2
vn -7.2771077e-2 0.0000000e+0 0.99734867
vn -7.2771077e-2 0.0000000e+0 0.99734867
vn 0.19189299 -7.1240065e-2 0.97882682
vn -3.9530456e-16 -0.99951787 3.1048844e-2
vn -3.9530456e-16 -0.99951787 3.1048844e-2
vn -3.0812750e-16 -1.00000000 -1.6078499e-16
vn -3.0812750e-16 -1.00000000 -1.6078499e-16
vn -0.19189299 -7.1240065e-2 0.97882682
vn -0.98550313 -0.15496892 6.9052288e-2
vn -0.14107370 -0.98998386 -5.4930229e-3
vn -0.98550313 -0.15496892 6.9052288e-2
vn -0.17953870 -1.9905659e-3 0.98374890
vn -0.17953870 -1.9905659e-3 0.98374890
vn -0.98550313 -0.15496892 6.9052288e-2
vn -0.98550313 -0.15496892 6.9052288e-2
vn -0.14107370 -0.98998386 -5.4930229e-3
vn -0.17953870 -1.9905659e-3 0.98374890
vn -0.14724621 -0.98903886 -1.0985666e-2
vn -0.95356624 -0.26608098 -0.14111106
vn -0.28599910 -0.80392305 -0.52145205
vn -0.95356624 -0.26608098 -0.14111106
vn -1.9625851e-16 -0.99998461 -5.5485131e-3
vn 5.3673762e-16 -0.78728551 -0.61658862
vn -1.9625851e-16 -0.99998461 -5.5485131e-3
vn 5.2223120e-16 -0.78728551 -0.61658862
vn -1.9625851e-16 -0.99998461 -5.5485131e-3
vn 5.2223120e-16 -0.78728551 -0.61658862
vn 5.3673762e-16 -0.78728551 -0.61658862
vn -1.9625851e-16 -0.99998461 -5.5485131e-3
vn -0.27936964 -0.75593866 -0.59203830
vn -0.96791161 -0.13704530 -0.21063169
vn -9.7050573e-2 -0.99526587 -5.2000679e-3
vn -9.7050573e-2 -0.99526587 -5.2000679e-3
vn -0.27936964 -0.75593866 -0.59203830
vn -0.61268226 -0.78984186 2.7754002e-2
vn -0.61268226 -0.78984186 2.7754002e-2
vn -0.58751799 -0.77851487 -0.22076506
vn -0.58751799 -0.77851487 -0.22076506
vn -0.58751799 -0.77851487 -0.22076506
vn -0.63232399 -0.77420586 2.7778641e-2
vn -0.19556402 -2.9873843e-3 0.98068639
vn -0.63232399 -0.77420586 2.7778641e-2
vn -0.63232399 -0.77420586 2.7778641e-2
vn -0.63232399 -0.77420586 2.7778641e-2
vn -0.19556402 -2.9873843e-3 0.98068639
vn 0.61268226 -0.78984186 2.7754002e-2
vn 0.61268226 -0.78984186 2.7754002e-2
vn 0.58751799 -0.77851487 -0.22076506
vn 0.58751799 -0.77851487 -0.22076506
vn 0.58751799 -0.77851487 -0.22076506
vn 0.63232399 -0.77420586 2.7778641e-2
vn 0.19556402 -2.9873843e-3 0.98068639
vn 0.63232399 -0.77420586 2.7778641e-2
vn 0.63232399 -0.77420586 2.7778641e-2
vn 0.63232399 -0.77420586 2.7778641e-2
vn 0.19556402 -2.9873843e-3 0.98068639
vn -0.61268226 0.78984186 2.7754002e-2
vn -0.61268226 0.78984186 2.7754002e-2
vn -0.58751799 0.77851487 -0.22076506
vn -0.58751799 0.77851487 -0.22076506
vn -0.58751799 0.77851487 -0.22076506
vn -0.63232399 0.77420586 2.7778641e-2
vn -0.19556402 2.9873843e-3 0.98068639
vn -0.63232399 0.77420586 2.7778641e-2
vn -0.63232399 0.77420586 2.7778641e-2
vn -0.63232399 0.77420586 2.7778641e-2
vn -0.19556402 2.9873843e-3 0.98068639
vn 0.61268226 0.78984186 2.7754002e-2
vn 0.61268226 0.78984186 2.7754002e-2
vn 0.58751799 0.77851487 -0.22076506
vn 0.58751799 0.77851487 -0.22076506
vn 0.58751799 0.77851487 -0.22076506
vn 0.63232399 0.77420586 2.7778641e-2
vn 0.19556402 2.9873843e-3 0.98068639
vn 0.63232399 0.77420586 2.7778641e-2
vn 0.63232399 0.77420586 2.7778641e-2
vn 0.63232399 0.77420586 2.7778641e-2
vn 0.19556402 2.9873843e-3 0.98068639
g sword_03_default
usemtl default
s 1
f 2//19 75//4 68//402
f 3//25 78//7 72//423
f 4//29 11//1 10//66
f 5//37 42//250 6//46
f 6//42 11//1 4//31
f 6//43 26//158 11//1
f 7//52 42//248 5//36
f 10//68 9//61 17//106
f 10//70 11//1 31//186
f 13//81 47//276 12//75
f 14//89 43//258 8//60
f 16//102 50//291 13//79
f 17//108 45//266 7//49
f 18//113 48//277 14//84
f 19//121 39//235 38//227
f 20//128 21//136 19//122
f 22//137 19//116 21//130
f 25//152 74//3 70//413
f 29//172 55//318 34//201
f 31//184 11//1 26//156
f 32//191 58//341 33//196
f 33//199 60//355 35//211
f 34//204 59//349 37//221
f 36//212 30//179 31//185
f 39//230 19//117 22//138
f 41//243 76//5 66//391
f 42//249 7//53 45//272
f 43//257 14//88 48//282
f 47//275 13//80 50//293
f 51//297 64//375 52//305
f 57//334 56//328 36//214
f 59//348 34//203 55//326
f 60//354 33//198 58//346
f 61//359 62//369 64//379
f 61//360 64//382 51//304
f 63//371 64//377 62//363
f 66//390 74//3 25//153
f 66//392 76//5 74//3
f 68//403 75//4 76//5
f 68//401 76//5 41//244
f 70//414 74//3 78//7
f 70//412 78//7 3//26
f 72//424 75//4 2//20
f 74//3 79//8 78//7
f 75//4 77//6 76//5
f 76//5 79//8 74//3
f 76//5 81//10 79//8
f 76//5 82//11 81//10
f 77//6 80//9 76//5
f 78//7 75//4 72//425
f 78//7 77//6 75//4
f 78//7 80//9 77//6
f 78//7 82//11 80//9
f 79//8 81//10 78//7
f 80//9 82//11 76//5
f 81//10 82//11 78//7
s 2
f 4//33 5//35 6//44
f 5//34 4//32 7//51
f 6//38 27//161 26//157
f 6//39 45//265 46//2
f 6//40 57//333 54//314
f 7//50 10//72 17//112
f 8//59 16//105 14//86
f 10//67 7//48 4//30
f 12//76 14//87 13//82
f 12//77 48//280 18//115
f 14//85 12//73 18//114
f 14//83 16//99 13//78
f 15//91 21//132 23//141
f 20//126 1//13 51//300
f 20//125 73//427 1//12
f 21//135 15//95 22//139
f 22//140 15//96 39//234
f 26//160 28//167 31//190
f 28//165 26//159 27//163
f 33//197 37//223 32//193
f 34//205 33//200 29//177
f 34//202 37//219 33//195
f 35//206 29//171 33//194
f 36//217 31//189 28//166
f 37//222 58//345 32//192
f 38//225 71//416 19//118
f 40//237 39//232 15//92
f 42//247 45//271 6//45
f 45//268 57//335 46//2
f 46//2 57//340 6//47
f 47//274 48//279 12//74
f 47//273 50//292 48//278
f 48//281 50//294 43//256
f 49//283 53//310 64//376
f 51//299 69//405 61//356
f 55//327 58//344 59//350
f 58//343 37//220 59//347
f 58//342 55//319 60//352
f 62//366 24//146 38//226
f 62//365 67//394 24//145
f 63//373 65//383 64//378
f 64//381 53//312 52//308
f 64//380 65//387 49//287
f 67//398 62//370 61//361
f 69//409 51//301 1//15
f 71//420 38//229 24//149
f 73//431 20//129 19//123
s 3
f 1//16 73//430 2//22
f 2//21 69//408 1//14
f 2//18 73//428 72//422
f 3//24 71//415 70//410
f 6//41 54//315 27//162
f 8//57 21//134 16//104
f 19//119 3//27 73//429
f 19//120 71//418 3//28
f 20//124 16//101 21//131
f 20//127 51//302 16//103
f 23//142 21//133 8//55
f 24//147 25//154 71//419
f 24//148 67//396 25//155
f 25//150 67//393 66//388
f 27//164 54//317 28//170
f 28//168 57//338 36//218
f 29//174 39//233 40//238
f 35//209 39//236 29//176
f 35//210 62//367 38//228
f 39//231 35//208 38//224
f 41//245 67//397 61//357
f 41//241 69//406 68//400
f 43//253 52//307 53//311
f 50//290 16//100 51//296
f 50//295 51//303 43//259
f 52//306 43//252 51//298
f 55//324 62//368 60//353
f 57//339 28//169 54//316
f 61//358 69//407 41//246
f 62//362 35//207 60//351
f 62//364 55//320 63//372
f 65//384 63//374 55//321
f 66//389 67//395 41//242
f 68//399 69//404 2//17
f 70//411 71//417 25//151
f 72//421 73//426 3//23
s 4
f 8//54 17//107 9//63
f 9//65 23//144 8//58
f 10//69 15//90 9//62
f 15//97 30//183 40//240
f 23//143 9//64 15//98
f 29//175 36//216 55//323
f 29//178 40//239 30//182
f 30//181 15//93 31//187
f 30//180 36//213 29//173
f 31//188 15//94 10//71
f 43//254 17//110 8//56
f 43//251 53//309 44//261
f 44//262 17//111 43//255
f 44//260 45//267 17//109
f 44//264 49//289 45//270
f 45//269 49//285 57//336
f 49//288 44//263 53//313
f 55//322 36//215 56//329
f 56//332 65//386 55//325
f 57//337 49//286 56//331
f 65//385 56//330 49//284
