# Exported from Wings 3D 2.1.5
mtllib sword_33.mtl
o sword_33
#72 vertices, 140 faces
v 0.0000000e+0 0.0000000e+0 3.17603801
v 0.0000000e+0 0.0000000e+0 -2.34474806
v -0.10869678 0.0000000e+0 -2.09626538
v -8.4050588e-2 0.0000000e+0 -2.23349971
v -0.15958101 0.0000000e+0 1.82898585
v -0.16553031 0.0000000e+0 3.06020120
v -6.3870272e-2 0.0000000e+0 2.86403369
v -0.10417814 0.0000000e+0 3.13583450
v -0.10703351 0.0000000e+0 2.97503511
v -9.2960504e-2 0.0000000e+0 2.47841052
v -0.10670616 0.0000000e+0 1.98470784
v -0.44360448 0.0000000e+0 1.92303087
v -0.38886800 0.0000000e+0 1.77261670
v -0.43055409 0.0000000e+0 1.84826607
v -0.27422450 0.0000000e+0 1.82363140
v -0.28486735 0.0000000e+0 1.96706010
v 0.10869678 0.0000000e+0 -2.09626538
v 8.4050588e-2 0.0000000e+0 -2.23349971
v 0.15958101 0.0000000e+0 1.82898585
v 0.16553031 0.0000000e+0 3.06020120
v 6.3870272e-2 0.0000000e+0 2.86403369
v 0.10417814 0.0000000e+0 3.13583450
v 0.10703351 0.0000000e+0 2.97503511
v 9.2960504e-2 0.0000000e+0 2.47841052
v 0.10670616 0.0000000e+0 1.98470784
v 0.44360448 0.0000000e+0 1.92303087
v 0.38886800 0.0000000e+0 1.77261670
v 0.43055409 0.0000000e+0 1.84826607
v 0.27422450 0.0000000e+0 1.82363140
v 0.28486735 0.0000000e+0 1.96706010
v 0.0000000e+0 5.4592524e-2 1.80113170
v -3.2879682e-19 9.3054176e-2 1.97380044
v 0.0000000e+0 9.7928681e-2 3.06020120
v -3.2879682e-19 5.5260287e-2 2.47841052
v -3.2879682e-19 5.5095130e-2 2.86403369
v 0.0000000e+0 5.5095130e-2 -2.14391705
v -0.27512078 3.6319325e-2 1.95089526
v 0.27512078 3.6319325e-2 1.95089526
v 0.42082639 3.2083644e-2 1.90821808
v 0.37400643 3.2083644e-2 1.80150300
v 0.26859848 4.4559446e-2 1.84081092
v 0.14733287 6.4574221e-2 1.85273791
v -0.14733287 6.4574221e-2 1.85273791
v -0.26859848 4.4559446e-2 1.84081092
v -0.37400643 3.2083644e-2 1.80150300
v -0.42082639 3.2083644e-2 1.90821808
v 0.0000000e+0 9.3054176e-2 1.81826942
v -6.3639554e-2 6.2020831e-2 1.96874489
v -5.5441645e-2 4.3123886e-2 2.47841052
v 6.3639554e-2 6.2020831e-2 1.96874489
v 5.5441645e-2 4.3123886e-2 2.47841052
v 0.0000000e+0 -5.4592524e-2 1.80113170
v -3.2879682e-19 -9.3054176e-2 1.97380044
v 0.0000000e+0 -9.7928681e-2 3.06020120
v -3.2879682e-19 -5.5260287e-2 2.47841052
v -3.2879682e-19 -5.5095130e-2 2.86403369
v 0.0000000e+0 -5.5095130e-2 -2.14391705
v -0.27512078 -3.6319325e-2 1.95089526
v 0.27512078 -3.6319325e-2 1.95089526
v 0.42082639 -3.2083644e-2 1.90821808
v 0.37400643 -3.2083644e-2 1.80150300
v 0.26859848 -4.4559446e-2 1.84081092
v 0.14733287 -6.4574221e-2 1.85273791
v -0.14733287 -6.4574221e-2 1.85273791
v -0.26859848 -4.4559446e-2 1.84081092
v -0.37400643 -3.2083644e-2 1.80150300
v -0.42082639 -3.2083644e-2 1.90821808
v 0.0000000e+0 -9.3054176e-2 1.81826942
v -6.3639554e-2 -6.2020831e-2 1.96874489
v -5.5441645e-2 -4.3123886e-2 2.47841052
v 6.3639554e-2 -6.2020831e-2 1.96874489
v 5.5441645e-2 -4.3123886e-2 2.47841052
vn -0.99875714 0.0000000e+0 4.9841469e-2
vn -0.68532056 0.0000000e+0 0.72824153
vn -0.84687469 0.0000000e+0 0.53179250
vn -3.1363894e-2 0.0000000e+0 -0.99950803
vn -0.93762787 4.8503312e-17 -0.34764060
vn 0.23276246 0.0000000e+0 -0.97253362
vn -0.19853721 1.5516817e-17 0.98009335
vn 0.99875714 2.3840265e-17 4.9841469e-2
vn 0.84687469 0.0000000e+0 0.53179250
vn 3.1363894e-2 0.0000000e+0 -0.99950803
vn 0.93762787 4.8503312e-17 -0.34764060
vn -0.23276246 0.0000000e+0 -0.97253362
vn 0.19853721 7.7584086e-18 0.98009335
vn 1.0713883e-16 0.99929407 3.7567985e-2
vn -0.16292624 0.82458145 0.54177530
vn 0.16292624 0.82458145 0.54177530
vn 0.43277066 0.86338149 0.25938767
vn 0.34027897 0.84189780 -0.41882971
vn -3.6563270e-2 0.85947711 -0.50986491
vn 0.21544041 0.76641389 -0.60514063
vn -0.21544041 0.76641389 -0.60514063
vn 3.6563270e-2 0.85947711 -0.50986491
vn -0.34027897 0.84189780 -0.41882971
vn -0.43277066 0.86338149 0.25938767
vn -0.54059583 0.84020592 4.2546061e-2
vn 0.54059583 0.84020592 4.2546061e-2
vn 1.4206541e-17 -0.99709609 7.6153741e-2
vn 1.1687872e-16 -0.99929407 3.7567985e-2
vn -0.16292624 -0.82458145 0.54177530
vn 0.16292624 -0.82458145 0.54177530
vn 0.43277066 -0.86338149 0.25938767
vn 0.34027897 -0.84189780 -0.41882971
vn -3.6563270e-2 -0.85947711 -0.50986491
vn 0.21544041 -0.76641389 -0.60514063
vn -0.21544041 -0.76641389 -0.60514063
vn 3.6563270e-2 -0.85947711 -0.50986491
vn -0.34027897 -0.84189780 -0.41882971
vn -0.43277066 -0.86338149 0.25938767
vn -0.54059583 -0.84020592 4.2546061e-2
vn 0.54059583 -0.84020592 4.2546061e-2
vn -0.24175673 0.74101651 0.62645687
vn 0.24175673 0.74101651 0.62645687
vn 0.0000000e+0 -0.76366932 0.64560760
vn 0.0000000e+0 -0.76366932 0.64560760
vn 0.33049306 0.91017957 -0.24969481
vn -0.33049306 -0.91017957 -0.24969481
vn -0.33049306 0.91017957 -0.24969481
vn 0.33049306 -0.91017957 -0.24969481
vn -0.46763733 0.88271689 -4.6111085e-2
vn -0.46763733 0.88271689 -4.6111085e-2
vn -0.42038770 -0.90684114 -3.0221245e-2
vn -0.42038770 -0.90684114 -3.0221245e-2
vn -0.42038770 -0.90684114 -3.0221245e-2
vn -0.40795571 -0.89721604 -0.16904295
vn -0.40795571 0.89721604 -0.16904295
vn -0.40795571 0.89721604 -0.16904295
vn -0.40795571 -0.89721604 -0.16904295
vn -0.38989026 0.92085679 -2.8906710e-3
vn -7.3465676e-2 1.0045211e-17 -0.99729775
vn -7.3465676e-2 -1.0045211e-17 -0.99729775
vn -7.3465676e-2 -1.0045211e-17 -0.99729775
vn -7.3465676e-2 1.0045211e-17 -0.99729775
vn -7.3465676e-2 1.0045211e-17 -0.99729775
vn -0.38989026 0.92085679 -2.8906710e-3
vn -0.32433653 -0.94593242 -4.2044731e-3
vn -7.3465676e-2 -1.0045211e-17 -0.99729775
vn -0.48062843 0.81241342 -0.33012233
vn -0.47061161 0.79548183 0.38175040
vn -0.50897932 -0.86033536 2.7624593e-2
vn -0.50897932 -0.86033536 2.7624593e-2
vn -0.99593524 0.0000000e+0 9.0072142e-2
vn -0.60273141 0.77485335 -0.19057053
vn -0.99593524 0.0000000e+0 9.0072142e-2
vn -0.60273141 0.77485335 -0.19057053
vn -0.99593524 0.0000000e+0 9.0072142e-2
vn -0.60273141 -0.77485335 -0.19057053
vn -0.99593524 0.0000000e+0 9.0072142e-2
vn -0.60273141 -0.77485335 -0.19057053
vn -0.36142777 0.77955904 0.51152485
vn -0.36142777 0.77955904 0.51152485
vn -0.36142777 -0.77955904 0.51152485
vn -0.36142777 -0.77955904 0.51152485
vn -0.52108891 0.80818585 -0.27441205
vn -0.52108891 0.80818585 -0.27441205
vn -0.52108891 -0.80818585 -0.27441205
vn -0.52108891 -0.80818585 -0.27441205
vn 0.42038770 -0.90684114 -3.0221245e-2
vn 0.46763733 0.88271689 -4.6111085e-2
vn 0.46763733 0.88271689 -4.6111085e-2
vn 0.42038770 -0.90684114 -3.0221245e-2
vn 0.42038770 -0.90684114 -3.0221245e-2
vn 0.40795571 0.89721604 -0.16904295
vn 0.40795571 0.89721604 -0.16904295
vn 0.40795571 -0.89721604 -0.16904295
vn 0.40795571 -0.89721604 -0.16904295
vn 7.3465676e-2 1.0045211e-17 -0.99729775
vn 7.3465676e-2 1.0045211e-17 -0.99729775
vn 0.32433653 -0.94593242 -4.2044731e-3
vn 7.3465676e-2 -1.0045211e-17 -0.99729775
vn 7.3465676e-2 -1.0045211e-17 -0.99729775
vn 0.38989026 0.92085679 -2.8906710e-3
vn 7.3465676e-2 -1.0045211e-17 -0.99729775
vn 7.3465676e-2 1.0045211e-17 -0.99729775
vn 0.38989026 0.92085679 -2.8906710e-3
vn 0.48062843 0.81241342 -0.33012233
vn 0.47061161 0.79548183 0.38175040
vn 0.50897932 -0.86033536 2.7624593e-2
vn 0.50897932 -0.86033536 2.7624593e-2
vn 0.60273141 0.77485335 -0.19057053
vn 0.99593524 0.0000000e+0 9.0072142e-2
vn 0.99593524 0.0000000e+0 9.0072142e-2
vn 0.60273141 0.77485335 -0.19057053
vn 0.60273141 -0.77485335 -0.19057053
vn 0.99593524 0.0000000e+0 9.0072142e-2
vn 0.99593524 0.0000000e+0 9.0072142e-2
vn 0.60273141 -0.77485335 -0.19057053
vn 0.36142777 0.77955904 0.51152485
vn 0.36142777 0.77955904 0.51152485
vn 0.36142777 -0.77955904 0.51152485
vn 0.36142777 -0.77955904 0.51152485
vn 0.52108891 0.80818585 -0.27441205
vn 0.52108891 0.80818585 -0.27441205
vn 0.52108891 -0.80818585 -0.27441205
vn 0.52108891 -0.80818585 -0.27441205
vn 0.99961264 0.0000000e+0 2.7831186e-2
vn 9.8572527e-2 0.0000000e+0 0.99512987
vn 9.8572527e-2 0.0000000e+0 0.99512987
vn 0.99961264 0.0000000e+0 2.7831186e-2
vn -0.32366365 0.94617220 1.2054393e-4
vn 0.0000000e+0 0.40054486 -0.91627715
vn 0.0000000e+0 0.40054486 -0.91627715
vn 0.0000000e+0 0.40054486 -0.91627715
vn 0.0000000e+0 0.40054486 -0.91627715
vn 0.32366365 0.94617220 1.2054393e-4
vn -0.43830567 0.89882598 -1.6308624e-16
vn 0.43830567 0.89882598 -1.5752944e-16
vn 2.1654942e-16 0.99720695 7.4688022e-2
vn 2.1654942e-16 0.99720695 7.4688022e-2
vn 0.56423586 0.79053912 -0.23808779
vn 0.56423586 0.79053912 -0.23808779
vn 0.36142777 0.77955904 0.51152485
vn -0.36142777 0.77955904 0.51152485
vn -0.56423586 0.79053912 -0.23808779
vn -0.56423586 0.79053912 -0.23808779
vn -0.36142777 0.77955904 0.51152485
vn 0.36142777 0.77955904 0.51152485
vn 0.56423586 0.79053912 -0.23808779
vn -0.56423586 0.79053912 -0.23808779
vn 0.64442577 0.74706511 -0.16312309
vn 7.2044735e-17 0.99916938 4.0749848e-2
vn 4.8029824e-17 0.99916938 4.0749848e-2
vn 6.4039765e-17 0.99916938 4.0749848e-2
vn 3.2019882e-17 0.99916938 4.0749848e-2
vn -0.64442577 0.74706511 -0.16312309
vn 0.40033399 0.91231406 -8.6114725e-2
vn -0.40033399 0.91231406 -8.6114725e-2
vn 0.40033399 0.91231406 -8.6114725e-2
vn -0.40033399 0.91231406 -8.6114725e-2
vn 0.40033399 0.91231406 -8.6114725e-2
vn -0.40033399 0.91231406 -8.6114725e-2
vn -0.40033399 0.91231406 -8.6114725e-2
vn 0.40033399 0.91231406 -8.6114725e-2
vn -3.4899764e-17 0.95046897 -0.31081945
vn -2.3266509e-17 0.95046897 -0.31081945
vn -3.4899764e-17 0.95046897 -0.31081945
vn -2.3266509e-17 0.95046897 -0.31081945
vn -3.4899764e-17 0.95046897 -0.31081945
vn -2.3266509e-17 0.95046897 -0.31081945
vn -0.38446288 0.88259783 0.27057228
vn -0.38446288 0.88259783 0.27057228
vn -0.38446288 0.88259783 0.27057228
vn -0.38446288 0.88259783 0.27057228
vn -0.38446288 0.88259783 0.27057228
vn -0.38446288 0.88259783 0.27057228
vn -0.38446288 0.88259783 0.27057228
vn -0.38446288 0.88259783 0.27057228
vn -0.38446288 0.88259783 0.27057228
vn -0.38446288 0.88259783 0.27057228
vn 0.58289022 0.81139092 4.3402495e-2
vn 0.21515082 0.88113691 0.42107941
vn 0.21515082 0.88113691 0.42107941
vn 0.58289022 0.81139092 4.3402495e-2
vn 0.21515082 0.88113691 0.42107941
vn 0.21515082 0.88113691 0.42107941
vn 0.58289022 0.81139092 4.3402495e-2
vn 0.21515082 0.88113691 0.42107941
vn 0.21515082 0.88113691 0.42107941
vn 0.58289022 0.81139092 4.3402495e-2
vn 0.38914023 -0.92117625 -2.0503548e-3
vn 0.0000000e+0 -0.40054486 -0.91627715
vn 0.0000000e+0 -0.40054486 -0.91627715
vn 0.0000000e+0 -0.40054486 -0.91627715
vn 0.0000000e+0 -0.40054486 -0.91627715
vn -0.38914023 -0.92117625 -2.0503548e-3
vn -0.38914023 -0.92117625 -2.0503548e-3
vn 0.38914023 -0.92117625 -2.0503548e-3
vn -0.43830567 -0.89882598 -1.6308624e-16
vn 0.43830567 -0.89882598 -1.5752944e-16
vn 2.1654942e-16 -0.99720695 7.4688022e-2
vn 2.1654942e-16 -0.99720695 7.4688022e-2
vn 0.0000000e+0 -0.97698114 -0.21332570
vn 7.2044735e-17 -0.99916938 4.0749848e-2
vn 4.8029824e-17 -0.99916938 4.0749848e-2
vn 6.4039765e-17 -0.99916938 4.0749848e-2
vn 3.2019882e-17 -0.99916938 4.0749848e-2
vn 0.0000000e+0 -0.97698114 -0.21332570
vn -0.42416976 -0.89852963 -0.11280305
vn -0.42416976 -0.89852963 -0.11280305
vn -0.42416976 -0.89852963 -0.11280305
vn 0.42416976 -0.89852963 -0.11280305
vn 0.42416976 -0.89852963 -0.11280305
vn 0.42416976 -0.89852963 -0.11280305
vn -3.4899764e-17 -0.95046897 -0.31081945
vn -2.3266509e-17 -0.95046897 -0.31081945
vn -3.4899764e-17 -0.95046897 -0.31081945
vn -2.3266509e-17 -0.95046897 -0.31081945
vn -3.4899764e-17 -0.95046897 -0.31081945
vn -2.3266509e-17 -0.95046897 -0.31081945
vn -0.38446288 -0.88259783 0.27057228
vn -0.38446288 -0.88259783 0.27057228
vn -0.38446288 -0.88259783 0.27057228
vn -0.38446288 -0.88259783 0.27057228
vn -0.38446288 -0.88259783 0.27057228
vn -0.38446288 -0.88259783 0.27057228
vn -0.38446288 -0.88259783 0.27057228
vn -0.38446288 -0.88259783 0.27057228
vn -0.38446288 -0.88259783 0.27057228
vn -0.38446288 -0.88259783 0.27057228
vn 0.58289022 -0.81139092 4.3402495e-2
vn 0.21515082 -0.88113691 0.42107941
vn 0.21515082 -0.88113691 0.42107941
vn 0.58289022 -0.81139092 4.3402495e-2
vn 0.21515082 -0.88113691 0.42107941
vn 0.21515082 -0.88113691 0.42107941
vn 0.21515082 -0.88113691 0.42107941
vn 0.21515082 -0.88113691 0.42107941
vn 0.58289022 -0.81139092 4.3402495e-2
vn 0.58289022 -0.81139092 4.3402495e-2
g sword_33_default
usemtl default
s 1
f 1//41 33//142 8//79
f 3//49 36//160 4//56
f 4//55 36//158 2//47
f 5//64 36//161 3//50
f 8//80 33//145 6//68
f 17//91 57//211 18//94
f 18//95 57//212 2//48
f 19//98 52//189 17//87
f 21//112 33//147 23//122
f 23//121 33//140 20//105
f 31//129 36//156 5//58
f 35//149 33//139 21//109
f 57//210 17//90 52//196
s 2
f 2//45 36//155 18//92
f 2//46 57//207 4//54
f 3//51 52//194 5//65
f 4//57 57//208 3//52
f 6//67 33//144 9//84
f 7//74 33//148 35//154
f 9//83 33//143 7//72
f 17//89 36//162 19//104
f 18//93 36//159 17//88
f 19//101 36//157 31//134
f 20//106 33//141 22//117
f 22//118 33//146 1//42
f 52//195 3//53 57//209
s 3
f 1//44 54//27 22//120
f 6//70 54//27 8//82
f 7//76 54//27 9//85
f 8//81 54//27 1//43
f 9//86 54//27 6//69
f 20//107 54//27 23//123
f 21//113 54//27 56//201
f 22//119 54//27 20//108
f 23//124 54//27 21//116
f 56//206 54//27 7//78
s 4
f 5//59 43//21 31//130
f 5//63 65//36 15//6
f 7//71 49//25 10//1
f 7//77 70//39 56//204
f 10//1 48//175 11//2
f 10//1 69//219 70//39
f 10//1 70//39 7//75
f 11//2 48//178 16//7
f 11//2 69//226 10//1
f 12//3 46//24 14//5
f 12//3 67//38 16//7
f 13//4 44//22 15//6
f 13//4 66//37 14//5
f 14//5 45//23 13//4
f 14//5 46//24 45//23
f 14//5 67//38 12//3
f 15//6 44//22 5//66
f 15//6 65//36 13//4
f 16//7 46//24 12//3
f 16//7 67//38 58//29
f 16//7 69//228 11//2
f 19//102 41//19 29//12
f 19//100 63//34 52//191
f 21//111 51//26 35//153
f 21//114 72//40 24//8
f 24//8 50//179 51//26
f 24//8 51//26 21//110
f 24//8 71//238 25//128
f 25//125 50//185 24//8
f 25//126 71//236 30//13
f 26//9 39//17 30//13
f 26//9 60//31 28//11
f 27//10 40//18 28//11
f 27//10 62//33 29//12
f 28//11 39//17 26//9
f 28//11 40//18 39//17
f 28//11 61//32 27//10
f 29//12 41//19 27//10
f 29//12 62//33 19//103
f 30//13 50//187 25//127
f 30//13 60//31 26//9
f 31//131 42//20 19//97
f 31//132 47//164 42//20
f 32//138 34//14 50//188
f 32//137 48//176 34//14
f 34//14 35//151 51//26
f 34//14 48//173 49//25
f 34//14 49//25 35//150
f 35//152 49//25 7//73
f 37//15 16//7 48//170
f 37//15 44//22 46//24
f 37//15 46//24 16//7
f 38//16 30//13 39//17
f 38//16 41//19 50//186
f 39//17 41//19 38//16
f 40//18 27//10 41//19
f 41//19 19//96 42//20
f 41//19 39//17 40//18
f 42//20 50//181 41//19
f 43//21 5//60 44//22
f 43//21 47//165 31//133
f 43//21 48//174 47//167
f 44//22 13//4 45//23
f 44//22 48//172 43//21
f 45//23 46//24 44//22
f 47//163 48//171 32//135
f 47//168 50//184 42//20
f 48//177 44//22 37//15
f 49//25 48//169 10//1
f 50//180 30//13 38//16
f 50//183 47//166 32//136
f 51//26 50//182 34//14
f 52//190 64//35 5//61
f 52//193 68//215 64//35
f 53//198 68//216 71//233
f 53//197 69//221 68//213
f 55//28 69//225 53//200
f 55//28 71//232 72//40
f 56//202 70//39 55//28
f 56//205 72//40 21//115
f 58//29 65//36 69//227
f 59//30 30//13 71//230
f 59//30 62//33 60//31
f 60//31 30//13 59//30
f 60//31 61//32 28//11
f 61//32 60//31 62//33
f 62//33 27//10 61//32
f 62//33 71//231 63//34
f 63//34 19//99 62//33
f 63//34 68//214 52//192
f 63//34 71//234 68//218
f 64//35 69//222 65//36
f 65//36 5//62 64//35
f 65//36 67//38 66//37
f 66//37 13//4 65//36
f 66//37 67//38 14//5
f 67//38 65//36 58//29
f 68//217 69//224 64//35
f 69//220 16//7 58//29
f 70//39 69//223 55//28
f 71//237 55//28 53//199
f 71//235 62//33 59//30
f 72//40 56//203 55//28
f 72//40 71//229 24//8
