# Exported from Wings 3D 2.1.5
mtllib sword_20.mtl
o sword_20
#74 vertices, 144 faces
v -3.9689476e-2 8.9379487e-8 0.63047430
v -4.5523900e-3 3.5299684e-2 0.65868472
v 3.9575674e-2 5.9029234e-2 0.70919731
v 8.8493373e-2 3.5816025e-2 0.75737930
v -7.2564851e-3 1.8523893e-2 0.67685003
v -0.21215045 1.2024814e-2 -1.40381850
v -5.2094392e-2 -1.3909494e-7 -1.27845169
v 0.13006537 -1.2881410e-7 0.33835617
v -2.7486315e-3 1.8523882e-2 5.7673550e-2
v -0.23648047 2.4829880e-8 -1.47132089
v 0.12703632 -9.8405519e-8 0.77682717
v 9.9446939e-2 1.2024814e-2 0.58536285
v 0.11530698 1.2024814e-2 0.53426595
v 0.14899428 9.6030026e-3 0.52055317
v 0.18715770 -1.5887292e-7 0.53115233
v -9.7589137e-2 1.2024814e-2 -1.26110797
v 7.2928207e-2 1.2024814e-2 -0.71862923
v 0.15440886 -2.0957704e-7 -0.67054985
v 3.2579215e-2 1.2024814e-2 -0.57914434
v 9.2244689e-2 -1.3492462e-7 -0.57914434
v 2.8151391e-2 1.2024814e-2 -0.38725395
v 7.1791157e-2 -1.0662397e-7 -0.38725395
v 3.5852162e-2 -1.9784353e-7 -1.08515553
v -2.0205466e-2 1.2024814e-2 -1.08515553
v -6.6255367e-2 1.2708787e-7 -0.20251195
v -5.2214208e-2 1.8523914e-2 -0.40344329
v -3.4752801e-2 1.8523883e-2 -0.20591804
v -7.5994224e-2 1.8523893e-2 -0.77168158
v -4.5524709e-3 -3.5299585e-2 0.65868472
v 3.9575539e-2 -5.9029234e-2 0.70919731
v 8.8493291e-2 -3.5816135e-2 0.75737930
v -7.2565245e-3 -1.8523928e-2 0.67685003
v -0.21215049 -1.2024853e-2 -1.40381850
v 9.9446917e-2 -1.2024853e-2 0.58536285
v 0.11530696 -1.2024853e-2 0.53426595
v 0.14899426 -9.6032602e-3 0.52055317
v -9.7589137e-2 -1.2024853e-2 -1.26110797
v 7.2928207e-2 -1.2024853e-2 -0.71862923
v 3.6886180e-2 -1.2024853e-2 -0.57914434
v 2.6017266e-2 -1.2024853e-2 -0.38725395
v -2.0205466e-2 -1.2024853e-2 -1.08515553
v -5.2214248e-2 -1.8523907e-2 -0.40344329
v -3.4752841e-2 -1.8523938e-2 -0.20591804
v -7.5994224e-2 -1.8523928e-2 -0.77168158
v -2.7486710e-3 -1.8523939e-2 5.7673551e-2
v 6.3431315e-2 -1.2024853e-2 4.0854371e-2
v 6.3431315e-2 1.2024814e-2 4.0854371e-2
v 0.11281465 -1.1771903e-7 4.0854371e-2
v 1.6226890e-2 6.8837553e-7 1.47132089
v 0.17501615 6.7360469e-7 1.37409710
v 0.13554493 4.1445222e-2 1.40173911
v 5.5593284e-2 4.1329383e-2 1.45068234
v 2.2469234e-2 3.3658658e-2 1.26553597
v 8.1821763e-2 3.3658613e-2 1.25677144
v 0.13059793 6.0180073e-7 1.32897216
v -1.7930982e-2 4.5488241e-7 1.26682965
v 0.10355623 4.9156442e-7 1.23814428
v 2.7817024e-2 3.3658145e-2 0.76456425
v 8.2111673e-2 3.3658144e-2 0.79524504
v 0.11389695 -1.4615646e-8 0.81504331
v -4.0324977e-3 -1.5221546e-8 0.74461456
v 1.0111891e-2 3.3658375e-2 0.97968638
v 6.3910533e-2 3.3658328e-2 0.96502977
v 9.5509582e-2 1.9268371e-7 0.95770365
v -2.1487199e-2 1.5912554e-7 0.98701257
v 0.11608475 7.2733357e-7 1.45613025
v 0.13554498 -4.1443860e-2 1.40173920
v 5.5593329e-2 -4.1328006e-2 1.45068242
v 2.2469271e-2 -3.3657706e-2 1.26553604
v 8.1821801e-2 -3.3657615e-2 1.25677151
v 2.7817004e-2 -3.3658179e-2 0.76456429
v 8.2111653e-2 -3.3658179e-2 0.79524508
v 1.0111928e-2 -3.3658037e-2 0.97968645
v 6.3910570e-2 -3.3657962e-2 0.96502984
vn -0.34082415 0.93994601 1.8450033e-2
vn 0.43709001 0.89389091 -9.9555880e-2
vn -0.50142422 0.84940347 0.16458280
vn 0.38451142 0.91268839 0.13838665
vn -0.38005337 0.92491008 -1.0039339e-2
vn 0.39802548 0.91732634 9.3866189e-3
vn -0.34082312 -0.93994634 1.8452007e-2
vn 0.43709099 -0.89389064 -9.9554003e-2
vn -0.50142492 -0.84940296 0.16458329
vn 0.38451056 -0.91268853 0.13838811
vn -0.38005282 -0.92491032 -1.0037476e-2
vn 0.39802652 -0.91732587 9.3886487e-3
vn -0.77762365 0.57990331 0.24292718
vn 0.88327610 -3.7395562e-7 -0.46885321
vn -0.77762486 -0.57990197 0.24292649
vn 0.88327610 -3.7395562e-7 -0.46885321
vn 0.88327610 -3.7395562e-7 -0.46885321
vn -0.73246260 0.63984938 0.23257538
vn -0.73246260 0.63984938 0.23257538
vn 0.76568715 -0.52532296 -0.37115897
vn 0.76568715 -0.52532296 -0.37115897
vn -0.73246260 0.63984938 0.23257538
vn -0.18708536 0.94946140 0.25203595
vn -0.18708536 0.94946140 0.25203595
vn -0.18708536 0.94946140 0.25203595
vn 0.72212112 -0.36625776 -0.58685291
vn 0.72212112 -0.36625776 -0.58685291
vn 0.49096130 0.86115082 0.13181909
vn 0.63951687 3.5285251e-2 -0.76796687
vn 0.63951687 3.5285251e-2 -0.76796687
vn 0.49096130 0.86115082 0.13181909
vn 0.65631471 -0.24726764 -0.71281815
vn 0.65631471 -0.24726764 -0.71281815
vn 0.65631471 -0.24726764 -0.71281815
vn 7.9223724e-2 0.99655274 2.4621762e-2
vn 0.65631471 -0.24726764 -0.71281815
vn 0.65631471 -0.24726764 -0.71281815
vn 7.9223724e-2 0.99655274 2.4621762e-2
vn 7.9223724e-2 0.99655274 2.4621762e-2
vn 0.65631471 -0.24726764 -0.71281815
vn -0.96131934 1.5837310e-6 0.27543624
vn 0.23672067 0.94833155 -0.21125955
vn 1.7499473e-2 0.99974818 -1.4047756e-2
vn 0.23672067 0.94833155 -0.21125955
vn -0.96131934 1.5837310e-6 0.27543624
vn 0.23102986 0.95722550 -0.17419687
vn 0.23671845 -0.94833233 -0.21125852
vn 0.23671845 -0.94833233 -0.21125852
vn 0.23102986 0.95722550 -0.17419687
vn 0.23102986 0.95722550 -0.17419687
vn 0.21864642 -0.97072000 -9.9480798e-2
vn 0.21881735 0.97467808 -4.6061005e-2
vn 0.21881316 -0.97467903 -4.6060628e-2
vn 0.21881316 -0.97467903 -4.6060628e-2
vn 0.21881316 -0.97467903 -4.6060628e-2
vn 0.21881735 0.97467808 -4.6061005e-2
vn 0.21881735 0.97467808 -4.6061005e-2
vn 0.21881735 0.97467808 -4.6061005e-2
vn 0.21881316 -0.97467903 -4.6060628e-2
vn -0.99838890 1.0638284e-6 5.6741542e-2
vn -0.99838890 1.0638284e-6 5.6741542e-2
vn 8.1163072e-2 0.99667593 -7.0463509e-3
vn 8.1163072e-2 0.99667593 -7.0463509e-3
vn 8.1163072e-2 0.99667593 -7.0463509e-3
vn -0.99838890 1.0638284e-6 5.6741542e-2
vn -0.99838890 1.0638284e-6 5.6741542e-2
vn -0.94075793 1.5516758e-6 0.33907893
vn 0.27637302 -0.92401671 -0.26421787
vn 0.27637387 0.92401667 -0.26421711
vn 0.63673262 0.74850504 0.18523439
vn 0.60126246 0.23182125 -0.76468449
vn 0.10149306 0.99368802 4.7783735e-2
vn 0.98977699 -9.0772896e-7 -0.14262367
vn 0.63673108 -0.74850599 0.18523585
vn 0.60126208 -0.23182292 -0.76468428
vn 0.10149238 -0.99368812 4.7783011e-2
vn 0.63673262 0.74850504 0.18523439
vn 0.63673108 -0.74850599 0.18523585
vn 9.2098156e-2 0.99507235 3.6727926e-2
vn 0.99688699 -9.1100246e-7 7.8843642e-2
vn 9.2098156e-2 0.99507235 3.6727926e-2
vn 0.99688699 -9.1100246e-7 7.8843642e-2
vn 0.73671942 -6.8734639e-7 0.67619856
vn 0.73671942 -6.8734639e-7 0.67619856
vn 7.7118742e-2 0.99700757 5.3491711e-3
vn 0.18686443 0.98130086 -4.6155264e-2
vn 0.18686443 0.98130086 -4.6155264e-2
vn 7.7118742e-2 0.99700757 5.3491711e-3
vn 7.7118742e-2 0.99700757 5.3491711e-3
vn 0.73671942 -6.8734639e-7 0.67619856
vn 0.73671942 -6.8734639e-7 0.67619856
vn 0.15688019 0.98525804 -6.8229072e-2
vn 5.7805371e-2 -4.7986406e-8 0.99832787
vn 0.15688019 0.98525804 -6.8229072e-2
vn 5.7805371e-2 -4.7986406e-8 0.99832787
vn 0.26361642 0.96146367 -7.8064028e-2
vn -0.26760173 3.2421351e-7 0.96352961
vn 0.26361482 -0.96146412 -7.8063854e-2
vn 0.20789680 0.97121812 -0.11625098
vn 0.20789680 0.97121812 -0.11625098
vn 2.5519405e-2 0.99957062 -1.4399260e-2
vn 2.5519405e-2 0.99957062 -1.4399260e-2
vn 0.20789680 0.97121812 -0.11625098
vn 0.17187188 0.98509944 6.2574011e-3
vn 0.17187188 0.98509944 6.2574011e-3
vn 4.3731276e-2 0.99904326 -3.7145788e-4
vn 4.3731276e-2 0.99904326 -3.7145788e-4
vn 0.17187188 0.98509944 6.2574011e-3
vn 0.17187188 0.98509944 6.2574011e-3
vn 0.13987332 0.99011278 1.0589994e-2
vn 0.13986868 -0.99011343 1.0590196e-2
vn 0.13987332 0.99011278 1.0589994e-2
vn 0.13986868 -0.99011343 1.0590196e-2
vn 0.22030773 0.97502553 2.8102000e-2
vn 0.22030773 0.97502553 2.8102000e-2
vn 6.2414137e-2 0.99804590 2.9774242e-3
vn 6.2414137e-2 0.99804590 2.9774242e-3
vn 6.2414137e-2 0.99804590 2.9774242e-3
vn 0.22030773 0.97502553 2.8102000e-2
vn 0.16661384 0.98476481 4.9780393e-2
vn 0.16661384 0.98476481 4.9780393e-2
vn 0.17647705 -0.98305661 4.9553613e-2
vn 0.16661384 0.98476481 4.9780393e-2
vn 0.17647705 -0.98305661 4.9553613e-2
vn 0.17647705 -0.98305661 4.9553613e-2
vn 8.1828703e-2 0.99663803 -4.0860546e-3
vn 8.1828703e-2 0.99663803 -4.0860546e-3
vn 8.1828703e-2 0.99663803 -4.0860546e-3
vn 0.26564081 0.96403987 -7.8792346e-3
vn 0.26564081 0.96403987 -7.8792346e-3
vn 0.24146196 0.97040056 -4.3446538e-3
vn 0.24146196 0.97040056 -4.3446538e-3
vn 0.23928897 -0.97094641 -1.9644509e-3
vn 0.23928897 -0.97094641 -1.9644509e-3
vn 0.24146196 0.97040056 -4.3446538e-3
vn 0.24146196 0.97040056 -4.3446538e-3
vn 0.23928897 -0.97094641 -1.9644509e-3
vn 0.23928897 -0.97094641 -1.9644509e-3
vn 0.20296439 0.97641247 -7.3648848e-2
vn 0.20296439 0.97641247 -7.3648848e-2
vn 0.20295905 -0.97641371 -7.3647123e-2
vn 0.20295905 -0.97641371 -7.3647123e-2
vn 0.20296439 0.97641247 -7.3648848e-2
vn 0.20296439 0.97641247 -7.3648848e-2
vn 0.20295905 -0.97641371 -7.3647123e-2
vn 0.20295905 -0.97641371 -7.3647123e-2
vn 0.20918754 0.97518054 -7.2549933e-2
vn 0.20918754 0.97518054 -7.2549933e-2
vn 4.0732710e-2 0.99907936 -1.3464176e-2
vn 4.0732710e-2 0.99907936 -1.3464176e-2
vn -0.99756728 1.0608051e-6 -6.9710287e-2
vn 0.10749461 -9.7554712e-8 0.99420567
vn -0.50279811 0.86326036 4.4447932e-2
vn -0.50280484 -0.86325642 4.4448259e-2
vn -0.99999652 1.0645301e-6 -2.6393091e-3
vn -7.0665028e-2 0.99745970 8.9773989e-3
vn -7.0665028e-2 0.99745970 8.9773989e-3
vn -7.0665028e-2 0.99745970 8.9773989e-3
vn -0.99999652 1.0645301e-6 -2.6393091e-3
vn -7.0665028e-2 0.99745970 8.9773989e-3
vn -0.62187494 6.7533156e-7 0.78311657
vn -6.2889715e-2 0.99800856 4.8775654e-3
vn -6.2889715e-2 0.99800856 4.8775654e-3
vn -6.2889715e-2 0.99800856 4.8775654e-3
vn -6.2889715e-2 0.99800856 4.8775654e-3
vn -0.62187494 6.7533156e-7 0.78311657
vn -0.99044920 6.6986533e-7 0.13787812
vn 4.1195329e-2 0.99912811 -6.7804516e-3
vn 4.1195329e-2 0.99912811 -6.7804516e-3
vn 4.1195329e-2 0.99912811 -6.7804516e-3
vn 4.1195329e-2 0.99912811 -6.7804516e-3
vn -0.99044920 6.6986533e-7 0.13787812
vn 4.1195329e-2 0.99912811 -6.7804516e-3
vn -0.99044920 6.6986533e-7 0.13787812
vn -0.99044920 6.6986533e-7 0.13787812
vn -0.73246361 -0.63984837 0.23257499
vn -0.73246361 -0.63984837 0.23257499
vn 0.76568793 0.52532323 -0.37115698
vn 0.76568793 0.52532323 -0.37115698
vn -0.73246361 -0.63984837 0.23257499
vn -0.18708688 -0.94946108 0.25203603
vn -0.18708688 -0.94946108 0.25203603
vn -0.18708688 -0.94946108 0.25203603
vn 0.72212175 0.36625763 -0.58685222
vn 0.72212175 0.36625763 -0.58685222
vn 0.49095899 -0.86115206 0.13181957
vn 0.49095899 -0.86115206 0.13181957
vn 0.63951684 -3.5286704e-2 -0.76796684
vn 0.63951684 -3.5286704e-2 -0.76796684
vn 0.47139344 0.28836936 -0.83344546
vn 0.47139344 0.28836936 -0.83344546
vn 0.47139344 0.28836936 -0.83344546
vn 0.47139344 0.28836936 -0.83344546
vn 7.9223473e-2 -0.99655277 2.4621524e-2
vn 0.47139344 0.28836936 -0.83344546
vn 0.47139344 0.28836936 -0.83344546
vn 7.9223473e-2 -0.99655277 2.4621524e-2
vn 7.9223473e-2 -0.99655277 2.4621524e-2
vn 0.47139344 0.28836936 -0.83344546
vn -0.96722906 1.0555575e-6 0.25390537
vn 0.23671845 -0.94833233 -0.21125852
vn 0.23671845 -0.94833233 -0.21125852
vn 1.7499454e-2 -0.99974818 -1.4047746e-2
vn -0.96722906 1.0555575e-6 0.25390537
vn -0.96722906 1.0555575e-6 0.25390537
vn 0.98815972 -9.0192906e-7 0.15342873
vn 9.2097781e-2 -0.99507240 3.6727552e-2
vn 0.98815972 -9.0192906e-7 0.15342873
vn 9.2097781e-2 -0.99507240 3.6727552e-2
vn 0.98815972 -9.0192906e-7 0.15342873
vn 0.73671943 -6.6423209e-7 0.67619855
vn 0.73671943 -6.6423209e-7 0.67619855
vn 0.18685863 -0.98130199 -4.6154658e-2
vn 0.18685863 -0.98130199 -4.6154658e-2
vn 7.7118781e-2 -0.99700756 5.3491696e-3
vn 7.7118781e-2 -0.99700756 5.3491696e-3
vn 7.7118781e-2 -0.99700756 5.3491696e-3
vn 0.17022452 -1.4777624e-7 0.98540530
vn 0.17022452 -1.4777624e-7 0.98540530
vn 0.15687631 -0.98525868 -6.8228685e-2
vn 0.15687631 -0.98525868 -6.8228685e-2
vn 0.17022452 -1.4777624e-7 0.98540530
vn 0.21375141 -0.97219237 -9.5667832e-2
vn 0.19588776 -0.96793624 -0.15724956
vn 2.5519384e-2 -0.99957062 -1.4399250e-2
vn 2.5519384e-2 -0.99957062 -1.4399250e-2
vn 0.21375141 -0.97219237 -9.5667832e-2
vn 0.17556876 -0.98445076 5.6840343e-3
vn 0.17556876 -0.98445076 5.6840343e-3
vn 4.3929957e-2 -0.99903418 -9.3036900e-4
vn 4.3929957e-2 -0.99903418 -9.3036900e-4
vn 0.17556876 -0.98445076 5.6840343e-3
vn 0.17556876 -0.98445076 5.6840343e-3
vn 6.2120312e-2 -0.99806219 3.5949316e-3
vn 0.22615071 -0.97361149 3.0602675e-2
vn 0.22615071 -0.97361149 3.0602675e-2
vn 6.2120312e-2 -0.99806219 3.5949316e-3
vn 6.2120312e-2 -0.99806219 3.5949316e-3
vn 0.22615071 -0.97361149 3.0602675e-2
vn 0.25407608 -0.96717635 -3.9054457e-3
vn 8.3559346e-2 -0.99649700 -3.4017853e-3
vn 8.3559346e-2 -0.99649700 -3.4017853e-3
vn 8.3559346e-2 -0.99649700 -3.4017853e-3
vn 0.25407608 -0.96717635 -3.9054457e-3
vn 0.20918165 -0.97518195 -7.2547891e-2
vn 0.20918165 -0.97518195 -7.2547891e-2
vn 4.0732682e-2 -0.99907936 -1.3464167e-2
vn 4.0732682e-2 -0.99907936 -1.3464167e-2
vn -0.99980465 7.0950858e-7 1.9765138e-2
vn -0.99980465 7.0950858e-7 1.9765138e-2
vn -7.0415467e-2 -0.99747064 9.6946787e-3
vn -7.0415467e-2 -0.99747064 9.6946787e-3
vn -7.0415467e-2 -0.99747064 9.6946787e-3
vn -0.99980465 7.0950858e-7 1.9765138e-2
vn -7.0415467e-2 -0.99747064 9.6946787e-3
vn -0.83545996 8.9874465e-7 0.54955133
vn -0.83545996 8.9874465e-7 0.54955133
vn -6.1969962e-2 -0.99806700 4.6888872e-3
vn -6.1969962e-2 -0.99806700 4.6888872e-3
vn -6.1969962e-2 -0.99806700 4.6888872e-3
vn -6.1969962e-2 -0.99806700 4.6888872e-3
vn -0.83545996 8.9874465e-7 0.54955133
vn -0.99044920 0.0000000e+0 0.13787811
vn 4.0698102e-2 -0.99914720 -6.9666839e-3
vn 4.0698102e-2 -0.99914720 -6.9666839e-3
vn 4.0698102e-2 -0.99914720 -6.9666839e-3
vn 4.0698102e-2 -0.99914720 -6.9666839e-3
vn 4.0698102e-2 -0.99914720 -6.9666839e-3
vn -0.99044920 0.0000000e+0 0.13787811
vn -0.99838890 1.0638287e-6 5.6741542e-2
vn -0.99838890 1.0638287e-6 5.6741542e-2
vn 8.1163199e-2 -0.99667592 -7.0463553e-3
vn 8.1163199e-2 -0.99667592 -7.0463553e-3
vn 8.1163199e-2 -0.99667592 -7.0463553e-3
vn 0.26241095 -0.96467920 -2.3120001e-2
vn 9.1519649e-2 -0.99575664 -9.6367760e-3
vn 0.26241095 -0.96467920 -2.3120001e-2
vn 9.1519649e-2 -0.99575664 -9.6367760e-3
vn 9.1519649e-2 -0.99575664 -9.6367760e-3
vn 0.26241095 -0.96467920 -2.3120001e-2
vn 0.26241095 -0.96467920 -2.3120001e-2
vn 0.26530531 0.96388909 -2.3041712e-2
vn 9.1077825e-2 0.99579884 -9.4599231e-3
vn 9.1077825e-2 0.99579884 -9.4599231e-3
vn 9.1077825e-2 0.99579884 -9.4599231e-3
vn 0.26530531 0.96388909 -2.3041712e-2
vn 0.26530531 0.96388909 -2.3041712e-2
vn 0.26530531 0.96388909 -2.3041712e-2
vn 0.23654961 0.97144910 -1.8191489e-2
vn 0.23654597 -0.97144999 -1.8191271e-2
vn 0.23654961 0.97144910 -1.8191489e-2
vn 0.23654597 -0.97144999 -1.8191271e-2
vn -0.68989138 0.71468189 0.11523748
vn 0.14192929 0.33072413 0.93299391
vn -0.68989059 -0.71468241 0.11523898
vn 0.14192966 -0.33072201 0.93299460
vn 0.75808887 0.35876531 0.54459959
vn 0.46842099 0.75364543 -0.46108604
vn 0.75808927 -0.35876333 0.54460035
vn 0.46842182 -0.75364588 -0.46108446
vn 0.46647239 0.82874558 -0.30916707
vn 0.59267294 0.52422708 0.61149387
vn 0.46647239 0.82874558 -0.30916707
vn 0.59267294 0.52422708 0.61149387
vn 0.46647239 0.82874558 -0.30916707
vn -0.36390897 0.93093767 3.0419106e-2
vn -0.36390897 0.93093767 3.0419106e-2
vn -0.36390897 0.93093767 3.0419106e-2
vn 0.27597739 0.51123101 0.81392833
vn 0.27597739 0.51123101 0.81392833
vn -0.36390897 0.93093767 3.0419106e-2
vn 0.69589180 0.62935676 -0.34589690
vn 0.69589180 0.62935676 -0.34589690
vn 0.69589180 0.62935676 -0.34589690
vn 0.69589249 -0.62935673 -0.34589558
vn 0.69589249 -0.62935673 -0.34589558
vn 0.69589249 -0.62935673 -0.34589558
vn -0.67491683 0.73555672 5.8682080e-2
vn -0.67491683 0.73555672 5.8682080e-2
vn -0.67491683 0.73555672 5.8682080e-2
vn -0.67491602 -0.73555734 5.8683625e-2
vn -0.67491602 -0.73555734 5.8683625e-2
vn -0.67491602 -0.73555734 5.8683625e-2
vn -0.67491602 -0.73555734 5.8683625e-2
vn -0.67491683 0.73555672 5.8682080e-2
vn 0.80036678 0.58624356 -0.12542528
vn 0.80036742 -0.58624295 -0.12542405
vn 0.80036678 0.58624356 -0.12542528
vn 0.80036742 -0.58624295 -0.12542405
vn 0.67089336 0.72505683 0.15554641
vn 0.67089228 -0.72505733 0.15554878
vn 0.67089336 0.72505683 0.15554641
vn 0.67089228 -0.72505733 0.15554878
vn -0.75792375 0.64530869 9.5542100e-2
vn -0.75792375 0.64530869 9.5542100e-2
vn -0.75792405 -0.64530828 9.5542451e-2
vn -0.75792405 -0.64530828 9.5542451e-2
vn -0.75792375 0.64530869 9.5542100e-2
vn -0.75792405 -0.64530828 9.5542451e-2
vn -0.75792375 0.64530869 9.5542100e-2
vn -0.75792405 -0.64530828 9.5542451e-2
vn 0.75122545 0.65956399 2.5212242e-2
vn 0.75122545 0.65956399 2.5212242e-2
vn 0.75122581 -0.65956353 2.5213743e-2
vn 0.75122581 -0.65956353 2.5213743e-2
vn 0.75122581 -0.65956353 2.5213743e-2
vn 0.75122545 0.65956399 2.5212242e-2
vn 0.75122581 -0.65956353 2.5213743e-2
vn 0.75122545 0.65956399 2.5212242e-2
vn -0.73124645 0.68176480 -2.1803283e-2
vn -0.73124572 -0.68176562 -2.1802050e-2
vn -0.73124572 -0.68176562 -2.1802050e-2
vn -0.73124645 0.68176480 -2.1803283e-2
vn 0.45740862 0.47721608 0.75036136
vn 0.45740862 0.47721608 0.75036136
vn 0.45740862 0.47721608 0.75036136
vn 0.45740914 -0.47721400 0.75036236
vn 0.45740914 -0.47721400 0.75036236
vn 0.45740914 -0.47721400 0.75036236
vn 0.46647330 -0.82874572 -0.30916533
vn 0.59267352 -0.52422514 0.61149497
vn 0.46647330 -0.82874572 -0.30916533
vn 0.59267352 -0.52422514 0.61149497
vn 0.46647330 -0.82874572 -0.30916533
vn -0.36390795 -0.93093800 3.0421061e-2
vn -0.36390795 -0.93093800 3.0421061e-2
vn -0.36390795 -0.93093800 3.0421061e-2
vn 0.27597795 -0.51122900 0.81392941
vn 0.27597795 -0.51122900 0.81392941
vn -0.36390795 -0.93093800 3.0421061e-2
g sword_20_default
usemtl default
s 1
f 1//15 29//177 61//336
f 6//45 33//205 28//175
f 10//67 33//200 6//41
f 11//73 34//206 12//80
f 12//82 34//210 13//90
f 13//91 36//222 14//95
f 14//93 36//219 15//97
f 26//155 42//249 25//151
f 28//174 42//254 26//159
f 30//181 71//9 29//176
f 31//186 11//74 72//10
f 31//187 72//10 30//182
f 35//211 13//83 34//208
f 36//218 13//84 35//212
f 42//250 28//167 44//263
f 44//269 28//172 33//204
f 49//294 66//355 52//309
f 50//300 67//362 55//317
f 51//302 66//354 50//297
f 52//310 66//356 51//304
f 55//316 70//8 57//327
f 56//323 68//367 49//295
f 57//329 70//8 64//348
f 60//331 64//346 72//10
f 60//333 72//10 11//78
f 61//339 73//11 65//351
f 65//352 73//11 56//324
f 68//366 56//321 69//7
f 68//370 70//8 67//364
f 69//7 56//322 73//11
f 69//7 70//8 68//365
f 69//7 73//11 70//8
f 70//8 55//315 67//360
f 70//8 73//11 74//12
f 71//9 30//183 72//10
f 71//9 61//337 29//180
f 71//9 73//11 61//341
f 72//10 64//345 74//12
f 72//10 73//11 71//9
f 74//12 64//344 70//8
f 74//12 73//11 72//10
s 2
f 1//16 32//191 29//178
f 2//20 5//32 1//14
f 3//26 5//33 2//21
f 4//30 5//36 3//27
f 5//34 4//29 11//71
f 5//37 32//196 1//17
f 7//47 33//201 10//68
f 9//66 32//199 5//40
f 9//60 43//256 45//270
f 11//75 31//188 32//193
f 25//152 43//257 27//161
f 27//166 43//262 9//65
f 29//179 32//192 30//184
f 30//185 32//195 31//189
f 32//190 9//61 45//271
f 37//224 33//202 7//48
f 49//296 68//368 66//358
f 66//357 67//361 50//299
f 67//363 66//359 68//369
s 3
f 1//13 61//334 2//19
f 2//18 58//3 3//23
f 2//22 61//335 58//3
f 3//24 59//4 4//28
f 5//39 13//89 9//64
f 6//43 28//168 16//101
f 8//59 46//280 48//292
f 9//63 47//285 27//165
f 11//72 12//79 5//35
f 12//81 13//88 5//38
f 15//98 36//220 8//53
f 16//102 28//169 24//149
f 17//107 28//171 19//116
f 18//113 38//233 23//146
f 19//118 26//160 21//128
f 20//124 38//232 18//111
f 21//127 27//164 47//284
f 22//138 39//239 20//125
f 22//137 46//281 40//244
f 23//145 37//227 7//51
f 24//150 28//170 17//106
f 25//153 27//162 26//156
f 26//158 19//117 28//173
f 27//163 21//126 26//157
f 35//213 8//54 36//221
f 35//214 46//275 8//55
f 37//223 23//142 41//246
f 38//229 20//122 39//235
f 39//236 22//133 40//240
f 41//245 23//141 38//228
f 47//283 9//62 13//85
f 48//290 46//277 22//134
f 50//298 55//314 51//303
f 51//305 54//2 52//311
f 51//301 55//312 54//2
f 52//306 54//2 53//1
f 52//308 56//320 49//293
f 53//1 56//318 52//307
f 54//2 62//5 53//1
f 54//2 64//342 63//6
f 56//325 62//5 65//353
f 57//326 54//2 55//313
f 58//3 62//5 59//4
f 59//4 3//25 58//3
f 59//4 11//77 4//31
f 59//4 62//5 63//6
f 59//4 64//349 60//332
f 60//330 11//70 59//4
f 61//340 62//5 58//3
f 62//5 56//319 53//1
f 63//6 62//5 54//2
f 63//6 64//343 59//4
f 64//347 54//2 57//328
f 65//350 62//5 61//338
s 4
f 6//44 7//49 10//69
f 7//46 6//42 16//100
f 13//86 8//57 47//287
f 14//94 8//58 13//87
f 15//96 8//52 14//92
f 16//103 23//144 7//50
f 17//108 20//123 18//110
f 17//104 23//139 24//147
f 19//114 20//120 17//105
f 19//115 22//131 20//121
f 21//129 22//135 19//119
f 22//132 47//282 48//289
f 23//143 17//109 18//112
f 24//148 23//140 16//99
f 32//194 34//207 11//76
f 32//197 35//216 34//209
f 35//215 45//272 46//278
f 37//225 44//265 33//203
f 38//230 44//267 41//248
f 39//237 44//268 38//231
f 40//243 42//255 39//238
f 40//242 46//276 43//260
f 41//247 44//266 37//226
f 42//253 40//241 43//259
f 42//252 43//258 25//154
f 43//261 46//279 45//273
f 44//264 39//234 42//251
f 45//274 35//217 32//198
f 47//288 22//136 21//130
f 48//291 47//286 8//56
