# Exported from Wings 3D 2.1.5
mtllib sword_36.mtl
o sword_36
#98 vertices, 192 faces
v -0.11936983 0.0000000e+0 0.14670644
v -7.2948801e-2 0.0000000e+0 -0.13846936
v 1.7446362e-19 0.0000000e+0 -2.12486606
v 0.0000000e+0 0.0000000e+0 0.93711196
v -5.7871344e-2 0.0000000e+0 -0.85403375
v -6.4659746e-2 0.0000000e+0 -1.51159684
v -8.1308159e-2 0.0000000e+0 -1.65859987
v -6.1680345e-2 0.0000000e+0 -1.84231866
v -6.6904231e-2 0.0000000e+0 0.32195359
v -0.16525661 0.0000000e+0 0.31721613
v -0.23415885 0.0000000e+0 0.30348138
v -0.29976701 0.0000000e+0 0.25687949
v -0.26665083 0.0000000e+0 0.31748297
v -0.21499927 0.0000000e+0 0.37002332
v -0.13871578 0.0000000e+0 0.41710630
v -0.10820538 0.0000000e+0 0.39044102
v -7.1606304e-2 0.0000000e+0 0.38505385
v -4.5331982e-2 0.0000000e+0 0.45862647
v -3.1594863e-2 0.0000000e+0 0.60722565
v -3.7523944e-2 0.0000000e+0 0.71713157
v -4.8123749e-2 0.0000000e+0 0.81794188
v -7.1113260e-2 0.0000000e+0 0.84274233
v -6.7001482e-2 0.0000000e+0 0.87692350
v -4.3297062e-2 0.0000000e+0 0.91895063
v 0.11936983 0.0000000e+0 0.14670644
v 7.2948801e-2 0.0000000e+0 -0.13846936
v 5.7871344e-2 0.0000000e+0 -0.85403375
v 6.4659746e-2 0.0000000e+0 -1.51159684
v 8.1308159e-2 0.0000000e+0 -1.65859987
v 6.1680345e-2 0.0000000e+0 -1.84231866
v 6.6904231e-2 0.0000000e+0 0.32195359
v 0.16525661 0.0000000e+0 0.31721613
v 0.23415885 0.0000000e+0 0.30348138
v 0.29976701 0.0000000e+0 0.25687949
v 0.26665083 0.0000000e+0 0.31748297
v 0.21499927 0.0000000e+0 0.37002332
v 0.13871578 0.0000000e+0 0.41710630
v 0.10820538 0.0000000e+0 0.39044102
v 7.1606304e-2 0.0000000e+0 0.38505385
v 4.5331982e-2 0.0000000e+0 0.45862647
v 3.1594863e-2 0.0000000e+0 0.60722565
v 3.7523944e-2 0.0000000e+0 0.71713157
v 4.8123749e-2 0.0000000e+0 0.81794188
v 7.1113260e-2 0.0000000e+0 0.84274233
v 6.7001482e-2 0.0000000e+0 0.87692350
v 4.3297062e-2 0.0000000e+0 0.91895063
v 0.0000000e+0 2.1688413e-2 0.13473425
v -5.2131777e-2 2.3532076e-2 0.22834392
v 5.2131777e-2 2.3532076e-2 0.22834392
v 2.9913056e-19 2.1688413e-2 -1.83776623
v 4.3737130e-2 2.7166896e-2 0.35748304
v 0.0000000e+0 2.9736723e-2 0.34355486
v -4.3737130e-2 2.7166896e-2 0.35748304
v 6.2287974e-2 2.9736723e-2 0.34661102
v -6.2287974e-2 2.9736723e-2 0.34661102
v -0.19012794 2.9736723e-2 0.34361972
v -0.25040484 2.9736723e-2 0.31048218
v 0.19012794 2.9736723e-2 0.34361972
v 0.25040484 2.9736723e-2 0.31048218
v 0.0000000e+0 4.5207155e-2 0.23914456
v 2.6326899e-2 2.7166896e-2 0.81794188
v -2.6326899e-2 2.7166896e-2 0.81794188
v 2.4799616e-2 2.7166896e-2 0.45862647
v -2.4799616e-2 2.7166896e-2 0.45862647
v 1.7284496e-2 2.7166896e-2 0.60722565
v -1.7284496e-2 2.7166896e-2 0.60722565
v 2.0528099e-2 2.7166896e-2 0.71713157
v -2.0528099e-2 2.7166896e-2 0.71713157
v 5.6070042e-18 4.8193965e-2 0.85619349
v 4.2717155e-2 3.6603978e-2 0.87064737
v 2.2115782e-18 3.6603978e-2 0.90693380
v -4.2717155e-2 3.6603978e-2 0.87064737
v 0.0000000e+0 -2.1688413e-2 0.13473425
v -5.6615109e-2 -2.3532076e-2 0.22834392
v 5.6615109e-2 -2.3532076e-2 0.22834392
v 2.9913056e-19 -2.1688413e-2 -1.83776623
v 4.3737130e-2 -2.7166896e-2 0.35748304
v 0.0000000e+0 -2.9736723e-2 0.34355486
v -4.3737130e-2 -2.7166896e-2 0.35748304
v 6.2287974e-2 -2.9736723e-2 0.34661102
v -6.2287974e-2 -2.9736723e-2 0.34661102
v -0.19012794 -2.9736723e-2 0.34361972
v -0.25040484 -2.9736723e-2 0.31048218
v 0.19012794 -2.9736723e-2 0.34361972
v 0.25040484 -2.9736723e-2 0.31048218
v 0.0000000e+0 -4.5207155e-2 0.23914456
v 2.6326899e-2 -2.7166896e-2 0.81794188
v -2.6326899e-2 -2.7166896e-2 0.81794188
v 2.4799616e-2 -2.7166896e-2 0.45862647
v -2.4799616e-2 -2.7166896e-2 0.45862647
v 1.7284496e-2 -2.7166896e-2 0.60722565
v -1.7284496e-2 -2.7166896e-2 0.60722565
v 2.0528099e-2 -2.7166896e-2 0.71713157
v -2.0528099e-2 -2.7166896e-2 0.71713157
v 5.6070042e-18 -4.8193965e-2 0.85619349
v 4.2717155e-2 -3.6603978e-2 0.87064737
v 2.2115782e-18 -3.6603978e-2 0.90693380
v -4.2717155e-2 -3.6603978e-2 0.87064737
vn 0.0000000e+0 0.0000000e+0 1.00000000
vn -0.98806793 0.0000000e+0 0.15401871
vn -0.99270066 0.12019909 9.8782376e-3
vn -0.99173706 -0.10828776 -6.8784918e-2
vn -0.93647238 -0.13609145 -0.32326242
vn -0.95004345 0.0000000e+0 0.31211766
vn -0.69905482 0.0000000e+0 0.71506808
vn 0.97731180 0.14442509 0.15492913
vn 0.99270066 -0.12019909 9.8782376e-3
vn 0.99173706 0.10828776 -6.8784918e-2
vn 0.96438691 0.0000000e+0 -0.26449552
vn 0.95004345 0.0000000e+0 0.31211766
vn 0.69905482 0.0000000e+0 0.71506808
vn 0.0000000e+0 0.99877410 -4.9500423e-2
vn 0.30094682 0.95278186 4.0468967e-2
vn -0.36381491 0.93018560 4.8922974e-2
vn 0.55865322 0.82936226 8.0507317e-3
vn -0.49217054 0.87030474 1.8379930e-2
vn 0.46642951 0.88405153 -2.9939933e-2
vn -0.54559832 0.83738088 -3.3402679e-2
vn 3.1134588e-16 0.99224308 -0.12431277
vn 0.58474301 0.80106289 0.12796035
vn 1.6114548e-17 0.86504139 0.50170050
vn -0.58474301 0.80106289 0.12796035
vn 0.0000000e+0 -0.99899836 -4.4746709e-2
vn 0.35296699 -0.93278779 7.2946891e-2
vn -0.36381491 -0.93018560 4.8922974e-2
vn 0.58713846 -0.80918951 2.1926473e-2
vn -0.49024168 -0.87155791 7.0648553e-3
vn 0.47874155 -0.87746651 -2.9309567e-2
vn -0.55673739 -0.82991949 -3.5736762e-2
vn 3.1134588e-16 -0.99224308 -0.12431277
vn 0.58474301 -0.80106289 0.12796035
vn 1.6114548e-17 -0.86504139 0.50170050
vn -0.55673890 -0.80118883 0.21940430
vn -0.28020263 0.95885665 -4.5611498e-2
vn -0.29528172 -0.95420038 -4.8066078e-2
vn -0.78016906 7.4318931e-2 0.62113842
vn -0.20701173 0.97763181 -3.7177810e-2
vn -0.20701173 0.97763181 -3.7177810e-2
vn -0.20701173 0.97763181 -3.7177810e-2
vn -0.21087342 -0.97675951 -3.8383021e-2
vn -0.21087342 -0.97675951 -3.8383021e-2
vn -0.21087342 -0.97675951 -3.8383021e-2
vn -0.32619310 0.94261734 -7.1208240e-2
vn 0.32619310 0.94261734 -7.1208240e-2
vn -0.32619310 -0.94261734 -7.1208240e-2
vn 0.32619310 -0.94261734 -7.1208240e-2
vn -0.30699102 0.95171206 -8.2114915e-4
vn -0.30699102 0.95171206 -8.2114915e-4
vn -0.30699102 0.95171206 -8.2114915e-4
vn -0.30699102 -0.95171206 -8.2114915e-4
vn -0.30699102 -0.95171206 -8.2114915e-4
vn -0.30699102 -0.95171206 -8.2114915e-4
vn -0.25655499 0.96643670 1.3403151e-2
vn -0.25655499 0.96643670 1.3403151e-2
vn -0.25655499 -0.96643670 1.3403151e-2
vn -0.25655499 -0.96643670 1.3403151e-2
vn -0.26960003 0.96295504 -5.7807518e-3
vn -0.26960003 0.96295504 -5.7807518e-3
vn -0.26960003 -0.96295504 -5.7807518e-3
vn -0.26960003 -0.96295504 -5.7807518e-3
vn -0.32775027 0.94326546 -5.3198069e-2
vn -0.32775027 0.94326546 -5.3198069e-2
vn -0.32775027 -0.94326546 -5.3198069e-2
vn -0.32775027 -0.94326546 -5.3198069e-2
vn 2.6673830e-2 0.65850999 -0.75209913
vn -0.99444627 4.1994711e-2 -9.6504204e-2
vn 2.6673830e-2 -0.65850999 -0.75209913
vn -0.99444627 4.1994711e-2 -9.6504204e-2
vn -0.99444627 4.1994711e-2 -9.6504204e-2
vn 2.6673830e-2 0.65850999 -0.75209913
vn 2.6673830e-2 -0.65850999 -0.75209913
vn 8.5735423e-2 0.70064860 -0.70833677
vn 8.5735423e-2 0.70064860 -0.70833677
vn 8.5735423e-2 -0.70064860 -0.70833677
vn 8.5735423e-2 -0.70064860 -0.70833677
vn 0.37145776 0.54515500 -0.75154851
vn 0.37145776 0.54515500 -0.75154851
vn 0.37145776 -0.54515500 -0.75154851
vn 0.37145776 -0.54515500 -0.75154851
vn 0.37145776 0.54515500 -0.75154851
vn 0.37145776 -0.54515500 -0.75154851
vn 0.51622547 0.45312752 -0.72676455
vn -0.75502640 0.50962303 0.41257667
vn 0.51622547 -0.45312752 -0.72676455
vn -0.75502640 -0.50962303 0.41257667
vn -0.56902797 0.59129653 0.57146792
vn -0.56902797 0.59129653 0.57146792
vn -0.56902797 -0.59129653 0.57146792
vn -0.56902797 -0.59129653 0.57146792
vn -0.56902797 -0.59129653 0.57146792
vn -0.56902797 0.59129653 0.57146792
vn -0.39586744 0.77227487 0.49687071
vn -0.39586744 -0.77227487 0.49687071
vn -0.39586744 -0.77227487 0.49687071
vn -0.39586744 0.77227487 0.49687071
vn -6.8173232e-2 0.90733168 0.41485134
vn -6.8173232e-2 0.90733168 0.41485134
vn -6.8173232e-2 -0.90733168 0.41485134
vn -6.8173232e-2 -0.90733168 0.41485134
vn 9.7698442e-2 0.87117672 0.48115086
vn 9.7698442e-2 0.87117672 0.48115086
vn 9.7698442e-2 0.87117672 0.48115086
vn 9.7698442e-2 -0.87117672 0.48115086
vn 9.7698442e-2 -0.87117672 0.48115086
vn 9.7698442e-2 -0.87117672 0.48115086
vn -6.4773118e-2 0.79685355 0.60069032
vn -6.4773118e-2 0.79685355 0.60069032
vn -6.4773118e-2 -0.79685355 0.60069032
vn -6.4773118e-2 -0.79685355 0.60069032
vn -0.94174846 0.0000000e+0 0.33631807
vn -0.94174846 0.0000000e+0 0.33631807
vn -0.99663124 -3.4074664e-17 -8.2013282e-2
vn -0.75775925 0.33287307 -0.56124543
vn -0.99663124 3.4074664e-17 -8.2013282e-2
vn -0.99663124 -3.4074664e-17 -8.2013282e-2
vn -0.75775925 0.33287307 -0.56124543
vn -0.75775925 0.33287307 -0.56124543
vn -0.99663124 3.4074664e-17 -8.2013282e-2
vn 0.28020263 0.95885665 -4.5611498e-2
vn 0.29528172 -0.95420038 -4.8066078e-2
vn 0.78016906 7.4318931e-2 0.62113842
vn 0.20701173 0.97763181 -3.7177810e-2
vn 0.20701173 0.97763181 -3.7177810e-2
vn 0.20701173 0.97763181 -3.7177810e-2
vn 0.21087342 -0.97675951 -3.8383021e-2
vn 0.21087342 -0.97675951 -3.8383021e-2
vn 0.21087342 -0.97675951 -3.8383021e-2
vn 0.30699102 0.95171206 -8.2114915e-4
vn 0.30699102 0.95171206 -8.2114915e-4
vn 0.30699102 0.95171206 -8.2114915e-4
vn 0.30699102 -0.95171206 -8.2114915e-4
vn 0.30699102 -0.95171206 -8.2114915e-4
vn 0.30699102 -0.95171206 -8.2114915e-4
vn 0.25655499 0.96643670 1.3403151e-2
vn 0.25655499 0.96643670 1.3403151e-2
vn 0.25655499 -0.96643670 1.3403151e-2
vn 0.25655499 -0.96643670 1.3403151e-2
vn 0.26960003 0.96295504 -5.7807518e-3
vn 0.26960003 0.96295504 -5.7807518e-3
vn 0.26960003 -0.96295504 -5.7807518e-3
vn 0.26960003 -0.96295504 -5.7807518e-3
vn 0.32775027 0.94326546 -5.3198069e-2
vn 0.32775027 0.94326546 -5.3198069e-2
vn 0.32775027 -0.94326546 -5.3198069e-2
vn 0.32775027 -0.94326546 -5.3198069e-2
vn -2.6673830e-2 0.65850999 -0.75209913
vn 0.99444627 4.1994711e-2 -9.6504204e-2
vn -2.6673830e-2 -0.65850999 -0.75209913
vn 0.99444627 4.1994711e-2 -9.6504204e-2
vn 0.99444627 4.1994711e-2 -9.6504204e-2
vn -2.6673830e-2 -0.65850999 -0.75209913
vn -2.6673830e-2 0.65850999 -0.75209913
vn -8.5735423e-2 0.70064860 -0.70833677
vn -8.5735423e-2 -0.70064860 -0.70833677
vn -8.5735423e-2 0.70064860 -0.70833677
vn -8.5735423e-2 -0.70064860 -0.70833677
vn -0.37145776 0.54515500 -0.75154851
vn -0.37145776 0.54515500 -0.75154851
vn -0.37145776 -0.54515500 -0.75154851
vn -0.37145776 -0.54515500 -0.75154851
vn -0.37145776 0.54515500 -0.75154851
vn -0.37145776 -0.54515500 -0.75154851
vn 0.75502640 0.50962303 0.41257667
vn -0.51622547 0.45312752 -0.72676455
vn 0.75502640 -0.50962303 0.41257667
vn -0.51622547 -0.45312752 -0.72676455
vn 0.56902797 0.59129653 0.57146792
vn 0.56902797 0.59129653 0.57146792
vn 0.56902797 -0.59129653 0.57146792
vn 0.56902797 -0.59129653 0.57146792
vn 0.56902797 0.59129653 0.57146792
vn 0.56902797 -0.59129653 0.57146792
vn 0.39586744 0.77227487 0.49687071
vn 0.39586744 -0.77227487 0.49687071
vn 0.39586744 0.77227487 0.49687071
vn 0.39586744 -0.77227487 0.49687071
vn 6.8173232e-2 0.90733168 0.41485134
vn 6.8173232e-2 0.90733168 0.41485134
vn 6.8173232e-2 -0.90733168 0.41485134
vn 6.8173232e-2 -0.90733168 0.41485134
vn -9.7698442e-2 0.87117672 0.48115086
vn -9.7698442e-2 0.87117672 0.48115086
vn -9.7698442e-2 0.87117672 0.48115086
vn -9.7698442e-2 -0.87117672 0.48115086
vn -9.7698442e-2 -0.87117672 0.48115086
vn -9.7698442e-2 -0.87117672 0.48115086
vn 6.4773118e-2 0.79685355 0.60069032
vn 6.4773118e-2 0.79685355 0.60069032
vn 0.92438499 -0.25923463 0.27983888
vn 6.4773118e-2 -0.79685355 0.60069032
vn 6.4773118e-2 -0.79685355 0.60069032
vn 0.92438499 -0.25923463 0.27983888
vn 0.92438499 -0.25923463 0.27983888
vn 0.99663124 0.0000000e+0 -8.2013282e-2
vn 0.84034086 0.0000000e+0 -0.54205833
vn 0.99663124 0.0000000e+0 -8.2013282e-2
vn 0.84034086 0.0000000e+0 -0.54205833
vn 0.84034086 0.0000000e+0 -0.54205833
vn 0.84034086 0.0000000e+0 -0.54205833
vn 0.99663124 0.0000000e+0 -8.2013282e-2
vn 0.99663124 0.0000000e+0 -8.2013282e-2
vn -0.23130536 0.97263342 -2.1956014e-2
vn 0.23130536 0.97263342 -2.1956014e-2
vn 0.23130536 0.97263342 -2.1956014e-2
vn -0.23130536 0.97263342 -2.1956014e-2
vn 0.23130536 0.97263342 -2.1956014e-2
vn 0.0000000e+0 0.97555686 -0.21974717
vn 0.0000000e+0 0.97555686 -0.21974717
vn -0.23130536 0.97263342 -2.1956014e-2
vn -0.17716136 0.98275412 -5.2992282e-2
vn -0.35437610 0.92398057 -0.14379666
vn -0.35437610 0.92398057 -0.14379666
vn -0.98017917 0.16206988 -0.11393920
vn -0.17716136 0.98275412 -5.2992282e-2
vn -0.78016906 7.4318931e-2 0.62113842
vn -0.98017917 0.16206988 -0.11393920
vn 0.17716136 0.98275412 -5.2992282e-2
vn 0.35437610 0.92398057 -0.14379666
vn 0.98017917 0.16206988 -0.11393920
vn 0.35437610 0.92398057 -0.14379666
vn 0.17716136 0.98275412 -5.2992282e-2
vn 0.78016906 7.4318931e-2 0.62113842
vn 0.98017917 0.16206988 -0.11393920
vn -0.30433914 0.95243017 -1.5951695e-2
vn -0.30433914 0.95243017 -1.5951695e-2
vn 0.30433914 0.95243017 -1.5951695e-2
vn -0.30433914 0.95243017 -1.5951695e-2
vn 0.30433914 0.95243017 -1.5951695e-2
vn 0.30433914 0.95243017 -1.5951695e-2
vn -0.30433914 0.95243017 -1.5951695e-2
vn 0.30433914 0.95243017 -1.5951695e-2
vn -0.30433914 0.95243017 -1.5951695e-2
vn 0.30433914 0.95243017 -1.5951695e-2
vn 0.50572848 0.85293404 0.12939176
vn 0.10740857 0.91082950 0.39856369
vn 0.10740857 0.91082950 0.39856369
vn 0.50572848 0.85293404 0.12939176
vn 0.50572848 0.85293404 0.12939176
vn 0.0000000e+0 0.98367805 0.17993749
vn 4.3394654e-19 0.98367805 0.17993749
vn -4.3394654e-19 0.98367805 0.17993749
vn 0.0000000e+0 0.98367805 0.17993749
vn -6.9461059e-18 0.99989678 1.4367637e-2
vn -6.9461059e-18 0.99989678 1.4367637e-2
vn -6.9461059e-18 0.99989678 1.4367637e-2
vn -0.10740857 0.91082950 0.39856369
vn -0.10740857 0.91082950 0.39856369
vn -0.50572848 0.85293404 0.12939176
vn -0.50572848 0.85293404 0.12939176
vn -0.50572848 0.85293404 0.12939176
vn 8.6374669e-2 0.93106630 0.35447843
vn -1.8041266e-2 0.63653569 -0.77103620
vn 8.6374669e-2 0.93106630 0.35447843
vn 8.6374669e-2 0.93106630 0.35447843
vn 8.6374669e-2 0.93106630 0.35447843
vn 8.6374669e-2 0.93106630 0.35447843
vn 8.6374669e-2 0.93106630 0.35447843
vn 0.96868063 0.22932856 -9.5216796e-2
vn 1.8041266e-2 0.63653569 -0.77103620
vn -8.6374669e-2 0.93106630 0.35447843
vn -8.6374669e-2 0.93106630 0.35447843
vn -8.6374669e-2 0.93106630 0.35447843
vn -8.6374669e-2 0.93106630 0.35447843
vn -8.6374669e-2 0.93106630 0.35447843
vn -8.6374669e-2 0.93106630 0.35447843
vn -0.96868063 0.22932856 -9.5216796e-2
vn 0.15977911 0.62868367 -0.76106996
vn -0.22099616 0.80386055 0.55223991
vn -0.22099616 0.80386055 0.55223991
vn 0.15977911 0.62868367 -0.76106996
vn -0.22099616 0.80386055 0.55223991
vn -0.22099616 0.80386055 0.55223991
vn 0.15977911 0.62868367 -0.76106996
vn 0.15977911 0.62868367 -0.76106996
vn -0.22099616 0.80386055 0.55223991
vn -0.61539671 0.48287640 0.62299059
vn 0.47684791 0.43969910 -0.76110497
vn 0.47684791 0.43969910 -0.76110497
vn -0.61539671 0.48287640 0.62299059
vn 0.22099616 0.80386055 0.55223991
vn -0.15977911 0.62868367 -0.76106996
vn -0.15977911 0.62868367 -0.76106996
vn 0.22099616 0.80386055 0.55223991
vn 0.22099616 0.80386055 0.55223991
vn 0.22099616 0.80386055 0.55223991
vn -0.15977911 0.62868367 -0.76106996
vn 0.22099616 0.80386055 0.55223991
vn -0.15977911 0.62868367 -0.76106996
vn -0.47684791 0.43969910 -0.76110497
vn 0.61539671 0.48287640 0.62299059
vn 0.61539671 0.48287640 0.62299059
vn -0.47684791 0.43969910 -0.76110497
vn 0.43219765 0.90143615 -2.4860826e-2
vn 0.43219765 0.90143615 -2.4860826e-2
vn 0.38002895 0.84142558 -0.38416272
vn 0.38002895 0.84142558 -0.38416272
vn 0.38002895 0.84142558 -0.38416272
vn -0.28450936 0.95853357 -1.6365516e-2
vn -0.28450936 0.95853357 -1.6365516e-2
vn -0.38002895 0.84142558 -0.38416272
vn -0.38002895 0.84142558 -0.38416272
vn -0.38002895 0.84142558 -0.38416272
vn -0.28450936 0.95853357 -1.6365516e-2
vn -0.23003198 -0.97292706 -2.2320819e-2
vn 0.23003198 -0.97292706 -2.2320819e-2
vn 0.23003198 -0.97292706 -2.2320819e-2
vn -0.23003198 -0.97292706 -2.2320819e-2
vn 0.23003198 -0.97292706 -2.2320819e-2
vn 0.0000000e+0 -0.97555686 -0.21974717
vn 0.0000000e+0 -0.97555686 -0.21974717
vn -0.23003198 -0.97292706 -2.2320819e-2
vn -0.99396639 -5.3336086e-2 -9.5844071e-2
vn -0.18295804 -0.98159085 -5.4824871e-2
vn -0.33115844 -0.93350203 -0.13750652
vn -0.33115844 -0.93350203 -0.13750652
vn -0.18295804 -0.98159085 -5.4824871e-2
vn -0.78016906 7.4318931e-2 0.62113842
vn -0.99396639 -5.3336086e-2 -9.5844071e-2
vn 0.99396639 -5.3336086e-2 -9.5844071e-2
vn 0.18295804 -0.98159085 -5.4824871e-2
vn 0.33115844 -0.93350203 -0.13750652
vn 0.33115844 -0.93350203 -0.13750652
vn 0.18295804 -0.98159085 -5.4824871e-2
vn 0.78016906 7.4318931e-2 0.62113842
vn 0.99396639 -5.3336086e-2 -9.5844071e-2
vn -0.30433914 -0.95243017 -1.5951695e-2
vn -0.30433914 -0.95243017 -1.5951695e-2
vn 0.30433914 -0.95243017 -1.5951695e-2
vn -0.30433914 -0.95243017 -1.5951695e-2
vn 0.30433914 -0.95243017 -1.5951695e-2
vn 0.30433914 -0.95243017 -1.5951695e-2
vn -0.30433914 -0.95243017 -1.5951695e-2
vn 0.30433914 -0.95243017 -1.5951695e-2
vn -0.30433914 -0.95243017 -1.5951695e-2
vn 0.30433914 -0.95243017 -1.5951695e-2
vn 0.36143581 -0.92993790 6.7673164e-2
vn 0.10740857 -0.91082950 0.39856369
vn 0.10740857 -0.91082950 0.39856369
vn 0.36143581 -0.92993790 6.7673164e-2
vn 0.0000000e+0 -0.98367805 0.17993749
vn 4.3394654e-19 -0.98367805 0.17993749
vn -4.3394654e-19 -0.98367805 0.17993749
vn 0.0000000e+0 -0.98367805 0.17993749
vn -6.9461059e-18 -0.99989678 1.4367637e-2
vn -6.9461059e-18 -0.99989678 1.4367637e-2
vn -6.9461059e-18 -0.99989678 1.4367637e-2
vn -0.10740857 -0.91082950 0.39856369
vn -0.10740857 -0.91082950 0.39856369
vn -0.50572848 -0.85293404 0.12939176
vn -0.50572848 -0.85293404 0.12939176
vn -0.50572848 -0.85293404 0.12939176
vn 8.2217313e-2 -0.93076406 0.35625634
vn -1.8041266e-2 -0.63653569 -0.77103620
vn 8.2217313e-2 -0.93076406 0.35625634
vn 8.2217313e-2 -0.93076406 0.35625634
vn 8.2217313e-2 -0.93076406 0.35625634
vn 8.2217313e-2 -0.93076406 0.35625634
vn 8.2217313e-2 -0.93076406 0.35625634
vn 0.97822802 -0.19944131 -5.7385510e-2
vn 1.8041266e-2 -0.63653569 -0.77103620
vn -8.2217313e-2 -0.93076406 0.35625634
vn -8.2217313e-2 -0.93076406 0.35625634
vn -8.2217313e-2 -0.93076406 0.35625634
vn -8.2217313e-2 -0.93076406 0.35625634
vn -8.2217313e-2 -0.93076406 0.35625634
vn -8.2217313e-2 -0.93076406 0.35625634
vn -0.97822802 -0.19944131 -5.7385510e-2
vn 0.15977911 -0.62868367 -0.76106996
vn -0.22099616 -0.80386055 0.55223991
vn -0.22099616 -0.80386055 0.55223991
vn 0.15977911 -0.62868367 -0.76106996
vn -0.22099616 -0.80386055 0.55223991
vn -0.22099616 -0.80386055 0.55223991
vn 0.15977911 -0.62868367 -0.76106996
vn -0.22099616 -0.80386055 0.55223991
vn 0.15977911 -0.62868367 -0.76106996
vn -0.61539671 -0.48287640 0.62299059
vn 0.47684791 -0.43969910 -0.76110497
vn 0.47684791 -0.43969910 -0.76110497
vn -0.61539671 -0.48287640 0.62299059
vn 0.22099616 -0.80386055 0.55223991
vn -0.15977911 -0.62868367 -0.76106996
vn -0.15977911 -0.62868367 -0.76106996
vn 0.22099616 -0.80386055 0.55223991
vn 0.22099616 -0.80386055 0.55223991
vn 0.22099616 -0.80386055 0.55223991
vn 0.22099616 -0.80386055 0.55223991
vn -0.15977911 -0.62868367 -0.76106996
vn -0.15977911 -0.62868367 -0.76106996
vn -0.47684791 -0.43969910 -0.76110497
vn 0.61539671 -0.48287640 0.62299059
vn 0.61539671 -0.48287640 0.62299059
vn -0.47684791 -0.43969910 -0.76110497
vn 0.43219765 -0.90143615 -2.4860826e-2
vn 0.43219765 -0.90143615 -2.4860826e-2
vn 0.38002895 -0.84142558 -0.38416272
vn 0.38002895 -0.84142558 -0.38416272
vn 0.38002895 -0.84142558 -0.38416272
vn -0.28450936 -0.95853357 -1.6365516e-2
vn -0.28450936 -0.95853357 -1.6365516e-2
vn -0.41852163 -0.79584685 -0.43756992
vn -0.41852163 -0.79584685 -0.43756992
vn -0.41852163 -0.79584685 -0.43756992
vn -0.28450936 -0.95853357 -1.6365516e-2
vn -0.41852163 -0.79584685 -0.43756992
g sword_36_default
usemtl default
s 1
f 2//42 74//315 1//37
f 3//47 76//329 8//65
f 5//53 73//309 2//43
f 6//58 76//336 5//54
f 7//61 76//328 6//57
f 8//66 76//331 7//62
f 9//71 74//320 81//369
f 17//112 79//352 18//2
f 18//2 53//252 17//113
f 18//2 66//18 64//16
f 18//2 79//351 90//27
f 18//2 92//29 19//3
f 19//3 66//18 18//2
f 19//3 68//20 66//18
f 19//3 92//29 20//4
f 20//4 68//20 19//3
f 20//4 92//29 94//31
f 20//4 94//31 21//120
f 21//117 68//20 20//4
f 31//154 58//290 32//157
f 32//155 58//288 33//163
f 33//159 58//283 59//291
f 33//160 59//294 34//166
f 39//194 51//239 40//8
f 39//191 89//26 77//338
f 40//8 51//236 63//15
f 40//8 65//17 41//9
f 40//8 89//26 39//195
f 40//8 91//28 89//26
f 41//9 65//17 42//10
f 41//9 91//28 40//8
f 41//9 93//30 91//28
f 42//10 65//17 67//19
f 42//10 67//19 43//203
f 42//10 93//30 41//9
f 43//202 93//30 42//10
f 49//224 75//326 25//123
f 52//247 63//15 51//240
f 53//250 64//16 52//245
f 54//254 58//284 31//148
f 55//268 48//218 9//70
f 61//295 43//196 67//19
f 63//15 52//246 64//16
f 63//15 65//17 40//8
f 64//16 53//251 18//2
f 64//16 66//18 63//15
f 65//17 63//15 66//18
f 66//18 68//20 65//17
f 67//19 62//300 61//296
f 67//19 65//17 68//20
f 68//20 21//114 62//301
f 68//20 62//305 67//19
f 73//306 5//52 76//334
f 74//318 2//44 73//313
f 74//314 9//68 48//215
f 77//341 89//26 78//346
f 78//348 90//27 79//353
f 87//397 88//401 93//30
f 88//402 21//116 94//31
f 89//26 92//29 90//27
f 90//27 78//347 89//26
f 90//27 92//29 18//2
f 91//28 93//30 92//29
f 92//29 89//26 91//28
f 93//30 43//198 87//396
f 93//30 88//406 94//31
f 94//31 92//29 93//30
s 2
f 1//38 74//319 48//217
f 4//1 70//22 71//23
f 4//1 72//24 24//7
f 4//1 96//33 46//13
f 4//1 98//35 97//34
f 9//67 56//269 55//261
f 10//74 56//275 9//72
f 11//82 56//276 10//75
f 12//84 57//279 11//78
f 21//115 72//24 62//302
f 21//119 88//407 22//5
f 22//5 72//24 21//118
f 22//5 88//403 98//35
f 22//5 98//35 23//6
f 23//6 72//24 22//5
f 23//6 98//35 24//7
f 24//7 72//24 23//6
f 24//7 98//35 4//1
f 25//122 75//325 26//129
f 26//128 73//308 27//133
f 27//134 76//335 28//139
f 28//138 76//333 29//143
f 29//142 76//332 30//147
f 30//146 76//330 3//48
f 31//152 49//225 54//260
f 43//200 70//22 44//11
f 43//199 96//33 87//398
f 44//11 70//22 45//12
f 44//11 96//33 43//201
f 45//12 70//22 46//13
f 45//12 96//33 44//11
f 46//13 70//22 4//1
f 46//13 96//33 45//12
f 49//221 31//149 75//321
f 57//280 56//272 11//79
f 61//299 62//304 69//21
f 61//297 70//22 43//197
f 69//21 62//303 72//24
f 69//21 70//22 61//298
f 69//21 71//23 70//22
f 69//21 72//24 71//23
f 71//23 72//24 4//1
f 73//307 26//127 75//322
f 76//337 27//135 73//310
f 80//361 75//327 31//151
f 87//399 96//33 95//32
f 95//32 88//405 87//400
f 96//33 97//34 95//32
f 97//34 96//33 4//1
f 97//34 98//35 95//32
f 98//35 88//404 95//32
s 3
f 3//46 50//228 30//144
f 9//73 82//378 10//77
f 10//76 82//376 11//83
f 11//81 82//373 83//381
f 11//80 83//380 12//86
f 26//126 49//223 25//121
f 27//130 47//206 26//125
f 28//137 50//233 27//131
f 29//141 50//231 28//136
f 30//145 50//230 29//140
f 31//150 84//385 80//355
f 32//156 84//390 31//153
f 33//164 84//391 32//158
f 34//168 85//395 33//162
f 47//208 27//132 50//235
f 49//219 26//124 47//205
f 81//362 82//370 9//69
f 85//392 84//384 33//161
s 4
f 1//36 48//212 2//39
f 2//40 47//207 5//50
f 5//51 50//234 6//56
f 6//55 50//226 7//59
f 7//60 50//229 8//64
f 8//63 50//227 3//45
f 12//87 83//382 13//91
f 13//92 82//377 14//96
f 14//95 82//372 15//100
f 15//101 82//375 16//107
f 16//106 81//368 17//111
f 17//110 81//364 79//349
f 35//172 84//386 85//394
f 35//171 85//393 34//167
f 36//178 84//389 35//174
f 37//181 84//383 36//176
f 38//188 84//388 37//182
f 39//193 80//359 38//186
f 47//211 2//41 48//216
f 50//232 5//49 47//204
f 73//312 86//25 74//316
f 75//323 86//25 73//311
f 77//339 80//354 39//192
f 78//343 80//356 77//340
f 78//342 81//363 86//25
f 79//350 81//365 78//344
f 81//367 16//105 82//374
f 81//366 74//317 86//25
f 83//379 82//371 13//90
f 84//387 38//187 80//360
f 86//25 75//324 80//358
f 86//25 80//357 78//345
s 5
f 13//88 56//270 57//278
f 13//89 57//281 12//85
f 14//97 56//277 13//93
f 15//98 56//271 14//94
f 16//104 56//274 15//99
f 17//109 55//267 16//103
f 34//165 59//292 35//169
f 35//173 58//289 36//177
f 36//175 58//282 37//179
f 37//180 58//287 38//185
f 38//183 54//258 39//190
f 39//189 54//253 51//237
f 47//209 60//14 49//220
f 48//213 60//14 47//210
f 51//238 54//255 52//242
f 52//244 54//256 60//14
f 52//243 55//264 53//249
f 53//248 55//263 17//108
f 54//259 38//184 58//286
f 54//257 49//222 60//14
f 56//273 16//102 55//266
f 59//293 58//285 35//170
f 60//14 48//214 55//265
f 60//14 55//262 52//241
