# Exported from Wings 3D 2.1.5
mtllib spear.mtl
o spear
#17 vertices, 30 faces
v -2.3232098e-2 -1.17867576 -2.6264535e-20
v -7.9266918e-4 -1.17867576 2.2439428e-2
v -2.3232098e-2 0.82132424 -2.6264535e-20
v -7.9266918e-4 0.82132424 2.2439428e-2
v -7.9266918e-4 -1.17867576 -2.2439428e-2
v 2.1646759e-2 -1.17867576 -2.6264535e-20
v -7.9266918e-4 0.82132424 -2.2439428e-2
v 2.1646759e-2 0.82132424 -2.6264535e-20
v -7.9266918e-4 1.08856958 -2.6264535e-20
v -7.9266918e-4 0.77783327 6.8344790e-2
v -7.9266918e-4 0.77783327 -6.8344790e-2
v -7.9266918e-4 1.01024833 3.2224745e-2
v -7.9266918e-4 1.01024833 -3.2224745e-2
v -1.8534777e-2 0.86512712 -2.6264535e-20
v -6.2198105e-2 0.82226614 -2.6264535e-20
v 1.6949439e-2 0.86512712 -2.6264535e-20
v 6.0612767e-2 0.82226614 -2.6264535e-20
vn 0.0000000e+0 -1.00000000 0.0000000e+0
vn -1.00000000 0.0000000e+0 0.0000000e+0
vn -1.00000000 0.0000000e+0 0.0000000e+0
vn 0.0000000e+0 -1.00000000 0.0000000e+0
vn 0.0000000e+0 0.0000000e+0 1.00000000
vn 0.0000000e+0 0.0000000e+0 1.00000000
vn 0.0000000e+0 -1.00000000 0.0000000e+0
vn 0.0000000e+0 0.0000000e+0 1.00000000
vn 0.0000000e+0 0.0000000e+0 1.00000000
vn -1.00000000 0.0000000e+0 0.0000000e+0
vn -1.00000000 0.0000000e+0 0.0000000e+0
vn 0.56667354 -0.59813226 -0.56667354
vn 0.56667354 -0.59813226 0.56667354
vn -0.92498847 9.9193630e-2 0.36682006
vn -0.92498847 9.9193630e-2 -0.36682006
vn -1.00000000 0.0000000e+0 0.0000000e+0
vn -1.00000000 0.0000000e+0 0.0000000e+0
vn 0.0000000e+0 0.0000000e+0 1.00000000
vn 0.56667354 -0.59813226 -0.56667354
vn -0.56667354 -0.59813226 -0.56667354
vn 0.0000000e+0 0.0000000e+0 1.00000000
vn 0.0000000e+0 -1.00000000 0.0000000e+0
vn 0.0000000e+0 0.0000000e+0 -1.00000000
vn 0.0000000e+0 0.0000000e+0 -1.00000000
vn 0.0000000e+0 -1.00000000 0.0000000e+0
vn 0.0000000e+0 0.0000000e+0 -1.00000000
vn 0.0000000e+0 0.0000000e+0 -1.00000000
vn 0.0000000e+0 -1.00000000 0.0000000e+0
vn 1.00000000 0.0000000e+0 0.0000000e+0
vn 1.00000000 0.0000000e+0 0.0000000e+0
vn 0.0000000e+0 0.0000000e+0 -1.00000000
vn 0.0000000e+0 0.0000000e+0 -1.00000000
vn -0.56667354 -0.59813226 0.56667354
vn 0.56667354 -0.59813226 0.56667354
vn 1.00000000 0.0000000e+0 0.0000000e+0
vn 1.00000000 0.0000000e+0 0.0000000e+0
vn -0.56667354 -0.59813226 -0.56667354
vn -0.56667354 -0.59813226 0.56667354
vn 0.92498847 9.9193630e-2 0.36682006
vn 0.92498847 9.9193630e-2 -0.36682006
vn 1.00000000 0.0000000e+0 0.0000000e+0
vn 1.00000000 0.0000000e+0 0.0000000e+0
vn 0.85521667 0.19719968 0.47928774
vn 0.85521667 0.19719968 -0.47928774
vn -0.85521667 0.19719968 0.47928774
vn -0.85521667 0.19719968 -0.47928774
vn 0.56667354 -0.59813226 -0.56667354
vn -0.56667354 -0.59813226 -0.56667354
vn -0.92498847 9.9193630e-2 0.36682006
vn 0.95025524 4.7832271e-2 0.30777759
vn 0.92498847 9.9193630e-2 0.36682006
vn -0.95025524 4.7832271e-2 0.30777759
vn -0.56667354 -0.59813226 0.56667354
vn 0.56667354 -0.59813226 0.56667354
vn 0.95025524 4.7832271e-2 -0.30777759
vn 0.92498847 9.9193630e-2 -0.36682006
vn -0.95025524 4.7832271e-2 -0.30777759
vn -0.92498847 9.9193630e-2 -0.36682006
vn 0.85521667 0.19719968 0.47928774
vn 0.95025524 4.7832271e-2 0.30777759
vn -0.23353100 -0.23790263 0.94279670
vn -0.85521667 0.19719968 0.47928774
vn -0.95025524 4.7832271e-2 0.30777759
vn 0.23353100 -0.23790263 0.94279670
vn -0.23353100 -0.23790263 -0.94279670
vn 0.23353100 -0.23790263 -0.94279670
vn 0.85521667 0.19719968 -0.47928774
vn 0.95025524 4.7832271e-2 -0.30777759
vn -0.95025524 4.7832271e-2 -0.30777759
vn -0.85521667 0.19719968 -0.47928774
vn -0.92498847 9.9193630e-2 0.36682006
vn 0.23353100 -0.23790263 -0.94279670
vn -0.95025524 4.7832271e-2 -0.30777759
vn -0.95025524 4.7832271e-2 0.30777759
vn -0.92498847 9.9193630e-2 -0.36682006
vn 0.23353100 -0.23790263 0.94279670
vn 0.23353100 -0.23790263 -0.94279670
vn -0.85521667 0.19719968 0.47928774
vn -0.85521667 0.19719968 -0.47928774
vn 0.23353100 -0.23790263 0.94279670
vn -0.23353100 -0.23790263 -0.94279670
vn 0.95025524 4.7832271e-2 0.30777759
vn 0.95025524 4.7832271e-2 -0.30777759
vn -0.23353100 -0.23790263 0.94279670
vn 0.92498847 9.9193630e-2 0.36682006
vn 0.92498847 9.9193630e-2 -0.36682006
vn -0.23353100 -0.23790263 -0.94279670
vn 0.85521667 0.19719968 0.47928774
vn 0.85521667 0.19719968 -0.47928774
vn -0.23353100 -0.23790263 0.94279670
g spear_default
usemtl default
s 1
f 1//1 5//25 2//7
f 2//4 5//22 6//28
f 4//19 10//47 3//12
f 7//33 11//53 8//38
f 9//45 15//78 12//62
f 12//63 14//74 10//52
f 14//75 11//58 3//15
f 15//77 13//66 14//72
f 16//85 10//51 8//39
f 16//81 13//65 17//87
s 2
f 3//14 10//49 14//71
f 3//13 11//54 7//34
f 8//37 10//48 4//20
f 8//40 11//56 16//86
f 10//50 16//82 12//60
f 11//57 14//73 13//69
f 12//59 17//88 9//43
f 13//70 15//79 9//46
f 14//76 12//64 15//80
s 3
f 2//9 3//17 1//3
f 2//8 8//42 4//21
f 3//16 5//27 1//2
f 4//18 3//11 2//6
f 5//26 8//41 6//30
f 6//29 8//35 2//5
f 7//31 5//23 3//10
f 7//32 8//36 5//24
f 9//44 17//89 13//67
f 13//68 16//83 11//55
f 17//90 12//61 16//84
