# Exported from Wings 3D 2.1.5
mtllib helmet_02.mtl
o helmet_02
#74 vertices, 148 faces
v 0.74762476 0.48911636 2.7971987e-2
v 0.48379164 0.38560695 0.51212815
v 3.5141850e-17 0.34181844 0.77368268
v -0.48379164 0.38560695 0.51212815
v -0.74762476 0.48911636 2.7971987e-2
v -0.48030596 0.59475400 -0.43405876
v -1.4971320e-16 0.63815088 -0.70962584
v 0.48030596 0.59475400 -0.43405876
v 0.33601714 1.07630920 0.34080745
v 0.52800000 1.11105551 0.0000000e+0
v 0.33601714 1.14580181 -0.32831019
v -1.2319329e-16 1.16019420 -0.52570846
v -0.33601714 1.14580181 -0.32831019
v -0.52800000 1.11105551 6.9388939e-17
v -0.33601714 1.07630920 0.34080745
v 6.1294121e-18 1.06191681 0.52570846
v -6.9388939e-17 1.37980983 2.3650094e-18
v 0.82471258 -2.7990376e-2 3.6725581e-3
v 0.91086025 -0.37098605 0.0000000e+0
v 4.3072480e-17 -0.10495104 0.81426931
v 5.3096483e-17 -0.69103646 0.90690709
v -0.82471258 -2.7990376e-2 3.6725581e-3
v -0.91086025 -0.37098605 1.1102230e-16
v -1.5723532e-16 4.7270715e-2 -0.81426931
v -1.6999994e-16 -0.52149674 -0.90690709
v 0.54994470 -0.36916929 0.55785106
v -0.54994470 -0.36916929 0.55785106
v -0.55891003 -0.25245840 -0.55023571
v 0.55891003 -0.25245840 -0.55023571
v 0.62259750 0.74040775 0.0000000e+0
v -1.3359851e-16 0.84016549 -0.61989541
v -0.62259750 0.74040775 8.3266727e-17
v 1.8893900e-17 0.68246527 0.61989541
v -0.48867989 0.31197506 0.51932962
v 0.48867989 0.31197506 0.51932962
v 3.6792972e-17 0.23297016 0.78268800
v 0.62731644 0.44747613 2.5139251e-2
v -0.62731644 0.44747613 2.5139251e-2
v -0.40054615 0.55530520 -0.36099709
v -1.3329239e-16 0.60518675 -0.58665651
v 0.39618681 0.57073600 -0.35875356
v 0.97198873 -0.72028349 -1.4237436e-3
v 0.61847415 -0.89153005 0.61653057
v 4.3077734e-17 -1.11317929 0.96998221
v -0.61847415 -0.89153005 0.61653057
v -0.97198873 -0.72028349 -1.4237436e-3
v -0.61729750 -0.75826355 -0.60589077
v -1.7279421e-16 -0.92226542 -0.96946364
v 0.61729750 -0.75826355 -0.60589077
v 0.26738125 1.00781961 0.26858449
v 0.41721584 1.03776806 -1.4671109e-3
v 0.26557289 1.07077634 -0.26207585
v -1.0029681e-16 1.08278856 -0.41656548
v -0.26244809 1.07097418 -0.26375836
v -0.41721584 1.03776806 -1.4671109e-3
v -0.26513063 1.00790157 0.26952800
v 5.1304929e-20 0.99729902 0.41417584
v 2.0102358e-4 1.25313634 -8.9314358e-3
v 0.70558984 -7.7583449e-2 4.6610925e-4
v 0.78920975 -0.41074553 -3.0115140e-3
v 4.6463575e-17 -0.13163670 0.69252187
v 5.4839210e-17 -0.68615945 0.78017079
v -0.70554568 -7.7638277e-2 5.5516575e-4
v -0.78911282 -0.41078263 -2.8474872e-3
v -2.3302297e-16 -8.2685149e-2 -0.70847699
v -1.2499928e-16 -0.52611490 -0.78070044
v 0.47268050 -0.39655867 0.47659309
v -0.47268050 -0.39655867 0.47659309
v -0.48088220 -0.28748784 -0.47265863
v 0.48088220 -0.28748784 -0.47265863
v 0.50934363 0.69304921 -8.5053766e-3
v -1.1510506e-16 0.80221796 -0.49913960
v -0.50563740 0.69131859 -1.4671109e-3
v -8.4917635e-18 0.65950893 0.49802164
vn -1.1247214e-16 0.99650688 8.3510734e-2
vn 0.67420691 0.14895936 0.72336447
vn -0.67420691 0.14895936 0.72336447
vn -0.69290241 0.16761355 -0.70127880
vn 0.69290241 0.16761355 -0.70127880
vn -2.0088716e-4 -0.99607638 -8.8497502e-2
vn -0.66045064 -0.16862677 -0.73168980
vn 0.66045211 -0.16862690 -0.73168845
vn 0.67606164 -0.24020856 0.69659206
vn -0.67575778 -0.24104562 0.69659775
vn 0.87018687 0.15175142 -0.46877108
vn 0.75120205 0.42954107 0.50118854
vn 0.83770170 0.37231448 -0.39954699
vn 0.86352651 0.10555759 0.49313241
vn 0.86352651 0.10555759 0.49313241
vn 0.62639995 0.36368802 0.68945930
vn 0.62639995 0.36368802 0.68945930
vn 0.62639995 0.36368802 0.68945930
vn 0.62639995 0.36368802 0.68945930
vn 0.86352651 0.10555759 0.49313241
vn -0.94452784 -0.11072443 -0.30920425
vn -0.61322961 -0.51755507 -0.59672959
vn -0.61322961 -0.51755507 -0.59672959
vn -0.61322961 -0.51755507 -0.59672959
vn -0.61322961 -0.51755507 -0.59672959
vn -0.94452784 -0.11072443 -0.30920425
vn -0.41452647 0.37445158 0.82942981
vn 0.41452647 0.37445158 0.82942981
vn 0.32952872 -0.61877174 -0.71311455
vn -0.32952872 -0.61877174 -0.71311455
vn -0.86352651 0.10555759 0.49313241
vn -0.62639995 0.36368802 0.68945930
vn -0.62639995 0.36368802 0.68945930
vn -0.62639995 0.36368802 0.68945930
vn -0.62639995 0.36368802 0.68945930
vn -0.86352651 0.10555759 0.49313241
vn 0.94453573 -0.11070244 -0.30918801
vn 0.61235858 -0.51937603 -0.59604153
vn 0.61235858 -0.51937603 -0.59604153
vn 0.61235858 -0.51937603 -0.59604153
vn 0.61235858 -0.51937603 -0.59604153
vn 0.94453573 -0.11070244 -0.30918801
vn -0.86352651 0.10555759 0.49313241
vn -0.83770170 0.37231448 -0.39954699
vn -0.75120205 0.42954107 0.50118854
vn -0.87018687 0.15175142 -0.46877108
vn -0.70850514 0.15852376 -0.68767047
vn -0.70850514 0.15852376 -0.68767047
vn -0.69572585 0.34230052 -0.63150289
vn -0.69572585 0.34230052 -0.63150289
vn -0.69572585 0.34230052 -0.63150289
vn -0.69572585 0.34230052 -0.63150289
vn -0.70850514 0.15852376 -0.68767047
vn -0.70850514 0.15852376 -0.68767047
vn -0.50216939 0.15080199 -0.85151903
vn 0.48927539 0.35402789 -0.79704068
vn -0.48927539 0.35402789 -0.79704068
vn 0.50216939 0.15080199 -0.85151903
vn 0.70850514 0.15852376 -0.68767047
vn 0.70850514 0.15852376 -0.68767047
vn 0.69572585 0.34230052 -0.63150289
vn 0.69572585 0.34230052 -0.63150289
vn 0.69572585 0.34230052 -0.63150289
vn 0.69572585 0.34230052 -0.63150289
vn 0.70850514 0.15852376 -0.68767047
vn 0.70850514 0.15852376 -0.68767047
vn 0.33750659 0.84330927 0.41823293
vn 0.33750659 0.84330927 0.41823293
vn 0.66477354 0.26626418 0.69798246
vn 0.66477354 0.26626418 0.69798246
vn 0.66477354 0.26626418 0.69798246
vn 0.66477354 0.26626418 0.69798246
vn 0.45209476 0.88819419 8.1984179e-2
vn 0.45209476 0.88819419 8.1984179e-2
vn 0.84141885 0.21474869 0.49588036
vn 0.85242392 0.21755743 -0.47543899
vn 0.35556670 0.89383663 -0.27318200
vn 0.35556670 0.89383663 -0.27318200
vn 0.70081303 0.27290336 -0.65907880
vn 0.70081303 0.27290336 -0.65907880
vn 0.70081303 0.27290336 -0.65907880
vn 0.70081303 0.27290336 -0.65907880
vn -2.8720527e-17 0.92272106 -0.38546834
vn -2.8720527e-17 0.92272106 -0.38546834
vn 0.49889934 0.24468775 -0.83140084
vn -0.49889934 0.24468775 -0.83140084
vn -0.35556670 0.89383663 -0.27318200
vn -0.35556670 0.89383663 -0.27318200
vn -0.70081303 0.27290336 -0.65907880
vn -0.70081303 0.27290336 -0.65907880
vn -0.70081303 0.27290336 -0.65907880
vn -0.70081303 0.27290336 -0.65907880
vn -0.45209476 0.88819419 8.1984179e-2
vn -0.45209476 0.88819419 8.1984179e-2
vn -0.85242392 0.21755743 -0.47543899
vn -0.84141885 0.21474869 0.49588036
vn -0.33750659 0.84330927 0.41823293
vn -0.33750659 0.84330927 0.41823293
vn -0.66477354 0.26626418 0.69798246
vn -0.66477354 0.26626418 0.69798246
vn -0.66477354 0.26626418 0.69798246
vn -0.66477354 0.26626418 0.69798246
vn 8.5790830e-17 0.85571556 0.51744650
vn 8.5790830e-17 0.85571556 0.51744650
vn -0.46396371 0.21340944 0.85976397
vn 0.46396371 0.21340944 0.85976397
vn 0.86079170 0.17158200 -0.47916308
vn 0.85431948 0.12955630 0.50334222
vn 0.86079170 0.17158200 -0.47916308
vn 0.85431948 0.12955630 0.50334222
vn 0.86079170 0.17158200 -0.47916308
vn 0.85431948 0.12955630 0.50334222
vn 0.85431948 0.12955630 0.50334222
vn 0.84658029 0.17385020 -0.50306850
vn 0.83077521 0.17162303 0.52948851
vn 0.84658029 0.17385020 -0.50306850
vn 0.83077521 0.17162303 0.52948851
vn 0.84658029 0.17385020 -0.50306850
vn 0.83077521 0.17162303 0.52948851
vn -0.46381624 0.10378258 0.87983162
vn -0.46381624 0.10378258 0.87983162
vn 0.46381624 0.10378258 0.87983162
vn 0.46381624 0.10378258 0.87983162
vn -0.46381624 0.10378258 0.87983162
vn 0.46381624 0.10378258 0.87983162
vn -0.46314594 0.14259187 0.87473619
vn 0.46314594 0.14259187 0.87473619
vn -0.46314594 0.14259187 0.87473619
vn 0.46314594 0.14259187 0.87473619
vn -0.46314594 0.14259187 0.87473619
vn 0.46314594 0.14259187 0.87473619
vn -0.86079170 0.17158200 -0.47916308
vn -0.85431948 0.12955630 0.50334222
vn -0.86079170 0.17158200 -0.47916308
vn -0.85431948 0.12955630 0.50334222
vn -0.86079170 0.17158200 -0.47916308
vn -0.85431948 0.12955630 0.50334222
vn -0.85431948 0.12955630 0.50334222
vn -0.84658029 0.17385020 -0.50306850
vn -0.83077521 0.17162303 0.52948851
vn -0.84658029 0.17385020 -0.50306850
vn -0.83077521 0.17162303 0.52948851
vn -0.84658029 0.17385020 -0.50306850
vn -0.83077521 0.17162303 0.52948851
vn 0.49246133 0.15148841 -0.85704907
vn -0.49246133 0.15148841 -0.85704907
vn 0.49246133 0.15148841 -0.85704907
vn -0.49246133 0.15148841 -0.85704907
vn 0.49246133 0.15148841 -0.85704907
vn -0.49246133 0.15148841 -0.85704907
vn 0.47958572 0.14228000 -0.86588333
vn -0.47958572 0.14228000 -0.86588333
vn 0.47958572 0.14228000 -0.86588333
vn -0.47958572 0.14228000 -0.86588333
vn 0.47958572 0.14228000 -0.86588333
vn -0.47958572 0.14228000 -0.86588333
vn 0.82001658 0.31312408 0.47908885
vn 0.85618887 0.29826446 -0.42187549
vn 0.82001658 0.31312408 0.47908885
vn 0.85618887 0.29826446 -0.42187549
vn 0.82001658 0.31312408 0.47908885
vn 0.85618887 0.29826446 -0.42187549
vn 0.48617440 0.29436489 -0.82279023
vn -0.48617440 0.29436489 -0.82279023
vn 0.48617440 0.29436489 -0.82279023
vn -0.48617440 0.29436489 -0.82279023
vn 0.48617440 0.29436489 -0.82279023
vn -0.48617440 0.29436489 -0.82279023
vn -0.85618887 0.29826446 -0.42187549
vn -0.82001658 0.31312408 0.47908885
vn -0.85618887 0.29826446 -0.42187549
vn -0.82001658 0.31312408 0.47908885
vn -0.85618887 0.29826446 -0.42187549
vn -0.82001658 0.31312408 0.47908885
vn -0.42015932 0.29626392 0.85772597
vn 0.42015932 0.29626392 0.85772597
vn -0.42015932 0.29626392 0.85772597
vn 0.42015932 0.29626392 0.85772597
vn -0.42015932 0.29626392 0.85772597
vn 0.42015932 0.29626392 0.85772597
vn -0.68930789 0.10022855 0.71750182
vn -0.68930789 0.10022855 0.71750182
vn -0.68930789 0.10022855 0.71750182
vn -0.68930789 0.10022855 0.71750182
vn 0.73498013 6.0655447e-2 -0.67537036
vn 0.73498013 6.0655447e-2 -0.67537036
vn 0.73498013 6.0655447e-2 -0.67537036
vn 0.73498013 6.0655447e-2 -0.67537036
vn 0.68930789 0.10022855 0.71750182
vn 0.68930789 0.10022855 0.71750182
vn 0.68930789 0.10022855 0.71750182
vn 0.68930789 0.10022855 0.71750182
vn -0.73497480 6.0654683e-2 -0.67537623
vn -0.73497480 6.0654683e-2 -0.67537623
vn -0.73497480 6.0654683e-2 -0.67537623
vn -0.73497480 6.0654683e-2 -0.67537623
vn 0.46242444 8.2505467e-2 0.88281169
vn -0.46242444 8.2505467e-2 0.88281169
vn -0.48990998 0.20928229 -0.84627959
vn 0.48990998 0.20928229 -0.84627959
vn -0.86756361 -0.15159009 0.47366004
vn -0.84156040 -0.44602771 -0.30468899
vn -0.84737694 -0.35269624 0.39693536
vn -0.94690567 -0.12728646 -0.29524195
vn 0.94691231 -0.12724477 -0.29523862
vn 0.84075458 -0.37715880 0.38843658
vn 0.83859087 -0.45169106 -0.30453331
vn 0.87023247 -0.15158821 0.46873924
vn 0.70723474 -0.15793178 0.68911289
vn 0.70723474 -0.15793178 0.68911289
vn 0.69916537 -0.34466041 0.62640002
vn 0.69916537 -0.34466041 0.62640002
vn 0.69916537 -0.34466041 0.62640002
vn 0.69916537 -0.34466041 0.62640002
vn 0.70723474 -0.15793178 0.68911289
vn 0.70723474 -0.15793178 0.68911289
vn 0.49942388 -0.15107900 0.85308319
vn -0.48927539 -0.35402789 0.79704068
vn 0.49219494 -0.35336039 0.79553791
vn -0.50274676 -0.15074348 0.85118864
vn -0.70667271 -0.15897958 0.68944846
vn -0.70667271 -0.15897958 0.68944846
vn -0.69746831 -0.33750222 0.63216312
vn -0.69746831 -0.33750222 0.63216312
vn -0.69746831 -0.33750222 0.63216312
vn -0.69746831 -0.33750222 0.63216312
vn -0.70667271 -0.15897958 0.68944846
vn -0.70667271 -0.15897958 0.68944846
vn 0.84096404 0.14504737 0.52128759
vn 0.84849155 0.15055743 -0.50734066
vn -0.72624804 -0.43158663 -0.53506707
vn -0.75943209 -0.44600730 0.47364584
vn 0.66891382 0.15619985 0.72674336
vn 0.66891382 0.15619985 0.72674336
vn 0.66891382 0.15619985 0.72674336
vn 0.66891382 0.15619985 0.72674336
vn -0.57204697 -0.39752097 -0.71745337
vn -0.57204697 -0.39752097 -0.71745337
vn -0.57204697 -0.39752097 -0.71745337
vn -0.57204697 -0.39752097 -0.71745337
vn -0.45591821 0.13152390 0.88024999
vn 0.45591821 0.13152390 0.88024999
vn 0.35248055 -0.38011365 -0.85514389
vn -0.35248055 -0.38011365 -0.85514389
vn -0.66891382 0.15619985 0.72674336
vn -0.66891382 0.15619985 0.72674336
vn -0.66891382 0.15619985 0.72674336
vn -0.66891382 0.15619985 0.72674336
vn 0.57204972 -0.39752028 -0.71745156
vn 0.57204972 -0.39752028 -0.71745156
vn 0.57204972 -0.39752028 -0.71745156
vn 0.57204972 -0.39752028 -0.71745156
vn -0.84849155 0.15055743 -0.50734066
vn -0.84096404 0.14504737 0.52128759
vn 0.75923617 -0.44643426 0.47355770
vn 0.72624989 -0.43158334 -0.53506721
vn -0.68588156 0.15277646 -0.71149549
vn -0.68588156 0.15277646 -0.71149549
vn -0.68588156 0.15277646 -0.71149549
vn -0.68588156 0.15277646 -0.71149549
vn 0.61024703 -0.40632979 0.68006960
vn 0.61024703 -0.40632979 0.68006960
vn 0.61024703 -0.40632979 0.68006960
vn 0.61024703 -0.40632979 0.68006960
vn 0.47579898 0.13564828 -0.86903100
vn -0.47579898 0.13564828 -0.86903100
vn -0.38520529 -0.39696185 0.83308953
vn 0.38520529 -0.39696185 0.83308953
vn 0.68588156 0.15277646 -0.71149549
vn 0.68588156 0.15277646 -0.71149549
vn 0.68588156 0.15277646 -0.71149549
vn 0.68588156 0.15277646 -0.71149549
vn -0.61024441 -0.40621541 0.68014028
vn -0.61024441 -0.40621541 0.68014028
vn -0.61024441 -0.40621541 0.68014028
vn -0.61024441 -0.40621541 0.68014028
vn -0.33731459 -0.84250661 -0.42000176
vn -0.33731459 -0.84250661 -0.42000176
vn -0.64502483 -0.34172967 -0.68349382
vn -0.64502483 -0.34172967 -0.68349382
vn -0.64502483 -0.34172967 -0.68349382
vn -0.64502483 -0.34172967 -0.68349382
vn -0.45566939 -0.88546688 -9.1180135e-2
vn -0.45566939 -0.88546688 -9.1180135e-2
vn -0.84356735 -0.21540354 -0.49193032
vn -0.85239868 -0.23732088 0.46593485
vn -0.36031747 -0.89400965 0.26630445
vn -0.36031747 -0.89400965 0.26630445
vn -0.69922758 -0.27845897 0.65843860
vn -0.69922758 -0.27845897 0.65843860
vn -0.69922758 -0.27845897 0.65843860
vn -0.69922758 -0.27845897 0.65843860
vn -5.8706048e-5 -0.92267439 0.38558003
vn -5.8706048e-5 -0.92267439 0.38558003
vn -0.49574425 -0.24519838 0.83313588
vn 0.49602818 -0.24515260 0.83298034
vn 0.35990114 -0.89369810 0.26790834
vn 0.35990114 -0.89369810 0.26790834
vn 0.70176707 -0.27405883 0.65758249
vn 0.70176707 -0.27405883 0.65758249
vn 0.70176707 -0.27405883 0.65758249
vn 0.70176707 -0.27405883 0.65758249
vn 0.45536932 -0.88570695 -9.0343654e-2
vn 0.45536932 -0.88570695 -9.0343654e-2
vn 0.85242392 -0.21755743 0.47543899
vn 0.84141885 -0.21474869 -0.49588036
vn 0.33691246 -0.84228858 -0.42076115
vn 0.33691246 -0.84228858 -0.42076115
vn 0.64457759 -0.34182039 -0.68387027
vn 0.64457759 -0.34182039 -0.68387027
vn 0.64457759 -0.34182039 -0.68387027
vn 0.64457759 -0.34182039 -0.68387027
vn -4.6277459e-5 -0.85572748 -0.51742678
vn -4.6277459e-5 -0.85572748 -0.51742678
vn 0.46126185 -0.21374909 -0.86113230
vn -0.46064876 -0.21382581 -0.86144138
vn -0.85879503 -0.17234486 0.48246072
vn -0.91339346 -9.4975558e-2 -0.39584343
vn -0.85879503 -0.17234486 0.48246072
vn -0.91339346 -9.4975558e-2 -0.39584343
vn -0.85879503 -0.17234486 0.48246072
vn -0.91339346 -9.4975558e-2 -0.39584343
vn -0.91339346 -9.4975558e-2 -0.39584343
vn -0.81116806 -0.34358441 0.47324003
vn -0.77989022 -0.33656266 -0.52772797
vn -0.81116806 -0.34358441 0.47324003
vn -0.77989022 -0.33656266 -0.52772797
vn -0.81116806 -0.34358441 0.47324003
vn -0.77989022 -0.33656266 -0.52772797
vn 0.45495175 4.5892512e-2 -0.88933277
vn 0.45495175 4.5892512e-2 -0.88933277
vn -0.45495175 4.5892512e-2 -0.88933277
vn -0.45495175 4.5892512e-2 -0.88933277
vn 0.45495175 4.5892512e-2 -0.88933277
vn -0.45495175 4.5892512e-2 -0.88933277
vn 0.39395373 -0.29080972 -0.87191179
vn -0.39395373 -0.29080972 -0.87191179
vn 0.39395373 -0.29080972 -0.87191179
vn -0.39395373 -0.29080972 -0.87191179
vn 0.39395373 -0.29080972 -0.87191179
vn -0.39395373 -0.29080972 -0.87191179
vn 0.86014624 -0.17126831 0.48043273
vn 0.91339803 -9.4964791e-2 -0.39583548
vn 0.86014624 -0.17126831 0.48043273
vn 0.91339803 -9.4964791e-2 -0.39583548
vn 0.86014624 -0.17126831 0.48043273
vn 0.91339803 -9.4964791e-2 -0.39583548
vn 0.91339803 -9.4964791e-2 -0.39583548
vn 0.81123188 -0.34366353 0.47307316
vn 0.77989265 -0.33656157 -0.52772509
vn 0.81123188 -0.34366353 0.47307316
vn 0.77989265 -0.33656157 -0.52772509
vn 0.81123188 -0.34366353 0.47307316
vn 0.77989265 -0.33656157 -0.52772509
vn -0.49189900 -0.15117051 0.85742804
vn 0.49062396 -0.15067600 0.85824523
vn -0.49189900 -0.15117051 0.85742804
vn 0.49062396 -0.15067600 0.85824523
vn -0.49189900 -0.15117051 0.85742804
vn 0.49062396 -0.15067600 0.85824523
vn -0.41777448 -0.29862541 0.85807188
vn 0.41777448 -0.29862541 0.85807188
vn -0.41777448 -0.29862541 0.85807188
vn 0.41777448 -0.29862541 0.85807188
vn -0.41777448 -0.29862541 0.85807188
vn 0.41777448 -0.29862541 0.85807188
vn -0.85818347 -0.36153757 -0.36443341
vn -0.85848708 -0.29799099 0.41737429
vn -0.85818347 -0.36153757 -0.36443341
vn -0.85848708 -0.29799099 0.41737429
vn -0.85818347 -0.36153757 -0.36443341
vn -0.85848708 -0.29799099 0.41737429
vn -0.48333751 -0.29456765 0.82438750
vn 0.48462686 -0.29406619 0.82380937
vn -0.48333751 -0.29456765 0.82438750
vn 0.48462686 -0.29406619 0.82380937
vn -0.48333751 -0.29456765 0.82438750
vn 0.48462686 -0.29406619 0.82380937
vn 0.85950309 -0.30086349 0.41320165
vn 0.85693458 -0.36394972 -0.36497085
vn 0.85950309 -0.30086349 0.41320165
vn 0.85693458 -0.36394972 -0.36497085
vn 0.85950309 -0.30086349 0.41320165
vn 0.85693458 -0.36394972 -0.36497085
vn 0.34150945 -0.42640087 -0.83758796
vn -0.34140404 -0.42661238 -0.83752323
vn 0.34150945 -0.42640087 -0.83758796
vn -0.34140404 -0.42661238 -0.83752323
vn 0.34150945 -0.42640087 -0.83758796
vn -0.34140404 -0.42661238 -0.83752323
g helmet_02_default
usemtl default
s 1
f 2//20 18//112 1//14
f 2//22 71//367 37//202
f 2//25 74//390 50//282
f 3//30 74//386 2//23
f 4//37 63//343 38//205
f 5//44 32//169 6//50
f 6//49 31//164 7//57
f 6//52 32//173 13//92
f 12//86 31//166 13//89
f 13//91 31//168 6//51
f 13//90 32//171 14//95
f 18//110 26//2 19//117
f 18//113 35//192 26//2
f 21//129 26//2 20//122
f 26//2 21//127 43//233
f 26//2 35//191 20//125
f 34//187 63//347 4//42
f 35//189 18//108 2//15
f 35//190 36//197 20//123
f 36//200 61//334 34//186
f 39//213 72//378 54//301
f 39//212 73//379 38//206
f 40//220 65//359 41//228
f 40//219 72//374 39//211
f 41//221 59//317 37//201
f 41//222 65//355 70//10
f 42//229 19//115 43//234
f 42//232 60//328 49//275
f 43//236 19//119 26//2
f 43//235 21//131 44//242
f 45//250 62//336 44//243
f 45//249 64//350 68//8
f 46//256 64//354 45//251
f 49//273 60//324 70//10
f 49//274 66//361 48//267
f 50//281 71//371 2//24
f 50//280 74//388 57//316
f 51//285 71//369 50//279
f 54//299 72//376 53//296
f 54//302 73//383 39//214
f 55//305 73//381 54//300
f 59//319 70//10 60//326
f 62//338 68//8 61//331
f 63//348 34//188 68//8
f 63//345 68//8 64//352
f 66//363 70//10 65//357
f 68//8 34//185 61//330
f 68//8 62//340 45//252
f 70//10 59//321 41//227
f 70//10 66//365 49//276
s 2
f 1//11 18//107 8//59
f 1//12 30//157 2//16
f 2//18 30//161 9//71
f 2//17 33//176 3//28
f 2//21 59//318 35//193
f 4//40 73//384 56//311
f 4//39 74//385 3//29
f 5//43 22//133 4//31
f 8//65 18//111 29//5
f 8//66 24//149 7//58
f 9//69 30//159 10//75
f 9//72 33//180 2//19
f 16//106 33//178 9//70
f 19//116 29//5 18//109
f 20//121 27//3 21//128
f 20//120 34//181 27//3
f 20//124 36//198 34//182
f 22//137 34//183 4//36
f 23//142 27//3 22//135
f 24//147 29//5 25//153
f 27//3 23//140 45//245
f 27//3 34//184 22//138
f 29//5 19//114 49//269
f 29//5 24//145 8//60
f 35//194 61//333 36//199
f 37//204 59//322 2//26
f 37//203 71//368 41//223
f 38//208 63//346 39//216
f 38//207 73//380 4//38
f 39//210 63//342 69//9
f 39//209 65//356 40//217
f 41//225 71//372 52//291
f 41//224 72//373 40//218
f 43//238 60//325 42//231
f 43//237 62//337 67//7
f 44//241 21//126 45//246
f 44//244 62//341 43//239
f 45//248 21//130 27//3
f 45//247 23//144 46//254
f 47//262 64//349 46//255
f 47//261 66//362 69//9
f 48//265 25//151 49//270
f 48//268 66//366 47//263
f 49//271 19//118 42//230
f 49//272 25//155 29//5
f 52//289 71//370 51//286
f 52//292 72//377 41//226
f 53//295 72//375 52//290
f 56//309 73//382 55//306
f 56//312 74//389 4//41
f 57//315 74//387 56//310
f 60//327 67//7 59//320
f 61//335 35//195 67//7
f 61//332 67//7 62//339
f 64//351 69//9 63//344
f 65//358 69//9 66//364
f 67//7 35//196 59//323
f 67//7 60//329 43//240
f 69//9 64//353 47//264
f 69//9 65//360 39//215
s 3
f 3//27 33//175 4//33
f 4//32 32//170 5//45
f 4//35 33//179 15//102
f 6//54 22//136 5//46
f 6//53 24//150 28//4
f 7//55 24//146 6//47
f 7//56 31//163 8//62
f 8//61 30//158 1//13
f 8//64 31//167 11//82
f 10//76 30//160 11//79
f 11//81 30//162 8//63
f 11//80 31//165 12//85
f 14//96 32//172 15//99
f 15//101 32//174 4//34
f 15//100 33//177 16//105
f 22//134 28//4 23//141
f 25//154 28//4 24//148
f 28//4 22//132 6//48
f 28//4 25//152 47//257
f 46//253 23//139 47//258
f 47//260 23//143 28//4
f 47//259 25//156 48//266
f 50//277 58//6 51//283
f 51//284 58//6 52//287
f 52//288 58//6 53//293
f 53//294 58//6 54//297
f 54//298 58//6 55//303
f 55//304 58//6 56//307
f 56//308 58//6 57//313
f 57//314 58//6 50//278
s 4
f 9//68 17//1 16//104
f 10//73 17//1 9//67
f 11//77 17//1 10//74
f 12//83 17//1 11//78
f 13//87 17//1 12//84
f 14//93 17//1 13//88
f 15//97 17//1 14//94
f 16//103 17//1 15//98
