# Exported from Wings 3D 2.1.5
mtllib helmet_08.mtl
o helmet_08
#100 vertices, 196 faces
v -1.8452415e-3 7.45253532 10.94614970
v -1.1641769e-3 10.39632346 -3.12500008
v 6.3371511e-4 -2.25068224 -10.43749996
v 1.32007154 0.40396094 -8.90000000
v 5.46678337 3.22660978 -4.53750000
v -7.8398201e-4 8.47003988 -5.79687505
v -3.4105872e-4 5.64625994 -8.03750002
v -2.9620823e-5 3.41739186 -9.24687500
v 4.4613486e-4 -0.41158400 -10.45624997
v -1.8452415e-3 10.44371119 6.78124987
v -1.7045251e-3 11.06754811 3.78124988
v -1.4801517e-3 11.20909613 0.28124990
v -1.9455340e-3 8.78288271 10.25053114
v -1.3693544e-3 3.48310662 10.06678580
v -9.5130219e-4 -0.27625664 9.81249994
v -5.8508229e-4 -3.97653901 10.01420560
v 8.47417841 -4.92993023 -2.95950319
v 6.27108971 -6.53185475 -7.08854449
v 6.93732825 -3.59433270 5.79843638
v 8.40100830 -4.13218842 1.68366300
v 7.53079654 0.54262117 -2.21578556
v 6.33393415 0.61643324 5.96416711
v 7.53350430 0.93439048 2.38285866
v 6.73467339 4.09811288 -1.40835939
v 6.81054212 4.31210975 2.84898911
v 5.41257871 4.20458068 6.19108981
v 2.88627120 9.75420097 -3.3023632e-2
v 5.44728517 6.91901019 -0.87027901
v 2.89030099 9.63190253 3.56123640
v 5.59334107 7.29122022 3.21273990
v 4.34988766 7.43552957 6.51487751
v 2.53521385 9.11449115 6.67816373
v 2.56637293 8.47144467 -3.50421898
v 4.29361003 5.39299973 -5.05636778
v 3.48015279 3.84384372 8.64582426
v 4.12647761 0.17008835 8.51245202
v 4.32944701 -3.78543582 8.53043947
v 2.36096293 7.38834077 9.60001017
v -1.31969441 0.40368986 -8.90018019
v -5.46744618 3.22548693 -4.53824637
v -8.47338134 -4.93167060 -2.96066003
v -6.26940001 -6.53314256 -7.08940050
v -6.93800117 -3.59575758 5.79748925
v -8.40100896 -4.13391385 1.68251609
v -7.53126406 0.54107443 -2.21681370
v -6.33549454 0.61513219 5.96330230
v -7.53464103 0.93284311 2.38183012
v -6.73596306 4.09683136 -1.40921123
v -6.81243547 4.31075153 2.84808629
v -5.41490705 4.20346878 6.19035073
v -2.88888970 9.75360791 -3.3417843e-2
v -5.44918747 6.91798530 -0.87096026
v -2.89338506 9.63130859 3.56084160
v -5.59593541 7.29016779 3.21204034
v -4.35292381 7.43463587 6.51428346
v -2.53861718 9.11397011 6.67781740
v -2.56825410 8.47091738 -3.50456947
v -4.29472288 5.39211778 -5.05695401
v -3.48277150 3.84312868 8.64534897
v -4.12829428 0.16924065 8.51188855
v -4.33045373 -3.78632512 8.52984835
v -2.36445639 7.38785551 9.59968761
v -2.1085767e-4 -7.41798045 9.70923603
v 2.94524598 -2.87912863 -8.10928046
v 1.32854355 -12.08013206 -11.43285372
v -1.2713087e-3 9.20598269 0.23525102
v 2.03247993 1.48629300 -8.10447365
v 4.59024522 2.42988186 -5.59506517
v 5.67013014 1.92073175 -4.46952016
v 6.02278204 -8.7422445e-2 -5.64357096
v 4.78877227 -1.81921009 -6.76648554
v -6.0939261e-4 6.46504255 -5.33822745
v -1.5842528e-3 8.96421860 5.18357304
v -2.3226128e-2 6.31755580 8.11414865
v -8.6789449e-4 -9.0069282e-2 8.31047885
v 6.20467774 -8.28984039 5.58563732
v 8.17627075 -9.24049080 1.35770600
v 8.09220638 -10.18843440 -2.81635666
v 6.18683830 -11.13255497 -7.03750419
v 6.13524353 0.31237506 -1.51962164
v 5.10023403 0.43183109 5.21948710
v 3.81690597 6.11707176 -0.62586007
v 3.22840061 6.80676294 5.78239521
v 3.70807405 -7.84717928 8.23602849
v -2.94416723 -2.87973343 -8.10968247
v -1.32512139 -12.08040457 -11.43303486
v -2.03256295 1.48591624 -8.10472409
v -4.59088058 2.42903094 -5.59563078
v -5.67061784 1.91956714 -4.47029428
v -6.02280181 -8.8538855e-2 -5.64431304
v -4.78805221 -1.82009769 -6.76707553
v -6.20435725 -8.29111469 5.58479028
v -8.17517776 -9.24216996 1.35658986
v -8.09034886 -10.19009621 -2.81746128
v -6.18421066 -11.13382537 -7.03834864
v -6.13571979 0.31111494 -1.52045925
v -5.10165487 0.43078345 5.21879073
v -3.81869650 6.11628764 -0.62638128
v -3.23120766 6.80609959 5.78195428
v -3.70820638 -7.84794087 8.23552225
vn -6.5815893e-5 0.91263017 -0.40878621
vn 0.80347157 0.18945500 -0.56439369
vn -2.4351574e-5 0.71932997 -0.69466855
vn 2.2750796e-5 0.48725100 -0.87326197
vn 6.0117719e-5 0.33094676 -0.94364943
vn 7.7022959e-5 0.15700974 -0.98759705
vn -1.1949595e-4 0.94716651 0.32074224
vn -1.1038926e-4 0.99222367 0.12446758
vn -9.5514353e-5 0.99519448 -9.7917997e-2
vn -1.2380863e-4 0.76483317 0.64422838
vn -5.8305127e-5 -9.4404716e-2 0.99553390
vn -6.7647322e-5 -6.4272588e-3 0.99997934
vn -6.4748311e-5 -3.3813999e-2 0.99942814
vn 0.95238043 6.8188262e-2 -0.29718998
vn 0.69165620 0.13947129 -0.70863210
vn 0.84603483 -2.0793507e-2 0.53272196
vn 0.98422323 4.5633527e-2 0.17094508
vn 0.92068947 0.26641877 -0.28522261
vn 0.85170866 0.14409055 0.50381571
vn 0.97102035 0.17483161 0.16295209
vn 0.91831897 0.31466413 -0.24015985
vn 0.94634527 0.26899326 0.17909006
vn 0.85141260 0.18856608 0.48942765
vn 0.56855061 0.81305102 -0.12529266
vn 0.55819583 0.82198874 0.11292439
vn 0.55907707 0.77387160 0.29758288
vn 0.58255914 0.68344066 -0.43992466
vn 0.59884457 2.5654219e-2 0.80045428
vn 0.55360078 5.4678447e-2 0.83098523
vn 0.54007200 -5.5784752e-2 0.83976800
vn -0.80345479 0.18931868 -0.56446332
vn -0.97031360 6.2243155e-2 -0.23370347
vn -0.66824178 0.12809024 -0.73283410
vn -0.84610326 -2.0967275e-2 0.53260646
vn -0.98425591 4.5431381e-2 0.17081071
vn -0.92071034 0.26623273 -0.28532892
vn -0.85180701 0.14391562 0.50369943
vn -0.97107831 0.17462966 0.16282320
vn -0.91835020 0.31447953 -0.24028220
vn -0.94642700 0.26878660 0.17896843
vn -0.85151848 0.18838663 0.48931254
vn -0.56869431 0.81293829 -0.12537192
vn -0.55836799 0.82188226 0.11284832
vn -0.55927322 0.77375880 0.29750762
vn -0.58263570 0.68332560 -0.44000201
vn -0.59896231 2.5528580e-2 0.80037019
vn -0.55372636 5.4563414e-2 0.83090911
vn -0.54017517 -5.5895685e-2 0.83969426
vn 8.5685359e-5 -0.97678594 0.21421769
vn 2.8594890e-5 -0.76309468 0.64628671
vn 5.3089901e-4 -0.96453632 -0.26394961
vn 1.5570473e-3 -0.33540008 -0.94207450
vn 1.4248586e-4 -0.16077319 -0.98699137
vn -0.96557844 -0.24850202 -7.6844148e-2
vn -0.81081376 -0.19210817 -0.55287928
vn -0.77290305 -0.62270156 0.12191655
vn -0.71312227 -0.55437899 -0.42909272
vn 0.96563780 -0.24830665 -7.6729681e-2
vn 0.81150640 -0.19161137 -0.55203482
vn 0.77301848 -0.62254072 0.12200608
vn 0.71445543 -0.55468829 -0.42646729
vn -1.0880114e-4 0.46336390 0.88616809
vn -1.0880114e-4 0.46336390 0.88616809
vn -4.4304552e-5 -0.21629022 0.97632911
vn -4.4304552e-5 -0.21629022 0.97632911
vn 9.4550593e-5 -1.0194681e-2 -0.99994803
vn 9.4550593e-5 -1.0194681e-2 -0.99994803
vn -7.6010534e-6 -0.50118023 0.86534292
vn 0.68985199 0.13043019 -0.71210406
vn 0.68985199 0.13043019 -0.71210406
vn 0.68985199 0.13043019 -0.71210406
vn -8.9294680e-7 -0.54752379 0.83679012
vn -8.9294680e-7 -0.54752379 0.83679012
vn 0.86774718 0.44007591 -0.23097192
vn 0.69916157 0.66089174 -0.27275486
vn 0.69916157 0.66089174 -0.27275486
vn 0.69916157 0.66089174 -0.27275486
vn 0.86774718 0.44007591 -0.23097192
vn 0.92265340 0.35393925 0.15309383
vn 0.68394102 0.72401965 8.9555720e-2
vn 0.68394102 0.72401965 8.9555720e-2
vn 0.92265340 0.35393925 0.15309383
vn 0.68394102 0.72401965 8.9555720e-2
vn 0.92265340 0.35393925 0.15309383
vn 0.68394102 0.72401965 8.9555720e-2
vn 0.92265340 0.35393925 0.15309383
vn 0.65820099 0.67998056 0.32310662
vn 0.65820099 0.67998056 0.32310662
vn 0.86814057 0.24212172 0.43325399
vn 0.86814057 0.24212172 0.43325399
vn 0.75782667 0.30266052 -0.57800982
vn 0.75782667 0.30266052 -0.57800982
vn 0.58337772 0.51480832 -0.62820604
vn 0.75782667 0.30266052 -0.57800982
vn 0.58337772 0.51480832 -0.62820604
vn 0.58337772 0.51480832 -0.62820604
vn 0.58337772 0.51480832 -0.62820604
vn 0.75782667 0.30266052 -0.57800982
vn 0.64446995 -5.1765237e-3 0.76461212
vn 0.56008277 0.60412833 0.56686528
vn 0.56008277 0.60412833 0.56686528
vn 0.64446995 -5.1765237e-3 0.76461212
vn 0.56008277 0.60412833 0.56686528
vn 0.64446995 -5.1765237e-3 0.76461212
vn 0.64446995 -5.1765237e-3 0.76461212
vn -0.68974206 0.13029241 -0.71223576
vn -0.68974206 0.13029241 -0.71223576
vn -0.68974206 0.13029241 -0.71223576
vn 1.1572979e-6 -0.56263057 0.82670844
vn 1.1572979e-6 -0.56263057 0.82670844
vn 1.1572979e-6 -0.56263057 0.82670844
vn -0.86780024 0.43990844 -0.23109156
vn -0.69925165 0.66075623 -0.27285224
vn -0.69925165 0.66075623 -0.27285224
vn -0.86780024 0.43990844 -0.23109156
vn -0.69925165 0.66075623 -0.27285224
vn -0.92274839 0.35374293 0.15297501
vn -0.68408874 0.72389092 8.9468065e-2
vn -0.68408874 0.72389092 8.9468065e-2
vn -0.92274839 0.35374293 0.15297501
vn -0.92274839 0.35374293 0.15297501
vn -0.92274839 0.35374293 0.15297501
vn -0.68408874 0.72389092 8.9468065e-2
vn -0.68408874 0.72389092 8.9468065e-2
vn -0.65838266 0.67984202 0.32302803
vn -0.65838266 0.67984202 0.32302803
vn -0.86824684 0.24194196 0.43314144
vn -0.86824684 0.24194196 0.43314144
vn -0.75782327 0.30251639 -0.57808972
vn -0.75782327 0.30251639 -0.57808972
vn -0.58339037 0.51470078 -0.62828241
vn -0.75782327 0.30251639 -0.57808972
vn -0.58339037 0.51470078 -0.62828241
vn -0.58339037 0.51470078 -0.62828241
vn -0.58339037 0.51470078 -0.62828241
vn -0.75782327 0.30251639 -0.57808972
vn -0.64457665 -5.3093486e-3 0.76452125
vn -0.56028755 0.60401354 0.56678523
vn -0.56028755 0.60401354 0.56678523
vn -0.64457665 -5.3093486e-3 0.76452125
vn -0.56028755 0.60401354 0.56678523
vn -0.64457665 -5.3093486e-3 0.76452125
vn -0.64457665 -5.3093486e-3 0.76452125
vn -5.8928622e-5 -8.8270904e-2 0.99609650
vn 8.6303444e-5 -0.18749556 -0.98226545
vn -5.8928622e-5 -8.8270904e-2 0.99609650
vn 8.6303444e-5 -0.18749556 -0.98226545
vn 0.49423444 0.21459364 -0.84242619
vn 0.49423444 0.21459364 -0.84242619
vn -0.59676210 -0.13159265 0.79155440
vn -0.59676210 -0.13159265 0.79155440
vn 0.59174116 9.9258335e-2 -0.79999387
vn 0.59174116 9.9258335e-2 -0.79999387
vn -0.64565963 -0.15653000 0.74741019
vn 0.64808556 0.19854497 -0.73523126
vn 0.62015338 0.27042124 -0.73639808
vn 0.62015338 0.27042124 -0.73639808
vn 0.62015338 0.27042124 -0.73639808
vn -0.11789017 -0.57284017 0.81114490
vn -0.11789017 -0.57284017 0.81114490
vn -0.11789017 -0.57284017 0.81114490
vn -0.11789017 -0.57284017 0.81114490
vn 0.68914868 0.15877640 -0.70701071
vn 0.68914868 0.15877640 -0.70701071
vn -0.58400653 -0.64124316 0.49773846
vn 0.68914868 0.15877640 -0.70701071
vn -0.58400653 -0.64124316 0.49773846
vn -0.58400653 -0.64124316 0.49773846
vn 0.83174540 0.22593598 -0.50710208
vn 0.83174540 0.22593598 -0.50710208
vn 0.83174540 0.22593598 -0.50710208
vn -0.90050344 -0.41645325 0.12514090
vn -0.90050344 -0.41645325 0.12514090
vn 0.83174540 0.22593598 -0.50710208
vn -0.90050344 -0.41645325 0.12514090
vn 0.82094658 0.19358256 -0.53718945
vn 0.82094658 0.19358256 -0.53718945
vn -0.92288436 -0.15129014 0.35411263
vn -0.92288436 -0.15129014 0.35411263
vn -0.92288436 -0.15129014 0.35411263
vn 0.82094658 0.19358256 -0.53718945
vn -0.92288436 -0.15129014 0.35411263
vn 0.68072385 0.15749305 -0.71540965
vn 0.68072385 0.15749305 -0.71540965
vn -0.56238340 -0.10827673 0.81975671
vn 0.68072385 0.15749305 -0.71540965
vn -0.56238340 -0.10827673 0.81975671
vn 0.80384761 -0.15149495 0.57522023
vn -0.89621745 -0.18812784 -0.40174892
vn -0.89621745 -0.18812784 -0.40174892
vn -0.89621745 -0.18812784 -0.40174892
vn 0.80384761 -0.15149495 0.57522023
vn 0.97462628 -8.6542056e-2 0.20643178
vn 0.97462628 -8.6542056e-2 0.20643178
vn 0.97462628 -8.6542056e-2 0.20643178
vn -0.95749116 -0.24862947 -0.14626712
vn -0.95749116 -0.24862947 -0.14626712
vn 0.97462628 -8.6542056e-2 0.20643178
vn 0.97601709 -7.6445467e-2 -0.20383016
vn -0.97195736 -0.15117680 0.18012346
vn -0.97195736 -0.15117680 0.18012346
vn 0.97601709 -7.6445467e-2 -0.20383016
vn -0.97195736 -0.15117680 0.18012346
vn 0.83906381 -4.0413302e-2 -0.54252990
vn 0.83906381 -4.0413302e-2 -0.54252990
vn -0.68502922 -0.11267933 0.71974880
vn -0.68502922 -0.11267933 0.71974880
vn 0.83906381 -4.0413302e-2 -0.54252990
vn -0.68502922 -0.11267933 0.71974880
vn -0.68502922 -0.11267933 0.71974880
vn 0.54267405 -0.12863514 0.83003486
vn 0.54267405 -0.12863514 0.83003486
vn -0.54300408 -0.17615180 -0.82104635
vn 0.54267405 -0.12863514 0.83003486
vn -0.54300408 -0.17615180 -0.82104635
vn -0.54300408 -0.17615180 -0.82104635
vn 0.54267405 -0.12863514 0.83003486
vn -0.49416987 0.21449951 -0.84248804
vn -0.49416987 0.21449951 -0.84248804
vn 0.59669044 -0.13147480 0.79162800
vn 0.59669044 -0.13147480 0.79162800
vn -0.59165231 9.9136810e-2 -0.80007465
vn -0.59165231 9.9136810e-2 -0.80007465
vn 0.64558973 -0.15639740 0.74749833
vn -0.64801509 0.19844657 -0.73531993
vn -0.62007243 0.27031053 -0.73650689
vn -0.62007243 0.27031053 -0.73650689
vn -0.62007243 0.27031053 -0.73650689
vn 0.15793827 -0.56427151 0.81034139
vn 0.15793827 -0.56427151 0.81034139
vn 0.15793827 -0.56427151 0.81034139
vn -0.68912413 0.15867719 -0.70705692
vn -0.68912413 0.15867719 -0.70705692
vn 0.58408462 -0.64113318 0.49778851
vn 0.58408462 -0.64113318 0.49778851
vn -0.68912413 0.15867719 -0.70705692
vn 0.58408462 -0.64113318 0.49778851
vn -0.83173087 0.22580168 -0.50718572
vn -0.83173087 0.22580168 -0.50718572
vn -0.83173087 0.22580168 -0.50718572
vn 0.90058131 -0.41626371 0.12521115
vn 0.90058131 -0.41626371 0.12521115
vn -0.83173087 0.22580168 -0.50718572
vn 0.90058131 -0.41626371 0.12521115
vn -0.78106825 0.24799134 -0.57309046
vn -0.78106825 0.24799134 -0.57309046
vn -0.78106825 0.24799134 -0.57309046
vn 0.92286908 -0.15110716 0.35423055
vn 0.92286908 -0.15110716 0.35423055
vn 0.92286908 -0.15110716 0.35423055
vn 0.92286908 -0.15110716 0.35423055
vn -0.78106825 0.24799134 -0.57309046
vn -0.48659581 0.21092085 -0.84778353
vn 0.56227315 -0.10816559 0.81984700
vn 0.56227315 -0.10816559 0.81984700
vn -0.48659581 0.21092085 -0.84778353
vn -0.80389500 -0.15166005 0.57511048
vn -0.80389500 -0.15166005 0.57511048
vn 0.89631091 -0.18794376 -0.40162656
vn 0.89631091 -0.18794376 -0.40162656
vn 0.89631091 -0.18794376 -0.40162656
vn -0.97463666 -8.6742229e-2 0.20629873
vn -0.97463666 -8.6742229e-2 0.20629873
vn 0.95756216 -0.24843281 -0.14613640
vn -0.97463666 -8.6742229e-2 0.20629873
vn 0.95756216 -0.24843281 -0.14613640
vn -0.97463666 -8.6742229e-2 0.20629873
vn -0.97597353 -7.6645920e-2 -0.20396340
vn 0.97196792 -0.15097114 0.18023892
vn 0.97196792 -0.15097114 0.18023892
vn 0.97196792 -0.15097114 0.18023892
vn -0.97597353 -7.6645920e-2 -0.20396340
vn -0.83898142 -4.0585623e-2 -0.54264444
vn -0.83898142 -4.0585623e-2 -0.54264444
vn 0.68494563 -0.11253773 0.71985050
vn 0.68494563 -0.11253773 0.71985050
vn -0.83898142 -4.0585623e-2 -0.54264444
vn 0.68494563 -0.11253773 0.71985050
vn 0.68494563 -0.11253773 0.71985050
vn -0.54276093 -0.12874661 0.82996077
vn -0.54276093 -0.12874661 0.82996077
vn 0.54315233 -0.17604026 -0.82097221
vn -0.54276093 -0.12874661 0.82996077
vn 0.54315233 -0.17604026 -0.82097221
vn 0.54315233 -0.17604026 -0.82097221
vn -0.54276093 -0.12874661 0.82996077
g helmet_08_default
usemtl default
s 1
f 1//62 38//100 13//10
f 2//1 27//24 33//27
f 2//1 33//27 6//3
f 2//1 51//42 12//9
f 3//66 9//6 4//69
f 3//67 39//106 9//6
f 4//70 8//5 67//157
f 6//3 33//27 34//97
f 6//3 34//93 7//4
f 6//3 57//45 2//1
f 7//4 34//96 67//158
f 7//4 58//131 6//3
f 7//4 67//156 8//5
f 8//5 4//71 9//6
f 8//5 87//226 7//4
f 9//6 39//108 8//5
f 10//7 32//26 11//8
f 10//7 56//44 13//10
f 11//8 27//24 12//9
f 11//8 32//26 29//25
f 11//8 51//42 53//43
f 11//8 56//44 10//7
f 12//9 27//24 2//1
f 12//9 51//42 11//8
f 13//10 32//26 10//7
f 13//10 62//138 1//63
f 27//24 30//83 28//77
f 28//76 33//27 27//24
f 29//25 27//24 11//8
f 29//25 32//26 30//85
f 30//81 27//24 29//25
f 31//88 30//80 32//26
f 32//26 13//10 38//103
f 32//26 38//101 31//87
f 33//27 28//75 34//95
f 51//42 57//45 52//114
f 52//116 54//124 51//42
f 53//43 51//42 54//119
f 53//43 56//44 11//8
f 54//123 56//44 53//43
f 55//125 62//139 56//44
f 56//44 54//118 55//126
f 57//45 51//42 2//1
f 58//133 52//113 57//45
f 58//135 57//45 6//3
f 62//141 13//10 56//44
f 87//227 8//5 39//107
f 87//228 58//134 7//4
s 2
f 1//65 62//143 14//11
f 5//2 24//21 69//170
f 14//11 36//29 35//28
f 14//11 38//105 1//64
f 14//11 60//47 15//12
f 14//11 62//137 59//46
f 15//12 36//29 14//11
f 15//12 60//47 16//13
f 16//13 36//29 15//12
f 16//13 60//47 61//48
f 16//13 84//214 37//30
f 16//13 100//286 63//146
f 17//14 71//186 70//181
f 17//14 77//195 78//202
f 18//15 17//14 79//208
f 18//15 64//148 71//183
f 18//15 65//153 64//149
f 19//16 23//20 22//19
f 19//16 36//29 37//30
f 19//16 84//217 76//192
f 20//17 17//14 23//20
f 20//17 19//16 77//198
f 21//18 23//20 17//14
f 21//18 69//169 24//21
f 22//19 23//20 26//23
f 22//19 36//29 19//16
f 23//20 19//16 20//17
f 23//20 24//21 25//22
f 24//21 23//20 21//18
f 24//21 34//94 28//74
f 25//22 24//21 30//82
f 25//22 26//23 23//20
f 26//23 30//86 31//90
f 26//23 36//29 22//19
f 26//23 38//102 35//28
f 28//78 30//84 24//21
f 30//79 26//23 25//22
f 31//89 38//104 26//23
f 34//92 5//2 68//164
f 34//98 24//21 5//2
f 35//28 36//29 26//23
f 35//28 38//99 14//11
f 37//30 36//29 16//13
f 37//30 84//212 19//16
f 40//31 48//39 58//136
f 40//31 88//236 89//243
f 41//32 45//36 90//246
f 41//32 47//38 45//36
f 41//32 95//277 94//272
f 42//33 86//222 95//274
f 42//33 90//252 91//256
f 43//34 60//47 46//37
f 43//34 93//265 92//258
f 43//34 100//283 61//48
f 44//35 41//32 93//267
f 44//35 43//34 47//38
f 45//36 47//38 48//39
f 45//36 89//240 90//247
f 46//37 47//38 43//34
f 46//37 60//47 50//41
f 47//38 41//32 44//35
f 47//38 50//41 49//40
f 48//39 54//122 52//115
f 48//39 89//238 45//36
f 49//40 48//39 47//38
f 49//40 50//41 54//117
f 50//41 47//38 46//37
f 50//41 60//47 59//46
f 50//41 62//142 55//127
f 52//112 58//132 48//39
f 54//120 48//39 49//40
f 55//128 54//121 50//41
f 58//129 87//225 88//232
f 59//46 60//47 14//11
f 59//46 62//140 50//41
f 61//48 60//47 43//34
f 61//48 100//280 16//13
f 63//144 84//211 16//13
f 68//163 67//155 34//91
f 69//174 68//166 5//2
f 70//176 21//18 17//14
f 70//177 69//171 21//18
f 71//184 17//14 18//15
f 76//188 77//193 19//16
f 77//194 17//14 20//17
f 78//199 79//204 17//14
f 79//205 65//152 18//15
f 85//219 86//223 42//33
f 88//233 40//31 58//130
f 89//239 48//39 40//31
f 90//245 42//33 41//32
f 91//253 85//218 42//33
f 92//257 100//281 43//34
f 93//262 43//34 44//35
f 94//268 93//263 41//32
f 95//273 41//32 42//33
s 3
f 4//72 39//110 3//68
f 39//109 67//160 87//230
f 63//145 100//282 75//53
f 64//150 79//207 71//185
f 65//154 79//209 64//151
f 66//49 82//56 73//51
f 66//49 98//60 72//50
f 67//162 39//111 4//73
f 68//167 72//50 67//161
f 69//175 82//56 68//168
f 70//180 78//201 80//54
f 70//179 80//54 69//173
f 71//187 79//210 70//182
f 72//50 82//56 66//49
f 72//50 87//229 67//159
f 73//51 83//57 74//52
f 73//51 98//60 66//49
f 74//52 81//55 75//53
f 74//52 99//61 73//51
f 75//53 84//215 63//147
f 75//53 97//59 74//52
f 75//53 100//285 97//59
f 76//191 80//54 77//196
f 76//190 84//213 81//55
f 77//197 80//54 78//203
f 78//200 70//178 79//206
f 80//54 82//56 69//172
f 81//55 74//52 83//57
f 81//55 80//54 76//189
f 81//55 82//56 80//54
f 81//55 84//216 75//53
f 82//56 72//50 68//165
f 83//57 73//51 82//56
f 83//57 82//56 81//55
f 85//221 95//278 86//224
f 87//231 72//50 88//237
f 88//235 72//50 98//60
f 88//234 98//60 89//241
f 89//242 96//58 90//249
f 89//244 98//60 96//58
f 90//251 95//279 91//255
f 91//254 95//276 85//220
f 92//259 96//58 97//59
f 93//266 96//58 92//260
f 94//270 96//58 93//264
f 95//275 90//248 94//269
f 96//58 94//271 90//250
f 96//58 98//60 97//59
f 97//59 98//60 99//61
f 97//59 100//284 92//261
f 98//60 73//51 99//61
f 99//61 74//52 97//59
