# Exported from Wings 3D 2.1.5
mtllib helmet_06.mtl
o helmet_06
#55 vertices, 106 faces
v 7.6654032e-4 0.41477987 -0.81993706
v 7.6654032e-4 -0.19803961 -1.09522172
v 7.6654032e-4 0.59262478 1.09327798
v 7.6654032e-4 0.86088613 0.39152347
v 7.6654032e-4 0.80418472 -0.33029674
v 1.03476654 -0.68217697 0.55435008
v 0.95598275 4.1431131e-2 0.51506898
v 0.93760994 -0.73181381 -0.50560740
v 0.83729011 -0.36587562 1.01117483
v 0.59112262 -0.21408595 -0.84730658
v 0.51618866 0.51681313 0.97271344
v 0.56222854 0.66590582 7.2319081e-2
v 0.36478030 -0.69978407 -1.07113178
v 0.32029011 -0.11756892 1.44333657
v 0.89082621 -5.9900990e-2 -0.27349051
v -1.03323346 -0.68217697 0.55435008
v -0.95444967 4.1431131e-2 0.51506898
v -0.93607685 -0.73181381 -0.50560740
v -0.83575703 -0.36587562 1.01117483
v -0.58958954 -0.21408595 -0.84730658
v -0.51465558 0.51681313 0.97271344
v -0.56069546 0.66590582 7.2319081e-2
v -0.36324722 -0.69978407 -1.07113178
v -0.31875703 -0.11756892 1.44333657
v -0.88929312 -5.9900990e-2 -0.27349051
v -0.48861186 0.48071586 -0.57043397
v 0.49014494 0.48071586 -0.57043397
v -0.32949359 -1.04946638 -0.98026059
v 0.33102668 -1.04946638 -0.98026059
v -0.85638502 -1.09666451 -0.42347532
v -1.14098645 -1.11116065 0.51068234
v 0.85791810 -1.09666451 -0.42347532
v 1.14251953 -1.11116065 0.51068234
v -1.12560138 -1.48705754 -0.48084589
v -0.47481316 -1.68675945 -1.09207166
v 0.47634624 -1.68675945 -1.09207166
v 1.12713446 -1.48705754 -0.48084589
v 0.92625273 -0.67706291 0.54465172
v 0.83379208 -0.71584194 -0.46012366
v 0.74573612 -0.37069090 0.94943103
v 7.6654032e-4 0.60441602 0.65692713
v 0.65580906 0.26867313 0.11051250
v 0.31976049 -0.68020924 -0.96694811
v 0.28109702 -0.11439583 1.32386525
v -0.92472175 -0.67704766 0.54464072
v -0.83225900 -0.71584194 -0.46012366
v -0.74420303 -0.37069090 0.94943103
v -0.32055800 -0.68098092 -0.96615485
v -0.27956394 -0.11439583 1.32386525
v -0.65427540 0.26867415 0.11051223
v 5.9260951e-4 0.14925031 -0.63961156
v -0.28359282 -1.03970178 -0.87485710
v 0.28647071 -1.03967188 -0.87353534
v -0.75293011 -1.09743468 -0.37094184
v 0.75382579 -1.09769518 -0.37669669
vn -2.0079600e-17 0.55579896 -0.83131674
vn -3.5909117e-17 0.25501144 -0.96693804
vn 6.0163549e-17 0.71663076 0.69745276
vn -1.9832479e-17 0.98738963 0.15830895
vn 2.0135596e-17 0.93492345 -0.35484947
vn 0.93020708 0.33652009 0.14652310
vn 0.88305492 -3.4575210e-2 -0.46799419
vn 0.60423626 0.27086807 -0.74935241
vn 0.58974022 0.65042131 0.47870512
vn 0.64638382 0.75918538 -7.6325065e-2
vn 0.37998596 -6.7193197e-2 -0.92254850
vn 0.91758006 0.29320162 -0.26847654
vn -0.93020708 0.33652009 0.14652310
vn -0.89442144 -4.2122149e-2 -0.44523704
vn -0.60423626 0.27086807 -0.74935241
vn -0.58974022 0.65042131 0.47870512
vn -0.64638382 0.75918538 -7.6325065e-2
vn -0.37853612 -0.13319810 -0.91595233
vn -0.91758006 0.29320162 -0.26847654
vn -0.57559955 0.61380130 -0.54030837
vn 0.57559955 0.61380130 -0.54030837
vn -0.39360736 -1.2950280e-2 -0.91918743
vn 0.36873879 1.2935869e-2 -0.92944304
vn -0.83978190 0.12843964 -0.52751267
vn 0.85628696 0.15128062 -0.49384897
vn -0.85052056 -8.0888939e-2 0.51968429
vn 8.5929858e-6 -0.94786691 -0.31866647
vn -0.78878194 -0.60452173 0.11124985
vn -0.37438550 -0.10175671 0.92167297
vn 0.86880350 -0.15050402 0.47172982
vn 0.37995865 3.6385603e-2 0.92428757
vn 0.78880855 -0.60449590 0.11120155
vn 3.9641929e-4 -0.71501099 0.69911310
vn 0.39675214 -6.6750706e-2 0.91549554
vn -0.36072254 -9.9963551e-2 0.92730067
vn 0.80654257 -0.22722184 0.54576489
vn -0.83683006 -0.25139267 0.48633031
vn 0.98912441 0.14685004 8.2441913e-3
vn 0.98912441 0.14685004 8.2441913e-3
vn 0.98912441 0.14685004 8.2441913e-3
vn -9.4135612e-2 -0.12419500 0.98778241
vn -8.7778749e-2 -0.83634390 0.54113194
vn 0.98912441 0.14685004 8.2441913e-3
vn 0.83494148 0.24506534 0.49276334
vn 0.83494148 0.24506534 0.49276334
vn 0.83494148 0.24506534 0.49276334
vn -0.24115082 -0.89172388 0.38298146
vn -0.24115082 -0.89172388 0.38298146
vn -0.24115082 -0.89172388 0.38298146
vn -0.24115082 -0.89172388 0.38298146
vn 0.33650325 0.43659755 0.83435493
vn 0.33650325 0.43659755 0.83435493
vn 0.33650325 0.43659755 0.83435493
vn -0.18620314 -0.98188744 3.5006337e-2
vn -0.18620314 -0.98188744 3.5006337e-2
vn -0.99621954 7.3539527e-2 -4.6244567e-2
vn -0.99621954 7.3539527e-2 -4.6244567e-2
vn -0.99621954 7.3539527e-2 -4.6244567e-2
vn -0.99621954 7.3539527e-2 -4.6244567e-2
vn 9.4255018e-2 -0.12422347 0.98776744
vn 0.18109164 -0.83238338 0.52377831
vn 0.18109164 -0.83238338 0.52377831
vn -0.99621954 7.3539527e-2 -4.6244567e-2
vn -0.83494148 0.24506534 0.49276334
vn -0.83494148 0.24506534 0.49276334
vn -0.83494148 0.24506534 0.49276334
vn 0.22221622 -0.88966813 0.39888666
vn 0.22221622 -0.88966813 0.39888666
vn -0.33650325 0.43659755 0.83435493
vn -0.33650325 0.43659755 0.83435493
vn -0.33650325 0.43659755 0.83435493
vn 0.14947391 -0.98381146 9.8856265e-2
vn 0.14947391 -0.98381146 9.8856265e-2
vn 0.14947391 -0.98381146 9.8856265e-2
vn 0.14947391 -0.98381146 9.8856265e-2
vn -0.86802996 0.42429551 -0.25787073
vn -0.86802996 0.42429551 -0.25787073
vn 0.74950707 -0.57902465 0.32088877
vn 9.4255018e-2 -0.12422347 0.98776744
vn 0.74950707 -0.57902465 0.32088877
vn 0.95457927 0.20095778 -0.21998727
vn 0.95457927 0.20095778 -0.21998727
vn -9.4135612e-2 -0.12419500 0.98778241
vn -0.87394937 -0.44980543 0.18408577
vn 0.95457927 0.20095778 -0.21998727
vn -0.68211466 0.54245179 -0.49037296
vn -0.68211466 0.54245179 -0.49037296
vn 0.56060743 -0.67250804 0.48316896
vn 0.56060743 -0.67250804 0.48316896
vn -0.33247003 0.29289674 -0.89647932
vn -0.33247003 0.29289674 -0.89647932
vn 0.30171950 -0.44129522 0.84511766
vn 0.30171950 -0.44129522 0.84511766
vn -0.33247003 0.29289674 -0.89647932
vn 0.30171950 -0.44129522 0.84511766
vn 0.30171950 -0.44129522 0.84511766
vn -0.33247003 0.29289674 -0.89647932
vn 0.32556800 0.23492440 -0.91586899
vn 0.32556800 0.23492440 -0.91586899
vn -0.29139995 -0.38173424 0.87713456
vn -0.29139995 -0.38173424 0.87713456
vn 0.70419569 0.47289837 -0.52959944
vn 0.70419569 0.47289837 -0.52959944
vn -0.67369287 -0.57435182 0.46503538
vn -0.67369287 -0.57435182 0.46503538
vn 0.70419569 0.47289837 -0.52959944
vn -0.67369287 -0.57435182 0.46503538
vn -0.67369287 -0.57435182 0.46503538
vn -0.93750999 -0.32035014 0.13583370
vn -0.93750999 -0.32035014 0.13583370
vn -0.93750999 -0.32035014 0.13583370
vn -9.4135612e-2 -0.12419500 0.98778241
vn -0.93750999 -0.32035014 0.13583370
vn -0.18939224 -0.83314237 0.51961945
vn -0.93750999 -0.32035014 0.13583370
vn -0.18939224 -0.83314237 0.51961945
vn -0.77114807 -0.54498032 -0.32913082
vn -0.77114807 -0.54498032 -0.32913082
vn -0.77114807 -0.54498032 -0.32913082
vn -0.24636084 -0.86710941 0.43292910
vn -0.24636084 -0.86710941 0.43292910
vn -0.36000921 -0.70613056 -0.60973191
vn -0.36000921 -0.70613056 -0.60973191
vn -0.14556985 -0.98367312 0.10581406
vn -0.14556985 -0.98367312 0.10581406
vn -0.14556985 -0.98367312 0.10581406
vn -0.14556985 -0.98367312 0.10581406
vn 0.97316115 -0.20755234 9.9395209e-2
vn 0.97316115 -0.20755234 9.9395209e-2
vn 0.97316115 -0.20755234 9.9395209e-2
vn 0.97316115 -0.20755234 9.9395209e-2
vn 9.4255018e-2 -0.12422347 0.98776744
vn 8.9902305e-2 -0.81303335 0.57523417
vn 0.77114594 -0.54498231 -0.32913254
vn 0.77114594 -0.54498231 -0.32913254
vn 0.77114594 -0.54498231 -0.32913254
vn 0.24132401 -0.89341807 0.37890220
vn 0.24132401 -0.89341807 0.37890220
vn 0.24132401 -0.89341807 0.37890220
vn 0.24132401 -0.89341807 0.37890220
vn 0.36000921 -0.70613056 -0.60973191
vn 0.36000921 -0.70613056 -0.60973191
vn 0.21034504 -0.97667825 4.3064549e-2
vn 0.21034504 -0.97667825 4.3064549e-2
g helmet_06_default
usemtl default
s 1
f 6//41 38//112 33//83
f 31//79 45//132 16//60
s 2
f 9//49 38//116 6//42
f 14//54 44//126 9//50
f 16//62 47//140 19//68
f 19//67 47//139 24//75
f 24//74 44//127 14//55
f 38//114 9//48 40//121
f 40//120 9//47 44//125
f 44//124 24//73 49//144
f 47//137 16//61 45//133
f 49//143 24//72 47//138
s 3
f 33//84 38//115 37//107
f 34//88 54//36 31//80
f 35//96 54//36 34//89
f 36//100 53//35 35//95
f 37//108 53//35 36//101
f 38//111 42//28 39//26
f 39//26 42//28 51//33
f 39//26 53//35 55//37
f 39//26 55//37 38//110
f 40//118 41//27 42//28
f 40//117 42//28 38//109
f 40//119 44//123 41//27
f 41//27 49//142 47//136
f 41//27 50//32 51//33
f 43//29 53//35 39//26
f 44//122 49//141 41//27
f 45//131 31//78 54//36
f 45//128 50//32 47//134
f 45//129 54//36 46//30
f 46//30 48//31 51//33
f 46//30 50//32 45//130
f 46//30 54//36 48//31
f 48//31 53//35 43//29
f 48//31 54//36 52//34
f 50//32 41//27 47//135
f 51//33 42//28 41//27
f 51//33 43//29 39//26
f 51//33 48//31 43//29
f 51//33 50//32 46//30
f 52//34 35//92 53//35
f 52//34 53//35 48//31
f 53//35 37//105 55//37
f 54//36 35//93 52//34
f 55//37 37//104 38//113
s 4
f 1//1 10//8 2//2
f 1//1 26//20 5//5
f 1//1 27//21 10//8
f 2//2 20//15 1//1
f 3//3 11//9 4//4
f 3//3 24//69 14//51
f 4//4 12//10 5//5
f 4//4 21//16 3//3
f 5//5 22//17 4//4
f 5//5 27//21 1//1
f 6//40 15//12 7//6
f 6//43 33//85 8//7
f 7//6 9//44 6//38
f 7//6 11//9 9//45
f 7//6 12//10 11//9
f 7//6 15//12 12//10
f 8//7 13//11 10//8
f 8//7 15//12 6//39
f 8//7 29//23 13//11
f 8//7 33//81 32//25
f 10//8 15//12 8//7
f 11//9 3//3 14//52
f 11//9 14//53 9//46
f 12//10 4//4 11//9
f 12//10 27//21 5//5
f 13//11 2//2 10//8
f 13//11 23//18 2//2
f 13//11 29//23 23//18
f 15//12 10//8 27//21
f 15//12 27//21 12//10
f 16//56 19//64 17//13
f 16//58 25//19 18//14
f 16//57 30//24 31//76
f 17//13 25//19 16//59
f 18//14 25//19 20//15
f 18//14 30//24 16//63
f 19//65 21//16 17//13
f 19//66 24//71 21//16
f 20//15 2//2 23//18
f 20//15 23//18 18//14
f 20//15 26//20 1//1
f 21//16 4//4 22//17
f 21//16 22//17 17//13
f 22//17 5//5 26//20
f 22//17 25//19 17//13
f 23//18 29//23 28//22
f 23//18 30//24 18//14
f 24//70 3//3 21//16
f 25//19 26//20 20//15
f 26//20 25//19 22//17
f 28//22 30//24 23//18
f 28//22 35//94 30//24
f 29//23 35//97 28//22
f 30//24 34//87 31//77
f 32//25 29//23 8//7
f 32//25 37//106 29//23
f 33//82 37//103 32//25
f 34//86 30//24 35//90
f 35//91 29//23 36//98
f 36//99 29//23 37//102
